<svg width="77" height="85" viewBox="0 0 77 85" xmlns="http://www.w3.org/2000/svg" xmlns:xlink="http://www.w3.org/1999/xlink"><title>Icon-Make a Payment</title><defs><path id="a" d="M0 0L77 0 77 85 0 85z"/></defs><g fill="none" fill-rule="evenodd"><g><mask id="b" fill="#fff"><use xlink:href="#a"/></mask><path d="M73.2720541,57.7745194 C73.244439,57.9683936 73.2168239,58.1530357 73.1800038,58.34691 L73.1523887,58.5315521 C72.7933925,61.4581297 71.0628465,64.0708157 68.5222576,65.5387205 L66.4603305,66.7296622 C51.4101033,75.3986098 43.7239016,79.8207885 42.9782941,80.2454654 C42.6192978,80.4116433 42.2879167,80.5501249 41.9105104,80.6886065 C41.0176223,81.0024981 40.069504,81.1963723 39.0937706,81.251765 L38.4310083,81.2609971 L38.0351919,81.251765 C36.9489981,81.1963723 35.9824698,81.0024981 35.0803767,80.6793744 C34.7121754,80.5501249 34.3623842,80.4024112 34.0033879,80.2270012 C33.7732621,80.125448 33.5523414,80.0054307 33.3682407,79.9038775 L8.4778344,65.5387205 C5.93724559,64.0708157 4.20669959,61.4581297 3.85690838,58.5315521 L3.83849831,58.3930705 C3.79247315,58.1899642 3.76485806,57.9776257 3.73724296,57.7652873 L3.72803793,27.8532638 L3.76485806,27.7517107 C3.80167818,27.6316933 3.82929328,27.4932117 3.83849831,27.3639622 C3.85690838,27.1516238 3.87531844,26.9762138 3.90293354,26.8008037 C3.91213857,26.7638753 3.91213857,26.7084827 3.9213436,26.6623221 C4.11464927,25.4159878 4.51967068,24.2619746 5.12720278,23.1910503 L5.21004807,23.0525687 C5.25607323,22.9602476 5.30209839,22.8863908 5.34812355,22.8033018 L5.34812355,22.7940697 L5.46778896,22.6278918 C6.342267,21.2800043 7.54812618,20.1352232 8.938086,19.33203 L33.8284923,4.98533724 C35.2184521,4.19137613 36.7925126,3.75746714 38.3849831,3.73900293 L38.5506737,3.73900293 C40.2075794,3.75746714 41.7816399,4.18214402 43.1439846,4.96687303 L43.4937758,5.16997936 C43.8711822,5.3823178 67.8594953,19.2120126 68.0620061,19.3227979 C69.4611709,20.1352232 70.64862,21.2615401 71.504688,22.5632671 L71.6979937,22.8771587 C71.7440188,22.9510155 71.7716339,22.9971761 71.799249,23.0525687 L71.8544792,23.1448898 C72.5080365,24.298903 72.9130579,25.4806126 73.0879535,26.7084827 C73.1247736,26.9669816 73.1523887,27.170088 73.1707988,27.3731943 C73.1800038,27.4932117 73.2076189,27.6224612 73.244439,27.7424785 L73.2720541,27.9363528 L73.2720541,57.7745194 Z M76.8804266,26.8931248 L76.8620166,26.7915716 C76.8436065,26.6253937 76.8251964,26.4684479 76.7975813,26.30227 C76.5490455,24.5481699 75.9967436,22.9233192 75.1498806,21.3907896 C75.1038555,21.3169328 75.0670353,21.2430759 75.0302152,21.1784512 C74.96578,21.0676659 74.9105498,20.984577 74.8553196,20.8922559 L74.7264492,20.6799175 L75.241931,20.20908 L74.6620139,20.5875964 C73.4653598,18.7411752 71.8268641,17.1901814 69.9214225,16.0823287 C58.7004886,9.61985446 45.5372929,2.03106332 45.3623973,1.93874226 L45.0218111,1.73563593 C43.1071645,0.637015314 40.9163669,0.036928424 38.6795441,0.00923210601 C38.6059039,0 38.5414687,0 38.4862385,0 L38.357368,0 C36.1021352,0.036928424 33.9021326,0.637015314 31.9690759,1.74486804 L7.07866955,16.0915608 C5.18243297,17.1901814 3.55314232,18.722711 2.38410327,20.5229717 C2.30125798,20.642989 2.23682276,20.7445422 2.17238753,20.8553275 C2.09874728,20.9753448 2.04351709,21.0676659 1.9882869,21.1692191 C1.9330567,21.252308 1.89623658,21.3169328 1.85941645,21.3815575 C1.01255351,22.9140871 0.460251596,24.5389378 0.211715734,26.2284132 L0.202510702,26.3484305 C0.174895607,26.5238406 0.165690575,26.65309 0.147280511,26.7915716 L0.128870447,26.8931248 C0.0460251596,27.2254806 0,27.5578364 0,27.8901922 L0,57.8206799 C0,57.8945368 0.00920503192,57.9591615 0.00920503192,58.0237862 C0.0460251596,58.3376779 0.0920503192,58.6700337 0.165690575,59.0208537 C0.681172362,63.1199088 3.09289073,66.7481264 6.61841795,68.7791897 L31.5272343,83.1535788 C31.8033853,83.3105246 32.0979463,83.4582383 32.3833023,83.5967199 C32.871169,83.8367546 33.3406256,84.0306289 33.8469024,84.2060389 C35.0803767,84.64918 36.3966962,84.9076789 37.777451,84.9815358 C37.8510913,84.9907679 37.9431416,84.9907679 38.0351919,84.9907679 L38.624314,85 C38.6795441,85 38.7347743,84.9907679 38.7992096,84.9907679 L38.9649001,84.9907679 C39.0569505,84.9907679 39.1490008,84.9907679 39.2778712,84.9815358 C40.6218059,84.9076789 41.9289204,84.64918 43.1439846,84.215271 C43.6686715,84.0306289 44.1565381,83.8275225 44.6075847,83.605952 C44.7732753,83.522863 46.6603068,82.4519387 68.3197469,69.9701314 L70.3816741,68.7791897 C73.9164064,66.7481264 76.3281247,63.1106767 76.8436065,59.04855 C76.8988367,58.7069621 76.9540669,58.3653742 76.990887,57.9868578 C77.0000921,57.9314652 77.0000921,57.8668404 77.0000921,57.8114478 L77.0000921,27.8901922 C77.0000921,27.5486043 76.9540669,27.2162485 76.8804266,26.8931248 L76.8804266,26.8931248 Z" fill="#3AC1CC" mask="url(#b)"/></g><path d="M64.299978,48 L64.2695975,44.7972851 C64.7078134,44.7925918 65.1156488,44.622694 65.4176127,44.3185675 C65.7057672,44.0294595 65.8622729,43.6483628 65.8585904,43.2494314 L65.6947198,26.7008195 C65.6864342,25.8710423 64.9775555,25.2027149 64.1112505,25.2027149 L64.0956,25.2027149 L17.0932617,25.65515 C16.8272021,25.657966 16.5804755,25.7602802 16.399113,25.9433193 C16.3015271,26.0409401 16.1385771,26.2521391 16.1413389,26.5618975 L16.2831147,40.8351926 L13.1419536,40.8680458 L13,26.5947507 C12.990051,25.4899455 13.4126164,24.4489693 14.1914623,23.6642478 C14.9574195,22.8936063 15.9765477,22.4636991 17.0628812,22.4524351 L64.0661401,22 L64.1112505,22 C66.6954355,22 68.8101034,24.0838297 68.8358808,26.6670277 L69,43.2165782 C69.0126402,44.4922199 68.5237901,45.6927687 67.6243427,46.5985776 C66.7387047,47.4893678 65.5584678,47.9868587 64.299978,48" fill="#3AC1CC"/><path d="M39.4174416 27.0004079C34.7229693 27.0454528 30.9549644 30.8104591 31.0004067 35.4097352 31.0217368 37.5718923 31.8823592 39.5332241 33.2762335 41L38.664397 40.9352479 38.664397 40.8629883 38.3463006 40.7700831C36.8773073 40.3487252 35.9211633 39.2676467 35.9100346 38.0129574 35.9100346 37.4930637 36.3347814 37.0651368 36.8652512 37.0651368L36.871743 37.0651368C37.3966484 37.0651368 37.8269596 37.4818025 37.8334513 37.9960655 37.8390157 38.5685116 38.6708888 39.0649444 39.620541 39.0649444 40.576685 39.0649444 41.4141225 38.5619426 41.4141225 37.9904349 41.4141225 37.6319523 41.0422372 37.2556393 40.4876551 37.0595061 40.4227375 37.0360452 40.3578198 37.0078921 40.299394 36.97317L37.60253 35.3140147 37.5728534 35.301815C36.5350987 34.7584604 35.9100346 33.8341007 35.9100346 32.828097 35.9100346 31.5621465 36.8652512 30.4754373 38.3463006 30.0540795L38.664397 29.9611743 38.664397 29.463803C38.664397 28.9439094 39.0956356 28.521613 39.620541 28.521613 40.1510108 28.521613 40.5822494 28.9439094 40.5822494 29.463803L40.5822494 29.9611743 40.9003458 30.0540795C42.3813952 30.4754373 43.3375392 31.5621465 43.3375392 32.828097 43.3375392 33.3489292 42.9063006 33.770287 42.3758308 33.770287 41.8444336 33.770287 41.4141225 33.3489292 41.4141225 32.828097 41.4141225 32.2903731 40.647167 31.7995709 39.691023 31.7648488L39.6270328 31.7704794 39.5435673 31.7648488 39.5083263 31.7648488C38.5994794 31.7995709 37.8334513 32.2903731 37.8334513 32.828097 37.8334513 33.1349657 38.0810657 33.4408959 38.5058125 33.6548594 38.5289974 33.6661206 38.5531097 33.6783203 38.5762945 33.6952121L41.2017491 35.3083841 41.2722311 35.3431062C42.528851 35.8282778 43.3375392 36.8746342 43.3375392 37.9904349 43.3375392 39.262016 42.3813952 40.3487252 40.9003458 40.7700831L40.5822494 40.8629883 40.5822494 40.911787 45.8656173 40.8479733C47.2121945 39.358675 48.0218101 37.3935894 47.9995527 35.2473857 47.9541103 30.6471712 44.1119138 26.9553629 39.4174416 27.0004079M55.6447713 28.4344522C55.2541432 28.6766292 55.0274714 29.0970485 55.0023852 29.5387793 54.9871543 29.805174 55.0444942 30.0783497 55.1851561 30.3244016 55.4172036 30.7331964 55.8185829 30.9714985 56.2396728 30.9976537 56.4941187 31.013153 56.7548361 30.9521244 56.9904672 30.8068182L66 25.2086544C65.4525831 24.4792172 64.8872474 23.7604358 64.3917948 23L55.6447713 28.4344522zM66.5398716 27.1514477L54.5985044 34.681069C54.2093839 34.9260579 54 35.325167 54 35.7314031 54 35.976392 54.0759711 36.2240535 54.2343988 36.4423163 54.4984448 36.8048998 54.9274039 37 55.3637747 37 55.6268943 37 55.8918669 36.9287305 56.1271921 36.7808463L68 29.2948775C67.7850572 28.4334076 67.3875984 27.685078 66.8882271 27 66.7677851 27.0356347 66.6501224 27.0819599 66.5398716 27.1514477" fill="#3AC1CC"/><path d="M12.1509682,42.6097025 L12.3414559,61.5064719 C12.3432963,61.6991737 12.4997355,61.8540728 12.6911434,61.8540728 L12.6939041,61.8540728 L60.663675,61.3995177 C60.9958782,61.3967517 61.3041554,61.2704351 61.5323725,61.0454626 C61.7467862,60.8333983 61.8627352,60.5567928 61.8600227,60.2654349 L61.6814498,42.5709777 C61.6796094,42.334941 61.4587541,42.1459272 61.1891266,42.1459272 L61.1836052,42.1459272 L12.1509682,42.6097025 Z M12.6911434,65 C10.7835058,65 9.22095454,63.453775 9.2016297,61.5387425 L9,41.5530693 C8.98905647,40.4180645 9.90100481,39.4859038 11.0328882,39.4748395 L61.1541578,39 L61.1900468,39 C63.175904,39 64.8010309,40.5803397 64.821276,42.538707 L65,60.2340863 C65.0108435,61.3847654 64.5626912,62.4681372 63.7381648,63.2841236 C62.9265216,64.0862797 61.8452508,64.5343807 60.6931224,64.5454449 L12.7242717,65 L12.6911434,65 Z" fill="#3AC1CC"/><path d="M34.5049123 50.3926863C34.5290246 50.4035039 34.5522095 50.415223 34.5753944 50.4314494L37.2008527 51.9810692 37.2722622 52.0144235C38.5288838 52.4804813 39.3366458 53.4856158 39.3366458 54.5574587 39.3366458 55.778945 38.3814279 56.8228425 36.9003764 57.2276006L36.5813521 57.3168458 36.5813521 57.8054403C36.5813521 58.3048524 36.1510403 58.710512 35.6196424 58.710512 35.0947362 58.710512 34.6644244 58.3048524 34.6644244 57.8054403L34.6644244 57.3168458 34.3463276 57.2276006C32.8764048 56.8228425 31.9211869 55.7843538 31.9091307 54.5790939 31.9091307 54.0796818 32.3338781 53.6686133 32.8652761 53.6686133L32.8708404 53.6686133C33.3957466 53.6686133 33.8260584 54.0688642 33.8325502 54.5628675 33.8381145 55.1127617 34.6699888 55.5896371 35.6196424 55.5896371 36.5757877 55.5896371 37.4132264 55.1064514 37.4132264 54.5574587 37.4132264 54.2130987 37.042268 53.8516109 36.4876851 53.6632045 36.4227674 53.6406679 36.3578497 53.6136239 36.2984963 53.5802697L33.6025559 51.986478 33.5728793 51.974759C32.5341957 51.4528102 31.9091307 50.5648663 31.9091307 49.5984949 31.9091307 48.3824174 32.8652761 47.3385199 34.3463276 46.9337618L34.6644244 46.8445166 34.6644244 46.3667397C34.6644244 45.8673276 35.0947362 45.461668 35.6196424 45.461668 36.1510403 45.461668 36.5813521 45.8673276 36.5813521 46.3667397L36.5813521 46.8445166 36.9003764 46.9337618C38.3814279 47.3385199 39.3366458 48.3824174 39.3366458 49.5984949 39.3366458 50.0988085 38.906334 50.5035666 38.3749361 50.5035666 37.8444656 50.5035666 37.4132264 50.0988085 37.4132264 49.5984949 37.4132264 49.0819549 36.6462698 48.6104883 35.6910519 48.5771341L35.6261342 48.5825429 35.5435959 48.5771341 35.5083549 48.5771341C34.5995067 48.6104883 33.8325502 49.0819549 33.8325502 49.5984949 33.8325502 49.8932742 34.0801649 50.1871521 34.5049123 50.3926863M35.4165426 44.0003918C30.7229911 44.0436622 26.9540535 47.6603433 27.0004233 52.0784275 27.0458657 56.4965118 30.888995 60.0428786 35.5825465 59.9996082 40.2770254 59.9572393 44.0450357 56.3405582 43.9995933 51.9224739 43.9532235 47.5034882 40.1110215 43.9571214 35.4165426 44.0003918M51.6447713 44.434434C51.2541432 44.6766102 51.0274714 45.097028 51.0023852 45.5387574 50.9871543 45.8051513 51.0444942 46.078326 51.1851561 46.324377 51.4172036 46.7331705 51.8185829 46.9714718 52.2396728 46.9976269 52.4941187 47.0131261 52.7548361 46.9530664 52.9904672 46.806792L62 41.208647C61.4525831 40.4792122 60.8872474 39.7604333 60.3917948 39L51.6447713 44.434434zM62.5398716 43.1514477L50.5985044 50.681069C50.2093839 50.9260579 50 51.325167 50 51.7314031 50 51.976392 50.0759711 52.2240535 50.2343988 52.4423163 50.4984448 52.8048998 50.9274039 53 51.3637747 53 51.6268943 53 51.8918669 52.9287305 52.1271921 52.7808463L64 45.2948775C63.7850572 44.4334076 63.3875984 43.685078 62.8882271 43 62.7677851 43.0356347 62.6501224 43.0819599 62.5398716 43.1514477" fill="#3AC1CC"/></g></svg>