<svg xmlns="http://www.w3.org/2000/svg" viewBox="0 0 83.64 100.1"><defs><style>.cls-1{fill:#59c5c7}</style></defs><g id="Layer_2" data-name="Layer 2"><g id="Layer_1-2" data-name="Layer 1"><path class="cls-1" d="M83.51,37.16l0-.11c0-.2,0-.4-.07-.61a15.1,15.1,0,0,0-1.78-5.23A1.7,1.7,0,0,0,81.5,31l-.19-.31-.21-.34A15.39,15.39,0,0,0,76,25.45L61.36,17.07l0-.36a19.45,19.45,0,0,0-38.46-.29l-.06.36L7.69,25.46a15.17,15.17,0,0,0-5.11,4.8c-.09.13-.16.24-.23.36s-.14.23-.2.34-.09.16-.13.23a14.88,14.88,0,0,0-1.78,5.2c0,.23-.06.44-.08.66l0,.11A4,4,0,0,0,0,38.24V70.66a1.48,1.48,0,0,0,0,.21c0,.35.09.71.16,1.09a14.27,14.27,0,0,0,7,10.57L34.25,98.1q.45.25.93.48a13.53,13.53,0,0,0,1.58.66,15.06,15.06,0,0,0,4.28.84h1.62a15.13,15.13,0,0,0,4.21-.83c.55-.2,1.09-.42,1.59-.66.17-.09,2.22-1.25,25.67-14.73l2.33-1.33a14.29,14.29,0,0,0,7-10.54c.07-.37.13-.75.17-1.17V38.24A4.32,4.32,0,0,0,83.51,37.16ZM42.06,4.05a15.4,15.4,0,1,1-15.4,15.4A15.42,15.42,0,0,1,42.06,4.05ZM19,84.66,9.2,79a10.19,10.19,0,0,1-5-7.59l0-.15c0-.22-.08-.45-.11-.68V38.2l0-.11a2,2,0,0,0,.08-.42c0-.25,0-.44.08-.66a11.13,11.13,0,0,1,1.32-3.86L5.65,33l.17-.28.11-.18A11.14,11.14,0,0,1,9.71,29l13-7.46.17,1.07A19.55,19.55,0,0,0,39.55,38.73l.91.12-.3.87a2.14,2.14,0,0,0-.13.67V49L38.76,47.7c-3.62-3.6-11.33-9.34-22.29-7.38a2,2,0,0,0-1.67,2c.13,5.15,2.91,9.61,7.83,12.57a23.78,23.78,0,0,0,16.49,2.76l.91-.21v3.88H16.31a2,2,0,0,0-2,2V75.64a2,2,0,0,0,2,2H19ZM66.39,65.41v8.2H18.33v-8.2ZM38.6,53.72l-1.25.21a16.31,16.31,0,0,1-2.73.22,19.77,19.77,0,0,1-9.9-2.69A11.88,11.88,0,0,1,19.27,45L19,44,20,44c9.13-.45,15.11,5.29,17.86,8.75ZM61.67,86.36l-.38.21c-9.08,5.22-14,8-14.61,8.38l0,0a11.83,11.83,0,0,1-1.12.46,11.16,11.16,0,0,1-3.06.61H41.32a11.23,11.23,0,0,1-3.22-.62,11.64,11.64,0,0,1-1.17-.49c-.25-.11-.49-.24-.69-.35L23.05,87v-9.2H61.67ZM79.59,70.6a6.17,6.17,0,0,1-.1.62l0,.21a10.18,10.18,0,0,1-5,7.59l-.31.17-.53.31L65.71,84V77.66h2.7a2,2,0,0,0,2-2V63.38a2,2,0,0,0-2-2H44.08V57.62l.9.18a23.75,23.75,0,0,0,16-2.87c4.93-3,7.71-7.43,7.84-12.57a2,2,0,0,0-1.67-2c-10.61-1.9-18.18,3.48-21.75,6.86l-1.27,1.19v-8a2.11,2.11,0,0,0-.12-.67l-.31-.87.92-.12A19.57,19.57,0,0,0,61.21,22.81l.19-1L73.93,29a11.28,11.28,0,0,1,3.75,3.51l.2.33c.06.1.09.14.12.2l.06.1A11.34,11.34,0,0,1,79.41,37c0,.23,0,.46.07.68a2.83,2.83,0,0,0,.08.4l0,.21ZM45,53.72l.79-1c2.75-3.46,8.74-9.19,17.86-8.75l1,.05-.28.92a11.86,11.86,0,0,1-5.44,6.51A19.79,19.79,0,0,1,49,54.15a16.23,16.23,0,0,1-2.73-.22Z"/><path class="cls-1" d="M48.41,23.62c0,2.2-1.62,4.08-4.13,4.81l-.54.16v.88a1.63,1.63,0,1,1-3.25,0v-.88L40,28.43c-2.49-.73-4.11-2.6-4.13-4.77A1.63,1.63,0,0,1,37.44,22h0a1.63,1.63,0,0,1,1.63,1.61c0,1,1.42,1.85,3,1.85s3-.87,3-1.86c0-.62-.63-1.27-1.57-1.61a1.87,1.87,0,0,1-.32-.15L38.69,19l0,0a4.94,4.94,0,0,1-2.82-4.28c0-2.19,1.62-4.07,4.13-4.8l.54-.16V8.87a1.63,1.63,0,1,1,3.25,0v.86l.54.16c2.51.73,4.13,2.61,4.13,4.8a1.63,1.63,0,1,1-3.26,0c0-.93-1.3-1.78-2.92-1.84h-.31c-1.54.06-2.84.91-2.84,1.84a1.78,1.78,0,0,0,1.14,1.43l.12.07L44.79,19l.12.06A5.13,5.13,0,0,1,48.41,23.62Z"/></g></g></svg>