<svg xmlns="http://www.w3.org/2000/svg" viewBox="0 0 93.34 99.25"><defs><style>.cls-1{fill:#59c5c7}</style></defs><g id="Layer_2" data-name="Layer 2"><g id="Layer_1-2" data-name="Layer 1"><path class="cls-1" d="M93.21,35.57l0-.1c0-.2,0-.4-.07-.62a15.15,15.15,0,0,0-1.78-5.24l-.13-.22-.2-.33-.15-.24.57-.5-.62.41a15.33,15.33,0,0,0-5.16-4.87L62.82,10.74l2.59-8.1A2,2,0,0,0,63.48,0H39.37a2,2,0,0,0-1.65.85,2.07,2.07,0,0,0-.26,1.85l2.81,8L17.39,23.87a15,15,0,0,0-5.1,4.8,3.21,3.21,0,0,0-.24.36l-.19.33-.14.24a14.88,14.88,0,0,0-1.78,5.2c0,.23-.06.45-.08.66l0,.11a4.45,4.45,0,0,0-.14,1.08v20.2H2.21a2,2,0,1,0,0,4H14.12V84.7l-.06.14a2.06,2.06,0,0,0,0,1.59l.06.14V88H2a2,2,0,0,0,0,4H16.14a2,2,0,0,0,2-2V87.66h10.4L44,96.51q.45.26.93.48a13.53,13.53,0,0,0,1.58.66,15.06,15.06,0,0,0,4.28.84H51l.14.75,0-.75h1.16a15.13,15.13,0,0,0,4.21-.83A15.3,15.3,0,0,0,58.15,97c.18-.08,2.23-1.25,25.77-14.77l2.23-1.29a14.29,14.29,0,0,0,6.73-9l0-.11a1.89,1.89,0,0,0,.14-.66c0-.34.09-.58.12-.82s.13-.74.17-1.17V36.65A4.32,4.32,0,0,0,93.21,35.57ZM60.71,4.05,56.33,17.7H47L42.23,4.05ZM59,21.75v3.47H44.49V21.75ZM88.84,71.38a10.28,10.28,0,0,1-4.7,6.05l-.31.17L81.9,78.71c-16.6,9.55-24.71,14.2-25.52,14.65a11.79,11.79,0,0,1-1.16.48,11.16,11.16,0,0,1-3.06.61H51a11.09,11.09,0,0,1-3.21-.62,10.89,10.89,0,0,1-1.18-.49c-.24-.11-.49-.24-.69-.35L30.12,83.88a2,2,0,0,0-1-.27H18.17V64.88H32.28l12.2,5.78a2,2,0,0,0,.87.2H58.13A2.89,2.89,0,0,1,61,73.75v.93A2.31,2.31,0,0,1,58.71,77H39.81a2,2,0,0,0,0,4h18.9a6.29,6.29,0,0,0,4-1.39l.2-.16h.24a2,2,0,0,0,.75-.16l21.68-9.57a2.6,2.6,0,0,1,3.22,1.05l.17.28ZM89.3,66l-1-.27a6.54,6.54,0,0,0-4.43.31L65.12,74.33l-.07-1.07a7,7,0,0,0-6.92-6.45H45.8L33.6,61a2,2,0,0,0-.86-.2H18.17V58.88a2,2,0,0,0-2-2H13.75l0-20.35a1.86,1.86,0,0,0,.08-.41c0-.25,0-.44.08-.67a11,11,0,0,1,1.33-3.86l.09-.16.16-.28.11-.18a11.3,11.3,0,0,1,3.78-3.56L41.64,14.6l1,3-.77.22a2,2,0,0,0-1.47,1.93V27l-.48.19A25.88,25.88,0,0,0,23.19,51.36v4.2a2,2,0,0,0,4,0v-4.2a21.73,21.73,0,0,1,21.7-21.71h5A21.74,21.74,0,0,1,75.62,51.36V63.08a2,2,0,0,0,4,0V51.36A25.67,25.67,0,0,0,63.54,27.48l-.46-.19V19.72a2,2,0,0,0-1.63-2l-.82-.17.92-2.88L83.63,27.37a11.18,11.18,0,0,1,3.75,3.51l.2.34.11.18.07.12a11,11,0,0,1,1.35,3.89c0,.23,0,.45.08.68a1.87,1.87,0,0,0,.07.4l0,.21Z"/><path class="cls-1" d="M59.54,53.46c0,2.61-1.91,4.86-4.87,5.73l-.54.15v2.27a2,2,0,0,1-4,0V59.34l-.54-.16c-2.94-.86-4.84-3.09-4.87-5.68a2,2,0,0,1,4,0c0,1,1.4,2,3.38,2s3.38-1.08,3.38-2c0-.69-.7-1.4-1.74-1.77a1.79,1.79,0,0,1-.39-.2l-5.3-3.34,0,0A5.88,5.88,0,0,1,44.68,43c0-2.61,1.91-4.86,4.87-5.73l.54-.16V34.9a2,2,0,0,1,4,0v2.23l.54.16c3,.87,4.87,3.12,4.87,5.73a2,2,0,0,1-4,0c0-1-1.45-2.05-3.38-2.05S48.73,42.05,48.73,43A2,2,0,0,0,50,44.58l.16.09,5.15,3.26.12.06A6.13,6.13,0,0,1,59.54,53.46Z"/></g></g></svg>