<?xml version="1.0" encoding="UTF-8"?><svg id="Layer_1" xmlns="http://www.w3.org/2000/svg" viewBox="0 0 84 100"><defs><style>.cls-1{fill:#3dc0cb;}.cls-2{stroke-linecap:round;}.cls-2,.cls-3{fill:none;stroke:#3dc0cb;stroke-linejoin:round;stroke-width:2px;}</style></defs><path class="cls-1" d="M83.43,33.35v-.1c0-.2,0-.3-.1-.5-.3-1.9-.9-3.6-1.8-5.3,0-.1-.1-.2-.1-.2-.1-.1-.1-.2-.2-.3l-.1-.2-.1-.1c-1.3-2-3.1-3.7-5.1-4.8-12.1-7-26.3-15.1-26.5-15.2l-.4-.2c-2.1-1.2-4.4-1.8-6.8-1.9h-.3c-2.4,0-4.8,.7-6.9,1.9L8.13,21.85c-2,1.2-3.8,2.8-5.1,4.8-.1,.1-.2,.2-.2,.4-.1,.1-.1,.2-.2,.3-.1,.1-.1,.2-.1,.2-.9,1.6-1.5,3.4-1.8,5.2v.1c0,.2,0,.3-.1,.5v.1c-.1,.4-.1,.7-.1,1.1v32.3c0,.3,.1,.7,.2,1.1,.6,4.4,3.2,8.3,7,10.5l26.9,15.5c.3,.2,.6,.3,.9,.5,.5,.3,1,.5,1.6,.7,1.3,.5,2.8,.8,4.2,.8h1.6c1.5-.1,2.9-.4,4.2-.8,.6-.2,1.1-.4,1.6-.7,.2-.1,2.2-1.2,25.6-14.7l2.2-1.3c3.8-2.2,6.4-6.1,7-10.5,.1-.4,.1-.7,.2-1.1V34.45c-.2-.4-.2-.8-.3-1.1Zm-3.9,33.2c0,.2-.1,.4-.1,.6v.2c-.4,3.1-2.3,6-5,7.5l-2.2,1.3c-16.2,9.3-24.5,14.1-25.3,14.5-.4,.2-.7,.3-1.2,.5-1,.3-2,.5-3,.6h-1.1c-1.2-.1-2.2-.3-3.2-.6-.4-.1-.8-.3-1.2-.5-.2-.1-.5-.2-.7-.3l-26.9-15.5c-2.7-1.6-4.6-4.4-5-7.5v-.1c0-.2-.1-.4-.1-.7V34.25c0-.1,.1-.3,.1-.4,0-.2,0-.4,.1-.6v-.1c.2-1.3,.6-2.6,1.3-3.7l.1-.1c0-.1,.1-.2,.1-.3h0l.1-.2c.9-1.5,2.2-2.7,3.7-3.5l26.9-15.4c1.5-.9,3.2-1.3,4.9-1.3h.2c1.8,0,3.5,.5,5,1.3l.4,.2c.4,.2,26.3,15.1,26.5,15.2,1.5,.9,2.8,2.1,3.7,3.5l.2,.3c0,.1,.1,.1,.1,.2l.1,.1c.7,1.2,1.1,2.5,1.3,3.8,0,.3,.1,.5,.1,.7,0,.1,0,.3,.1,.4v32.2h0Z"/><g><circle class="cls-2" cx="42.84" cy="21.41" r="1.1"/><path class="cls-3" d="M42.84,15.93c3.03,0,5.49,2.46,5.49,5.49v1.1h2.19c1.21,0,2.19,.98,2.19,2.19v2.19c0,1.21-.98,2.19-2.19,2.19h-15.36c-1.21,0-2.19-.98-2.19-2.19v-2.19c0-1.21,.98-2.19,2.19-2.19h2.19v-1.1c0-3.03,2.46-5.49,5.49-5.49"/><path class="cls-3" d="M25.29,66.4s-14.26-5.44-14.26-17.55v-13.17s6.38-4.39,14.26-4.39,14.26,4.39,14.26,4.39v13.17c0,12.12-14.26,17.55-14.26,17.55Z"/><path class="cls-3" d="M32.97,24.71h-5.49c-1.82,0-3.29,1.47-3.29,3.29v3.33"/><path class="cls-3" d="M24.19,65.92v1.58c0,1.82,1.47,3.29,3.29,3.29h30.72c1.82,0,3.29-1.47,3.29-3.29V28c0-1.82-1.47-3.29-3.29-3.29h-5.49"/><polygon class="cls-3" points="32.97 44.45 27.48 44.45 27.48 38.97 23.1 38.97 23.1 44.45 17.61 44.45 17.61 48.84 23.1 48.84 23.1 54.33 27.48 54.33 27.48 48.84 32.97 48.84 32.97 44.45"/><line class="cls-2" x1="54.91" y1="37.87" x2="39.55" y2="37.87"/><line class="cls-2" x1="54.91" y1="44.45" x2="39.55" y2="44.45"/><line class="cls-2" x1="46.14" y1="64.2" x2="54.91" y2="64.2"/><line class="cls-2" x1="54.91" y1="51.04" x2="39.39" y2="51.04"/><line class="cls-2" x1="36.72" y1="57.62" x2="54.91" y2="57.62"/></g><path class="cls-1" d="M68.13,75.89c0,.98-.81,1.79-1.8,1.79H17.93c-.99,0-1.79-.81-1.79-1.79s.8-1.8,1.79-1.8h48.41c.99,0,1.8,.81,1.8,1.8Z"/></svg>