<?xml version="1.0" encoding="UTF-8"?><svg id="Layer_1" xmlns="http://www.w3.org/2000/svg" viewBox="0 0 84 100"><defs><style>.cls-1{fill:#5ac5cb;}</style></defs><path class="cls-1" d="M82.51,34.65h0c0-.3-.1-.5-.1-.7-.3-1.8-.8-3.5-1.8-5.2,0-.1-.1-.2-.1-.2-.1-.1-.1-.2-.2-.3l-.1-.2,.6-.5-.6,.4c-1.3-2-3-3.6-5.1-4.8l-7.6-4.4V6.75c0-1.1-.9-2-2-2H17.51c-1.1,0-2,.9-2,2v11.9l-7.7,4.4c-2,1.2-3.8,2.8-5,4.7-.1,.1-.2,.2-.2,.4-.1,.1-.1,.2-.2,.3q-.2,.2-.2,.3c-.9,1.6-1.5,3.4-1.8,5.1,0,.2-.1,.4-.1,.6v.1c-.1,.4-.1,.7-.1,1.1v32.2c0,.3,.1,.7,.2,1.1,.6,4.4,3.1,8.3,6.9,10.4l26.7,15.4c.3,.2,.6,.3,.9,.5,.5,.3,1,.5,1.6,.7,1.3,.5,2.7,.7,4.2,.8h1.6c1.4-.1,2.8-.4,4.2-.8,.6-.2,1.1-.4,1.6-.6,.2-.1,2.1-1.2,24.8-14.2,1.5-.9,2.4-1.4,2.5-1.4l.3-.2c3.8-2.2,6.4-6.1,6.9-10.4,.1-.4,.1-.7,.2-1.2V35.75c-.2-.4-.2-.8-.3-1.1ZM15.51,79.55l-6.2-3.6c-2.7-1.6-4.6-4.3-5-7.5v-.1c0-.2-.1-.4-.1-.7V35.65c0-.1,.1-.3,.1-.4,0-.2,0-.4,.1-.7,.2-1.3,.6-2.6,1.3-3.8l.1-.1c0-.1,.1-.2,.1-.3h0l.1-.2c.9-1.4,2.2-2.7,3.7-3.5l5.7-3.3v56.2h.1Zm47.9,2.2l-.4,.2c-3.7,2.1-15.9,9.1-16.9,9.7h0c-.3,.2-.7,.3-1.1,.4-1,.3-2,.5-3,.6h-1.2c-1.2-.1-2.2-.3-3.2-.6-.4-.1-.8-.3-1.2-.5-.2-.1-.5-.2-.7-.4l-16.4-9.5v-10.7H63.31v10.8h.1Zm0-50.3l-.4,.3-12.1,8.1c-.9,.6-1.2,1.9-.6,2.8,.6,.9,1.9,1.1,2.8,.6l10.3-6.9v30.8H19.41V25.15H58.11l-18.6,12.4c-.4,.3-.7,.7-.8,1.3-.1,.5,0,1.1,.3,1.5,.6,.9,1.9,1.1,2.8,.6l21.7-14.5v5h-.1Zm0-11v.7H19.41V8.75H63.41v11.7Zm15.3,47.2c0,.2-.1,.4-.1,.6v.2c-.4,3.1-2.2,5.9-5,7.5l-.3,.2c-.1,0-.9,.5-2.3,1.3l-3.5,2V23.35l5.6,3.2c1.5,.9,2.8,2.1,3.7,3.5l.2,.3c0,.1,.1,.1,.1,.2l.1,.1c.7,1.3,1.1,2.5,1.3,3.8,0,.2,.1,.4,.1,.7,0,.1,0,.3,.1,.4v32.1h0Z"/><path class="cls-1" d="M41.41,75.05c-3.6,0-6.6,3-6.6,6.6s3,6.6,6.6,6.6,6.6-3,6.6-6.6c0-3.6-3-6.6-6.6-6.6Zm0,9.2c-1.4,0-2.6-1.2-2.6-2.6s1.2-2.6,2.6-2.6,2.6,1.2,2.6,2.6c0,1.5-1.2,2.6-2.6,2.6Z"/><path class="cls-1" d="M56.61,14.75c0,1.1-.9,2-2,2H28.21c-1.1,0-2-.9-2-2s.9-2,2-2h26.5c1,0,1.9,.9,1.9,2Z"/></svg>