<?xml version="1.0" encoding="UTF-8"?><svg id="Layer_1" xmlns="http://www.w3.org/2000/svg" viewBox="0 0 84 100"><defs><style>.cls-1{stroke-width:3px;}.cls-1,.cls-2{fill:none;stroke:#3dc0cb;stroke-miterlimit:10;}.cls-3,.cls-4{fill:#fff;}.cls-5,.cls-6{fill:#3dc0cb;}.cls-2{stroke-width:2px;}.cls-6,.cls-4{fill-rule:evenodd;}</style></defs><path class="cls-5" d="M82.67,33.45v-.1c0-.2,0-.3-.1-.5-.3-1.9-.9-3.6-1.8-5.3,0-.1-.1-.2-.1-.2-.1-.1-.1-.2-.2-.3l-.1-.2,.6-.5-.7,.3c-1.3-2-3-3.6-5.1-4.8-12-6.9-26.2-15-26.4-15.1l-.4-.2c-2-1.2-4.3-1.9-6.7-1.9h-.3c-2.4,0-4.8,.7-6.9,1.9L7.77,21.85c-2,1.2-3.8,2.8-5,4.7-.1,.1-.2,.2-.2,.4-.1,.1-.1,.2-.2,.3-.2,.1-.2,.2-.2,.3-.9,1.6-1.5,3.4-1.8,5.2v.1c0,.2,0,.3-.1,.5v.1c-.1,.3-.1,.7-.1,1v32.3c0,.3,.1,.7,.2,1.1,.6,4.4,3.1,8.3,6.9,10.4l26.7,15.4c.3,.2,.6,.3,.9,.5,.5,.3,1,.5,1.6,.7,1.3,.5,2.7,.8,4.2,.8h1.6c1.4-.1,2.8-.4,4.2-.8,.6-.2,1.1-.4,1.6-.7,.2-.1,2.2-1.2,25.5-14.6l2.2-1.3c3.8-2.2,6.4-6.1,6.9-10.4,.1-.4,.1-.7,.2-1.1V34.55c-.1-.4-.1-.8-.2-1.1Zm-3.9,33c0,.2-.1,.4-.1,.6v.2c-.4,3.1-2.2,5.9-5,7.5l-2.2,1.3c-16.2,9.3-24.4,14-25.2,14.5-.4,.2-.7,.3-1.1,.5-1,.3-2,.5-3,.6h-1.1c-1.2-.1-2.2-.3-3.2-.6-.4-.1-.8-.3-1.2-.5-.2-.1-.5-.2-.7-.3l-26.7-15.4c-2.7-1.6-4.6-4.4-5-7.5v-.1c-.1-.3-.1-.5-.1-.8V34.35c0-.1,.1-.3,.1-.4,0-.2,0-.4,.1-.6v-.1c.2-1.3,.6-2.6,1.3-3.7l.1-.1c0-.1,.1-.2,.1-.3h0l.1-.2c.9-1.4,2.2-2.7,3.7-3.5l26.8-15.5c1.5-.8,3.2-1.3,4.9-1.3h.2c1.8,0,3.5,.5,4.9,1.3l.4,.2c.4,.2,26.2,15,26.4,15.2,1.5,.9,2.8,2.1,3.7,3.5l.2,.3c0,.1,.1,.1,.1,.2l.1,.1c.7,1.2,1.1,2.5,1.3,3.8,0,.3,.1,.5,.1,.7,0,.1,0,.3,.1,.4v32.1h-.1Z"/><path class="cls-3" d="M41.98,20.05V11.48c0-.91-.39-1.69-.91-2.21-.52-.52-1.3-.91-2.21-.91H17.29c-.91,0-1.56,.39-2.21,.91-.52,.52-.91,1.3-.91,2.21V47.99c0,.91,.39,1.69,.91,2.21,.52,.52,1.3,.91,2.21,.91h4.42c.13,4.03,.26,8.19,.39,12.21,.26,4.42,.39,8.71,.78,13.12,0,.78,.39,1.56,.78,2.21,.52,.65,1.04,1.04,1.82,1.3,2.73,.78,8.06,1.3,13.38,1.3s10.65-.39,13.38-1.3c.78-.26,1.43-.65,1.82-1.3,.52-.65,.78-1.43,.78-2.21,.52-8.45,.91-17.02,1.17-25.6,.26-8.58,.26-17.15,.26-25.6,0-.78-.26-1.56-.78-2.21-.52-.65-1.04-1.04-1.82-1.3-3.38-1.3-7.93-1.56-11.69-1.69h0Z"/><path class="cls-1" d="M41.98,20.05V11.48c0-.91-.39-1.69-.91-2.21-.52-.52-1.3-.91-2.21-.91H17.29c-.91,0-1.56,.39-2.21,.91-.52,.52-.91,1.3-.91,2.21V47.99c0,.91,.39,1.69,.91,2.21,.52,.52,1.3,.91,2.21,.91h4.42c.13,4.03,.26,8.19,.39,12.21,.26,4.42,.39,8.71,.78,13.12,0,.78,.39,1.56,.78,2.21,.52,.65,1.04,1.04,1.82,1.3,2.73,.78,8.06,1.3,13.38,1.3s10.65-.39,13.38-1.3c.78-.26,1.43-.65,1.82-1.3,.52-.65,.78-1.43,.78-2.21,.52-8.45,.91-17.02,1.17-25.6,.26-8.58,.26-17.15,.26-25.6,0-.78-.26-1.56-.78-2.21-.52-.65-1.04-1.04-1.82-1.3-3.38-1.3-7.93-1.56-11.69-1.69h0Z"/><path class="cls-1" d="M18.85,51.11h21.57c.26,0,.52-.13,.78-.26,.13-.13,.26-.52,.26-.78h0l.52-38.59"/><path class="cls-6" d="M20.28,15.24c0-.52,.52-1.04,1.04-1.04s1.04,.52,1.04,1.04v8.84c0,.52-.52,1.04-1.04,1.04s-1.04-.52-1.04-1.04V15.24h0Z"/><path class="cls-6" d="M35.87,16.28v4.68c0,.52-.26,1.04-.65,1.43-.39,.39-.91,.65-1.56,.65h-4.68c-.52,0-1.04-.26-1.43-.65-.39-.39-.65-.91-.65-1.43v-4.68c0-.52,.26-1.17,.65-1.43,.39-.39,.91-.65,1.43-.65h4.68c.52,0,1.04,.26,1.43,.65,.52,.39,.78,.91,.78,1.43h0Z"/><path class="cls-6" d="M22.36,44.35c0,.52-.52,1.04-1.04,1.04s-1.04-.52-1.04-1.04v-5.07c0-.52,.52-1.04,1.04-1.04s1.04,.52,1.04,1.04v5.07h0Z"/><path class="cls-6" d="M26.26,44.35c0,.52-.52,1.04-1.04,1.04s-1.04-.52-1.04-1.04v-5.07c0-.52,.52-1.04,1.04-1.04s1.04,.52,1.04,1.04v5.07h0Z"/><path class="cls-6" d="M22.36,31.23c0,.52-.52,1.04-1.04,1.04s-1.04-.52-1.04-1.04v-3.64c0-.52,.52-1.04,1.04-1.04s1.04,.52,1.04,1.04v3.64Z"/><path class="cls-6" d="M49.26,55.52c.52,0,1.04,.26,1.43,.65,.39,.26,.65,.91,.65,1.3,.13,.65,.13,1.43,.13,2.21s0,1.43-.13,2.08c-.13,.52-.39,.91-.65,1.3-.39,.39-.78,.52-1.3,.65-1.17,.26-2.34,.39-3.64,.52h-3.25c-.52,0-1.04-.26-1.43-.65s-.65-.91-.65-1.3c-.13-.65-.13-1.43-.13-2.21s0-1.43,.13-2.08c.13-.52,.39-.91,.65-1.3,.39-.39,.78-.52,1.3-.65,1.04-.26,2.21-.39,3.38-.39,1.17-.26,2.34-.26,3.51-.13h0Z"/><path class="cls-4" d="M45.75,57.6c-1.04,.13-1.95,.26-2.99,.39q-.13,0-.13,.13l-.13,.13c-.13,.52-.13,1.04-.13,1.69s0,1.3,.13,1.95q0,.13,.13,.13h.13c1.04,.13,2.08,.13,2.99,0,1.04-.13,2.21-.26,3.25-.39q.13,0,.13-.13l.13-.13c.13-.52,.13-1.04,.13-1.69s0-1.3-.13-1.95q0-.13-.13-.13h-3.38Z"/><path class="cls-6" d="M49.26,66.18c.52,0,1.04,.26,1.43,.65,.39,.26,.65,.91,.65,1.3,.13,.65,.13,1.43,.13,2.21s0,1.43-.13,2.08c-.13,.52-.39,.91-.65,1.3-.39,.39-.78,.52-1.3,.65-1.17,.26-2.34,.39-3.64,.52h-3.25c-.52,0-1.04-.26-1.43-.65s-.65-.91-.65-1.3c-.13-.65-.13-1.43-.13-2.21s0-1.43,.13-2.08c.13-.52,.39-.91,.65-1.3,.39-.39,.78-.52,1.3-.65,1.04-.26,2.21-.39,3.38-.39,1.17-.26,2.34-.26,3.51-.13h0Z"/><path class="cls-4" d="M45.75,68.26c-1.04,.13-1.95,.26-2.99,.39q-.13,0-.13,.13l-.13,.13c-.13,.52-.13,1.04-.13,1.69s0,1.3,.13,1.95q0,.13,.13,.13h.13c1.04,.13,2.08,.13,2.99,0,1.04-.13,2.21-.26,3.25-.39q.13,0,.13-.13l.13-.13c.13-.52,.13-1.04,.13-1.69s0-1.3-.13-1.95q0-.13-.13-.13h-3.38Z"/><path class="cls-6" d="M28.86,66.18c-.52,0-1.04,.26-1.43,.65-.39,.26-.65,.91-.65,1.3-.13,.65-.13,1.43-.13,2.21s0,1.43,.13,2.08c.13,.52,.39,.91,.65,1.3,.39,.39,.78,.52,1.3,.65,1.17,.26,2.34,.39,3.64,.52h3.25c.52,0,1.04-.26,1.43-.65s.65-.91,.65-1.3c.13-.65,.13-1.43,.13-2.21s0-1.43-.13-2.08c-.13-.52-.39-.91-.65-1.3-.39-.39-.78-.52-1.3-.65-1.04-.26-2.21-.52-3.38-.52-1.17-.13-2.34-.13-3.51,0h0Z"/><path class="cls-4" d="M32.36,68.26c1.04,.13,1.95,.26,2.99,.39q.13,0,.13,.13l.13,.13c.13,.52,.13,1.04,.13,1.69s0,1.3-.13,1.95q0,.13-.13,.13h-.13c-1.04,.13-2.08,.13-2.99,0-1.04-.13-2.21-.26-3.25-.39q-.13,0-.13-.13l-.13-.13c-.13-.52-.13-1.04-.13-1.69s0-1.3,.13-1.95q0-.13,.13-.13h3.38Z"/><path class="cls-6" d="M28.86,55.52c-.52,0-1.04,.26-1.43,.65-.39,.26-.65,.91-.65,1.3-.13,.65-.13,1.43-.13,2.21s0,1.43,.13,2.08c.13,.52,.39,.91,.65,1.3,.39,.39,.78,.52,1.3,.65,1.17,.26,2.34,.39,3.64,.52h3.25c.52,0,1.04-.26,1.43-.65s.65-.91,.65-1.3c.13-.65,.13-1.43,.13-2.21s0-1.43-.13-2.08c-.13-.52-.39-.91-.65-1.3-.39-.39-.78-.52-1.3-.65-1.04-.26-2.21-.39-3.38-.39-1.17-.26-2.34-.26-3.51-.13h0Z"/><path class="cls-4" d="M32.36,57.6c1.04,.13,1.95,.26,2.99,.39q.13,0,.13,.13l.13,.13c.13,.52,.13,1.04,.13,1.69s0,1.3-.13,1.95q0,.13-.13,.13h-.13c-1.04,.13-2.08,.13-2.99,0-1.04-.13-2.21-.26-3.25-.39q-.13,0-.13-.13l-.13-.13c-.13-.52-.13-1.04-.13-1.69s0-1.3,.13-1.95q0-.13,.13-.13h3.38Z"/><path class="cls-6" d="M59.65,40.84c-.26-.52-.13-1.04,.26-1.43,.52-.26,1.04-.13,1.43,.26,.78,1.17,1.17,2.6,1.17,4.03s-.39,2.86-1.17,4.03c-.26,.52-.91,.65-1.43,.26-.52-.26-.65-.91-.26-1.43,.52-.91,.91-1.95,.91-2.86-.13-.91-.39-1.95-.91-2.86h0Z"/><path class="cls-6" d="M69.91,34.21c-.26-.52-.13-1.04,.26-1.43,.52-.26,1.04-.13,1.43,.26,2.08,3.25,3.12,6.89,3.12,10.65s-1.04,7.41-3.12,10.65c-.26,.52-.91,.65-1.43,.26-.52-.26-.65-.91-.26-1.43,1.82-2.86,2.86-6.24,2.86-9.49-.13-3.25-1.04-6.63-2.86-9.49h0Z"/><path class="cls-6" d="M64.72,37.46c-.26-.52-.13-1.04,.26-1.43,.52-.26,1.04-.13,1.43,.26,1.43,2.21,2.21,4.81,2.21,7.28,0,2.6-.78,5.07-2.21,7.28-.26,.52-.91,.65-1.43,.26-.52-.26-.65-.91-.26-1.43,1.17-1.82,1.82-4.03,1.82-6.24,0-1.82-.65-4.03-1.82-5.98h0Z"/><path class="cls-2" d="M25.22,51.88h21.44c2.21,0,4.03-1.82,4.03-4.03V30.97c0-2.21-1.82-4.03-4.03-4.03l-4.29-.26v24.43"/></svg>