<?xml version="1.0" encoding="UTF-8"?><svg id="Layer_1" xmlns="http://www.w3.org/2000/svg" viewBox="0 0 84 100"><defs><style>.cls-1,.cls-2{fill:#3dc0cb;}.cls-2{fill-rule:evenodd;}</style></defs><path class="cls-1" d="M82.71,34.25v-.1c0-.2,0-.3-.1-.5-.3-1.9-.9-3.6-1.8-5.2,0-.1-.1-.2-.1-.2-.1-.1-.1-.2-.2-.3l-.1-.2-.1-.1c-1.3-2-3-3.6-5.1-4.8-12-6.9-26-15-26.2-15.1l-.4-.2c-2-1.2-4.4-1.8-6.8-1.8h-.3c-2.4,0-4.8,.7-6.8,1.9L8.11,22.95c-2,1.2-3.8,2.8-5,4.7-.1,.1-.2,.2-.2,.4-.1,.1-.1,.2-.2,.3-.1,.1-.1,.2-.1,.2-.9,1.6-1.5,3.4-1.8,5.2v.1c0,.2,0,.3-.1,.5v.1c-.1,.4-.1,.7-.1,1.1v32.1c0,.3,.1,.7,.2,1.1,.5,4.4,3.1,8.2,6.9,10.4l26.6,15.3c.3,.2,.6,.3,.9,.5,.5,.3,1,.5,1.6,.6,1.3,.5,2.7,.7,4.2,.8h1.6c1.4-.1,2.8-.4,4.1-.8,.6-.2,1.1-.4,1.6-.6,.2-.1,2.2-1.2,25.3-14.5l2.2-1.3c3.8-2.2,6.4-6,6.9-10.4,.1-.4,.1-.7,.2-1.1V35.55c-.1-.6-.1-.9-.2-1.3Zm-3.9,32.9c0,.2-.1,.4-.1,.6v.2c-.4,3.1-2.2,5.9-4.9,7.5l-2.2,1.3c-16.1,9.2-24.3,13.9-25.1,14.4-.4,.2-.7,.3-1.1,.5-1,.3-2,.5-3,.6h-1.1c-1.2-.1-2.2-.3-3.2-.6-.4-.1-.8-.3-1.2-.5-.2-.1-.5-.2-.7-.3l-26.6-15.3c-2.7-1.6-4.6-4.3-4.9-7.5v-.1c0-.2-.1-.4-.1-.7v-31.9c0-.1,.1-.3,.1-.4,0-.2,0-.4,.1-.6v-.1c.2-1.3,.6-2.6,1.3-3.7l.1-.1c0-.1,.1-.2,.1-.3h0l.1-.2c.9-1.4,2.2-2.7,3.7-3.5l26.6-15.3c1.5-.8,3.2-1.3,4.9-1.3h.2c1.8,0,3.5,.5,4.9,1.3l.4,.2c.4,.2,26,15,26.2,15.1,1.5,.9,2.8,2.1,3.7,3.5l.2,.3c0,.1,.1,.1,.1,.2l.1,.1c.7,1.2,1.1,2.5,1.3,3.8,0,.3,.1,.5,.1,.7,0,.1,0,.3,.1,.4v31.7h-.1Z"/><path class="cls-2" d="M18.09,51.54h.93v-2.53c-.9-1.02-1.53-2.28-1.76-3.66-.62-.51-1.02-1.29-1.02-2.16v-5.57c0-4.59,3.76-8.35,8.35-8.35,1.7,0,3.29,.52,4.62,1.41-.74,1.69-1.14,3.56-1.12,5.51v4.08c-2.37-.31-5.2-1.3-5.35-4.16-.62,1.43-2.05,2.43-3.71,2.43v1.86c-.51,0-.93,.42-.93,.93v1.85c0,.51,.42,.93,.93,.93-.03,3.04,2.54,5.57,5.57,5.57,1.3,0,2.53-.47,3.49-1.25v2.22c-1.05,.57-2.24,.89-3.49,.89-1.34,0-2.61-.37-3.71-1.01v2.86l2.01,2.01c-1.07,1.75-1.68,3.8-1.68,5.96v6.88H9.75v-10.02c0-3.67,3.01-6.68,6.68-6.68h1.67Zm35.2,.94c3.94,1.03,6.88,4.63,6.88,8.88v11.46H23.5v-11.46c0-4.25,2.93-7.85,6.88-8.88v-16.3c-.06-6.3,5.17-11.5,11.46-11.5s11.53,5.19,11.46,11.49v16.3h0Zm-8.02,3.98v-6.2c-1.05,.5-2.22,.79-3.44,.79s-2.39-.28-3.44-.79v6.52l3.13,5.73,3.75-6.04h0Zm-2.29-23.41c1.32,1.51,2.42,1.98,4.58,1.99v8.01c.04,3.11-2.64,5.7-5.73,5.7s-5.76-2.59-5.73-5.71v-5.71c3.47,0,5.38-1.21,6.88-4.28h0Zm11.48-2.38c1.33-.89,2.92-1.4,4.62-1.4,4.57,0,8.35,3.78,8.35,8.35v5.57c0,.87-.4,1.64-1.02,2.15-.23,1.38-.86,2.64-1.76,3.66v2.53h2.6c3.67,0,6.68,3.01,6.68,6.68v10.02h-11.46v-6.88c0-1.19-.19-2.35-.53-3.44l.86-5.1v-2.29c-1.1,.64-2.37,1.01-3.71,1.01-1.25,0-2.45-.32-3.49-.89v-2.22c.96,.78,2.19,1.25,3.49,1.25,2.97,0,5.52-2.44,5.57-5.41v-.15c.51,0,.93-.42,.93-.93v-1.86c0-.51-.42-.93-.93-.93-2.27,0-7.23-.49-7.42-4.29-.34,.78-.92,1.43-1.64,1.86v-1.78c.02-1.96-.39-3.82-1.13-5.52h0Z"/></svg>