<?xml version="1.0" encoding="UTF-8"?><svg id="Layer_1" xmlns="http://www.w3.org/2000/svg" viewBox="0 0 84 100"><defs><style>.cls-1{fill:#5ac5cb;}</style></defs><path class="cls-1" d="M83.61,33.75v-.1c0-.2,0-.3-.1-.5-.3-1.9-.9-3.7-1.8-5.3-.1-.1-.1-.2-.1-.2-.1-.1-.1-.2-.2-.3l-.1-.2,.6-.5-.6,.4c-1.3-2-3.1-3.7-5.1-4.9-12.2-7-26.5-15.2-26.7-15.3l-.4-.2c-2.1-1.3-4.5-2-7-2h-.3c-2.4,0-4.8,.7-6.9,1.9L7.91,22.05c-2.1,1.2-3.8,2.8-5.1,4.8-.1,.1-.2,.2-.2,.4-.1,.1-.1,.2-.2,.3-.1,.1-.1,.2-.1,.2-.9,1.7-1.5,3.4-1.8,5.2v.1c0,.2,0,.3-.1,.5v.1c-.1,.4-.1,.7-.1,1.1v32.6c0,.3,.1,.7,.2,1.1,.6,4.4,3.2,8.4,7,10.6l27.1,15.6c.3,.2,.6,.3,.9,.5,.5,.3,1,.5,1.6,.7,1.3,.5,2.8,.8,4.3,.8h1.6c1.5-.1,2.9-.4,4.2-.8,.6-.2,1.1-.4,1.6-.7,.2-.1,2.2-1.2,25.8-14.8l2.2-1.3c3.8-2.2,6.5-6.1,7-10.5,.1-.4,.1-.7,.2-1.1V34.85c-.2-.4-.3-.7-.4-1.1Zm-3.9,33.5c0,.2-.1,.4-.1,.6v.2c-.4,3.2-2.3,6-5,7.6l-2.2,1.3c-16.4,9.4-24.8,14.1-25.6,14.6-.4,.2-.7,.3-1.2,.5-1,.3-2,.6-3.1,.6h-1.1c-1.2-.1-2.2-.3-3.2-.6-.4-.1-.8-.3-1.2-.5-.2-.1-.5-.2-.7-.3l-27-15.6c-2.8-1.6-4.6-4.4-5-7.6v-.2c0-.2-.1-.4-.1-.7V34.65c0-.1,.1-.3,.1-.4,0-.2,0-.4,.1-.6v-.1c.2-1.4,.6-2.6,1.3-3.8l.1-.1c0-.1,.1-.2,.1-.3h0l.1-.2c1-1.5,2.3-2.7,3.8-3.6l27-15.5c1.5-.9,3.2-1.3,4.9-1.3h.2c1.8,0,3.5,.5,5,1.3l.4,.2c.5,.2,26.5,15.2,26.8,15.3,1.5,.9,2.8,2.1,3.7,3.5l.2,.3c0,.1,.1,.1,.1,.2l.1,.1c.7,1.2,1.1,2.5,1.3,3.9,0,.3,.1,.5,.1,.7,0,.1,0,.3,.1,.4v32.6Z"/><path class="cls-1" d="M72.81,41.45h-4c-.4,0-.9-.1-1.2-.7-1.7-3.7-4.4-6.7-7.9-9-.4-.2-.6-.7-.6-1.1v-.5c0-1.8-.1-3.6,0-5.4,0-1.3-.4-2.1-1.4-2.5h-.8l-2.7,1.5c-2.3,1.2-4.6,2.5-6.9,3.8-1.4,.8-2.8,1.2-4.4,1.1-2.8-.1-5.6-.1-8.4,0h-2.1c-9.8,0-18.1,6.4-20.7,15.8-.2,.7-.3,1.5-.4,2.3l-.2,1.1-.1,.6v3.1c.1,.3,.1,.7,.2,1.2,.1,.9,.3,1.8,.5,2.6,1.2,4.6,3.7,8.4,7.6,11.4,.5,.4,.7,.8,.7,1.3v5.6c0,1.4,.7,2.1,2.1,2.1h10c1.3,0,2-.7,2-2v-2.7h12.6v2.6c0,1.3,.7,2,2,2h9.5c1.3,0,2-.7,2-2v-5.4c0-.6,.2-1,.6-1.3,3.9-2.8,6.5-6.5,8-11,.1-.4,.4-.9,1.2-.9h2.9c1.1,0,1.9-.8,1.9-1.9v-9.9c-.1-1-.9-1.8-2-1.8Zm-1.8,10h-3.2c-1.3,0-1.9,.5-2.1,1.7-1.1,5-3.9,8.9-8.2,11.6-.7,.4-1,1-1,1.8v5.4h-6.1v-2.5c0-.8-.2-1.4-.5-1.7-.4-.4-.9-.5-1.7-.5h-15.5c-1.5,0-2.2,.7-2.2,2.2v2.6h-6.7v-5.6c0-1-.3-1.7-1.2-2.3-3.9-2.7-6.4-6.3-7.4-11-1-4.5,0-9.3,2.6-13.2,2.6-3.9,6.6-6.6,11.1-7.5,1.2-.2,2.5-.4,3.8-.4h12.8c.5,0,1.1-.2,1.6-.4,1.7-.9,3.3-1.8,5-2.7l3.4-1.8,.1,1v3.8c0,1.1,.4,1.8,1.4,2.3,3.1,1.6,5.5,4.1,7.2,7.2,.3,.7,.6,1.3,.9,2l.1,.2c.4,1,.9,1.4,2,1.4h4.1v6.4h-.3Z"/><path class="cls-1" d="M46.21,38.15c0,1-.8,1.8-1.9,1.8h-12.2c-.8,0-1.4-.5-1.7-1.3-.2-.8,0-1.6,.6-1.9,.4-.2,.8-.4,1.2-.4h12.1c.5,0,1,.2,1.4,.5,.3,.3,.5,.8,.5,1.3Z"/></svg>