<?xml version="1.0" encoding="UTF-8"?><svg id="Layer_1" xmlns="http://www.w3.org/2000/svg" xmlns:xlink="http://www.w3.org/1999/xlink" viewBox="0 0 84 100"><defs><style>.cls-1{fill:none;}.cls-2{clip-path:url(#clippath);}.cls-3{fill:#3dc0cb;}</style><clipPath id="clippath"><rect class="cls-1" x="-.29" y="3.45" width="84.11" height="93.8"/></clipPath></defs><g class="cls-2"><path class="cls-3" d="M42.42,95.95c-2,0-4-.5-5.6-1.4L7.01,76.85c-3.1-1.8-5.5-6-5.6-9.6l-.4-34.6c0-3.6,2.4-7.8,5.5-9.6L35.72,6.25c3.1-1.8,8-1.8,11.1,.1l20.3,12-2.1,3.5-20.3-12c-1.8-1.1-5.1-1.1-6.9,0L8.61,26.65c-1.9,1.1-3.5,3.9-3.4,6l.4,34.6c0,2.2,1.7,5,3.5,6.1l29.7,17.7c1.8,1.1,5.1,1.1,6.9,0l29.2-16.8c1.9-1.1,3.5-3.9,3.4-6l-.4-34.6c0-1.5-.8-3.4-2-4.8l3.1-2.6c1.8,2.1,2.9,5,3,7.4l.4,34.6c0,3.6-2.4,7.8-5.5,9.6l-29.1,16.8c-1.5,.9-3.5,1.3-5.4,1.3Z"/></g><path class="cls-3" d="M70.52,70.05H12.91c-.8,0-1.5-.7-1.5-1.5V35.55c0-.8,.7-1.5,1.5-1.5H56.62c.8,0,1.5,.7,1.5,1.5s-.7,1.5-1.5,1.5H14.41v30.1h54.6v-19c0-.8,.7-1.5,1.5-1.5s1.5,.7,1.5,1.5v20.4c0,.8-.7,1.5-1.5,1.5Z"/><g><path class="cls-3" d="M45.42,44.75H19.92c-.7,0-1.2-.5-1.2-1.2s.5-1.2,1.2-1.2h25.5c.7,0,1.2,.5,1.2,1.2s-.5,1.2-1.2,1.2"/><path class="cls-3" d="M34.52,51.15h-14.6c-.7,0-1.2-.5-1.2-1.2s.5-1.2,1.2-1.2h14.6c.7,0,1.2,.5,1.2,1.2,0,.6-.6,1.2-1.2,1.2"/><path class="cls-3" d="M25.02,62.35h-3.6c-.7,0-1.2-.5-1.2-1.2s.5-1.2,1.2-1.2h3.6c.7,0,1.2,.5,1.2,1.2,.1,.7-.5,1.2-1.2,1.2"/><path class="cls-3" d="M33.52,62.35h-3.6c-.7,0-1.2-.5-1.2-1.2s.5-1.2,1.2-1.2h3.6c.7,0,1.2,.5,1.2,1.2,.1,.7-.5,1.2-1.2,1.2"/><path class="cls-3" d="M48.32,61.15c-.4,0-.8-.2-1.1-.5-.4-.4-.5-1.1-.2-1.6l6-12-1.3-.6c-.4-.2-.6-.5-.8-.8-.1-.4-.1-.8,0-1.1l5.3-11.4c0-.1,.1-.1,.1-.2l12.5-18.6c.4-.6,1.2-.8,1.8-.5l9.4,4.4c.6,.3,1,1,.8,1.7l-6,21.5q0,.1-.1,.2l-5.3,11.4c-.3,.7-1.2,1-1.9,.7l-2.5-1.2-1.5,2.8c-.2,.3-.5,.6-.8,.7l-13.8,5c-.2,.1-.4,.1-.6,.1Zm7.3-12.9l-4.4,8.8,9.8-3.6,1.2-2.2-6.6-3Zm9.3,1.2l2.4,1.1,4.7-10,5.7-20.2-7.2-3.3-11.6,17.4-4.7,10,1.2,.6h.1l9.4,4.4q0-.1,0,0Z"/></g></svg>