<?xml version="1.0" encoding="UTF-8"?><svg id="Alerts" xmlns="http://www.w3.org/2000/svg" xmlns:xlink="http://www.w3.org/1999/xlink" viewBox="0 0 124 124"><defs><style>.cls-1{fill:url(#linear-gradient);}.cls-2{fill:url(#linear-gradient-8);}.cls-3{fill:url(#linear-gradient-9);}.cls-4{fill:url(#linear-gradient-3);}.cls-5{fill:url(#linear-gradient-4);}.cls-6{fill:url(#linear-gradient-2);}.cls-7{fill:url(#linear-gradient-6);}.cls-8{fill:url(#linear-gradient-7);}.cls-9{fill:url(#linear-gradient-5);}.cls-10{fill:url(#linear-gradient-10);}.cls-11{fill:url(#linear-gradient-11);}</style><linearGradient id="linear-gradient" x1="32.69" y1="31.87" x2="44.8" y2="118.05" gradientTransform="matrix(1, 0, 0, 1, 0, 0)" gradientUnits="userSpaceOnUse"><stop offset="0" stop-color="#cfebef"/><stop offset="1" stop-color="#58c3cc"/></linearGradient><linearGradient id="linear-gradient-2" x1="37.47" y1="29.51" x2="49.57" y2="115.65" xlink:href="#linear-gradient"/><linearGradient id="linear-gradient-3" x1="28.14" y1="41.91" x2="40.25" y2="128.05" xlink:href="#linear-gradient"/><linearGradient id="linear-gradient-4" x1="29.31" y1="44.87" x2="40.99" y2="127.93" xlink:href="#linear-gradient"/><linearGradient id="linear-gradient-5" x1="46.76" y1="21.59" x2="58.44" y2="104.66" xlink:href="#linear-gradient"/><linearGradient id="linear-gradient-6" x1="38.03" y1="24.32" x2="52.9" y2="130.1" xlink:href="#linear-gradient"/><linearGradient id="linear-gradient-7" x1="82" y1="4.1" x2="94.11" y2="90.27" xlink:href="#linear-gradient"/><linearGradient id="linear-gradient-8" x1="83.95" y1="-5.68" x2="96.93" y2="86.64" xlink:href="#linear-gradient"/><linearGradient id="linear-gradient-9" x1="59.18" y1="38.98" x2="65.32" y2="82.67" xlink:href="#linear-gradient"/><linearGradient id="linear-gradient-10" x1="62.67" y1="67.68" x2="63.33" y2="72.34" xlink:href="#linear-gradient"/><linearGradient id="linear-gradient-11" x1="62.76" y1="51.31" x2="64.81" y2="65.85" xlink:href="#linear-gradient"/></defs><path class="cls-1" d="M33.4,40.71c2.09,0,3.79-1.7,3.79-3.79s-1.7-3.79-3.79-3.79-3.79,1.7-3.79,3.79,1.7,3.79,3.79,3.79Zm0-5.28c.82,0,1.49,.67,1.49,1.49s-.67,1.49-1.49,1.49-1.49-.67-1.49-1.49,.67-1.49,1.49-1.49Z"/><path class="cls-6" d="M39.34,44.04c.65,0,1.18-.53,1.18-1.18s-.53-1.18-1.18-1.18-1.18,.53-1.18,1.18,.53,1.18,1.18,1.18Z"/><path class="cls-4" d="M32.56,72.18c-.65,0-1.18,.53-1.18,1.18s.53,1.18,1.18,1.18,1.18-.53,1.18-1.18-.53-1.18-1.18-1.18Z"/><path class="cls-5" d="M41.74,86.61c-1.37-.57-2.45-1.67-3.05-3.1-.6-1.43-.61-2.98-.04-4.35,.06-.14,.09-.29,.09-.44,0-.45-.27-.88-.71-1.06-.58-.24-1.26,.04-1.5,.62-1.18,2.86-4.6,4.27-7.45,3.09-.58-.24-1.26,.04-1.5,.62-.06,.14-.09,.29-.09,.44,0,.45,.27,.88,.71,1.06,1.37,.57,2.45,1.67,3.05,3.1s.61,2.98,.04,4.35c-.06,.14-.09,.29-.09,.44,0,.45,.27,.88,.71,1.06,.14,.06,.29,.09,.44,.09,.45,0,.88-.27,1.06-.71,1.18-2.86,4.59-4.27,7.45-3.09,.58,.24,1.26-.03,1.5-.62,.06-.14,.09-.29,.09-.44,0-.45-.27-.88-.71-1.06Zm-7.84,1.02c-.1-.64-.28-1.28-.54-1.91s-.58-1.2-.97-1.73c1.31-.2,2.56-.72,3.63-1.51,.1,.64,.28,1.28,.54,1.91,.26,.62,.58,1.2,.97,1.73-1.31,.2-2.56,.72-3.63,1.51Z"/><path class="cls-9" d="M41.71,32.27c2.86,1.18,4.27,4.59,3.09,7.45-.06,.14-.09,.29-.09,.44,0,.45,.27,.88,.71,1.06,.14,.06,.29,.09,.44,.09,.45,0,.88-.27,1.06-.71,.57-1.37,1.67-2.45,3.1-3.05,1.43-.59,2.98-.61,4.35-.04,.58,.24,1.26-.04,1.5-.62,.06-.14,.09-.29,.09-.44,0-.45-.27-.88-.71-1.06-2.86-1.18-4.27-4.59-3.09-7.45,.06-.14,.09-.29,.09-.44,0-.45-.27-.88-.71-1.06-.58-.24-1.26,.04-1.5,.62-.57,1.37-1.67,2.45-3.1,3.05-1.43,.6-2.98,.61-4.35,.04-.59-.24-1.26,.04-1.5,.62-.06,.14-.09,.29-.09,.44,0,.45,.27,.88,.71,1.06Zm6.11-.04c.62-.26,1.2-.58,1.73-.97,.2,1.31,.72,2.56,1.51,3.63-.64,.1-1.28,.28-1.91,.54s-1.2,.58-1.73,.97c-.2-1.31-.72-2.56-1.51-3.63,.64-.1,1.28-.28,1.91-.54Z"/><path class="cls-7" d="M51.27,91.76h-2.44v-2.44c0-.64-.52-1.15-1.15-1.15s-1.15,.52-1.15,1.15v2.44h-2.44c-.64,0-1.15,.52-1.15,1.15s.52,1.15,1.15,1.15h2.44v2.44c0,.64,.52,1.15,1.15,1.15s1.15-.52,1.15-1.15v-2.44h2.44c.64,0,1.15-.52,1.15-1.15s-.52-1.15-1.15-1.15Z"/><path class="cls-8" d="M92.73,76.66c-2.09,0-3.79,1.7-3.79,3.79s1.7,3.79,3.79,3.79,3.79-1.7,3.79-3.79-1.7-3.79-3.79-3.79Zm0,5.28c-.82,0-1.49-.67-1.49-1.49s.67-1.49,1.49-1.49,1.49,.67,1.49,1.49-.67,1.49-1.49,1.49Z"/><path class="cls-2" d="M91.52,63.34l1.46-.42,.42,1.46c.11,.38,.51,.6,.89,.49,.38-.11,.6-.51,.49-.89l-.42-1.46,1.46-.42c.38-.11,.6-.51,.49-.89-.11-.38-.51-.6-.89-.49l-1.46,.42-.42-1.46c-.11-.38-.51-.6-.89-.49-.38,.11-.6,.51-.49,.89l.42,1.46-1.46,.42c-.38,.11-.6,.51-.49,.89,.11,.38,.51,.6,.89,.49Z"/><g><path class="cls-3" d="M85.93,71.71l-18.26-30.39c-1.09-1.82-3.04-2.84-5.13-2.78-2.12,.08-3.95,1.25-4.91,3.14l-15.38,30.39c-.91,1.79-.82,3.88,.23,5.6,1.05,1.71,2.88,2.73,4.89,2.73h33.64c2.1,0,3.96-1.09,5-2.91,1.03-1.82,1-3.99-.08-5.78Zm-2.54,4.3c-.49,.87-1.38,1.39-2.38,1.39H47.37c-.97,0-1.82-.48-2.33-1.3s-.55-1.8-.11-2.67l15.38-30.39c.46-.9,1.33-1.46,2.34-1.5,.04,0,.07,0,.1,0,.97,0,1.84,.49,2.34,1.33l18.26,30.39c.52,.86,.53,1.89,.04,2.76Z"/><path class="cls-10" d="M63.71,67.77c-1.24-.39-2.56,.3-2.95,1.54s.3,2.56,1.54,2.95,2.56-.3,2.95-1.54-.3-2.56-1.54-2.95Z"/><polygon class="cls-11" points="62.64 51.66 60.26 51.66 61.89 65.95 62.64 65.95 63.36 65.95 64.11 65.95 65.74 51.66 63.36 51.66 62.64 51.66"/></g></svg>