<svg xmlns="http://www.w3.org/2000/svg" viewBox="0 0 96 96"><defs><style>.cls-1{fill:#fbb004;}.cls-2{opacity:0.46;}</style></defs><title>card-control-icons</title><g id="Your_Icons" data-name="Your Icons"><path class="cls-1" d="M47.08,21.61,15.49,74.53a1.23,1.23,0,0,0,1.06,1.86H79.72a1.24,1.24,0,0,0,1.07-.62,1.22,1.22,0,0,0,0-1.24L49.19,21.61a1.23,1.23,0,0,0-2.11,0Zm1.05,3L77.56,73.93H18.71C20.71,70.59,46.23,27.82,48.13,24.64Z"/><g class="cls-2"><polygon class="cls-1" points="51.2 59.58 45.58 59.58 43.82 36.91 52.95 36.91 51.2 59.58"/><path class="cls-1" d="M44.33,65.69a4.06,4.06,0,1,1,4.06,4.06A4.05,4.05,0,0,1,44.33,65.69Z"/></g></g></svg>