<svg xmlns="http://www.w3.org/2000/svg" viewBox="0 0 96 96"><defs><style>.cls-1,.cls-2{fill:none;stroke:#fbb040;stroke-miterlimit:10;stroke-width:3px;}.cls-2{stroke-linecap:round;}.cls-3,.cls-4{fill:#fbb040;}.cls-4{fill-opacity:0.28;}</style></defs><title>card-control-icons</title><g id="Your_Icons" data-name="Your Icons"><line class="cls-1" x1="21.04" y1="23.1" x2="63.04" y2="23.1"/><line class="cls-1" x1="63.04" y1="71.1" x2="21.04" y2="71.1"/><line class="cls-2" x1="37.54" y1="77.1" x2="46.54" y2="77.1"/><path class="cls-1" d="M63,56.1V78.6a4.5,4.5,0,0,1-4.5,4.5h-33A4.49,4.49,0,0,1,21,78.6v-60a4.49,4.49,0,0,1,4.5-4.5h33A4.5,4.5,0,0,1,63,18.6V29.1"/><path class="cls-2" d="M90,32.1a3,3,0,0,0-3-3H48a3,3,0,0,0-3,3v21a3,3,0,0,0,3,3h4.5v9H54l7.5-9H87a3,3,0,0,0,3-3Z"/><circle class="cls-3" cx="58.54" cy="41.85" r="2.25"/><circle class="cls-3" cx="67.54" cy="41.85" r="2.25"/><circle class="cls-3" cx="76.54" cy="41.85" r="2.25"/><path class="cls-4" d="M90.52,31.87a3,3,0,0,0-3-3h-39a3,3,0,0,0-3,3v21a3,3,0,0,0,3,3H53v9h1.5l7.5-9h25.5a3,3,0,0,0,3-3Z"/></g></svg>