<svg xmlns="http://www.w3.org/2000/svg" xmlns:xlink="http://www.w3.org/1999/xlink" viewBox="0 0 124 124"><defs><style>.cls-1{fill:none;}.cls-2{clip-path:url(#clip-path);}.cls-3{fill:#fbb040;}.cls-4{fill:#999;}</style><clipPath id="clip-path"><rect class="cls-1" x="14.64" y="19.21" width="94.36" height="85.03"/></clipPath></defs><title>1%Checking-Icons-124x124(all)</title><g id="Your_Icons" data-name="Your Icons"><g class="cls-2"><path class="cls-3" d="M70,36.52a1.71,1.71,0,0,0-1.71,1.71v22A1.71,1.71,0,0,0,70,61.93H90a1.71,1.71,0,0,0,0-3.41H71.68V38.23A1.7,1.7,0,0,0,70,36.52"/><path class="cls-3" d="M42.53,49.35,33.35,62.81a1.24,1.24,0,0,1-2.07,0l-8.8-14a1.24,1.24,0,0,1,1.09-1.89l18,.55a1.24,1.24,0,0,1,1,1.94"/><path class="cls-3" d="M70,97.24a1,1,0,0,1-1-1,1,1,0,0,1,1-1,37,37,0,1,0-37-37,1,1,0,1,1-2,0,39,39,0,1,1,39,39"/><path class="cls-4" d="M14.64,104.24V99.15l4.64-4.21c7.86-7,11.68-11.06,11.79-15.26,0-2.93-1.77-5.25-5.92-5.25a13,13,0,0,0-7.69,3l-2.38-6a20,20,0,0,1,11.78-3.7C35,67.68,39.47,72.43,39.47,79c0,6-4.36,10.84-9.56,15.49l-3.32,2.76v.11H40.14v6.92Z"/><path class="cls-4" d="M54.7,89.36v-8c0-2.17.11-4.38.28-6.7h-.22c-1.16,2.32-2.1,4.42-3.32,6.7l-4.81,7.85v.11Zm0,14.88V95.67H38.77V90.19l13.61-21.9H62.67V89.36H67v6.31H62.67v8.57Z"/></g></g></svg>