<svg xmlns="http://www.w3.org/2000/svg" viewBox="0 0 96 96"><defs><style>.cls-1,.cls-6{fill:#fbb040;}.cls-1{opacity:0.4;}.cls-2{fill:#fff;}.cls-3,.cls-4{fill:none;stroke:#fbb004;}.cls-3{stroke-miterlimit:10;stroke-width:2.5px;}.cls-4{stroke-linecap:round;stroke-linejoin:round;stroke-width:1.5px;}.cls-5{fill:#fbb004;}.cls-6{opacity:0.7;}</style></defs><title>mortgage-campaign-icons</title><g id="Your_Icons" data-name="Your Icons"><rect class="cls-1" x="43.38" y="19.45" width="38.28" height="69.46" rx="6"/><rect class="cls-2" x="43.38" y="30.06" width="37.83" height="46.17"/><rect class="cls-3" x="42.91" y="19.45" width="38.28" height="69.46" rx="6"/><line class="cls-4" x1="43.55" y1="29.83" x2="80.55" y2="29.83"/><line class="cls-4" x1="57.55" y1="24.83" x2="66.55" y2="24.83"/><line class="cls-4" x1="43.55" y1="76.33" x2="80.55" y2="76.33"/><circle class="cls-5" cx="62.05" cy="82.43" r="3.46"/><path class="cls-6" d="M3.06,38.57c.7,11.91,13.11,20.87,27.71,20A32,32,0,0,0,40,56.68l15.62,6.17L48.92,51.33c4.66-4.21,7.38-9.84,7-15.88-.7-11.91-13.11-20.87-27.71-20S2.36,26.65,3.06,38.57Z"/></g></svg>