<svg data-name="Group 5" xmlns="http://www.w3.org/2000/svg" width="30" height="30" viewBox="0 0 30 30"><g data-name="Group 3 Copy 2" fill="none" stroke-miterlimit="10"><g stroke="#021d49" stroke-width="2"><circle cx="15" cy="15" r="15" stroke="none"/><circle cx="15" cy="15" r="14"/></g><path d="M7,10.5,2.886,12.663l.786-4.582L.343,4.837l4.6-.668L7,0,9.057,4.168l4.6.668L10.329,8.082l.786,4.582Z" transform="translate(8 8)"/><path d="M 9.122304916381836 9.921095848083496 L 8.71697998046875 7.557879447937012 L 10.43395519256592 5.884239196777344 L 8.061149597167969 5.539449691772461 L 7 3.389317512512207 L 5.938849925994873 5.539449691772461 L 3.566045045852661 5.884239196777344 L 5.28302001953125 7.557879447937012 L 4.877695083618164 9.921095848083496 L 7 8.805339813232422 L 9.122304916381836 9.921095848083496 M 11.11450004577637 12.66311931610107 L 7 10.5 L 2.885499954223633 12.66311931610107 L 3.671299934387207 8.081560134887695 L 0.3425999879837036 4.836879730224609 L 4.942749977111816 4.168439865112305 L 7 -3.419494589707028e-07 L 9.057250022888184 4.168439865112305 L 13.65740013122559 4.836879730224609 L 10.32870006561279 8.081560134887695 L 11.11450004577637 12.66311931610107 Z" fill="#021d49" transform="translate(8 8)"/></g></svg>