<?xml version="1.0" encoding="UTF-8"?>
<svg id="Layer_2" data-name="Layer 2" xmlns="http://www.w3.org/2000/svg" viewBox="0 0 12.5 12.5">
  <defs>
    <style>
      .cls-1 {
        fill: #231f20;
      }
    </style>
  </defs>
  <g id="Layer_2-2" data-name="Layer 2">
    <g id="Layer_1-2" data-name="Layer 1-2">
      <g>
        <path class="cls-1" d="m6.25,0C2.8,0,0,2.8,0,6.25s2.8,6.25,6.25,6.25,6.25-2.8,6.25-6.25S9.7,0,6.25,0Zm0,12c-3.17,0-5.75-2.58-5.75-5.75S3.08.5,6.25.5s5.75,2.58,5.75,5.75-2.58,5.75-5.75,5.75Z"/>
        <path class="cls-1" d="m4.79,3.56c-.13-.08-.29.02-.29.17v5.1c0,.15.16.24.29.17l2.21-1.27,2.21-1.27c.13-.08.13-.26,0-.34l-4.42-2.56Z"/>
      </g>
    </g>
  </g>
</svg>