<?xml version="1.0" encoding="utf-8"?>
<!-- Generator: Adobe Illustrator 21.0.2, SVG Export Plug-In . SVG Version: 6.00 Build 0)  -->
<svg version="1.0" xmlns="http://www.w3.org/2000/svg" xmlns:xlink="http://www.w3.org/1999/xlink" x="0px" y="0px"
	 viewBox="0 0 96 96" enable-background="new 0 0 96 96" xml:space="preserve">
<g id="Guidelines">
</g>
<g id="Your_Icons">
	<path fill="#1F375C" d="M48,96C21.533,96,0,74.467,0,48S21.533,0,48,0s48,21.533,48,48S74.467,96,48,96z M48,2.5
		C22.911,2.5,2.5,22.911,2.5,48S22.911,93.5,48,93.5S93.5,73.089,93.5,48S73.089,2.5,48,2.5z"/>
	<g>
		<rect x="18.246" y="43.15" fill="#FFFFFF" width="59.558" height="21.956"/>
		<g>
			<polygon fill="#FFFFFF" points="78,42.69 17.975,42.69 27.06,32.769 68.915,32.769 			"/>
			<path fill="#1F375C" d="M78,43.636H17.975c-0.375,0-0.715-0.222-0.866-0.565c-0.151-0.343-0.085-0.744,0.168-1.021l9.085-9.92
				c0.179-0.196,0.432-0.307,0.698-0.307h41.855c0.266,0,0.519,0.111,0.698,0.307l9.085,9.92c0.253,0.277,0.32,0.677,0.168,1.021
				S78.375,43.636,78,43.636z M20.125,41.744H75.85l-7.352-8.028H27.477L20.125,41.744z"/>
		</g>
		<polygon opacity="0.4" fill="#1F375C" points="38.688,42.17 18.861,42.265 26.953,32.502 43.94,32.612 		"/>
		<polygon opacity="0.4" fill="#1F375C" points="57.284,42.17 77.11,42.265 69.019,32.502 52.032,32.612 		"/>
		<path fill="#1F375C" d="M77.893,50.861H18.082c-0.313,0-0.568-0.254-0.568-0.568s0.254-0.568,0.568-0.568h59.811
			c0.313,0,0.568,0.254,0.568,0.568S78.206,50.861,77.893,50.861z"/>
		<path fill="#1F375C" d="M77.893,58.432H18.082c-0.313,0-0.568-0.254-0.568-0.568s0.254-0.568,0.568-0.568h59.811
			c0.313,0,0.568,0.254,0.568,0.568S78.206,58.432,77.893,58.432z"/>
		<path fill="#1F375C" d="M77.893,66.382H18.082c-0.522,0-0.946-0.424-0.946-0.946s0.424-0.946,0.946-0.946h59.811
			c0.522,0,0.946,0.424,0.946,0.946S78.415,66.382,77.893,66.382z"/>
		<path fill="#1F375C" d="M38.123,43.476c-0.1,0-0.201-0.026-0.292-0.082c-0.269-0.162-0.355-0.511-0.193-0.779l6.116-10.154
			c0.162-0.268,0.51-0.355,0.779-0.193c0.269,0.162,0.355,0.511,0.193,0.779L38.61,43.201
			C38.503,43.377,38.315,43.476,38.123,43.476z"/>
		<path fill="#1F375C" d="M58.061,43.476c-0.192,0-0.38-0.098-0.487-0.275l-6.116-10.154c-0.162-0.269-0.075-0.618,0.193-0.779
			c0.27-0.162,0.617-0.075,0.779,0.193l6.116,10.154c0.162,0.269,0.075,0.618-0.193,0.779
			C58.262,43.449,58.161,43.476,58.061,43.476z"/>
		<rect x="38.183" y="45.487" fill="#FFFFFF" width="19.432" height="16.444"/>
		<path fill="#1F375C" d="M38.124,65.432c-0.313,0-0.568-0.254-0.568-0.568V42.908c0-0.313,0.254-0.568,0.568-0.568
			s0.568,0.254,0.568,0.568v21.956C38.691,65.177,38.437,65.432,38.124,65.432z"/>
		<path fill="#1F375C" d="M58.061,65.432c-0.313,0-0.568-0.254-0.568-0.568V42.908c0-0.313,0.254-0.568,0.568-0.568
			s0.568,0.254,0.568,0.568v21.956C58.628,65.177,58.374,65.432,58.061,65.432z"/>
		<g>
			<path fill="#1F375C" d="M47.561,55.063c-0.844,0-1.644-0.268-2.252-0.755c-0.653-0.522-1.013-1.231-1.013-1.994
				c0-0.764,0.36-1.473,1.013-1.996c1.235-0.989,3.453-0.95,4.745,0.084c0.296,0.237,0.344,0.67,0.107,0.966
				c-0.236,0.297-0.67,0.345-0.967,0.107c-0.775-0.62-2.303-0.662-3.026-0.084c-0.32,0.256-0.497,0.584-0.497,0.922
				s0.177,0.665,0.497,0.921c0.366,0.293,0.861,0.454,1.394,0.454c0.379,0,0.687,0.308,0.687,0.687S47.941,55.063,47.561,55.063z"/>
			<path fill="#1F375C" d="M47.542,59.15c-0.896,0-1.807-0.268-2.472-0.8c-0.296-0.238-0.344-0.67-0.107-0.967
				s0.67-0.344,0.967-0.107c0.775,0.621,2.302,0.662,3.026,0.084c0.321-0.256,0.498-0.584,0.498-0.922
				c0-0.338-0.177-0.665-0.498-0.922c-0.365-0.292-0.86-0.453-1.393-0.453c-0.379,0-0.687-0.308-0.687-0.687
				s0.308-0.687,0.687-0.687c0.844,0,1.644,0.268,2.251,0.754c0.654,0.522,1.014,1.232,1.014,1.996s-0.36,1.473-1.014,1.995
				C49.214,58.913,48.384,59.15,47.542,59.15z"/>
		</g>
		<path fill="#1F375C" d="M47.561,50.938c-0.379,0-0.687-0.308-0.687-0.687v-1.5c0-0.379,0.308-0.687,0.687-0.687
			s0.687,0.308,0.687,0.687v1.5C48.249,50.63,47.941,50.938,47.561,50.938z"/>
		<path fill="#1F375C" d="M47.561,60.688c-0.379,0-0.687-0.307-0.687-0.687v-1.5c0-0.38,0.308-0.687,0.687-0.687
			s0.687,0.307,0.687,0.687V60C48.249,60.38,47.941,60.688,47.561,60.688z"/>
		<path fill="#1F375C" d="M18.082,65.926c-0.522,0-0.946-0.424-0.946-0.946V43.024c0-0.522,0.424-0.946,0.946-0.946
			s0.946,0.424,0.946,0.946v21.956C19.028,65.502,18.604,65.926,18.082,65.926z"/>
		<path fill="#1F375C" d="M77.893,65.926c-0.522,0-0.946-0.424-0.946-0.946V43.024c0-0.522,0.424-0.946,0.946-0.946
			s0.946,0.424,0.946,0.946v21.956C78.839,65.502,78.415,65.926,77.893,65.926z"/>
	</g>
</g>
</svg>
