<?xml version="1.0" encoding="utf-8"?>
<!-- Generator: Adobe Illustrator 21.0.2, SVG Export Plug-In . SVG Version: 6.00 Build 0)  -->
<svg version="1.0" xmlns="http://www.w3.org/2000/svg" xmlns:xlink="http://www.w3.org/1999/xlink" x="0px" y="0px"
	 viewBox="0 0 96 96" enable-background="new 0 0 96 96" xml:space="preserve">
<g id="Guidelines">
</g>
<g id="Your_Icons">
	<path fill="#1F375C" d="M47.976,96c-26.467,0-48-21.533-48-48s21.533-48,48-48s48,21.533,48,48S74.443,96,47.976,96z M47.976,2.5
		c-25.089,0-45.5,20.411-45.5,45.5s20.411,45.5,45.5,45.5s45.5-20.411,45.5-45.5S73.065,2.5,47.976,2.5z"/>
	<g>
		<circle opacity="0.4" fill="#1F375C" cx="53.108" cy="28.227" r="9.227"/>
		
			<circle fill="none" stroke="#1F375C" stroke-width="1.0629" stroke-linecap="round" stroke-linejoin="round" stroke-miterlimit="10" cx="53.108" cy="28.227" r="9.227"/>
		
			<circle fill="#FFFFFF" stroke="#1F375C" stroke-width="1.0629" stroke-linecap="round" stroke-linejoin="round" stroke-miterlimit="10" cx="53.108" cy="28.227" r="6.8"/>
		<path fill="#1F375C" d="M68.451,48.192c0,0,0.159,1.143,0.244,1.143c0.424,0,1.297,0.113,2.187-0.118
			c0.598-0.155,1.103-0.467,1.57-0.806c0.042,0,0.127,0,0.17,0c1.315,0,2.588-0.721,3.267-1.909c0.17-0.297,0.042-0.636-0.212-0.764
			c-0.297-0.17-0.636-0.042-0.764,0.212c-0.339,0.594-0.891,1.018-1.485,1.23c0.297-0.636,0.339-1.442,0.127-2.079
			c-0.339-1.061-1.57-1.655-2.63-1.273c-0.509,0.17-0.933,0.552-1.188,1.061c-0.212,0.467-0.255,1.061-0.085,1.57
			c0.17,0.594,0.679,1.188,1.315,1.527c-0.127,0.042-0.259,0.073-0.382,0.127C69.927,48.403,68.819,48.226,68.451,48.192z
			 M70.67,46.12c-0.085-0.255-0.085-0.509,0.042-0.764c0.127-0.255,0.297-0.424,0.551-0.509c0.085-0.042,0.17-0.042,0.297-0.042
			c0.424,0,0.806,0.255,0.933,0.636c0.127,0.467,0.042,1.103-0.17,1.442c0,0.042-0.042,0.042-0.042,0.085
			c-0.042,0.085-0.127,0.127-0.212,0.17C71.645,47.308,70.882,46.714,70.67,46.12z"/>
		<g>
			<path fill="#1F375C" d="M53.108,28.696c-0.576,0-1.123-0.183-1.537-0.515c-0.446-0.357-0.692-0.841-0.692-1.361
				c0-0.521,0.245-1.006,0.691-1.362c0.843-0.675,2.357-0.649,3.239,0.057c0.202,0.162,0.235,0.457,0.073,0.659
				c-0.161,0.203-0.457,0.236-0.66,0.073c-0.529-0.423-1.572-0.452-2.066-0.057c-0.219,0.175-0.339,0.399-0.339,0.629
				s0.121,0.454,0.339,0.629c0.25,0.2,0.588,0.31,0.951,0.31c0.259,0,0.469,0.21,0.469,0.469
				C53.577,28.486,53.367,28.696,53.108,28.696z"/>
			<path fill="#1F375C" d="M53.094,31.486c-0.612,0-1.233-0.183-1.688-0.546c-0.202-0.162-0.235-0.458-0.073-0.66
				s0.457-0.235,0.66-0.073c0.529,0.424,1.571,0.452,2.065,0.057c0.219-0.175,0.34-0.399,0.34-0.629c0-0.23-0.121-0.454-0.34-0.629
				c-0.249-0.199-0.587-0.309-0.951-0.309c-0.259,0-0.469-0.21-0.469-0.469c0-0.259,0.21-0.469,0.469-0.469
				c0.576,0,1.122,0.183,1.537,0.515c0.446,0.357,0.692,0.841,0.692,1.362c0,0.521-0.245,1.006-0.692,1.362
				C54.236,31.324,53.67,31.486,53.094,31.486z"/>
		</g>
		<path fill="#1F375C" d="M53.108,25.88c-0.259,0-0.469-0.21-0.469-0.469v-1.024c0-0.259,0.21-0.469,0.469-0.469
			s0.469,0.21,0.469,0.469v1.024C53.577,25.67,53.367,25.88,53.108,25.88z"/>
		<path fill="#1F375C" d="M53.108,32.536c-0.259,0-0.469-0.21-0.469-0.469v-1.024c0-0.26,0.21-0.469,0.469-0.469
			s0.469,0.21,0.469,0.469v1.024C53.577,32.326,53.367,32.536,53.108,32.536z"/>
		<path fill="#FFFFFF" stroke="#1F375C" stroke-width="1.7715" stroke-miterlimit="10" d="M68.697,51.275
			c0-9.979-9.914-18.069-22.143-18.069c-2.281,0-4.48,0.282-6.551,0.804c-1.308-3.972-4.609-5.233-4.609-5.233v6.894
			c-3.81,1.819-6.897,4.536-8.816,7.8h-3.911c-1.788,0-3.252,1.463-3.252,3.252v7.804c0,1.788,1.463,3.252,3.252,3.252h3.228
			c1.556,3.289,4.256,6.112,7.703,8.146v4.991c0,1.182,0.967,2.149,2.149,2.149h1.595c1.182,0,2.149-0.967,2.149-2.149V68.4
			c2.219,0.609,4.592,0.944,7.063,0.944c3.333,0,6.491-0.605,9.326-1.681v3.252c0,1.182,0.967,2.149,2.149,2.149h1.595
			c1.182,0,2.149-0.967,2.149-2.149v-6.522C66.034,61.1,68.697,56.443,68.697,51.275z"/>
		<circle fill="#1F375C" cx="35.467" cy="44.439" r="1.605"/>
	</g>
</g>
</svg>
