<svg id="Layer_1" data-name="Layer 1" xmlns="http://www.w3.org/2000/svg" viewBox="0 0 50 50"><defs><style>.cls-1{fill:#5ac5cb;}</style></defs><circle class="cls-1" cx="25.32" cy="21.78" r="2.47"/><polygon class="cls-1" points="32.62 15.25 31.85 14.48 31.64 14.27 31.44 14.48 25.88 20.04 25.67 20.24 25.88 20.45 26.65 21.22 26.86 21.43 27.07 21.22 32.62 15.67 32.83 15.46 32.62 15.25"/><polygon class="cls-1" points="24.6 20.1 21.43 17.49 21.2 17.3 21.01 17.53 20.32 18.37 20.13 18.6 20.36 18.79 23.53 21.39 23.76 21.58 23.94 21.36 24.64 20.51 24.82 20.28 24.6 20.1"/><path class="cls-1" d="M39.1,16a15,15,0,0,0-24.35-4.75A15,15,0,0,0,11.54,16a15.06,15.06,0,0,0,0,11.64,15,15,0,0,0,3.21,4.75,14.83,14.83,0,0,0,10.57,4.38h.84V33H24.48v2a13.21,13.21,0,0,1-7.94-3.28l1.24-1.24L18,30.3l-.21-.21L17,29.32l-.21-.21-.21.21-1.24,1.24a13.13,13.13,0,0,1-3.27-7.94h2V20.94h-2A13.18,13.18,0,0,1,15.37,13l1.22,1.22.21.21.21-.21.77-.77.21-.21-.21-.2-1.23-1.23a13.24,13.24,0,0,1,7.93-3.29v2h1.68v-2a13.25,13.25,0,0,1,7.94,3.27l-1.24,1.25-.21.2.21.21.77.77.21.21.21-.21L35.29,13a13.24,13.24,0,0,1,3.28,7.94h-2v1.68h3.74v-.84A14.87,14.87,0,0,0,39.1,16Z"/><path class="cls-1" d="M30,32.15,32.3,29a4.28,4.28,0,0,0,.6-1.08,3.09,3.09,0,0,0,.22-1.12h0a2.83,2.83,0,0,0-.34-1.43,2.23,2.23,0,0,0-1-.93,3.38,3.38,0,0,0-1.52-.31,2.94,2.94,0,0,0-1.41.33,2.49,2.49,0,0,0-1,1,3.57,3.57,0,0,0-.51,1.45v0h0v.29h1.91v-.28a1.24,1.24,0,0,1,.33-.74,1,1,0,0,1,.7-.24,1,1,0,0,1,.71.22.79.79,0,0,1,.23.63h0a1.73,1.73,0,0,1-.13.63,3.6,3.6,0,0,1-.39.68l-3.19,4.25-.06.08V34h5.74v-1.8H30Z"/><polygon class="cls-1" points="39.49 30.78 39.49 28.29 39.49 28 39.2 28 37.95 28 37.65 28 37.65 28.29 37.65 30.78 35.86 30.78 38.66 24.66 38.85 24.24 38.39 24.24 37.07 24.24 36.88 24.24 36.81 24.41 33.74 31.02 33.71 31.08 33.71 31.15 33.71 32.26 33.71 32.55 34.01 32.55 37.65 32.55 37.65 33.67 37.65 33.96 37.95 33.96 39.2 33.96 39.49 33.96 39.49 33.67 39.49 32.55 39.88 32.55 40.17 32.55 40.17 32.26 40.17 31.07 40.17 30.78 39.88 30.78 39.49 30.78"/><path class="cls-1" d="M45.33,12.7a7.77,7.77,0,0,0-2.62-2.48l-5.21-3L29.12,2.41l-.19-.11a7.38,7.38,0,0,0-3.51-.95h-.18a7.47,7.47,0,0,0-3.53,1L7.94,10.22a7.63,7.63,0,0,0-2.6,2.45.94.94,0,0,0-.12.18l-.1.17-.07.12a7.74,7.74,0,0,0-.91,2.65c0,.12,0,.23,0,.33v.06a2.59,2.59,0,0,0-.07.55V33.24a.41.41,0,0,0,0,.11c0,.18,0,.36.08.55A7.33,7.33,0,0,0,6,38l.17.18-.1.23a1,1,0,0,0-.09.41V43a1,1,0,0,0,1,1h9l5.49,3.17.48.24c.27.13.53.24.8.34a7.88,7.88,0,0,0,2.18.42h.83a7.67,7.67,0,0,0,2.14-.42,7.59,7.59,0,0,0,.81-.33l5.87-3.37.09-.05h9.21a1,1,0,0,0,1-1V38.77a1.05,1.05,0,0,0-.16-.53L44.6,38l.18-.22a7.21,7.21,0,0,0,1.76-3.86c0-.19.06-.38.08-.6V16.73a2,2,0,0,0-.07-.55v-.06c0-.09,0-.2,0-.31a7.74,7.74,0,0,0-.9-2.67L45.53,13l-.18-.29m-16.08,32-1.48.84h0a5.28,5.28,0,0,1-2.12.55h-.59a5.55,5.55,0,0,1-1.63-.32,5.09,5.09,0,0,1-.6-.25l-.35-.18L20.1,44.05H30.52ZM42.84,42H34.65a.72.72,0,0,0-.41,0H16.38A.77.77,0,0,0,16,42H8V39.81h34.8Zm1.72-8.82c0,.15,0,.26-.05.37l0,.09a5.2,5.2,0,0,1-2.56,3.87l-.15.09-.07,0-.21.11H9.13l-.42-.24a5.23,5.23,0,0,1-2.56-3.87.2.2,0,0,0,0-.07c0-.12,0-.23,0-.35V16.71l0-.06a1.3,1.3,0,0,0,0-.21c0-.11,0-.21,0-.34a5.65,5.65,0,0,1,.68-2l0-.08L7,13.91l.07-.09A5.64,5.64,0,0,1,9,12L22.73,4.1a5.17,5.17,0,0,1,2.53-.69h.09a5.26,5.26,0,0,1,2.54.67l.19.12c.21.11,13.48,7.74,13.6,7.8a5.72,5.72,0,0,1,1.9,1.79l.21.36a5.33,5.33,0,0,1,.67,2c0,.12,0,.23,0,.35a1.29,1.29,0,0,0,0,.19l0,.12Z"/></svg>