<svg id="Layer_1" data-name="Layer 1" xmlns="http://www.w3.org/2000/svg" xmlns:xlink="http://www.w3.org/1999/xlink" viewBox="0 0 124 124"><defs><style>.cls-1,.cls-2,.cls-4,.cls-5{fill:none;}.cls-2,.cls-4,.cls-5,.cls-7{stroke:#3dc0cb;}.cls-2,.cls-5{stroke-linecap:round;stroke-linejoin:round;}.cls-2{stroke-width:4.2px;}.cls-3{clip-path:url(#clip-path);}.cls-4{stroke-width:4.6px;}.cls-5{stroke-width:3.6px;}.cls-6,.cls-7{fill:#3dc0cb;}.cls-7{stroke-miterlimit:10;stroke-width:1.03px;}</style><clipPath id="clip-path"><polygon class="cls-1" points="16.38 113.66 107.79 113.66 107.62 12.27 16.21 12.27 16.38 113.66"/></clipPath></defs><line class="cls-2" x1="41.1" y1="38.37" x2="64.36" y2="38.37"/><line class="cls-2" x1="54.34" y1="96.69" x2="70" y2="96.69"/><line class="cls-2" x1="41.1" y1="48.31" x2="55.5" y2="48.31"/><line class="cls-2" x1="41.1" y1="87.41" x2="80.45" y2="87.41"/><line class="cls-2" x1="41.1" y1="58.25" x2="50.67" y2="58.25"/><line class="cls-2" x1="41.1" y1="68.19" x2="55.5" y2="68.19"/><line class="cls-2" x1="41.1" y1="78.12" x2="55.5" y2="78.12"/><g class="cls-3"><path class="cls-4" d="M30.93,31.39l-6,3.49a10.67,10.67,0,0,0-4.84,8.5L20.5,81a11.21,11.21,0,0,0,4.95,8.56l32.36,19.21a10.65,10.65,0,0,0,9.78.06l31.7-18.29A10.72,10.72,0,0,0,104.13,82l-.46-37.63a11.2,11.2,0,0,0-5-8.56L92.44,30.8"/></g><polyline class="cls-5" points="31.55 92.49 31.55 13.89 91.96 13.89 91.96 51.49"/><polygon class="cls-6" points="45.86 13.89 39.5 13.89 39.5 25.02 45.86 25.02 45.86 13.89 45.86 13.89"/><polygon class="cls-6" points="58.57 13.89 52.22 13.89 52.22 25.02 58.57 25.02 58.57 13.89 58.57 13.89"/><polygon class="cls-6" points="84.01 13.89 77.65 13.89 77.65 25.02 84.01 25.02 84.01 13.89 84.01 13.89"/><polygon class="cls-6" points="71.29 13.89 64.93 13.89 64.93 25.02 71.29 25.02 71.29 13.89 71.29 13.89"/><line class="cls-5" x1="91.96" y1="70.56" x2="91.96" y2="95.19"/><polygon class="cls-5" points="97.64 58.23 78.61 38.37 59.58 58.23 65.17 58.23 65.17 76.96 92.05 76.96 92.05 58.23 97.64 58.23"/><path class="cls-7" d="M82.85,60.42A6.71,6.71,0,0,0,78.61,59,4.16,4.16,0,0,1,76,58.11a2.13,2.13,0,0,1,0-3.53,5.2,5.2,0,0,1,5.71.16,1.27,1.27,0,0,0,1.82-.2,1.33,1.33,0,0,0-.2-1.85,7.14,7.14,0,0,0-3.41-1.43V49.53a1.3,1.3,0,1,0-2.59,0v1.75a6.37,6.37,0,0,0-3,1.25,4.77,4.77,0,0,0,0,7.63,6.76,6.76,0,0,0,4.25,1.45,4.13,4.13,0,0,1,2.62.86,2.13,2.13,0,0,1,0,3.53,5.15,5.15,0,0,1-5.7-.16,1.29,1.29,0,0,0-1.82.2,1.33,1.33,0,0,0,.2,1.85,7.06,7.06,0,0,0,3.4,1.44v1.72a1.3,1.3,0,1,0,2.59,0V69.3a6.18,6.18,0,0,0,2.95-1.25,4.75,4.75,0,0,0,0-7.63Z"/></svg>