<svg id="Layer_1" data-name="Layer 1" xmlns="http://www.w3.org/2000/svg" viewBox="0 0 124 124"><defs><style>.cls-1{fill:#3dc0cb;}.cls-2{fill:none;stroke:#3dc0cb;stroke-miterlimit:10;stroke-width:3.69px;}.cls-3{fill:#59c4c6;}</style></defs><path class="cls-1" d="M107.51,43.74l0-.12a5.77,5.77,0,0,0-.08-.58,16.52,16.52,0,0,0-1.93-5.74l-.14-.25c-.08-.13-.14-.23-.21-.33l-.15-.25.61-.55-.68.44a16.53,16.53,0,0,0-5.57-5.27C86.18,23.53,70.73,14.65,70.52,14.54l-.4-.24a15.5,15.5,0,0,0-7.44-2H62.3a15.77,15.77,0,0,0-7.49,2L25.6,31.1a16.29,16.29,0,0,0-5.51,5.18c-.1.14-.17.26-.25.39a3.71,3.71,0,0,0-.21.37l-.16.25A16.65,16.65,0,0,0,17.54,43v.14c0,.2,0,.35-.07.52l0,.12a5.05,5.05,0,0,0-.15,1.16v35c0,.09,0,.16,0,.24.05.36.1.75.19,1.16a15.4,15.4,0,0,0,7.57,11.42l29.23,16.82c.32.18.67.35,1,.51a14.94,14.94,0,0,0,1.72.72,16.27,16.27,0,0,0,4.61.91h1.76a16.61,16.61,0,0,0,6.26-1.61c.19-.1,2.41-1.35,27.83-16l2.41-1.39a15.44,15.44,0,0,0,7.59-11.38c.06-.4.13-.8.17-1.25a1.34,1.34,0,0,0,0-.2v-35A4.91,4.91,0,0,0,107.51,43.74Zm-4.23,36.12c0,.23-.07.45-.11.67l0,.22A11.11,11.11,0,0,1,97.7,89l-2.42,1.39L67.73,106.15a12.8,12.8,0,0,1-1.26.52,11.73,11.73,0,0,1-3.3.66H61.93a11.75,11.75,0,0,1-3.47-.67,11.41,11.41,0,0,1-1.27-.53c-.27-.12-.52-.26-.74-.38L27.24,89a11,11,0,0,1-5.42-8.2l0-.16a6,6,0,0,1-.12-.74v-35l0-.12a2.24,2.24,0,0,0,.09-.45c0-.25,0-.46.07-.66s0-.11,0-.16a12,12,0,0,1,1.42-4.07l.1-.16a2.69,2.69,0,0,1,.16-.29h0l.14-.19a12,12,0,0,1,4.07-3.86L57,18.1a11.17,11.17,0,0,1,5.35-1.45h.19a11.09,11.09,0,0,1,5.39,1.43l.41.24L97.16,34.88a12.14,12.14,0,0,1,4,3.79l.23.37.12.2.06.11a11.54,11.54,0,0,1,1.45,4.17c0,.3.08.54.1.78a2.17,2.17,0,0,0,.08.43l0,.23Z"/><path class="cls-2" d="M34,59.75l-.16-16.42a2.93,2.93,0,0,1,2.94-2.91L92,39.9a3.65,3.65,0,0,1,3.74,3.55l.19,19a3.66,3.66,0,0,1-3.69,3.64"/><path class="cls-1" d="M63.64,43.74a9.75,9.75,0,0,0-9.81,9.68,9.4,9.4,0,0,0,2.65,6.43l6.28-.07V59.7l-.37-.11a3.53,3.53,0,0,1-2.84-3.17,1.11,1.11,0,0,1,1.12-1.09h0a1.1,1.1,0,0,1,1.12,1.07c0,.65,1,1.23,2.08,1.23S66,57.05,66,56.39c0-.41-.43-.85-1.08-1.07l-.22-.1-3.14-1.91h0a3.29,3.29,0,0,1-1.94-2.85,3.49,3.49,0,0,1,2.84-3.19l.37-.11v-.57a1.12,1.12,0,0,1,2.23,0v.57l.38.11a3.48,3.48,0,0,1,2.83,3.19,1.12,1.12,0,0,1-2.24,0c0-.62-.89-1.19-2-1.23h-.22c-1.05,0-2,.61-2,1.23,0,.35.29.7.79.95l.08.05,3.06,1.85.08,0a3.44,3.44,0,0,1,2.4,3,3.5,3.5,0,0,1-2.83,3.2L65,59.7v0l6.16-.07a9.36,9.36,0,0,0,2.48-6.45A9.75,9.75,0,0,0,63.64,43.74Z"/><path class="cls-1" d="M81.71,45.2a1.51,1.51,0,0,0-.77,1.23,1.45,1.45,0,0,0,.22.87,1.58,1.58,0,0,0,1.27.75,1.65,1.65,0,0,0,.91-.21L94.2,41.6c-.66-.81-1.34-1.62-1.94-2.46Z"/><path class="cls-1" d="M95.25,43.34,81.33,52.47a1.53,1.53,0,0,0-.7,1.27,1.5,1.5,0,0,0,.28.87,1.61,1.61,0,0,0,1.31.67,1.59,1.59,0,0,0,.89-.26L97,45.94a8.17,8.17,0,0,0-1.3-2.78A1.65,1.65,0,0,0,95.25,43.34Z"/><path class="cls-2" d="M88.1,85.48,31.79,86a2.25,2.25,0,0,1-2.27-2.23l-.24-23.42a.57.57,0,0,1,.56-.57l58.84-.55a2.37,2.37,0,0,1,2.44,2.32l.21,20.73A3.21,3.21,0,0,1,88.1,85.48Z"/><path class="cls-3" d="M59.09,63.09a9.59,9.59,0,1,0,10,9.49A9.74,9.74,0,0,0,59.09,63.09ZM58,70.75l.09,0,3,1.86.09,0a3.43,3.43,0,0,1,2.4,3,3.5,3.5,0,0,1-2.84,3.2l-.37.1v.59a1.12,1.12,0,0,1-2.23,0V79l-.37-.1A3.52,3.52,0,0,1,55,75.76a1.1,1.1,0,0,1,1.11-1.09h0a1.11,1.11,0,0,1,1.12,1.07c0,.66,1,1.23,2.08,1.23s2.09-.58,2.09-1.23c0-.42-.43-.85-1.08-1.08a1.07,1.07,0,0,1-.22-.1L57,72.65h0A3.28,3.28,0,0,1,55,69.79a3.5,3.5,0,0,1,2.84-3.19l.37-.11v-.57a1.12,1.12,0,0,1,2.23,0v.57l.37.11a3.5,3.5,0,0,1,2.84,3.19,1.12,1.12,0,0,1-2.24,0c0-.61-.89-1.18-2-1.22h-.22c-1.06,0-1.95.61-1.95,1.22A1.2,1.2,0,0,0,58,70.75Z"/><path class="cls-3" d="M77.16,64.54a1.52,1.52,0,0,0-.77,1.23,1.48,1.48,0,0,0,.22.88,1.62,1.62,0,0,0,2.17.54l10.87-6.25c-.66-.81-1.34-1.61-1.94-2.46Z"/><path class="cls-3" d="M90.7,62.69,76.78,71.82a1.52,1.52,0,0,0-.7,1.27,1.45,1.45,0,0,0,.28.86,1.58,1.58,0,0,0,1.31.68,1.6,1.6,0,0,0,.89-.27l13.85-9.07a8.13,8.13,0,0,0-1.3-2.79A1.69,1.69,0,0,0,90.7,62.69Z"/></svg>