<svg id="Layer_1" data-name="Layer 1" xmlns="http://www.w3.org/2000/svg" viewBox="0 0 124 124"><defs><style>.cls-1{fill:#3dc0cb;}</style></defs><path class="cls-1" d="M105.9,43.69l0-.11a5.21,5.21,0,0,0-.08-.57,16.33,16.33,0,0,0-1.92-5.72l-.14-.25c-.08-.13-.14-.22-.2-.33l-.15-.25.6-.55-.68.44a16.5,16.5,0,0,0-5.53-5.24C84.68,23.59,69.31,14.75,69.1,14.65l-.39-.24a15.32,15.32,0,0,0-7.41-2h-.37a15.47,15.47,0,0,0-7.46,2L24.41,31.12a16.23,16.23,0,0,0-5.48,5.16c-.1.14-.17.26-.25.39s-.15.24-.21.36a1.83,1.83,0,0,0-.15.25,16.5,16.5,0,0,0-1.93,5.64v.14c0,.2,0,.35-.06.52l0,.11a4.68,4.68,0,0,0-.15,1.16V79.69c0,.09,0,.17,0,.24a10.61,10.61,0,0,0,.18,1.16,15.34,15.34,0,0,0,7.53,11.36L53,109.18c.32.19.67.36,1,.52a15.81,15.81,0,0,0,1.71.71,16.47,16.47,0,0,0,4.59.9H62a16.34,16.34,0,0,0,4.51-.89,15.18,15.18,0,0,0,1.71-.71c.2-.1,2.4-1.34,27.69-15.87l2.4-1.39a15.36,15.36,0,0,0,7.55-11.33c.06-.39.13-.79.17-1.23a1.48,1.48,0,0,0,0-.21V44.85A5,5,0,0,0,105.9,43.69Zm-4.21,36c0,.23-.07.44-.11.67l0,.21a11,11,0,0,1-5.41,8.16l-2.4,1.38L66.32,105.8c-.42.19-.81.35-1.25.51a12,12,0,0,1-3.28.66H60.55a11.94,11.94,0,0,1-3.45-.67,12.39,12.39,0,0,1-1.26-.52c-.27-.12-.52-.26-.74-.38L26,88.68a11,11,0,0,1-5.39-8.16l0-.16a5.85,5.85,0,0,1-.12-.73V44.81l0-.12a2.24,2.24,0,0,0,.09-.45c0-.25,0-.45.07-.65s0-.11,0-.17a11.85,11.85,0,0,1,1.41-4l.1-.16.16-.29h0l.14-.19a12.1,12.1,0,0,1,4-3.84l29.06-16.7A11.06,11.06,0,0,1,61,16.74h.19a11,11,0,0,1,5.36,1.43l.41.24c.44.24,28.45,16.34,28.68,16.47a12.12,12.12,0,0,1,4,3.77l.23.37c.05.08.09.14.12.2l.06.11a11.43,11.43,0,0,1,1.44,4.15c0,.3.08.54.1.77a2.17,2.17,0,0,0,.08.43l0,.23Z"/><path class="cls-1" d="M94.29,51.94c-1.43,0-2.84,0-4.26,0a1.26,1.26,0,0,1-1.32-.81,22.82,22.82,0,0,0-8.54-9.66,1.72,1.72,0,0,1-.69-1.24v-.58c0-1.89-.07-3.83,0-5.77A2.42,2.42,0,0,0,78,31.18h-.85l-2.92,1.58c-2.44,1.32-5,2.67-7.41,4.07a8.73,8.73,0,0,1-4.7,1.2c-3-.08-6.08-.05-9,0H50.76a22.84,22.84,0,0,0-22.2,17,18,18,0,0,0-.46,2.43l-.2,1.19-.13.65v3.29c.08.36.15.81.23,1.27.16,1,.32,1.93.56,2.85a22.27,22.27,0,0,0,8.15,12.23,1.66,1.66,0,0,1,.7,1.45c0,1.84,0,3.68,0,5.51v.66a2,2,0,0,0,2.23,2.26H50.37a2,2,0,0,0,2.2-2.16V83.68h13.5v2.91a2,2,0,0,0,2.15,2.2H78.41a2,2,0,0,0,2.14-2.14c0-2,0-3.89,0-5.84a1.52,1.52,0,0,1,.7-1.4,22.5,22.5,0,0,0,8.57-11.8,1.25,1.25,0,0,1,1.34-1c1,0,2,0,3.09,0a1.93,1.93,0,0,0,2-2c0-3.56,0-7.12,0-10.66A1.91,1.91,0,0,0,94.29,51.94Zm-2,10.77H88.87a2,2,0,0,0-2.31,1.84A18.89,18.89,0,0,1,77.69,77a2.1,2.1,0,0,0-1.07,2V84.8H70V82.12a2.59,2.59,0,0,0-.59-1.86,2.5,2.5,0,0,0-1.82-.58H51A2.07,2.07,0,0,0,48.63,82c0,.5,0,1,0,1.52v1.24H41.42l0-.7c0-.16,0-.32,0-.48v-1.3c0-1.14,0-2.27,0-3.41a2.59,2.59,0,0,0-1.28-2.44,18.85,18.85,0,0,1,6.7-34.1,22,22,0,0,1,4.14-.4c2.33,0,4.65,0,7,0s4.49,0,6.73,0a4.1,4.1,0,0,0,1.76-.45c1.79-.94,3.56-1.92,5.34-2.9l3.65-2,.09,1c0,.16,0,.31,0,.45v1c0,.9,0,1.8,0,2.7A2.41,2.41,0,0,0,77,44.22,18.29,18.29,0,0,1,84.71,52c.37.71.69,1.45,1,2.17l.09.22a2,2,0,0,0,2.15,1.51c.88,0,1.76,0,2.66,0h1.7Z"/><path class="cls-1" d="M65.7,48.4a2,2,0,0,1-2.07,2H50.48A1.89,1.89,0,0,1,48.67,49a1.83,1.83,0,0,1,.67-2.1,2.71,2.71,0,0,1,1.29-.43c4.59,0,9.16,0,13,0a2.13,2.13,0,0,1,1.46.59A2,2,0,0,1,65.7,48.4Z"/></svg>