<?xml version="1.0" encoding="utf-8"?>
<!-- Generator: Adobe Illustrator 21.0.2, SVG Export Plug-In . SVG Version: 6.00 Build 0)  -->
<svg version="1.0" xmlns="http://www.w3.org/2000/svg" xmlns:xlink="http://www.w3.org/1999/xlink" x="0px" y="0px"
	 viewBox="0 0 96 96" enable-background="new 0 0 96 96" xml:space="preserve">
<g id="Guidelines">
</g>
<g id="Your_Icons">
	<rect x="24.481" y="24.92" fill="#FFFFFF" width="51.292" height="46.583"/>
	<path fill="#FFFFFF" d="M69.692,84.301H30.054c-3.33,0-6.054-2.724-6.054-6.054V20.272c0-3.33,2.724-6.054,6.054-6.054h39.637
		c3.33,0,6.054,2.724,6.054,6.054v57.975C75.746,81.577,73.021,84.301,69.692,84.301z"/>
	<path fill="none" stroke="#FBB040" stroke-width="2.5" stroke-miterlimit="10" d="M69.692,84.301H30.054
		c-3.33,0-6.054-2.724-6.054-6.054V20.272c0-3.33,2.724-6.054,6.054-6.054h39.637c3.33,0,6.054,2.724,6.054,6.054v57.975
		C75.746,81.577,73.021,84.301,69.692,84.301z"/>
	
		<line fill="none" stroke="#FBB040" stroke-width="1.5" stroke-linecap="round" stroke-linejoin="round" stroke-miterlimit="10" x1="24.647" y1="22.164" x2="75.098" y2="22.164"/>
	
		<line fill="none" stroke="#FBB040" stroke-width="1.5" stroke-linecap="round" stroke-linejoin="round" stroke-miterlimit="10" x1="24.647" y1="73.173" x2="75.098" y2="73.173"/>
	<circle fill="#FBB040" cx="50.072" cy="78.458" r="2.709"/>
	<path fill="#FFFFFF" d="M80.644,85.301H64.999c-1.964,0-3.572-1.607-3.572-3.572V47.527c0-1.964,1.607-3.572,3.572-3.572h15.646
		c1.964,0,3.572,1.607,3.572,3.572v34.202C84.216,83.694,82.609,85.301,80.644,85.301z"/>
	<path fill="#FEE7C5" d="M80.928,85.301H65.283c-1.964,0-3.572-1.607-3.572-3.572V47.527c0-1.964,1.607-3.572,3.572-3.572h15.646
		c1.964,0,3.572,1.607,3.572,3.572v34.202C84.5,83.694,82.893,85.301,80.928,85.301z"/>
	<rect x="61.711" y="50.269" fill="#FFFFFF" width="22.521" height="27.482"/>
	<path fill="none" stroke="#FBB040" stroke-width="2.5" stroke-miterlimit="10" d="M80.644,85.301H64.999
		c-1.964,0-3.572-1.607-3.572-3.572V47.527c0-1.964,1.607-3.572,3.572-3.572h15.646c1.964,0,3.572,1.607,3.572,3.572v34.202
		C84.216,83.694,82.609,85.301,80.644,85.301z"/>
	
		<line fill="none" stroke="#FBB040" stroke-width="1.5" stroke-linecap="round" stroke-linejoin="round" stroke-miterlimit="10" x1="61.809" y1="50.131" x2="83.834" y2="50.131"/>
	
		<line fill="none" stroke="#FBB040" stroke-width="1.5" stroke-linecap="round" stroke-linejoin="round" stroke-miterlimit="10" x1="70.143" y1="47.155" x2="75.5" y2="47.155"/>
	
		<line fill="none" stroke="#FBB040" stroke-width="1.5" stroke-linecap="round" stroke-linejoin="round" stroke-miterlimit="10" x1="61.809" y1="77.811" x2="83.834" y2="77.811"/>
	<circle fill="#FBB040" cx="72.822" cy="81.445" r="2.058"/>
	<ellipse fill="#FEE7C5" cx="28.408" cy="31.7" rx="23.568" ry="23.885"/>
	<g>
		<g>
			<path fill="#FBB040" d="M28.408,10.314c11.617,0,21.068,9.593,21.068,21.385s-9.451,21.385-21.068,21.385
				C16.791,53.085,7.34,43.492,7.34,31.7S16.791,10.314,28.408,10.314 M28.408,7.814C15.392,7.814,4.84,18.508,4.84,31.7
				s10.552,23.885,23.568,23.885c13.016,0,23.568-10.694,23.568-23.885S41.424,7.814,28.408,7.814L28.408,7.814z"/>
		</g>
	</g>
	<g>
		<path fill="#FFFFFF" d="M28.408,49.606c-9.874,0-17.907-8.033-17.907-17.907s8.033-17.907,17.907-17.907
			S46.314,21.826,46.314,31.7S38.282,49.606,28.408,49.606z"/>
		<g>
			<path fill="#FBB040" d="M28.408,14.543c9.46,0,17.157,7.696,17.157,17.157s-7.697,17.157-17.157,17.157S11.251,41.16,11.251,31.7
				S18.948,14.543,28.408,14.543 M28.408,13.043c-10.304,0-18.657,8.353-18.657,18.657s8.353,18.657,18.657,18.657
				S47.065,42.004,47.065,31.7S38.712,13.043,28.408,13.043L28.408,13.043z"/>
		</g>
	</g>
	
		<polyline fill="#FFFFFF" stroke="#FBB040" stroke-width="2.5" stroke-linecap="round" stroke-linejoin="round" stroke-miterlimit="10" points="
		19.263,33.215 26.116,39.14 36.222,23.806 	"/>
</g>
</svg>
