<?xml version="1.0" encoding="utf-8"?>
<!-- Generator: Adobe Illustrator 21.1.0, SVG Export Plug-In . SVG Version: 6.00 Build 0)  -->
<svg version="1.0" xmlns="http://www.w3.org/2000/svg" xmlns:xlink="http://www.w3.org/1999/xlink" x="0px" y="0px"
	 viewBox="0 0 96 96" enable-background="new 0 0 96 96" xml:space="preserve">
<g id="Guidelines">
</g>
<g id="Your_Icons">
	<path fill="#FEE7C5" d="M83.657,83.764H14.373c-3.3,0-6-2.7-6-6V40.308c0-3.3,2.7-6,6-6h69.283c3.3,0,6,2.7,6,6v37.457
		C89.657,81.064,86.957,83.764,83.657,83.764z"/>
	<path fill="none" stroke="#FBB040" stroke-width="2.5" stroke-miterlimit="10" d="M83.657,83.764H14.373c-3.3,0-6-2.7-6-6V40.308
		c0-3.3,2.7-6,6-6h69.283c3.3,0,6,2.7,6,6v37.457C89.657,81.064,86.957,83.764,83.657,83.764z"/>
	<path fill="#FFFFFF" stroke="#FBB040" stroke-width="2.5" stroke-miterlimit="10" d="M75.657,16.308H22.373c-3.3,0-6,2.7-6,6
		v61.457h65.283V22.308C81.657,19.008,78.957,16.308,75.657,16.308z"/>
	<g>
		<path fill="#FBB040" d="M36.208,33.09l-0.769,2.769H32.91l3.298-10.789h3.201l3.346,10.789H40.13l-0.833-2.769H36.208z
			 M38.945,31.265l-0.673-2.289c-0.191-0.64-0.384-1.44-0.544-2.081h-0.032c-0.16,0.64-0.32,1.457-0.496,2.081l-0.641,2.289H38.945z
			"/>
		<path fill="#FBB040" d="M44.943,27.119h-2.896V25.07h8.291v2.049h-2.945v8.74h-2.449V27.119z"/>
		<path fill="#FBB040" d="M60.69,31.729c-0.048-1.296-0.096-2.865-0.096-4.434h-0.048c-0.337,1.376-0.784,2.913-1.201,4.178
			l-1.313,4.209h-1.904l-1.152-4.162c-0.353-1.28-0.721-2.817-0.977-4.226h-0.032c-0.063,1.457-0.112,3.121-0.192,4.466
			l-0.191,4.098h-2.257l0.688-10.789h3.25l1.057,3.602c0.336,1.232,0.672,2.593,0.912,3.857h0.048
			c0.304-1.248,0.672-2.673,1.024-3.874l1.152-3.585h3.186l0.592,10.789h-2.385L60.69,31.729z"/>
	</g>
	<path fill="#FFFFFF" stroke="#FBB040" stroke-width="2.5" stroke-miterlimit="10" d="M64.961,56.616H33.15
		c-0.686,0-1.247-0.561-1.247-1.248v-8.317c0-0.686,0.561-1.248,1.247-1.248h31.811c0.686,0,1.248,0.561,1.248,1.248v8.317
		C66.208,56.055,65.647,56.616,64.961,56.616z"/>
	<rect x="35.896" y="51.003" fill="none" width="27.146" height="26.873"/>
	<g>
		<defs>
			<rect id="SVGID_1_" x="34.625" y="50.965" width="28.75" height="26.417"/>
		</defs>
		<clipPath id="SVGID_2_">
			<use xlink:href="#SVGID_1_"  overflow="visible"/>
		</clipPath>
		<g clip-path="url(#SVGID_2_)">
			<path fill="#FFFFFF" d="M60.795,43.628l-0.015,27.72c-0.001,1.717-1.406,3.121-3.123,3.12l-17.222-0.009
				c-1.717-0.001-3.121-1.406-3.12-3.123l0.015-27.72c0.001-1.717,1.406-3.121,3.123-3.12l17.222,0.009
				C59.392,40.506,60.796,41.911,60.795,43.628z"/>
			
				<rect x="27.061" y="54.953" transform="matrix(0.0048 -1 1 0.0048 -13.3579 101.4259)" fill="#FEE7C5" width="34.435" height="4.942"/>
			<path fill="none" stroke="#FBB040" stroke-width="2.5" stroke-miterlimit="10" d="M60.795,43.628l-0.015,27.72
				c-0.001,1.717-1.406,3.121-3.123,3.12l-17.222-0.009c-1.717-0.001-3.121-1.406-3.12-3.123l0.015-27.72
				c0.001-1.717,1.406-3.121,3.123-3.12l17.222,0.009C59.392,40.506,60.796,41.911,60.795,43.628z"/>
			
				<line fill="#E5E5E5" stroke="#FBB040" stroke-width="1.5" stroke-miterlimit="10" x1="41.821" y1="74.459" x2="41.839" y2="40.904"/>
			
				<line fill="#E5E5E5" stroke="#FBB040" stroke-width="1.5" stroke-miterlimit="10" x1="46.503" y1="74.462" x2="46.521" y2="40.906"/>
		</g>
	</g>
	
		<line fill="none" stroke="#FBB040" stroke-width="2.5" stroke-linecap="round" stroke-linejoin="round" stroke-miterlimit="10" x1="36.224" y1="51.034" x2="61.886" y2="51.034"/>
</g>
</svg>
