<?xml version="1.0" encoding="UTF-8"?><svg id="Bill_payer" xmlns="http://www.w3.org/2000/svg" viewBox="0 0 124 124"><defs><style>.cls-1{letter-spacing:-.04em;}.cls-2,.cls-3{fill:#59c5c7;}.cls-3{font-family:FreightMacroProBold-Regular, 'FreightMacro Pro';font-size:11.12px;}</style></defs><g id="CCU_Icon_Hex_Shape_Light"><path class="cls-2" d="M99.46,79.14c-.03,.2-.06,.39-.1,.6l-.03,.19c-.38,3.05-2.18,5.77-4.84,7.3l-2.15,1.24c-15.72,9.03-23.75,13.64-24.53,14.08-.37,.17-.72,.32-1.12,.46-.93,.33-1.92,.53-2.94,.59h-1.11c-1.13-.06-2.14-.26-3.09-.6-.38-.13-.75-.29-1.12-.47-.24-.11-.47-.23-.66-.34l-26-14.96c-2.65-1.53-4.46-4.25-4.83-7.3l-.02-.14c-.05-.21-.08-.43-.11-.65v-31.16l.03-.11c.04-.12,.07-.27,.08-.4,.02-.22,.04-.4,.07-.59,.01-.04,.01-.1,.02-.14,.2-1.3,.62-2.5,1.26-3.62l.09-.14c.05-.1,.1-.17,.14-.26h0l.13-.18c.91-1.4,2.17-2.6,3.63-3.43l26-14.94c1.45-.83,3.1-1.28,4.76-1.3h.17c1.73,.02,3.38,.46,4.8,1.28l.37,.21c.39,.22,25.45,14.63,25.66,14.74,1.46,.85,2.7,2.02,3.6,3.38l.2,.33c.05,.08,.08,.12,.11,.18l.06,.1c.68,1.2,1.11,2.43,1.29,3.71,.04,.27,.07,.48,.09,.69,0,.12,.04,.26,.08,.38l.03,.2v31.08h0Zm1.45-38.73c-1.25-1.92-2.96-3.54-4.95-4.69-11.72-6.73-25.47-14.64-25.66-14.73l-.36-.21c-2-1.14-4.29-1.77-6.63-1.8-.08,0-.14,0-.2,0h-.13c-2.36,.04-4.65,.66-6.67,1.82l-26,14.94c-1.98,1.14-3.68,2.74-4.9,4.62-.09,.12-.15,.23-.22,.35-.08,.12-.13,.22-.19,.33-.06,.09-.1,.15-.13,.22-.88,1.6-1.46,3.29-1.72,5.05v.12c-.04,.18-.05,.32-.07,.46l-.02,.11c-.09,.35-.13,.69-.13,1.04v31.18c0,.08,0,.14,0,.21,.04,.33,.09,.67,.16,1.04,.54,4.27,3.06,8.05,6.74,10.16l26.02,14.97c.29,.16,.6,.32,.89,.46,.51,.25,1,.45,1.53,.63,1.29,.46,2.66,.73,4.11,.81,.08,.01,.17,.01,.27,.01h.62c.06,0,.12,0,.18,0h.17c.1,0,.19,0,.33-.01,1.4-.08,2.77-.35,4.04-.8,.55-.19,1.06-.4,1.53-.63,.17-.09,2.14-1.2,24.77-14.2l2.15-1.24c3.69-2.12,6.21-5.9,6.75-10.14,.06-.36,.12-.71,.15-1.11,0-.06,0-.12,0-.18v-31.17c0-.36-.05-.7-.12-1.04l-.02-.11c-.02-.17-.04-.34-.07-.51-.26-1.83-.84-3.52-1.72-5.12-.05-.08-.09-.15-.12-.22-.07-.12-.13-.2-.18-.3l-.13-.22"/></g><g><g><rect class="cls-2" x="72.74" y="49.45" width="10.6" height="7.37"/><path class="cls-2" d="M65.41,75.39v-.22h-26.97c-.17,0-.31-.14-.31-.31v-29.1c0-.17,.14-.31,.31-.31h48.23c.17,0,.31,.14,.31,.31v16.3l.12,.06c.4,.21,.78,.43,1.15,.67l.34,.22v-17.26c0-1.06-.86-1.92-1.92-1.92H38.45c-1.06,0-1.92,.86-1.92,1.92v29.1c0,1.06,.86,1.92,1.92,1.92h27.04l-.02-.24c-.03-.38-.05-.77-.05-1.15Z"/><path class="cls-2" d="M40.84,66.89c0,.44,.36,.8,.8,.8h25.85l.06-.11c.24-.39,.5-.78,.78-1.15l.26-.35h-26.95c-.44,0-.8,.36-.8,.8Z"/><path class="cls-2" d="M72.66,62.52c.76-.46,1.57-.84,2.4-1.15l1.14-.42H41.64c-.44,0-.8,.36-.8,.8s.36,.8,.8,.8h30.97l.05-.03Z"/><path class="cls-2" d="M80.23,61.9c-7.37,0-13.36,5.99-13.36,13.36s5.99,13.36,13.36,13.36,13.36-5.99,13.36-13.36-5.99-13.36-13.36-13.36Zm0,25.11c-6.48,0-11.75-5.27-11.75-11.75s5.27-11.75,11.75-11.75,11.75,5.27,11.75,11.75-5.27,11.75-11.75,11.75Z"/><path class="cls-2" d="M86.63,68.62c-.34-.23-.74-.32-1.15-.25-.4,.07-.76,.3-.99,.63l-5.34,7.65-1.81-1.64c-.3-.28-.7-.42-1.11-.4-.41,.02-.79,.2-1.06,.5-.28,.3-.42,.7-.4,1.11,.02,.41,.2,.79,.5,1.06l3.1,2.82c.28,.26,.65,.4,1.03,.4,.06,0,.11,0,.17,0,.44-.05,.84-.29,1.09-.65l6.34-9.09c.23-.34,.32-.74,.25-1.15-.07-.4-.3-.76-.63-.99Z"/></g><text class="cls-3" transform="translate(42.68 56.46)"><tspan x="0" y="0">BIL</tspan><tspan class="cls-1" x="16.89" y="0">L</tspan></text></g></svg>