<svg id="Layer_1" data-name="Layer 1" xmlns="http://www.w3.org/2000/svg" viewBox="0 0 124 124"><defs><style>.cls-1{fill:#3dc1cc;}</style></defs><path class="cls-1" d="M31.5569,29.6057l5.207-2.9925L36.64,21.1725l-4.239,2.4361A22.773,22.773,0,0,1,31.5569,29.6057Z"/><path class="cls-1" d="M111.2016,43.5539l-.0236-.13c-.0236-.2124-.0473-.413-.0824-.6255a18.0521,18.0521,0,0,0-2.1123-6.2777c-.0594-.0943-.106-.1888-.1533-.2714-.083-.1416-.1539-.2479-.2247-.3657l-.1648-.2716-.083-.1179a18.0781,18.0781,0,0,0-6.077-5.7586c-2.3653-1.3582-10.1426-6.7644-12.5573-8.1514l5.7221,9.7387c2.6366,1.5144,4.3906,2.5213,4.4515,2.5546A13.2731,13.2731,0,0,1,104.31,38.02l.2477.4012a2.5464,2.5464,0,0,1,.13.2241l.0709.1181a12.801,12.801,0,0,1,1.5811,4.5549c.0473.33.083.59.106.85a2.25,2.25,0,0,0,.0945.472l.0357.2478V83.0259c-.0357.2478-.0708.4837-.1181.7317l-.0351.2359a12.08,12.08,0,0,1-5.9359,8.9565l-2.643,1.5222c-19.2936,11.0805-29.147,16.7328-30.103,17.2757-.46.2125-.885.3894-1.369.5664a13.1637,13.1637,0,0,1-3.61.72l-.85.0118-.5077-.0118a13.0859,13.0859,0,0,1-3.7878-.7316,12.6976,12.6976,0,0,1-1.3806-.5782c-.295-.13-.5779-.2832-.8141-.413L23.5132,92.95a12.0346,12.0346,0,0,1-5.9238-8.9565l-.0236-.177c-.0588-.26-.0945-.531-.13-.8023L17.4246,44.781l.0467-.13a2.277,2.277,0,0,0,.0945-.4956c.0236-.2714.0472-.4957.0824-.72.0121-.0473.0121-.118.0242-.1769a12.9057,12.9057,0,0,1,1.5453-4.4369l.1066-.1772c.0588-.1179.1181-.2124.1769-.3185v-.0118l.1533-.2125a13.2222,13.2222,0,0,1,4.4487-4.2127l7.4537-4.2836a22.773,22.773,0,0,0,.8443-5.9971L21.72,29.7474a17.8648,17.8648,0,0,0-6.0182,5.6641c-.1061.1536-.1884.2832-.2714.4249-.0945.1533-.1648.2714-.2357.4012-.0708.1062-.1181.1889-.1653.2714a18.2084,18.2084,0,0,0-2.1123,6.1952l-.0116.1533c-.0357.2242-.0472.39-.0708.5665l-.0237.13a5.2546,5.2546,0,0,0-.1654,1.2742V83.085c0,.0942.0122.1769.0122.26.0472.4011.106.8259.2,1.2744A16.84,16.84,0,0,0,21.13,97.0919L53.0613,115.465c.3543.2006.7318.3894,1.0976.5664a16.1161,16.1161,0,0,0,1.8761.7788,17.6857,17.6857,0,0,0,5.0388.9913,2.878,2.878,0,0,0,.33.0118l.7554.0118c.0709,0,.1418-.0118.2242-.0118h.2126c.1181,0,.2356,0,.401-.0118a17.6849,17.6849,0,0,0,4.9564-.98,17.2327,17.2327,0,0,0,1.876-.7787c.2127-.1063,2.6315-1.4751,30.398-17.4292l2.643-1.5222a16.8452,16.8452,0,0,0,8.2839-12.4377c.0708-.4364.1417-.8731.1889-1.3568a1.4543,1.4543,0,0,0,.0116-.2242V44.8281A5.6989,5.6989,0,0,0,111.2016,43.5539Z"/><path class="cls-1" d="M94.8773,100.5934c-1.7627,0-3.1911-.4285-3.1911-2.1911V37.2557H75.6747a3.1908,3.1908,0,0,1-3.1911-3.1911V14.5616h-35.22v85.7116a3.1912,3.1912,0,0,1-6.3823,0V11.3705a3.1908,3.1908,0,0,1,3.1912-3.1911H75.6747a3.1819,3.1819,0,0,1,2.1612.8434l.001.001.0021.0021c.0528.0485.1044.0991.154.1518l19.2025,20.31a3.1924,3.1924,0,0,1,.8729,2.1927V97.4023A3.1908,3.1908,0,0,1,94.8773,100.5934Zm-16.0114-69.72H89.7232L78.8659,19.39Z"/><path class="cls-1" d="M44.9286,98.22a2.8988,2.8988,0,0,1-.0517-5.7971c12.99-.2383,26.8129-.2383,39.9758,0a2.8988,2.8988,0,0,1-.0506,5.7971c-.0179,0-.0358,0-.0527-.0011-13.0954-.234-26.8466-.234-39.7671,0C44.9644,98.22,44.9465,98.22,44.9286,98.22Zm0-7.7306a2.8988,2.8988,0,0,1-.0517-5.7971c12.99-.2383,26.8129-.2383,39.9758,0a2.8988,2.8988,0,0,1-.0506,5.7971c-.0179,0-.0358,0-.0527-.001-13.0965-.233-26.8477-.233-39.7671,0C44.9644,90.4893,44.9465,90.4893,44.9286,90.4893ZM85.2755,83.1H44.93a2.8991,2.8991,0,1,1,0-5.7982H85.2755a2.8991,2.8991,0,0,1,0,5.7982Zm0-7.3932H44.93a2.8991,2.8991,0,0,1,0-5.7982H85.2755a2.8991,2.8991,0,0,1,0,5.7982Zm0-7.389H66.8541a2.8991,2.8991,0,1,1,0-5.7982H85.2755a2.8991,2.8991,0,1,1,0,5.7982Zm0-7.3932H74.1883a2.8991,2.8991,0,0,1,0-5.7982H85.2755a2.8991,2.8991,0,1,1,0,5.7982Zm0-7.389H74.1883a2.8991,2.8991,0,0,1,0-5.7982H85.2755a2.8991,2.8991,0,1,1,0,5.7982Z"/><path class="cls-1" d="M62.4082,51.483c0,3.42-2.5023,6.3656-6.3774,7.503l-.7059.2v2.973a2.6475,2.6475,0,0,1-5.2949,0V59.186l-.7059-.2118c-3.8515-1.1256-6.3381-4.0476-6.3774-7.44a2.6514,2.6514,0,0,1,5.3027-.0392c.0157,1.259,1.8356,2.6592,4.4281,2.6592,2.5258,0,4.428-1.412,4.428-2.671,0-.902-.9178-1.8316-2.2787-2.3179a2.35,2.35,0,0,1-.5138-.2628l-6.9421-4.3731L47.32,44.49a7.6961,7.6961,0,0,1-4.3732-6.6794c0-3.42,2.5023-6.3655,6.3774-7.5069l.7059-.2078v-2.922a2.6475,2.6475,0,0,1,5.2949,0v2.922l.7059.2078c3.8751,1.1414,6.3774,4.0869,6.3774,7.5069a2.6514,2.6514,0,0,1-5.3027,0c0-1.2707-1.9022-2.6866-4.428-2.6866-2.53,0-4.4281,1.4159-4.4281,2.6866a2.5979,2.5979,0,0,0,1.6394,2.0434.9687.9687,0,0,1,.2079.1177l6.746,4.2672L57,44.3174c3.2867,1.3257,5.4086,4.1417,5.4086,7.1656"/></svg>