<svg id="Layer_1" data-name="Layer 1" xmlns="http://www.w3.org/2000/svg" viewBox="0 0 124 124"><defs><style>.cls-1{fill:#3dc1cc;}.cls-2{fill:#fff;}</style></defs><path class="cls-1" d="M106.9613,33.9781m2.7394,10.7083L109.96,60.23V81.5806a1.4655,1.4655,0,0,1-.0115.2242c-.0473.484-.1182.921-.1891,1.3576a16.8531,16.8531,0,0,1-8.288,12.4438l-2.6442,1.523c-27.78,15.9619-30.2,17.3313-30.413,17.4377a17.2427,17.2427,0,0,1-1.877.7791,17.6906,17.6906,0,0,1-4.9588.98c-.1654.0118-.283.0118-.4012.0118h-.2127c-.0825,0-.1534.0118-.2243.0118l-.7557-.0118a2.8807,2.8807,0,0,1-.33-.0118,17.6915,17.6915,0,0,1-5.0413-.9918,16.1311,16.1311,0,0,1-1.877-.7791c-.366-.1771-.7436-.3661-1.0982-.5667L19.69,95.6062a16.8486,16.8486,0,0,1-8.2758-12.4791c-.0946-.4486-.1534-.8736-.2006-1.275,0-.0827-.0121-.1654-.0121-.26V43.3167a5.2553,5.2553,0,0,1,.1654-1.2749l.0237-.13c.0236-.177.0351-.3424.0709-.5667l.0115-.1534a18.2221,18.2221,0,0,1,2.1133-6.1983c.0473-.0825.0946-.1653.1655-.2715.0709-.13.1412-.248.2358-.4014.083-.1418.1654-.2715.2715-.4251a17.8738,17.8738,0,0,1,6.0212-5.6669L52.2045,9.8817A17.08,17.08,0,0,1,60.3979,7.65h.1655a1.9155,1.9155,0,0,1,.2478.0118A16.8281,16.8281,0,0,1,68.9458,9.87l.4364.26c.1775.0931,13.11,7.5237,24.6269,14.1394l-9.0165.3355c-7.7192-4.4354-17.7667-10.2082-18.0068-10.3428l-.4485-.26a12.06,12.06,0,0,0-5.8915-1.57h-.2122a12.1254,12.1254,0,0,0-5.8442,1.5938L22.6655,32.3725a13.2263,13.2263,0,0,0-4.4509,4.2147l-.1534.2126v.0118c-.0588.1062-.1182.2008-.177.3187l-.1066.1772a12.912,12.912,0,0,0-1.5461,4.4392c-.0121.0589-.0121.13-.0242.1769-.0352.2243-.0588.4487-.0825.72a2.28,2.28,0,0,1-.0945.4959l-.0467.13.0115,38.2519c.0352.2715.0709.543.13.8027l.0237.1772a12.04,12.04,0,0,0,5.9267,8.9608l31.9239,18.37c.2363.13.5194.2834.8145.4132a12.6892,12.6892,0,0,0,1.3812.5785,13.0956,13.0956,0,0,0,3.79.732l.5078.0118.85-.0118a13.1731,13.1731,0,0,0,3.6122-.72c.4843-.1771.91-.3541,1.37-.5666.9564-.5432,10.8146-6.1983,30.1178-17.2843l2.6443-1.523a12.0851,12.0851,0,0,0,5.9388-8.9608l.0352-.2361c.0472-.248.0824-.4841.1181-.732V43.3758l4.5219-2.09m-6.7886-4.7814"/><path class="cls-2" d="M105.1908,18.4946H43.4841A8.6553,8.6553,0,0,0,34.9319,27.23V71.3448a8.6551,8.6551,0,0,0,8.5522,8.7344h61.7067a8.6552,8.6552,0,0,0,8.5522-8.7344V27.23A8.6554,8.6554,0,0,0,105.1908,18.4946Z"/><path class="cls-1" d="M89.6325,92.9122H59.1473a2.4515,2.4515,0,1,1,0-4.9029c4.2517,0,7.7106-4.5984,7.7106-10.2511a2.4513,2.4513,0,0,1,2.4515-2.4515H79.4705a2.4513,2.4513,0,0,1,2.4514,2.4515c0,5.6527,3.4589,10.2511,7.7106,10.2511a2.4515,2.4515,0,1,1,0,4.9029ZM68.4293,88.0093H80.3505a16.4878,16.4878,0,0,1-3.1668-7.8H71.5961A16.4878,16.4878,0,0,1,68.4293,88.0093Z"/><path class="cls-1" d="M106.1454,80.21H42.6344a8.8129,8.8129,0,0,1-8.8023-8.8023V65.0556a2.4513,2.4513,0,0,1,2.4515-2.4515h76.2126a2.4513,2.4513,0,0,1,2.4515,2.4515v6.3517A8.8129,8.8129,0,0,1,106.1454,80.21ZM38.7351,67.507v3.9a3.9041,3.9041,0,0,0,3.8993,3.8994h63.511a3.9042,3.9042,0,0,0,3.8994-3.8994v-3.9Z"/><path class="cls-1" d="M112.4962,67.507H36.2836a2.4513,2.4513,0,0,1-2.4515-2.4514V26.95a8.8131,8.8131,0,0,1,8.8023-8.8032h63.511a8.8131,8.8131,0,0,1,8.8023,8.8032V65.0556A2.4513,2.4513,0,0,1,112.4962,67.507ZM38.7351,62.6041h71.31V26.95a3.9044,3.9044,0,0,0-3.8994-3.9H42.6344a3.9044,3.9044,0,0,0-3.8993,3.9Z"/><path class="cls-1" d="M77.5658,73.9373H71.214a2.53,2.53,0,0,1,0-5.0609h6.3518a2.53,2.53,0,0,1,0,5.0609Zm0-.158h0Z"/><path class="cls-2" d="M68.208,88.0113H80.1292a16.4878,16.4878,0,0,1-3.1668-7.8H71.3748A16.4868,16.4868,0,0,1,68.208,88.0113Z"/><path class="cls-1" d="M81.3275,47.846c0,2.5007-1.83,4.6544-4.663,5.486l-.5162.1463V55.652a1.9358,1.9358,0,0,1-3.8715,0V53.4783l-.5162-.1549c-2.8161-.823-4.6343-2.9595-4.6629-5.44a1.9387,1.9387,0,1,1,3.8772-.0287c.0114.9205,1.3421,1.9443,3.2377,1.9443,1.8468,0,3.2377-1.0324,3.2377-1.9529,0-.66-.6711-1.3393-1.6662-1.6949a1.7166,1.7166,0,0,1-.3757-.1921l-5.0759-3.1976-.0373-.0286a5.6271,5.6271,0,0,1-3.1975-4.8838c0-2.5007,1.83-4.6544,4.6629-5.4889l.5162-.152V30.0716a1.9358,1.9358,0,0,1,3.8715,0v2.1365l.5162.152c2.8334.8345,4.663,2.9882,4.663,5.4889a1.9386,1.9386,0,0,1-3.8772,0c0-.9292-1.3909-1.9644-3.2377-1.9644-1.85,0-3.2377,1.0352-3.2377,1.9644a1.9,1.9,0,0,0,1.1987,1.4941.7093.7093,0,0,1,.152.086l4.9325,3.12.1148.0574a5.875,5.875,0,0,1,3.9546,5.2394"/><path class="cls-2" d="M47.0705,47.5188H28.0867a4.81,4.81,0,0,0-4.7844,4.8235V87.141a4.81,4.81,0,0,0,4.7844,4.8235H47.0705a4.81,4.81,0,0,0,4.7843-4.8235V52.3423A4.81,4.81,0,0,0,47.0705,47.5188Z"/><path class="cls-1" d="M47.2492,91.9462H27.9529a4.8686,4.8686,0,0,1-4.863-4.8631V83.5748a1.3542,1.3542,0,0,1,1.3542-1.3543H50.758a1.3542,1.3542,0,0,1,1.3543,1.3543v3.5083A4.8686,4.8686,0,0,1,47.2492,91.9462ZM25.7983,84.929v2.1541a2.157,2.157,0,0,0,2.1546,2.1546H47.2492a2.157,2.157,0,0,0,2.1546-2.1546V84.929Z"/><path class="cls-1" d="M50.758,56.8615H24.4441A1.3542,1.3542,0,0,1,23.09,55.5072V51.9989a4.8686,4.8686,0,0,1,4.863-4.8631H47.2492a4.8686,4.8686,0,0,1,4.8631,4.8631v3.5083A1.3542,1.3542,0,0,1,50.758,56.8615Zm-24.96-2.7085H49.4038V51.9989a2.157,2.157,0,0,0-2.1546-2.1546H27.9529a2.157,2.157,0,0,0-2.1546,2.1546Z"/><path class="cls-1" d="M50.758,84.929H24.4441A1.3541,1.3541,0,0,1,23.09,83.5748V55.5072a1.3541,1.3541,0,0,1,1.3542-1.3542H50.758a1.3542,1.3542,0,0,1,1.3543,1.3542V83.5748A1.3542,1.3542,0,0,1,50.758,84.929Zm-24.96-2.7085H49.4038V56.8615H25.7983Z"/><path class="cls-1" d="M37.6013,88.8759a1.7928,1.7928,0,1,1,1.7928-1.7928A1.7946,1.7946,0,0,1,37.6013,88.8759Z"/><path class="cls-1" d="M39.3555,53.3965H35.8466a1.3979,1.3979,0,0,1,0-2.7957h3.5089a1.3979,1.3979,0,0,1,0,2.7957Zm0-.0873h0Z"/><path class="cls-1" d="M42.4137,72.8a4.01,4.01,0,0,1-3.1553,3.7122l-.3492.0989v1.4709a1.31,1.31,0,0,1-2.62,0V76.6115l-.3493-.1048a4.02,4.02,0,0,1-3.1552-3.6811,1.3118,1.3118,0,0,1,2.6235-.0194c.0078.6229.9082,1.3157,2.1908,1.3157,1.25,0,2.1908-.6986,2.1908-1.3215,0-.4463-.454-.9062-1.1274-1.1468a1.1623,1.1623,0,0,1-.2542-.13L34.9738,69.36l-.0252-.0194a3.8075,3.8075,0,0,1-2.1636-3.3046A4.014,4.014,0,0,1,35.94,62.3218l.3493-.1029V60.7733a1.31,1.31,0,0,1,2.62,0v1.4456l.3492.1029a4.0141,4.0141,0,0,1,3.1553,3.7141,1.3118,1.3118,0,0,1-2.6236,0c0-.6287-.9411-1.3293-2.1908-1.3293-1.2516,0-2.1908.7006-2.1908,1.3293a1.2855,1.2855,0,0,0,.8111,1.011.4739.4739,0,0,1,.1029.0582L39.66,69.2163l.0776.0388A3.9754,3.9754,0,0,1,42.4137,72.8"/></svg>