<?xml version="1.0" encoding="utf-8"?>
<!-- Generator: Adobe Illustrator 21.0.2, SVG Export Plug-In . SVG Version: 6.00 Build 0)  -->
<svg version="1.0" xmlns="http://www.w3.org/2000/svg" xmlns:xlink="http://www.w3.org/1999/xlink" x="0px" y="0px"
	 viewBox="0 0 96 96" enable-background="new 0 0 96 96" xml:space="preserve">
<g id="Guidelines">
</g>
<g id="Your_Icons">
	<g>
		
			<rect x="41.891" y="30.435" fill="#FEE7B3" stroke="#FBB004" stroke-width="2.5" stroke-linecap="round" stroke-linejoin="round" stroke-miterlimit="10" width="6.478" height="12.957"/>
		
			<rect x="22.457" y="30.435" fill="#FEE7B3" stroke="#FBB004" stroke-width="2.5" stroke-linecap="round" stroke-linejoin="round" stroke-miterlimit="10" width="6.478" height="12.957"/>
		
			<rect x="64.565" y="30.435" fill="#FEE7B3" stroke="#FBB004" stroke-width="2.5" stroke-linecap="round" stroke-linejoin="round" stroke-miterlimit="10" width="6.478" height="12.957"/>
		
			<line fill="none" stroke="#FBB004" stroke-width="1.5" stroke-linecap="round" stroke-linejoin="round" stroke-miterlimit="10" x1="9.5" y1="85.5" x2="84" y2="85.5"/>
		
			<path fill="none" stroke="#FBB004" stroke-width="1.5" stroke-linecap="round" stroke-linejoin="round" stroke-miterlimit="10" d="
			M12.739,51.489v21.054c0,3.565,2.917,6.478,6.478,6.478h55.065c3.562,0,6.478-2.913,6.478-6.478V51.489"/>
		
			<path fill="#FEE7B3" stroke="#FBB004" stroke-width="1.5" stroke-linecap="round" stroke-linejoin="round" stroke-miterlimit="10" d="
			M12.739,51.489c0,4.473,4.859,8.098,8.098,8.098s8.098-3.625,8.098-8.098c0,4.925,4.859,8.908,8.908,8.908
			s8.908-3.983,8.908-8.908c0,4.925,4.859,8.908,8.908,8.908s8.908-3.983,8.908-8.908c0,4.473,4.859,8.098,8.098,8.098
			c3.239,0,8.098-3.625,8.098-8.098v-8.098H12.739V51.489z"/>
		<path fill="#FEE7B3" stroke="#FBB004" stroke-width="1.5" stroke-miterlimit="10" d="M30.554,19.098
			c0,2.686-2.176,4.859-4.859,4.859c-2.686,0-4.859-2.173-4.859-4.859c0-2.679,4.859-8.098,4.859-8.098S30.554,16.419,30.554,19.098
			z"/>
		<path fill="#FEE7B3" stroke="#FBB004" stroke-width="1.5" stroke-miterlimit="10" d="M72.663,19.098
			c0,2.686-2.176,4.859-4.859,4.859c-2.686,0-4.859-2.173-4.859-4.859c0-2.679,4.859-8.098,4.859-8.098S72.663,16.419,72.663,19.098
			z"/>
		<path fill="#FEE7B3" stroke="#FBB004" stroke-width="1.5" stroke-miterlimit="10" d="M49.989,19.098
			c0,2.686-2.176,4.859-4.859,4.859c-2.686,0-4.859-2.173-4.859-4.859c0-2.679,4.859-8.098,4.859-8.098S49.989,16.419,49.989,19.098
			z"/>
	</g>
</g>
</svg>
