<?xml version="1.0" encoding="utf-8"?>
<!-- Generator: Adobe Illustrator 21.0.2, SVG Export Plug-In . SVG Version: 6.00 Build 0)  -->
<svg version="1.0" xmlns="http://www.w3.org/2000/svg" xmlns:xlink="http://www.w3.org/1999/xlink" x="0px" y="0px"
	 viewBox="0 0 96 96" enable-background="new 0 0 96 96" xml:space="preserve">
<g id="Guidelines">
</g>
<g id="Your_Icons">
	<g>
		
			<path fill="#FFFFFF" stroke="#FBB004" stroke-width="2" stroke-linecap="round" stroke-linejoin="round" stroke-miterlimit="10" d="
			M70.953,69.459L21.87,77.275c-2.809,0.447-5.448-1.467-5.896-4.276l-3.287-20.641c-0.447-2.809,1.467-5.448,4.276-5.896
			l49.083-7.816c2.809-0.447,5.448,1.467,5.896,4.276l3.287,20.641C75.676,66.372,73.762,69.012,70.953,69.459z"/>
		<path opacity="0.4" fill="#FBB004" d="M63.919,42.693l-43.38,6.908c-0.453,2.129-1.807,3.971-3.707,5.039l2.373,14.903
			c2.138,0.426,3.996,1.756,5.088,3.639l43.38-6.908c0.431-2.025,1.672-3.796,3.427-4.884l-2.408-15.12
			C66.687,45.782,64.957,44.484,63.919,42.693z"/>
		
			<ellipse transform="matrix(0.9876 -0.1573 0.1573 0.9876 -8.6252 7.5992)" fill="#FFFFFF" cx="43.709" cy="58.305" rx="7.7" ry="7.7"/>
		
			<ellipse transform="matrix(0.9876 -0.1573 0.1573 0.9876 -9.1731 5.3296)" fill="#FFFFFF" cx="29.093" cy="60.632" rx="1.488" ry="1.488"/>
		<g>
			<g>
				<path fill="#FBB004" d="M43.893,59.128c-0.747,0.119-1.493-0.006-2.099-0.351c-0.651-0.37-1.07-0.947-1.178-1.622
					c-0.108-0.676,0.111-1.354,0.615-1.909c0.954-1.049,2.921-1.327,4.21-0.594c0.296,0.168,0.399,0.544,0.231,0.84
					c-0.167,0.296-0.544,0.4-0.84,0.231c-0.773-0.44-2.131-0.261-2.689,0.352c-0.247,0.272-0.357,0.587-0.31,0.886
					c0.048,0.299,0.25,0.563,0.57,0.745c0.365,0.208,0.826,0.28,1.297,0.205c0.336-0.053,0.652,0.176,0.705,0.511
					C44.458,58.759,44.229,59.075,43.893,59.128z"/>
				<path fill="#FBB004" d="M44.451,62.747c-0.793,0.126-1.636,0.017-2.3-0.36c-0.296-0.169-0.399-0.545-0.231-0.84
					c0.168-0.296,0.544-0.398,0.84-0.231c0.773,0.44,2.13,0.261,2.689-0.352c0.248-0.272,0.358-0.587,0.31-0.886
					c-0.048-0.299-0.25-0.564-0.57-0.746c-0.364-0.207-0.825-0.28-1.296-0.205c-0.336,0.053-0.652-0.176-0.705-0.511
					c-0.053-0.336,0.176-0.652,0.511-0.705c0.747-0.119,1.492,0.006,2.098,0.35c0.652,0.37,1.071,0.947,1.178,1.623
					c0.108,0.676-0.111,1.354-0.616,1.908C45.898,62.302,45.197,62.628,44.451,62.747z"/>
			</g>
			<path fill="#FBB004" d="M43.312,55.478c-0.336,0.053-0.652-0.176-0.705-0.511l-0.211-1.327c-0.053-0.336,0.176-0.652,0.511-0.705
				c0.336-0.053,0.652,0.176,0.705,0.511l0.211,1.327C43.876,55.109,43.647,55.425,43.312,55.478z"/>
			<path fill="#FBB004" d="M44.685,64.105c-0.336,0.053-0.652-0.175-0.705-0.511l-0.211-1.327c-0.054-0.336,0.176-0.652,0.511-0.705
				c0.336-0.053,0.652,0.175,0.705,0.511l0.211,1.327C45.25,63.736,45.021,64.052,44.685,64.105z"/>
		</g>
		
			<ellipse transform="matrix(0.9876 -0.1573 0.1573 0.9876 -8.0736 9.8842)" fill="#FFFFFF" cx="58.424" cy="55.961" rx="1.488" ry="1.488"/>
	</g>
	<g>
		
			<path fill="#FFFFFF" stroke="#FBB004" stroke-width="2" stroke-linecap="round" stroke-linejoin="round" stroke-miterlimit="10" d="
			M76.538,47.305l-49.083,7.816c-2.809,0.447-5.448-1.467-5.896-4.276l-3.287-20.641c-0.447-2.809,1.467-5.448,4.276-5.896
			l49.083-7.816c2.809-0.447,5.448,1.467,5.896,4.276l3.287,20.641C81.262,44.218,79.347,46.858,76.538,47.305z"/>
		<path opacity="0.4" fill="#FBB004" d="M69.504,20.539l-43.38,6.908c-0.453,2.129-1.807,3.971-3.707,5.039l2.373,14.903
			c2.138,0.426,3.996,1.756,5.088,3.639l43.38-6.908c0.431-2.025,1.672-3.796,3.427-4.884l-2.408-15.12
			C72.273,23.628,70.543,22.33,69.504,20.539z"/>
		
			<ellipse transform="matrix(0.9876 -0.1573 0.1573 0.9876 -5.0717 8.2019)" fill="#FFFFFF" cx="49.294" cy="36.15" rx="7.7" ry="7.7"/>
		
			<ellipse transform="matrix(0.9876 -0.1573 0.1573 0.9876 -5.6196 5.9323)" fill="#FFFFFF" cx="34.678" cy="38.478" rx="1.488" ry="1.488"/>
		<g>
			<g>
				<path fill="#FBB004" d="M49.478,36.974c-0.747,0.119-1.493-0.006-2.099-0.351c-0.651-0.37-1.07-0.947-1.178-1.622
					c-0.108-0.676,0.111-1.354,0.615-1.909c0.954-1.049,2.921-1.327,4.21-0.594c0.296,0.168,0.399,0.544,0.231,0.84
					c-0.167,0.296-0.544,0.4-0.84,0.231c-0.773-0.44-2.131-0.261-2.689,0.352c-0.247,0.272-0.357,0.587-0.31,0.886
					c0.048,0.299,0.25,0.563,0.57,0.745c0.365,0.208,0.826,0.28,1.297,0.205c0.336-0.053,0.652,0.176,0.705,0.511
					C50.043,36.605,49.814,36.92,49.478,36.974z"/>
				<path fill="#FBB004" d="M50.036,40.593c-0.793,0.126-1.636,0.017-2.3-0.36c-0.296-0.169-0.399-0.545-0.231-0.84
					c0.168-0.296,0.544-0.398,0.84-0.231c0.773,0.44,2.13,0.261,2.689-0.352c0.248-0.272,0.358-0.587,0.311-0.886
					c-0.048-0.299-0.25-0.564-0.57-0.746c-0.364-0.207-0.825-0.28-1.296-0.205c-0.336,0.053-0.652-0.176-0.705-0.511
					c-0.053-0.336,0.176-0.652,0.511-0.705c0.747-0.119,1.492,0.006,2.098,0.35c0.652,0.37,1.071,0.947,1.178,1.623
					s-0.111,1.354-0.616,1.908C51.483,40.147,50.782,40.474,50.036,40.593z"/>
			</g>
			<path fill="#FBB004" d="M48.897,33.324c-0.336,0.053-0.652-0.176-0.705-0.511l-0.211-1.327c-0.053-0.336,0.176-0.652,0.511-0.705
				c0.336-0.053,0.652,0.176,0.705,0.511l0.211,1.327C49.462,32.955,49.233,33.271,48.897,33.324z"/>
			<path fill="#FBB004" d="M50.271,41.951c-0.336,0.053-0.652-0.175-0.705-0.511l-0.211-1.327c-0.054-0.336,0.176-0.652,0.511-0.705
				c0.336-0.053,0.652,0.175,0.705,0.511l0.211,1.327C50.836,41.582,50.607,41.897,50.271,41.951z"/>
		</g>
		
			<ellipse transform="matrix(0.9876 -0.1573 0.1573 0.9876 -4.5201 10.4869)" fill="#FFFFFF" cx="64.009" cy="33.807" rx="1.488" ry="1.488"/>
	</g>
</g>
</svg>
