<?xml version="1.0" encoding="UTF-8"?><svg id="a" xmlns="http://www.w3.org/2000/svg" xmlns:xlink="http://www.w3.org/1999/xlink" viewBox="0 0 124 124"><defs><style>.e,.f{fill:none;}.g{fill:#3dc1cc;}.h{fill:#59c5c7;}.f{stroke:#3dc1cc;stroke-miterlimit:10;stroke-width:3.34px;}.i{clip-path:url(#c);}.j{clip-path:url(#d);}</style><clipPath id="c"><rect class="e" x="-13.01" y="-6.78" width="158.38" height="140.78"/></clipPath><clipPath id="d"><rect class="e" x="-13.01" y="-6.78" width="158.38" height="140.78"/></clipPath></defs><g id="b"><g class="i"><g class="j"><path class="g" d="M105.04,47.44l-.02-.11c-.02-.17-.04-.34-.07-.52-.26-1.86-.85-3.58-1.75-5.2-.05-.08-.09-.16-.13-.23-.07-.12-.13-.21-.19-.3l-.14-.23,.55-.5-.62,.4c-1.27-1.96-3.01-3.6-5.03-4.77-11.92-6.84-25.9-14.88-26.08-14.98l-.36-.22c-2.03-1.16-4.36-1.8-6.74-1.83-.08,0-.15,0-.21,0h-.14c-2.4,.04-4.73,.67-6.78,1.85l-26.44,15.19c-2.01,1.16-3.74,2.79-4.99,4.69-.09,.13-.16,.24-.22,.35-.08,.13-.14,.22-.2,.33-.06,.09-.1,.16-.14,.22-.9,1.62-1.49,3.34-1.75,5.13v.13c-.04,.18-.05,.32-.07,.47l-.02,.11c-.09,.35-.14,.7-.14,1.06v31.7c0,.08,0,.15,0,.22,.04,.33,.09,.68,.17,1.06,.55,4.34,3.11,8.18,6.85,10.33l26.45,15.22c.29,.17,.61,.32,.91,.47,.52,.25,1.02,.46,1.55,.65,1.31,.47,2.71,.74,4.17,.82,.08,0,.18,0,.27,0h.63c.06,0,.12,0,.19,0h.18c.1,0,.2,0,.33,0,1.43-.08,2.82-.35,4.11-.81,.56-.2,1.08-.41,1.55-.65,.18-.09,2.18-1.22,25.18-14.44l2.19-1.26c3.75-2.15,6.32-6,6.86-10.3,.06-.36,.12-.72,.16-1.13,0-.06,0-.13,0-.18v-31.69c0-.36-.05-.71-.13-1.06m-3.83,32.7c-.03,.21-.06,.4-.1,.61l-.03,.19c-.38,3.1-2.22,5.87-4.92,7.42l-2.19,1.26c-15.98,9.18-24.15,13.86-24.94,14.31-.38,.18-.73,.32-1.13,.47-.95,.33-1.96,.54-2.99,.6h-1.12c-1.15-.06-2.18-.26-3.14-.61-.39-.14-.76-.29-1.14-.48-.24-.11-.48-.23-.67-.34l-26.44-15.21c-2.7-1.55-4.54-4.32-4.91-7.42l-.02-.15c-.05-.22-.08-.44-.11-.67v-31.67l.03-.11c.04-.13,.07-.27,.08-.41,.02-.22,.04-.41,.07-.6,0-.04,0-.1,.02-.15,.21-1.32,.64-2.54,1.28-3.68l.09-.15c.05-.1,.1-.18,.15-.26h0l.13-.19c.93-1.43,2.21-2.64,3.69-3.49l26.44-15.19c1.48-.84,3.15-1.3,4.84-1.32h.18c1.76,.02,3.43,.47,4.88,1.3l.37,.22c.4,.22,25.88,14.87,26.09,14.99,1.49,.86,2.75,2.05,3.66,3.43l.21,.33c.05,.08,.08,.13,.11,.19l.06,.1c.69,1.22,1.12,2.47,1.31,3.77,.04,.27,.07,.49,.09,.7,0,.13,.04,.26,.08,.39l.03,.21v31.6Z"/><path class="f" d="M38.53,61.94l-.15-14.87c-.01-1.44,1.18-2.62,2.66-2.63l49.91-.47c1.85-.02,3.36,1.42,3.38,3.21l.17,17.24c.02,1.8-1.48,3.28-3.34,3.3"/><path class="g" d="M65.33,47.45c-4.95,.05-8.92,3.97-8.87,8.76,.02,2.25,.93,4.29,2.4,5.82l5.68-.07v-.08l-.34-.09c-1.55-.44-2.56-1.57-2.57-2.87,0-.54,.45-.99,1.01-.99h0c.55,0,1.01,.43,1.01,.97,0,.6,.88,1.11,1.88,1.11s1.89-.52,1.89-1.12c0-.37-.39-.76-.98-.97-.07-.02-.14-.05-.2-.09l-2.84-1.73h-.03c-1.09-.58-1.75-1.54-1.75-2.59,0-1.32,1.01-2.45,2.57-2.89l.34-.1v-.52c0-.54,.45-.98,1.01-.98s1.01,.44,1.01,.98v.52l.34,.1c1.56,.44,2.57,1.57,2.57,2.89,0,.54-.45,.98-1.01,.98s-1.01-.44-1.01-.98-.81-1.07-1.82-1.11h-.19c-.96,.04-1.77,.55-1.77,1.11,0,.32,.26,.64,.71,.86,.02,.01,.05,.02,.07,.04l2.77,1.68,.07,.04c1.32,.51,2.18,1.59,2.18,2.76,0,1.32-1.01,2.46-2.57,2.9l-.34,.09v.05l5.57-.07c1.42-1.55,2.27-3.6,2.25-5.83-.05-4.79-4.1-8.64-9.05-8.59"/><path class="g" d="M81.69,48.76c-.43,.24-.67,.67-.7,1.11-.02,.27,.05,.54,.2,.79,.25,.41,.69,.65,1.15,.68,.28,.02,.56-.05,.82-.19l9.83-5.65c-.6-.74-1.22-1.46-1.75-2.23l-9.54,5.49Z"/><path class="g" d="M93.94,47.09l-12.6,8.26c-.41,.27-.63,.71-.63,1.15,0,.27,.08,.54,.25,.78,.28,.4,.73,.61,1.19,.61,.28,0,.56-.08,.81-.24l12.53-8.22c-.23-.95-.65-1.77-1.17-2.52-.13,.04-.25,.09-.37,.17"/><path class="f" d="M87.47,85.22l-50.96,.48c-1.13,.01-2.05-.89-2.06-2.02l-.21-21.19c0-.28,.22-.52,.51-.52l53.25-.5c1.21-.01,2.2,.93,2.21,2.1l.19,18.76c.02,1.58-1.29,2.87-2.92,2.89Z"/><path class="h" d="M61.21,64.96c-4.95,.05-8.92,3.97-8.87,8.76,.05,4.79,4.1,8.64,9.05,8.59,4.95-.05,8.92-3.97,8.87-8.76-.05-4.79-4.1-8.64-9.05-8.59m-.96,6.93s.05,.02,.08,.04l2.77,1.68,.07,.04c1.32,.51,2.18,1.6,2.18,2.76,0,1.33-1.01,2.46-2.57,2.9l-.34,.1v.53c0,.54-.45,.98-1.01,.98s-1.01-.44-1.01-.98v-.53l-.34-.1c-1.55-.44-2.56-1.57-2.57-2.87,0-.54,.45-.99,1.01-.99h0c.55,0,1.01,.43,1.01,.97,0,.6,.88,1.11,1.88,1.11s1.89-.52,1.89-1.12c0-.37-.39-.76-.98-.97-.07-.02-.14-.05-.2-.09l-2.84-1.73h-.03c-1.09-.58-1.75-1.54-1.75-2.59,0-1.32,1.01-2.45,2.57-2.89l.34-.1v-.52c0-.54,.45-.98,1.01-.98s1.01,.44,1.01,.98v.52l.34,.1c1.56,.44,2.57,1.57,2.57,2.89,0,.54-.45,.98-1.01,.98s-1.01-.44-1.01-.98-.81-1.07-1.82-1.11h-.19c-.96,.04-1.77,.55-1.77,1.11,0,.32,.26,.64,.71,.86"/><path class="h" d="M77.57,66.27c-.43,.24-.67,.67-.7,1.12-.02,.27,.05,.54,.2,.79,.25,.41,.69,.65,1.15,.68,.28,.02,.56-.04,.82-.19l9.83-5.65c-.6-.74-1.21-1.46-1.75-2.23l-9.54,5.48Z"/><path class="h" d="M89.83,64.6l-12.6,8.26c-.41,.27-.63,.71-.63,1.15,0,.27,.08,.54,.25,.78,.28,.4,.73,.61,1.19,.61,.28,0,.56-.08,.81-.24l12.53-8.22c-.23-.95-.65-1.77-1.17-2.52-.13,.04-.25,.09-.37,.17"/></g></g></g></svg>