<?xml version="1.0" encoding="UTF-8"?><svg id="a" xmlns="http://www.w3.org/2000/svg" xmlns:xlink="http://www.w3.org/1999/xlink" viewBox="0 0 124 124"><defs><style>.f,.g,.h,.i{fill:none;}.g{stroke-linecap:round;}.g,.h,.i{stroke:#5bc6cc;}.g,.i{stroke-linejoin:round;stroke-width:3.75px;}.h{stroke-width:4.05px;}.j{clip-path:url(#c);}.k{clip-path:url(#e);}.l{clip-path:url(#d);}</style><clipPath id="c"><polygon class="f" points="22.28 108.91 105.41 108.91 105.41 16.23 22.28 16.23 22.28 108.91 22.28 108.91"/></clipPath><clipPath id="d"><polygon class="f" points="22.28 111.71 105.41 111.71 105.41 16.23 22.28 16.23 22.28 111.71 22.28 111.71"/></clipPath><clipPath id="e"><rect class="f" x="22.28" y="16.23" width="83.13" height="95.48"/></clipPath></defs><g id="b"><g class="j"><path class="h" d="M91.57,91.4l6.1-3.52c2.47-1.42,4.44-4.89,4.4-7.73l-.42-34.22c-.02-1.99-1.02-4.3-2.45-6l-11.45-7.37-20.02-11.89c-2.45-1.45-6.43-1.48-8.9-.05l-28.83,16.64c-2.47,1.42-4.44,4.89-4.4,7.73l.42,34.22c.03,2.85,2.05,6.33,4.5,7.79l29.43,17.47c2.45,1.45,6.43,1.48,8.9,.05l3.67-2.13"/></g><g class="l"><polyline class="i" points="91.24 90.1 91.24 109.83 82.14 102.24 73.03 109.83 73.03 90.1"/><path class="g" d="M93.1,80.42c1.52-1.89,1.83-4.6,.54-6.83-1.29-2.23-3.78-3.32-6.18-2.95-.88-2.27-3.07-3.88-5.65-3.88s-4.77,1.61-5.65,3.88c-2.4-.37-4.9,.72-6.18,2.95-1.29,2.23-.99,4.94,.53,6.83-1.52,1.9-1.82,4.6-.53,6.83,1.29,2.24,3.78,3.33,6.18,2.96,.88,2.27,3.07,3.88,5.65,3.88s4.77-1.61,5.65-3.88c2.4,.37,4.89-.72,6.18-2.96,1.29-2.23,.99-4.94-.54-6.83h0Z"/></g><g class="k"><path class="g" d="M90.26,70.79v-14.19l-13.8-13.8H37.34v39.11h32.49m20.42-25.31h-13.8v-13.8"/></g></g></svg>