<?xml version="1.0" encoding="UTF-8"?><svg id="a" xmlns="http://www.w3.org/2000/svg" viewBox="0 0 124 124"><defs><style>.c,.d{stroke-linecap:round;stroke-linejoin:round;}.c,.d,.e{fill:none;stroke-width:2.98px;}.c,.e{stroke:#59c5c7;}.d{stroke:#5bc6cc;}.e{stroke-miterlimit:10;}.f{fill:#59c5c7;}</style></defs><g><rect class="e" x="37.63" y="48.54" width="51.01" height="29.38" rx=".46" ry=".46"/><polyline class="d" points="66.52 71.96 67.42 67.76 69.84 73.03 71.21 70.4 73.39 72.47 83.47 72.47"/><line class="c" x1="42.68" y1="56.36" x2="67.42" y2="56.36"/><line class="c" x1="42.68" y1="62.01" x2="57.74" y2="62.01"/><line class="c" x1="44.02" y1="71.96" x2="48.08" y2="71.96"/><line class="c" x1="53.22" y1="71.96" x2="56.93" y2="71.96"/></g><g id="b"><path class="f" d="M99.46,79.14c-.03,.2-.06,.39-.1,.6l-.03,.19c-.38,3.05-2.18,5.77-4.84,7.3l-2.15,1.24c-15.72,9.03-23.75,13.64-24.53,14.08-.37,.17-.72,.32-1.12,.46-.93,.33-1.92,.53-2.94,.59h-1.11c-1.13-.06-2.14-.26-3.09-.6-.38-.13-.75-.29-1.12-.47-.24-.11-.47-.23-.66-.34l-26-14.96c-2.65-1.53-4.46-4.25-4.83-7.3l-.02-.14c-.05-.21-.08-.43-.11-.65v-31.16l.03-.11c.04-.12,.07-.27,.08-.4,.02-.22,.04-.4,.07-.59,.01-.04,.01-.1,.02-.14,.2-1.3,.62-2.5,1.26-3.62l.09-.14c.05-.1,.1-.17,.14-.26h0l.13-.18c.91-1.4,2.17-2.6,3.63-3.43l26-14.94c1.45-.83,3.1-1.28,4.76-1.3h.17c1.73,.02,3.38,.46,4.8,1.28l.37,.21c.39,.22,25.45,14.63,25.66,14.74,1.46,.85,2.7,2.02,3.6,3.38l.2,.33c.05,.08,.08,.12,.11,.18l.06,.1c.68,1.2,1.11,2.43,1.29,3.71,.04,.27,.07,.48,.09,.69,0,.12,.04,.26,.08,.38l.03,.2v31.08h0Zm1.45-38.73c-1.25-1.92-2.96-3.54-4.95-4.69-11.72-6.73-25.47-14.64-25.66-14.73l-.36-.21c-2-1.14-4.29-1.77-6.63-1.8-.08,0-.14,0-.2,0h-.13c-2.36,.04-4.65,.66-6.67,1.82l-26,14.94c-1.98,1.14-3.68,2.74-4.9,4.62-.09,.12-.15,.23-.22,.35-.08,.12-.13,.22-.19,.33-.06,.09-.1,.15-.13,.22-.88,1.6-1.46,3.29-1.72,5.05v.12c-.04,.18-.05,.32-.07,.46l-.02,.11c-.09,.35-.13,.69-.13,1.04v31.18c0,.08,0,.14,0,.21,.04,.33,.09,.67,.16,1.04,.54,4.27,3.06,8.05,6.74,10.16l26.02,14.97c.29,.16,.6,.32,.89,.46,.51,.25,1,.45,1.53,.63,1.29,.46,2.66,.73,4.11,.81,.08,.01,.17,.01,.27,.01h.62c.06,0,.12,0,.18,0h.17c.1,0,.19,0,.33-.01,1.4-.08,2.77-.35,4.04-.8,.55-.19,1.06-.4,1.53-.63,.17-.09,2.14-1.2,24.77-14.2l2.15-1.24c3.69-2.12,6.21-5.9,6.75-10.14,.06-.36,.12-.71,.15-1.11,0-.06,0-.12,0-.18v-31.17c0-.36-.05-.7-.12-1.04l-.02-.11c-.02-.17-.04-.34-.07-.51-.26-1.83-.84-3.52-1.72-5.12-.05-.08-.09-.15-.12-.22-.07-.12-.13-.2-.18-.3l-.13-.22"/></g></svg>