<svg id="Layer_1" data-name="Layer 1" xmlns="http://www.w3.org/2000/svg" viewBox="0 0 124 124"><defs><style>.cls-1{fill:#fbb004;}.cls-2{fill:#fddf9b;}.cls-3{fill:#fdd068;}</style></defs><title>medicare-icons</title><path class="cls-1" d="M30.0087,32.6972l-8.553-.7409.4241-4.8948,10.3129.8934.92-11.7606,4.8948.4241-.8068,9.9973A6.64,6.64,0,0,1,30.0087,32.6972Z"/><rect class="cls-2" x="43.2095" y="30.9058" width="4.9131" height="20.4774" rx="2.4566" transform="translate(0.7336 83.089) rotate(-85.0487)"/><rect class="cls-2" x="41.9125" y="45.877" width="4.9131" height="20.4774" rx="2.4566" transform="translate(-15.3667 95.4759) rotate(-85.0487)"/><rect class="cls-2" x="39.3193" y="75.8101" width="4.9131" height="20.4774" rx="2.4566" transform="translate(-47.5575 120.242) rotate(-85.0487)"/><rect class="cls-2" x="40.6159" y="60.8438" width="4.9131" height="20.4774" rx="2.4566" transform="translate(-31.4624 107.8591) rotate(-85.0487)"/><path class="cls-1" d="M78.3025,111.482l-60.6543-5.2546a6.4235,6.4235,0,0,1-5.8374-6.9448l6.6908-77.2315L31.51,11.1239l55.0737,4.7712a6.4232,6.4232,0,0,1,5.8371,6.9443L89.4028,57.6722l-4.8948-.4241,3.0177-34.8328A1.5023,1.5023,0,0,0,86.1594,20.79L33.1127,16.1943l-9.892,8.3078L16.7056,99.7066a1.5025,1.5025,0,0,0,1.3667,1.626l60.6542,5.2546a1.5025,1.5025,0,0,0,1.6256-1.3667l1.9272-22.2464,4.8948.4241-1.9272,22.2463A6.4234,6.4234,0,0,1,78.3025,111.482Z"/><path class="cls-2" d="M64.0564,47.4481l-3.1786-3.7813a2.4563,2.4563,0,0,1,.3-3.461h0a2.4563,2.4563,0,0,1,3.461.3l.0175.0208a2.4564,2.4564,0,0,0,3.4606.3l2.6409-2.2189a2.4565,2.4565,0,0,1,3.4605.3h0a2.4564,2.4564,0,0,1-.3,3.4613l-6.4012,5.3788A2.4564,2.4564,0,0,1,64.0564,47.4481Z"/><path class="cls-2" d="M62.7685,62.314,59.59,58.5327a2.4564,2.4564,0,0,1,.3-3.4609h0a2.4563,2.4563,0,0,1,3.461.3l.0175.0208a2.4565,2.4565,0,0,0,3.4607.3L69.47,53.4739a2.4564,2.4564,0,0,1,3.46.3h0a2.4564,2.4564,0,0,1-.3,3.4613L66.2291,62.614A2.4563,2.4563,0,0,1,62.7685,62.314Z"/><path class="cls-2" d="M61.4807,77.1778,58.3024,73.402a2.4565,2.4565,0,0,1,.2969-3.4608l.0018-.0015a2.4565,2.4565,0,0,1,3.4612.2963l.0181.0214a2.4563,2.4563,0,0,0,3.4589.2982l2.643-2.2206a2.4565,2.4565,0,0,1,3.46.3h0a2.4564,2.4564,0,0,1-.3,3.4613l-6.4024,5.38A2.4565,2.4565,0,0,1,61.4807,77.1778Z"/><path class="cls-2" d="M60.1931,92.0414,57.0146,88.26a2.4563,2.4563,0,0,1,.3-3.461h0a2.4563,2.4563,0,0,1,3.4607.3l.0177.021a2.4564,2.4564,0,0,0,3.46.3l2.6411-2.2191a2.4563,2.4563,0,0,1,3.46.3v0a2.4564,2.4564,0,0,1-.3,3.4612l-6.4013,5.3791A2.4563,2.4563,0,0,1,60.1931,92.0414Z"/><rect class="cls-1" x="74.8485" y="61.3113" width="38.2506" height="4.9127" transform="translate(-18.9943 75.412) rotate(-40.0446)"/><rect class="cls-3" x="110.0827" y="45.7051" width="4.9126" height="4.9126" transform="translate(-4.5983 83.7058) rotate(-40.0487)"/><polygon class="cls-3" points="73.588 80.904 77.754 74.194 80.915 77.955 73.588 80.904"/></svg>