<svg xmlns="http://www.w3.org/2000/svg" viewBox="0 0 124 124"><defs><style>.cls-1{fill:#fbb004;}.cls-2{fill:#fff;}.cls-3{opacity:0.3;}.cls-4{fill:#fbb040;}</style></defs><title>ad&amp;amp;d-icons</title><g id="Your_Icons" data-name="Your Icons"><path class="cls-1" d="M98.3586,31.313,81.8437,25.0616a11.0245,11.0245,0,0,0-20.2582-7.6684L45.0706,11.1418a5.9587,5.9587,0,0,0-7.6737,3.4594L9.93,87.1633a5.9589,5.9589,0,0,0,3.4594,7.6739l53.288,20.1712a5.9589,5.9589,0,0,0,7.6738-3.46l27.4671-72.562A5.9588,5.9588,0,0,0,98.3586,31.313ZM63.23,20.22A8.2917,8.2917,0,0,1,78.74,26.09l-2.4717,6.53,4.6285,1.752A3.182,3.182,0,0,1,82.7436,38.47L81.76,41.0685,51.0488,29.4433l.9836-2.5986A3.182,3.182,0,0,1,56.13,24.9973l4.6284,1.752Zm8.563,90.3609a3.2209,3.2209,0,0,1-4.1478,1.87L14.3574,92.2794a3.2209,3.2209,0,0,1-1.87-4.1479l27.467-72.5621a3.2207,3.2207,0,0,1,4.1478-1.87l16.3315,6.182-1.265,3.3417L57.0983,22.44a5.92,5.92,0,0,0-7.6237,3.437l-1.9518,5.1564L83.35,44.5945l1.9519-5.1564a5.92,5.92,0,0,0-3.4368-7.6237l-2.0707-.7839,1.265-3.3417L97.39,33.8708a3.2207,3.2207,0,0,1,1.87,4.1477Z"/><path class="cls-1" d="M69.3031,27.5981a4.7852,4.7852,0,1,0-2.781-6.1693A4.7908,4.7908,0,0,0,69.3031,27.5981Zm2.42-6.3928A2.05,2.05,0,1,1,69.08,22.397,2.0527,2.0527,0,0,1,71.723,21.2053Z"/><circle class="cls-2" cx="74.3594" cy="79.1291" r="32.4703"/><circle class="cls-2" cx="74.3594" cy="79.1291" r="32.4703"/><g class="cls-3"><circle class="cls-4" cx="74.3594" cy="79.1291" r="26.6596"/></g><path class="cls-4" d="M74.3594,53.8224A25.3067,25.3067,0,1,1,49.0527,79.1291,25.3353,25.3353,0,0,1,74.3594,53.8224m0-1.3529a26.66,26.66,0,1,0,26.66,26.66,26.66,26.66,0,0,0-26.66-26.66Z"/><path class="cls-4" d="M74.3594,48.9137A30.2154,30.2154,0,1,1,44.144,79.1291,30.25,30.25,0,0,1,74.3594,48.9137m0-2.2549a32.47,32.47,0,1,0,32.47,32.47,32.47,32.47,0,0,0-32.47-32.47Z"/><path class="cls-4" d="M109.0619,46.8453l1.1056,1.9169A96.6423,96.6423,0,0,0,90.1551,68.074,83.9379,83.9379,0,0,0,76.85,90.9611l-1.6218,1.07a28.7855,28.7855,0,0,0-3.6114,2.7267,27.4908,27.4908,0,0,0-1.4376-4.2754l-.8474-2.1A52.887,52.887,0,0,0,64.67,78.8549q-1.899-2.7107-4.1094-2.93,2.9847-2.7273,5.1964-2.7279,3.0586,0,6.7076,8.2188l1.3272,2.9489A109.095,109.095,0,0,1,89.5473,62.84,90.8836,90.8836,0,0,1,109.0619,46.8453Z"/></g></svg>