<svg xmlns="http://www.w3.org/2000/svg" viewBox="0 0 124 124"><defs><style>.cls-1{fill:none;stroke:#5ac5cb;stroke-miterlimit:10;stroke-width:4px;}.cls-2{fill:#5ac5cb;}</style></defs><g id="Layer_4" data-name="Layer 4"><path class="cls-1" d="M87.76,79.28c-8,7-20.54,11.43-34.71,11.43C29,90.71,9.5,77.78,9.5,61.83S29,33,53.05,33,96.61,45.88,96.61,61.83c0,.44,0,.87,0,1.3"/><path class="cls-2" d="M96.46,81a1.39,1.39,0,0,1-.69,1.9c-.36.16-.72.3-1,.41-.94.34-4.22-.37-5-.88-.23-.15-.31-.27-.31-.72A1.7,1.7,0,0,0,90,82a3.27,3.27,0,0,0,.67.05A23.25,23.25,0,0,0,96.45,81Zm-9.22-9.14a12.5,12.5,0,0,0,2.13,1l1.6.58,1.32.48a2.82,2.82,0,0,1,1.21,1,.63.63,0,0,1-.41,1A6.51,6.51,0,0,1,91,76c-.53-.13-2.24-1.89-3.89-4Zm3.43,5.74a5.8,5.8,0,0,0,1.11.1,12.53,12.53,0,0,0,3-.43l.59,1.35h0a.81.81,0,0,1-.55,1.11,17.31,17.31,0,0,1-4.46.64c-.82-.28-3.79-4.08-4.35-5a3.5,3.5,0,0,1-.13-.86c0-.31-.07-.7-.13-1.21l.17-.17C87.24,74.83,89.42,77.36,90.67,77.6Zm.61-12.13-.15.15c-3-1.54-5.11-2.63-6.23-3.24l-.44-.23-.41.27a3.55,3.55,0,0,0-1.76,3.49c.21,1.77,1.7,3.61,3.56,5l-1.51,1.52a1.07,1.07,0,0,1-1.5,0L71.57,61.21a1.05,1.05,0,0,1,0-1.49l6.94-7a1,1,0,0,1,1.49,0L91.28,64A1.07,1.07,0,0,1,91.28,65.47ZM87.81,80.56c0,.18,0,.35,0,.51a2.59,2.59,0,0,0,1,2.75A12.67,12.67,0,0,0,94,85a3.75,3.75,0,0,0,1.29-.18l.07,0c1.22,3.46,5.75,4.58,9.14,5.42,1,.25,2,.48,2.68.74a.83.83,0,0,0,1-.39.84.84,0,0,0-.45-1.16c-.8-.28-1.77-.53-2.85-.79-2.9-.72-6.41-1.59-7.69-3.77a.68.68,0,0,1,.31-1h0a.84.84,0,0,1,.95.2l.07.08a.82.82,0,1,0,1.2-1.12A17.94,17.94,0,0,1,96.89,78c-1.08-2.51-2.09-4.87-4-5.58l-1.32-.48-1.6-.58c-3-1.08-5.77-3.71-6-5.62a1.76,1.76,0,0,1,.66-1.62c1.44.76,4,2.06,7.47,3.87,3.36,1.73,6.73,3.45,8.18,4.18a.81.81,0,0,0,1.1-.36h0a.83.83,0,0,0-.35-1.11c-1.47-.74-4.92-2.51-8.34-4.26a2.71,2.71,0,0,0,.41-2.65l1.7.12a15.77,15.77,0,0,1,4.23.58c3,1.22,6.82,7.73,9.92,13,1.48,2.5,2.88,4.87,4.1,6.56a.83.83,0,0,0,1.33-1c-1.17-1.62-2.56-4-4-6.42-3.39-5.73-7.23-12.22-10.71-13.66a8.3,8.3,0,0,0-2.17-.49l-1.63-.14-.94-.07c-.95-.06-2-.13-3.26-.25L81.17,51.58a2.7,2.7,0,0,0-3.83,0l-6.87,6.9a2.85,2.85,0,0,0-.85,1.74,2.7,2.7,0,0,0,.78,2.16L81.68,73.61a2.69,2.69,0,0,0,1.91.79,2.64,2.64,0,0,0,.62-.08c0,.15,0,.29,0,.41a3.39,3.39,0,0,0,.38,1.59s1,1.49,2.25,2.93"/><path class="cls-2" d="M55.57,38.76a2.22,2.22,0,0,0-2.68,3.55C60,47.63,63.83,54.65,63.83,62.08S60,76.53,52.89,81.85a2.22,2.22,0,0,0,2.68,3.55c8.19-6.19,12.7-14.47,12.7-23.32S63.76,45,55.57,38.76Z"/><path class="cls-2" d="M48.43,44.15a2.22,2.22,0,0,0-2.68,3.55c5.15,3.88,8,9,8,14.38s-2.84,10.5-8,14.38A2.22,2.22,0,0,0,48.43,80c6.28-4.75,9.75-11.12,9.75-17.93S54.71,48.9,48.43,44.15Z"/><path class="cls-2" d="M41.29,49.54a2.22,2.22,0,0,0-2.68,3.55c3.24,2.44,5,5.64,5,9s-1.79,6.55-5,9a2.22,2.22,0,0,0,2.68,3.55c4.38-3.31,6.79-7.76,6.79-12.54S45.67,52.85,41.29,49.54Z"/><path class="cls-2" d="M34.15,54.93a2.22,2.22,0,0,0-2.68,3.54,4.17,4.17,0,0,1,0,7.21,2.22,2.22,0,0,0,2.68,3.55,8.59,8.59,0,0,0,0-14.3Z"/></g></svg>