<svg id="Layer_1" data-name="Layer 1" xmlns="http://www.w3.org/2000/svg" viewBox="0 0 50 50"><defs><style>.cls-1{fill:#5ac5cb;}.cls-2{fill:none;stroke:#5ac5cb;stroke-linecap:round;stroke-linejoin:round;stroke-width:1.68px;}</style></defs><path class="cls-1" d="M45.94,16.37v-.05a2.91,2.91,0,0,1,0-.31A7.85,7.85,0,0,0,45,13.35l-.06-.11L44.75,13,45,12.7l-.32.21a7.81,7.81,0,0,0-2.61-2.47l-5.18-3L28.58,2.67l-.19-.12a7.18,7.18,0,0,0-3.49-.94h-.18a7.31,7.31,0,0,0-3.52,1L7.48,10.44a7.76,7.76,0,0,0-2.59,2.44.87.87,0,0,0-.11.18l-.1.17-.07.12A7.48,7.48,0,0,0,3.7,16c0,.11,0,.22,0,.33v.06a2.5,2.5,0,0,0-.07.54V33.37a.45.45,0,0,0,0,.11c0,.17,0,.36.08.55a7.33,7.33,0,0,0,1.88,4l.18.18-.1.23a.86.86,0,0,0-.1.41v4.23a1,1,0,0,0,1,1h8.92L21,47.29l.48.24c.27.13.53.24.8.34a8.11,8.11,0,0,0,2.17.42h.82a7.6,7.6,0,0,0,2.14-.42,8.34,8.34,0,0,0,.8-.33L34,44.19l.09,0h9.17a1,1,0,0,0,1-1V38.88a1,1,0,0,0-.15-.53L44,38.11l.18-.22A7.24,7.24,0,0,0,45.93,34c0-.18.06-.38.08-.59V16.92A2.08,2.08,0,0,0,45.94,16.37ZM28.73,44.85l-1.47.84h0a4.09,4.09,0,0,1-.56.23,5.47,5.47,0,0,1-1.56.31h-.58a5.55,5.55,0,0,1-1.63-.31,5.91,5.91,0,0,1-.6-.25L22,45.5,19.6,44.14H30Zm13.52-2.77H34.09a.94.94,0,0,0-.41,0H15.89a.77.77,0,0,0-.37,0H7.59V39.91H42.25ZM44,33.3c0,.15,0,.26-.05.36l0,.1a5.2,5.2,0,0,1-2.55,3.85l-.15.09-.07,0-.21.11H8.67l-.42-.24a5.16,5.16,0,0,1-2.54-3.85.2.2,0,0,1,0-.07,2.14,2.14,0,0,1-.06-.35V16.85a1.42,1.42,0,0,0,0-.22,2,2,0,0,1,0-.33,5.44,5.44,0,0,1,.67-2l0-.08.08-.14L6.59,14a5.73,5.73,0,0,1,1.92-1.81L22.22,4.34a5.2,5.2,0,0,1,2.51-.69h.09a5.27,5.27,0,0,1,2.54.68l.18.11,13.55,7.78A5.56,5.56,0,0,1,43,14l.22.36a5.38,5.38,0,0,1,.66,1.94c0,.11,0,.22,0,.34a1.18,1.18,0,0,0,0,.2L44,17Z"/><path class="cls-2" d="M18.28,33.23a2.24,2.24,0,0,0,2.24,2.24H32.77a2.31,2.31,0,0,0,2.33-2A2.25,2.25,0,0,0,32.87,31H35a2.31,2.31,0,0,0,2.33-2,2.25,2.25,0,0,0-2.24-2.47h1a2.31,2.31,0,0,0,2.33-2A2.25,2.25,0,0,0,36.24,22h0a2.24,2.24,0,0,0,2.23-2.46,2.31,2.31,0,0,0-2.33-2H27.82a.56.56,0,0,1-.56-.56V10.78a3.37,3.37,0,0,0-3.37-3.37H22.77v2.67a8.5,8.5,0,0,1-1.25,4.41l-3.24,5.27Z"/><rect class="cls-2" x="12.66" y="18.63" width="5.61" height="16.84" rx="2.81"/></svg>