<svg id="Layer_1" data-name="Layer 1" xmlns="http://www.w3.org/2000/svg" viewBox="0 0 124 124"><defs><style>.cls-1{fill:#3dc1cc;}</style></defs><path class="cls-1" d="M95.1351,27.6206V27.62l-.0023-.0252a1.2215,1.2215,0,0,0-.0218-.2138,1.1889,1.1889,0,0,0-.0516-.1695c-.0066-.0182-.01-.038-.0172-.0562a1.1914,1.1914,0,0,0-.0978-.1824c-.0049-.0079-.0079-.0172-.0132-.0251a1.21,1.21,0,0,0-1.0072-.5389H92.2754a8.8711,8.8711,0,0,0-6.312,2.6145c-.192.1926-.3744.3952-.5482.6047-.115.1381-.2191.2832-.3252.4263-.0469.0644-.0968.1256-.1417.1913l-.0113.0146a39.0233,39.0233,0,0,0-43.3038-3.0937,1.21,1.21,0,0,0-1.1218-.7574h-14.12A1.2114,1.2114,0,0,0,25.18,27.6206V45.4333A39.0026,39.0026,0,0,0,28.889,83.4211v7.8476a4.562,4.562,0,0,0,8.9269,1.3271,39.0168,39.0168,0,0,0,48.1934-1.4937v.1666a4.5629,4.5629,0,0,0,9.1258,0V80.0825a39.0237,39.0237,0,0,0,0-37.9246ZM28.889,78.8618a36.6994,36.6994,0,0,1-3.3085-27.334l.01.0218c.0661.1606.1408.3166.2217.469.02.0383.0423.075.0635.1126q.1006.179.2144.35c.0255.0383.0506.0776.0774.115.1.1427.2045.2808.3172.4127l.0218.0234c.1067.1233.22.2406.3381.354.034.0327.0687.0647.1037.0968.1054.0958.2142.1883.3268.2759.0271.0212.0529.0436.08.0645q.2088.156.4326.2924c.0327.02.0671.0377.1005.0568.1216.0708.2461.1362.3734.1976.0436.0205.0869.0417.1315.0615.1612.0721.3258.1391.4953.1956Zm7.77-26.4014a1.2113,1.2113,0,0,0-1.0674,1.2028V91.2687a2.14,2.14,0,0,1-4.28,0V53.6632A1.2115,1.2115,0,0,0,30.2442,52.46a3,3,0,0,1-2.6413-2.9777V28.8317h2.6608V45.89a.7267.7267,0,1,0,1.4533,0V28.8317h3.4691V45.89a.7269.7269,0,1,0,1.4537,0V28.8317H39.3v20.651a2.9961,2.9961,0,0,1-2.641,2.9777Zm49.35,35.4221a36.6376,36.6376,0,0,1-47.9948,1.8211V54.6271a5.4255,5.4255,0,0,0,3.7083-5.1444V29.9245a36.6312,36.6312,0,0,1,42.1056,2.54c-.0684.2022-.1286.4065-.1824.613-.0179.0661-.0338.1325-.05.1989-.0079.0341-.0178.0671-.0251.1011-.0046.02-.01.0394-.0152.0595-.0238.1114-.0443.2241-.0641.3364-.0241.1329-.0413.2667-.0591.4-.0037.0258-.0083.0519-.0116.078-.0059.0472-.0159.0948-.0208.1418s-.0083.0925-.0122.1384c-.0245.266-.0394.5337-.0394.8033V62.6019a3.3061,3.3061,0,0,0,2.6608,3.2408ZM92.7126,62.71l0,17.0645V91.2683a2.14,2.14,0,0,1-4.28,0V65.9048h1.5009a1.2113,1.2113,0,0,0,0-2.4225H86.6511a.8812.8812,0,0,1-.88-.88l.0006-27.2666a6.29,6.29,0,0,1,.0377-.6886c.0023-.0248.0079-.0493.0109-.074s.01-.0506.0125-.0764a6.5315,6.5315,0,0,1,.55-1.8964,6.6765,6.6765,0,0,1,.5634-.9855c.0179-.0254.0374-.05.0559-.0756.09-.1249.1817-.2479.2792-.3662.1253-.1493.2555-.2964.3952-.4358a6.4639,6.4639,0,0,1,4.5993-1.9051h.4372ZM97.63,61.12A36.6963,36.6963,0,0,1,95.1351,74.407V47.8337A36.6872,36.6872,0,0,1,97.63,61.12Z"/><path class="cls-1" d="M81.4577,78.0109a26.5549,26.5549,0,0,1-39.1788,1.9725.7267.7267,0,0,0-1.0227,1.0327,28.0089,28.0089,0,0,0,41.3224-2.08.7268.7268,0,0,0-1.1209-.9256Z"/><path class="cls-1" d="M47.1865,38.4175a26.5664,26.5664,0,0,1,30.8322,2.3452.7268.7268,0,0,0,.9338-1.114A28.02,28.02,0,0,0,46.4311,37.176a.7266.7266,0,1,0,.7554,1.2415Z"/><path class="cls-1" d="M60.9974,77.674h-.9307l-.8274,5.5331H56.033l.8792-5.8951a18.6762,18.6762,0,0,1-6.7744-2.4307c.4654-2.3789.8792-4.706,1.3961-7.0843a21.2248,21.2248,0,0,0,6.309,2.8439L58.929,63.453l-1.6033-.5175c-3.568-1.3963-7.1361-3.8265-7.1361-9.36,0-6.05,3.8783-9.7216,10.9629-9.7216h.931l.7238-4.7578h3.1545l-.7756,5.068a17.9278,17.9278,0,0,1,6.5675,2.4307l-1.4479,6.9807a22.5594,22.5594,0,0,0-5.9988-2.74l-1.0343,6.6192c.2587.0518.4656.1549.6723.2067,6.0505,1.9132,8.74,5.0162,8.74,9.774C72.6847,73.5885,68.4959,77.674,60.9974,77.674ZM57.74,53.4205c0,1.1892,1.0343,2.1205,2.6373,2.8958l.8792-5.8434C58.9805,50.5766,57.74,51.7139,57.74,53.4205Zm4.1888,11.118-1.0343,6.5163c2.12-.0518,4.137-1.0344,4.24-3.31C65.1344,66.297,64.1,65.3144,61.9284,64.5385Z"/><path class="cls-1" d="M113.8374,39.8678l-.0255-.1405c-.0256-.23-.0512-.4468-.0892-.6767a19.5275,19.5275,0,0,0-2.2852-6.7917c-.0642-.1021-.1147-.2043-.1658-.2936-.09-.1532-.1665-.2682-.2432-.3957l-.1782-.2937.7143-.6511-.8041.5234a19.5589,19.5589,0,0,0-6.5746-6.23C88.6237,15.9817,70.3679,5.4877,70.1248,5.36l-.4719-.2809a18.1971,18.1971,0,0,0-8.7963-2.3874,2.0661,2.0661,0,0,0-.268-.0128H60.41a18.4684,18.4684,0,0,0-8.86,2.4129L17.0293,24.931a19.3261,19.3261,0,0,0-6.511,6.1278c-.1147.1661-.2039.3064-.2936.46-.1023.1658-.1783.2936-.255.434-.0767.1149-.1278.2043-.1789.2936a19.702,19.702,0,0,0-2.2852,6.7024l-.0125.166c-.0387.2425-.0511.4214-.0767.6128l-.0255.1405a5.6843,5.6843,0,0,0-.1789,1.3786V82.6355c0,.1019.013.1913.013.2808.0512.434.1147.8936.217,1.3787a18.2187,18.2187,0,0,0,8.949,13.4941l34.5461,19.8774c.3833.217.7916.4213,1.1875.6128a17.4411,17.4411,0,0,0,2.03.8425,19.1354,19.1354,0,0,0,5.4513,1.0725,3.1318,3.1318,0,0,0,.3572.0127l.8172.0128c.0767,0,.1534-.0128.2425-.0128h.23c.1277,0,.2549,0,.4338-.0127a19.1325,19.1325,0,0,0,5.3622-1.06,18.62,18.62,0,0,0,2.03-.8424c.23-.115,2.8469-1.5958,32.8868-18.8561l2.8593-1.6469a18.224,18.224,0,0,0,8.9621-13.4559c.0767-.4722.1533-.9447.2045-1.468a1.5906,1.5906,0,0,0,.0124-.2425V41.2464A6.1685,6.1685,0,0,0,113.8374,39.8678Zm-5.0043,42.7038c-.0387.268-.0767.5233-.1278.7915l-.0381.2552a13.0679,13.0679,0,0,1-6.4218,9.69L99.386,94.955c-20.8733,11.9877-31.5334,18.1027-32.5675,18.69-.4975.23-.9575.4212-1.4812.6127a14.2466,14.2466,0,0,1-3.9059.7788l-.9195.0127-.5492-.0127a14.166,14.166,0,0,1-4.098-.7915,13.717,13.717,0,0,1-1.4935-.6256c-.3192-.14-.6253-.3064-.8808-.4468L18.97,93.308a13.02,13.02,0,0,1-6.4088-9.69l-.0255-.1915c-.0636-.2808-.1023-.5744-.14-.868l-.0125-41.3634.05-.14a2.4723,2.4723,0,0,0,.1023-.5362c.0255-.2936.0511-.5363.0891-.7788.0131-.0511.0131-.1276.0262-.1913a13.9619,13.9619,0,0,1,1.6718-4.8l.1154-.1917c.0635-.1275.1278-.23.1913-.3446v-.0128l.1659-.23a14.3022,14.3022,0,0,1,4.8129-4.5576L54.1287,9.5729a13.111,13.111,0,0,1,6.32-1.7234h.2294a13.0394,13.0394,0,0,1,6.3708,1.698l.485.2808c.5236.2936,33.793,19.4177,34.0735,19.5709a14.3578,14.3578,0,0,1,4.775,4.4811l.268.434a2.7937,2.7937,0,0,1,.14.2425l.0767.1278a13.85,13.85,0,0,1,1.71,4.9278c.0511.3573.09.6383.1147.9192a2.4325,2.4325,0,0,0,.1022.5106l.0387.2681Z"/></svg>