<svg id="Layer_1" data-name="Layer 1" xmlns="http://www.w3.org/2000/svg" viewBox="0 0 124 124"><defs><style>.cls-1{fill:none;stroke:#3dc1cc;stroke-miterlimit:10;stroke-width:7px;}.cls-2{fill:#3dc1cc;}</style></defs><path class="cls-1" d="M109.6849,34.6181,13.9878,91.7705Z"/><path class="cls-2" d="M116.4614,39.8678l-.0255-.1405c-.0256-.23-.0512-.4468-.0892-.6767a19.5275,19.5275,0,0,0-2.2852-6.7917c-.0642-.1021-.1147-.2043-.1658-.2936-.09-.1532-.1665-.2682-.2432-.3957l-.1782-.2937.7143-.6511-.8041.5234a19.5589,19.5589,0,0,0-6.5746-6.23C91.2477,15.9817,72.9919,5.4877,72.7488,5.36l-.4719-.2809a18.1971,18.1971,0,0,0-8.7963-2.3874,2.0661,2.0661,0,0,0-.268-.0128h-.1789a18.4684,18.4684,0,0,0-8.86,2.4129L19.6533,24.931a19.3261,19.3261,0,0,0-6.511,6.1278c-.1147.1661-.2039.3064-.2936.46-.1023.1658-.1783.2936-.255.434-.0767.1149-.1278.2043-.1789.2936A19.702,19.702,0,0,0,10.13,38.9485l-.0125.166c-.0387.2425-.0511.4214-.0767.6128l-.0255.1405a5.6843,5.6843,0,0,0-.1789,1.3786V82.6355c0,.1019.013.1913.013.2808.0512.434.1147.8936.217,1.3787a18.2187,18.2187,0,0,0,8.949,13.4941l34.5461,19.8774c.3833.217.7916.4213,1.1875.6128a17.4411,17.4411,0,0,0,2.03.8425,19.1354,19.1354,0,0,0,5.4513,1.0725,3.1318,3.1318,0,0,0,.3572.0127l.8172.0128c.0767,0,.1534-.0128.2425-.0128h.23c.1277,0,.2549,0,.4338-.0127a19.1325,19.1325,0,0,0,5.3622-1.06,18.62,18.62,0,0,0,2.03-.8424c.23-.115,2.8469-1.5958,32.8868-18.8561l2.8593-1.6469A18.224,18.224,0,0,0,116.41,84.3332c.0767-.4722.1533-.9447.2045-1.468a1.5906,1.5906,0,0,0,.0124-.2425V41.2464A6.1685,6.1685,0,0,0,116.4614,39.8678Zm-5.0043,42.7038c-.0387.268-.0767.5233-.1278.7915l-.0381.2552a13.0679,13.0679,0,0,1-6.4218,9.69L102.01,94.955c-20.8733,11.9877-31.5334,18.1027-32.5675,18.69-.4975.23-.9575.4212-1.4812.6127a14.2466,14.2466,0,0,1-3.9059.7788l-.92.0127-.5492-.0127a14.166,14.166,0,0,1-4.098-.7915,13.717,13.717,0,0,1-1.4935-.6256c-.3192-.14-.6253-.3064-.8808-.4468L21.5938,93.308a13.02,13.02,0,0,1-6.4088-9.69l-.0255-.1915c-.0636-.2808-.1023-.5744-.14-.868l-.0125-41.3634.05-.14a2.4723,2.4723,0,0,0,.1023-.5362c.0255-.2936.0511-.5363.0891-.7788.0131-.0511.0131-.1276.0262-.1913a13.9619,13.9619,0,0,1,1.6718-4.8l.1154-.1917c.0635-.1275.1278-.23.1913-.3446v-.0128l.1659-.23a14.3022,14.3022,0,0,1,4.8129-4.5576L56.7527,9.5729a13.111,13.111,0,0,1,6.32-1.7234h.2294a13.0394,13.0394,0,0,1,6.3708,1.698l.485.2808c.5236.2936,33.793,19.4177,34.0735,19.5709a14.3578,14.3578,0,0,1,4.775,4.4811l.268.434a2.7937,2.7937,0,0,1,.14.2425l.0767.1278a13.85,13.85,0,0,1,1.71,4.9278c.0511.3573.09.6383.1147.9192a2.4325,2.4325,0,0,0,.1022.5106l.0387.2681Z"/><path class="cls-2" d="M43.0823,25.0762a1.53,1.53,0,0,0-1.53,1.53v2.4215H31.6269a4.9066,4.9066,0,0,0-4.901,4.901v56.77a4.9066,4.9066,0,0,0,4.901,4.901H92.8218a4.9066,4.9066,0,0,0,4.901-4.901v-56.77a4.9066,4.9066,0,0,0-4.901-4.901H82.8965V26.6063a1.53,1.53,0,0,0-3.06,0v2.4215H70.1352V26.6063a1.53,1.53,0,0,0-3.06,0v2.4215H57.3737V26.6063a1.53,1.53,0,1,0-3.06,0v2.4215H44.6124V26.6063A1.53,1.53,0,0,0,43.0823,25.0762ZM81.3664,40.7254a1.53,1.53,0,0,0,1.53-1.53V36.3518h3.86a.893.893,0,0,1,.892.8919v9.132H36.8006v-9.132a.8929.8929,0,0,1,.8919-.8919h3.86v2.8435a1.53,1.53,0,0,0,3.06,0V36.3518h9.7011v2.8435a1.53,1.53,0,1,0,3.06,0V36.3518h9.7012v2.8435a1.53,1.53,0,0,0,3.06,0V36.3518h9.7011v2.8435A1.53,1.53,0,0,0,81.3664,40.7254Zm6.2817,37.6625a.893.893,0,0,1-.892.8919H37.6925a.8929.8929,0,0,1-.8919-.8919V48.4158H87.6481ZM36.8006,81.1808a2.92,2.92,0,0,0,.8919.1391H86.7561a2.92,2.92,0,0,0,.892-.1391v.6562a.893.893,0,0,1-.892.892H37.6925a.8929.8929,0,0,1-.8919-.892Zm0,3.4491a2.92,2.92,0,0,0,.8919.1392H86.7561a2.92,2.92,0,0,0,.892-.1392v.6564a.893.893,0,0,1-.892.8919H37.6925a.8929.8929,0,0,1-.8919-.8919ZM70.1352,34.3116V32.088h9.7011v2.2236Zm-3.06,0H57.3737V32.088h9.7012Zm-12.7614,0H44.6124V32.088h9.7011Zm-12.7613,0h-3.86A2.9355,2.9355,0,0,0,34.76,37.2437V85.2863a2.9354,2.9354,0,0,0,2.9321,2.932H86.7561a2.9354,2.9354,0,0,0,2.9321-2.932V37.2437a2.9354,2.9354,0,0,0-2.9321-2.9321h-3.86V32.088h9.9253a1.8429,1.8429,0,0,1,1.8408,1.8408v56.77A1.8429,1.8429,0,0,1,92.8218,92.54H31.6269a1.8429,1.8429,0,0,1-1.8408-1.8408v-56.77a1.8429,1.8429,0,0,1,1.8408-1.8408h9.9253Z"/><polygon class="cls-2" points="46.607 65.133 50.145 65.133 50.145 62.497 46.607 62.497 46.607 57.751 51.45 57.751 51.45 55.114 43.984 55.114 43.984 72.515 46.607 72.515 46.607 65.133"/><polygon class="cls-2" points="60.719 69.879 55.876 69.879 55.876 65.133 59.414 65.133 59.414 62.497 55.876 62.497 55.876 57.751 60.719 57.751 60.719 55.114 53.253 55.114 53.253 72.515 60.719 72.515 60.719 69.879"/><polygon class="cls-2" points="69.988 69.879 65.145 69.879 65.145 65.133 68.684 65.133 68.684 62.497 65.145 62.497 65.145 57.751 69.988 57.751 69.988 55.114 62.523 55.114 62.523 72.515 69.988 72.515 69.988 69.879"/><path class="cls-2" d="M76.177,70.309a1.3419,1.3419,0,0,1-1.0825-.4883A3.7954,3.7954,0,0,1,74.29,67.617l-2.4978.18a6.8568,6.8568,0,0,0,.5759,2.463,4.2663,4.2663,0,0,0,1.3391,1.7,4.1226,4.1226,0,0,0,2.5532.7632,4.9221,4.9221,0,0,0,1.457-.1942,3.3989,3.3989,0,0,0,1.804-1.2351,4.8914,4.8914,0,0,0,.9436-3.1083,4.7731,4.7731,0,0,0-.3885-1.6651,7.3893,7.3893,0,0,0-.4025-.8187,8.908,8.908,0,0,0-1.4986-1.915q-.2916-.3051-1.2073-1.0685a8.64,8.64,0,0,1-1.1656-1.11A3.83,3.83,0,0,1,74.7755,59.18a2.4611,2.4611,0,0,1,.3052-1.2767,1.1988,1.1988,0,0,1,1.0963-.6383,1.2826,1.2826,0,0,1,1.0407.43,3.0289,3.0289,0,0,1,.6105,1.6651l2.5116-.4579a5.0353,5.0353,0,0,0-.5758-2.0121,3.6086,3.6086,0,0,0-1.2558-1.36,4.4391,4.4391,0,0,0-2.4007-.6245,3.965,3.965,0,0,0-2.4421.7361A4.2511,4.2511,0,0,0,72.07,59.24a5.2357,5.2357,0,0,0,.5829,2.4445,9.9515,9.9515,0,0,0,1.8455,2.264q1.554,1.4723,2.3313,2.2083a3.2014,3.2014,0,0,1,.9852,2.1528,2.105,2.105,0,0,1-.2637,1.1526A1.6266,1.6266,0,0,1,76.177,70.309Z"/></svg>