<svg id="Layer_1" data-name="Layer 1" xmlns="http://www.w3.org/2000/svg" viewBox="0 0 124 124"><defs><style>.cls-1{fill:#3dc1cc;}</style></defs><path class="cls-1" d="M61.5713,52.3837h0a1.7985,1.7985,0,0,1,0-2.5435L82.8025,28.6089a1.7986,1.7986,0,0,1,2.5435,0h0a1.7985,1.7985,0,0,1,0,2.5435L64.1148,52.3837A1.7986,1.7986,0,0,1,61.5713,52.3837Z"/><path class="cls-1" d="M80.1132,41.9351a7.9136,7.9136,0,1,0,7.9135,7.9136A7.9226,7.9226,0,0,0,80.1132,41.9351Zm0,12.23A4.3165,4.3165,0,1,1,84.43,49.8487,4.3165,4.3165,0,0,1,80.1132,54.1651Z"/><path class="cls-1" d="M66.8041,23.23a7.9136,7.9136,0,1,0,7.9135,7.9136A7.9225,7.9225,0,0,0,66.8041,23.23Zm0,12.23a4.3165,4.3165,0,1,1,4.3164-4.3164A4.3165,4.3165,0,0,1,66.8041,35.46Z"/><path class="cls-1" d="M86.2525,64.6262a8.8515,8.8515,0,0,0-12.9146-.4233l-4.18,4.18V62.4388A1.7985,1.7985,0,0,0,67.36,60.64h0a1.7985,1.7985,0,0,0-1.7985,1.7985V77.0661l10.24-10.24a5.4577,5.4577,0,0,1,2.064-1.3278A5.2635,5.2635,0,0,1,83.55,67a5.3384,5.3384,0,0,1-.3378,7.2774L62.205,95.2849a2.67,2.67,0,0,1-2.0715.781,2.8119,2.8119,0,0,1-1.7915-.8478l-21.04-21.0405a5.2748,5.2748,0,0,1-1.5363-3.8861,5.2121,5.2121,0,0,1,1.79-3.7828,5.1523,5.1523,0,0,1,3.406-1.2706,5.5142,5.5142,0,0,1,3.871,1.608l10.22,10.22s.0015-36.2849.0019-44.8467c0-.0238-.0061-.046-.0071-.07v-2.236a1.7959,1.7959,0,0,0-1.7959-1.796h0a1.7959,1.7959,0,0,0-1.7959,1.796V68.3824l-4.0792-4.079a9.1343,9.1343,0,0,0-6.4152-2.6623A8.7929,8.7929,0,0,0,32.17,70.1753a8.8854,8.8854,0,0,0,2.588,6.546L55.8649,97.8277a6.28,6.28,0,0,0,8.8836.0007L85.7558,76.8211A8.9418,8.9418,0,0,0,86.2525,64.6262Z"/><path class="cls-1" d="M115.8356,39.8678l-.0256-.1405c-.0255-.23-.0511-.4468-.0891-.6767a19.5275,19.5275,0,0,0-2.2852-6.7917c-.0642-.1021-.1147-.2043-.1659-.2936-.09-.1532-.1664-.2682-.2431-.3957l-.1782-.2937.7143-.6511-.8041.5234a19.5589,19.5589,0,0,0-6.5746-6.23C90.6219,15.9817,72.3661,5.4877,72.123,5.36l-.4719-.2809a18.1971,18.1971,0,0,0-8.7963-2.3874,2.0661,2.0661,0,0,0-.268-.0128h-.1789a18.4684,18.4684,0,0,0-8.86,2.4129L19.0275,24.931a19.3261,19.3261,0,0,0-6.511,6.1278c-.1147.1661-.2039.3064-.2936.46-.1023.1658-.1783.2936-.255.434-.0767.1149-.1278.2043-.1789.2936a19.7043,19.7043,0,0,0-2.2853,6.7024l-.0124.166c-.0387.2425-.0511.4214-.0767.6128l-.0256.1405A5.6892,5.6892,0,0,0,9.21,41.2464V82.6355c0,.1019.0131.1913.0131.2808.0512.434.1147.8936.217,1.3787a18.2187,18.2187,0,0,0,8.949,13.4941l34.5461,19.8774c.3833.217.7916.4213,1.1875.6128a17.4411,17.4411,0,0,0,2.03.8425,19.1354,19.1354,0,0,0,5.4513,1.0725,3.1309,3.1309,0,0,0,.3572.0127l.8172.0128c.0767,0,.1534-.0128.2425-.0128h.23c.1278,0,.255,0,.4339-.0127a19.1325,19.1325,0,0,0,5.3622-1.06,18.62,18.62,0,0,0,2.03-.8424c.23-.115,2.8469-1.5958,32.8868-18.8561l2.8593-1.6469a18.224,18.224,0,0,0,8.9621-13.4559c.0767-.4722.1533-.9447.2045-1.468a1.5906,1.5906,0,0,0,.0124-.2425V41.2464A6.1685,6.1685,0,0,0,115.8356,39.8678Zm-5.0043,42.7038c-.0387.268-.0767.5233-.1278.7915l-.0381.2552a13.0679,13.0679,0,0,1-6.4218,9.69l-2.8594,1.647c-20.8733,11.9877-31.5334,18.1027-32.5676,18.69-.4974.23-.9574.4212-1.4811.6127a14.2474,14.2474,0,0,1-3.9059.7788l-.9195.0127-.5492-.0127a14.166,14.166,0,0,1-4.098-.7915,13.717,13.717,0,0,1-1.4935-.6256c-.3192-.14-.6253-.3064-.8809-.4468L20.968,93.308a13.02,13.02,0,0,1-6.4088-9.69l-.0255-.1915c-.0636-.2808-.1023-.5744-.14-.868l-.0125-41.3634.05-.14a2.4723,2.4723,0,0,0,.1023-.5362c.0255-.2936.0511-.5363.0891-.7788.0131-.0511.0131-.1276.0262-.1913a13.9619,13.9619,0,0,1,1.6718-4.8l.1154-.1917c.0635-.1275.1277-.23.1913-.3446v-.0128l.1658-.23a14.3034,14.3034,0,0,1,4.813-4.5576L56.1269,9.5729a13.111,13.111,0,0,1,6.32-1.7234h.2294a13.04,13.04,0,0,1,6.3708,1.698l.4849.2808c.5237.2936,33.7931,19.4177,34.0736,19.5709A14.3578,14.3578,0,0,1,108.38,33.88l.268.434a2.7937,2.7937,0,0,1,.14.2425l.0767.1278a13.85,13.85,0,0,1,1.71,4.9278c.0511.3573.09.6383.1147.9192a2.4325,2.4325,0,0,0,.1022.5106l.0387.2681Z"/></svg>