<svg id="Layer_1" data-name="Layer 1" xmlns="http://www.w3.org/2000/svg" viewBox="0 0 124 124"><defs><style>.cls-1,.cls-3{fill:#3dc1cc;}.cls-2{fill:#fff;}.cls-3{stroke:#3dc1cc;stroke-miterlimit:10;}</style></defs><path class="cls-1" d="M115.4614,39.8678l-.0255-.1405c-.0256-.23-.0512-.4468-.0892-.6767a19.5275,19.5275,0,0,0-2.2852-6.7917c-.0642-.1021-.1147-.2043-.1658-.2936-.09-.1532-.1665-.2682-.2432-.3957l-.1782-.2937.7143-.6511-.8041.5234a19.5589,19.5589,0,0,0-6.5746-6.23C90.2477,15.9817,71.9919,5.4877,71.7488,5.36l-.4719-.2809a18.1971,18.1971,0,0,0-8.7963-2.3874,2.0661,2.0661,0,0,0-.268-.0128h-.1789a18.4684,18.4684,0,0,0-8.86,2.4129L18.6533,24.931a19.3261,19.3261,0,0,0-6.511,6.1278c-.1147.1661-.2039.3064-.2936.46-.1023.1658-.1783.2936-.255.434-.0767.1149-.1278.2043-.1789.2936A19.702,19.702,0,0,0,9.13,38.9485l-.0125.166c-.0387.2425-.0511.4214-.0767.6128l-.0255.1405a5.6843,5.6843,0,0,0-.1789,1.3786V82.6355c0,.1019.013.1913.013.2808.0512.434.1147.8936.217,1.3787a18.2187,18.2187,0,0,0,8.949,13.4941l34.5461,19.8774c.3833.217.7916.4213,1.1875.6128a17.4411,17.4411,0,0,0,2.03.8425,19.1354,19.1354,0,0,0,5.4513,1.0725,3.1318,3.1318,0,0,0,.3572.0127l.8172.0128c.0767,0,.1534-.0128.2425-.0128h.23c.1277,0,.2549,0,.4338-.0127a19.1325,19.1325,0,0,0,5.3622-1.06,18.62,18.62,0,0,0,2.03-.8424c.23-.115,2.8469-1.5958,32.8868-18.8561l2.8593-1.6469A18.224,18.224,0,0,0,115.41,84.3332c.0767-.4722.1533-.9447.2045-1.468a1.5906,1.5906,0,0,0,.0124-.2425V41.2464A6.1685,6.1685,0,0,0,115.4614,39.8678Zm-5.0043,42.7038c-.0387.268-.0767.5233-.1278.7915l-.0381.2552a13.0679,13.0679,0,0,1-6.4218,9.69L101.01,94.955c-20.8733,11.9877-31.5334,18.1027-32.5675,18.69-.4975.23-.9575.4212-1.4812.6127a14.2466,14.2466,0,0,1-3.9059.7788l-.9195.0127-.5492-.0127a14.166,14.166,0,0,1-4.098-.7915,13.717,13.717,0,0,1-1.4935-.6256c-.3192-.14-.6253-.3064-.8808-.4468L20.5938,93.308a13.02,13.02,0,0,1-6.4088-9.69l-.0255-.1915c-.0636-.2808-.1023-.5744-.14-.868l-.0125-41.3634.05-.14a2.4723,2.4723,0,0,0,.1023-.5362c.0255-.2936.0511-.5363.0891-.7788.0131-.0511.0131-.1276.0262-.1913a13.9619,13.9619,0,0,1,1.6718-4.8l.1154-.1917c.0635-.1275.1278-.23.1913-.3446v-.0128l.1659-.23a14.3022,14.3022,0,0,1,4.8129-4.5576L55.7527,9.5729a13.111,13.111,0,0,1,6.32-1.7234h.2294a13.0394,13.0394,0,0,1,6.3708,1.698l.485.2808c.5236.2936,33.793,19.4177,34.0735,19.5709a14.3578,14.3578,0,0,1,4.775,4.4811l.268.434a2.7937,2.7937,0,0,1,.14.2425l.0767.1278a13.85,13.85,0,0,1,1.71,4.9278c.0511.3573.09.6383.1147.9192a2.4325,2.4325,0,0,0,.1022.5106l.0387.2681Z"/><path class="cls-1" d="M89.0371,92.9454H31.2349a1.2038,1.2038,0,0,1-1.1865-1.41l4.8168-27.6968a1.2039,1.2039,0,0,1,1.1866-.9985H64.7224a1.2043,1.2043,0,0,1,0,2.4085H37.0643L32.6661,90.537h54.94L83.2077,65.2486H76.46a1.2043,1.2043,0,0,1,0-2.4085h7.76a1.2038,1.2038,0,0,1,1.1865.9985l4.8169,27.6968a1.2039,1.2039,0,0,1-1.1866,1.41Z"/><rect class="cls-1" x="33.3117" y="78.596" width="53.6486" height="2.4084"/><rect class="cls-1" x="49.2981" y="64.0444" width="2.4084" height="27.6969"/><path class="cls-1" d="M73.6576,68.8915a3.2214,3.2214,0,0,1-5.0971,0L55.99,52.6326a19.7658,19.7658,0,1,1,29.8971.44Zm.277-45.8031A17.0936,17.0936,0,0,0,58.0592,50.9615l13.05,16.8754L83.871,51.3354a17.0754,17.0754,0,0,0-9.9364-28.247Z"/><circle class="cls-2" cx="71.458" cy="39.9346" r="10.8584"/><path class="cls-3" d="M71.4581,51.3948a11.4606,11.4606,0,1,1,11.46-11.46A11.4736,11.4736,0,0,1,71.4581,51.3948Zm0-21.717a10.2564,10.2564,0,1,0,10.2558,10.257A10.2681,10.2681,0,0,0,71.4581,29.6778Z"/></svg>