<svg id="Layer_1" data-name="Layer 1" xmlns="http://www.w3.org/2000/svg" viewBox="0 0 124 124"><defs><style>.cls-1{fill:#3dc1cc;}.cls-2{fill:none;stroke:#3dc1cc;stroke-miterlimit:10;stroke-width:7px;}</style></defs><path class="cls-1" d="M85.3743,99.5766H43.9327a5.1859,5.1859,0,0,1-5.18-5.18V46.0478h3.4534V94.3963a1.7291,1.7291,0,0,0,1.7268,1.7268H85.3743a1.7291,1.7291,0,0,0,1.7268-1.7268V46.0478h3.4534V94.3963A5.1859,5.1859,0,0,1,85.3743,99.5766Z"/><rect class="cls-1" x="47.3861" y="46.0478" width="3.4535" height="50.0753"/><rect class="cls-1" x="57.7466" y="46.0478" width="3.4535" height="50.0753"/><rect class="cls-1" x="64.6535" y="73.6755" width="3.4535" height="17.2674" rx="1.7267"/><path class="cls-1" d="M95.7347,59.8616H94.008a1.7266,1.7266,0,0,1-1.7267-1.7267h0a1.7267,1.7267,0,0,1,1.7267-1.7267h1.7267a5.18,5.18,0,0,0,5.18-5.18V40.8675a5.18,5.18,0,0,0-5.18-5.18H33.5723a5.18,5.18,0,0,0-5.18,5.18V51.228a5.18,5.18,0,0,0,5.18,5.18H35.299a1.7267,1.7267,0,0,1,1.7267,1.7267h0a1.7267,1.7267,0,0,1-1.7267,1.7267H33.5723a8.6336,8.6336,0,0,1-8.6337-8.6336V40.8675a8.6336,8.6336,0,0,1,8.6337-8.6336H95.7347a8.6336,8.6336,0,0,1,8.6337,8.6336V51.228A8.6336,8.6336,0,0,1,95.7347,59.8616Z"/><rect class="cls-1" x="33.5723" y="44.321" width="62.1625" height="3.4535" rx="1.7267"/><path class="cls-2" d="M111.014,34.6181,15.317,91.7705Z"/><path class="cls-1" d="M116.1557,39.8678l-.0255-.1405c-.0256-.23-.0512-.4468-.0892-.6767a19.5275,19.5275,0,0,0-2.2852-6.7917c-.0642-.1021-.1147-.2043-.1658-.2936-.09-.1532-.1665-.2682-.2431-.3957l-.1783-.2937.7143-.6511-.8041.5234a19.5589,19.5589,0,0,0-6.5746-6.23C90.942,15.9817,72.6862,5.4877,72.4431,5.36l-.4719-.2809a18.1971,18.1971,0,0,0-8.7963-2.3874,2.0653,2.0653,0,0,0-.268-.0128H62.728a18.4684,18.4684,0,0,0-8.86,2.4129L19.3476,24.931a19.3261,19.3261,0,0,0-6.511,6.1278c-.1147.1661-.2039.3064-.2936.46-.1023.1658-.1783.2936-.255.434-.0767.1149-.1278.2043-.1789.2936a19.702,19.702,0,0,0-2.2852,6.7024l-.0125.166c-.0387.2425-.0511.4214-.0767.6128l-.0255.1405A5.6843,5.6843,0,0,0,9.53,41.2464V82.6355c0,.1019.0131.1913.0131.2808.0511.434.1147.8936.2169,1.3787a18.2189,18.2189,0,0,0,8.949,13.4941l34.5461,19.8774c.3833.217.7916.4213,1.1875.6128a17.4411,17.4411,0,0,0,2.03.8425,19.1354,19.1354,0,0,0,5.4513,1.0725,3.1318,3.1318,0,0,0,.3572.0127l.8173.0128c.0766,0,.1533-.0128.2424-.0128h.23c.1278,0,.2549,0,.4338-.0127a19.1325,19.1325,0,0,0,5.3622-1.06,18.6217,18.6217,0,0,0,2.03-.8424c.23-.115,2.8468-1.5958,32.8867-18.8561l2.8593-1.6469a18.224,18.224,0,0,0,8.9621-13.4559c.0767-.4722.1534-.9447.2045-1.468a1.5906,1.5906,0,0,0,.0124-.2425V41.2464A6.1627,6.1627,0,0,0,116.1557,39.8678Zm-5.0043,42.7038c-.0387.268-.0767.5233-.1278.7915l-.038.2552a13.0683,13.0683,0,0,1-6.4219,9.69l-2.8594,1.647c-20.8733,11.9877-31.5334,18.1027-32.5675,18.69-.4975.23-.9575.4212-1.4811.6127a14.2481,14.2481,0,0,1-3.906.7788l-.9195.0127-.5492-.0127a14.166,14.166,0,0,1-4.098-.7915A13.717,13.717,0,0,1,56.69,113.62c-.3192-.14-.6253-.3064-.8808-.4468L21.2881,93.308a13.02,13.02,0,0,1-6.4088-9.69l-.0255-.1915c-.0636-.2808-.1023-.5744-.14-.868l-.0124-41.3634.05-.14a2.4663,2.4663,0,0,0,.1023-.5362c.0255-.2936.0511-.5363.0891-.7788.0131-.0511.0131-.1276.0262-.1913a13.96,13.96,0,0,1,1.6719-4.8l.1153-.1917c.0636-.1275.1278-.23.1913-.3446v-.0128l.1659-.23a14.3022,14.3022,0,0,1,4.8129-4.5576L56.447,9.5729a13.1113,13.1113,0,0,1,6.32-1.7234h.2294a13.0394,13.0394,0,0,1,6.3708,1.698l.485.2808c.5236.2936,33.793,19.4177,34.0736,19.5709A14.3584,14.3584,0,0,1,108.7,33.88l.2681.434c.0635.1022.1022.166.14.2425l.0767.1278a13.8478,13.8478,0,0,1,1.71,4.9278c.0511.3573.09.6383.1147.9192a2.4325,2.4325,0,0,0,.1022.5106l.0387.2681Z"/></svg>