<svg xmlns="http://www.w3.org/2000/svg" viewBox="0 0 124 124"><defs><style>.cls-1{fill:#5ac5cb;}</style></defs><g id="Layer_5" data-name="Layer 5"><path class="cls-1" d="M37.46,104.35a9.58,9.58,0,0,0,1,3.44,5.89,5.89,0,0,0,5.55,3.26H79.94a5.89,5.89,0,0,0,5.55-3.26,9.53,9.53,0,0,0,1.05-3.44c0-1.61,1.31-66.31,1.31-74.43,0-7.37-1.1-9.77-2.39-12.54l-.39-.84C84.32,14.88,81.26,13,79.82,13H44.18c-1.43,0-4.5,1.93-5.25,3.59l-.39.84c-1.28,2.77-2.39,5.17-2.39,12.54,0,8.12,1.28,72.84,1.31,74.43m42.48,8.35H44.06a7.54,7.54,0,0,1-7-4.18,11.15,11.15,0,0,1-1.21-4.07v0c0-.66-1.31-66.28-1.31-74.48,0-7.73,1.24-10.41,2.55-13.24.13-.27.25-.54.38-.82a8.24,8.24,0,0,1,3-3.12,7.64,7.64,0,0,1,3.78-1.44H79.82a7.64,7.64,0,0,1,3.78,1.44,8.16,8.16,0,0,1,3,3.12c.13.28.26.55.38.82,1.31,2.83,2.55,5.51,2.55,13.24,0,8.2-1.3,73.82-1.31,74.48v0A11.15,11.15,0,0,1,87,108.52a7.54,7.54,0,0,1-7,4.18"/><path class="cls-1" d="M42.19,78.66a.78.78,0,0,0,.37.08H50.4a.78.78,0,0,0,.37-.08V76a1,1,0,0,0-.37-.07H42.56a1,1,0,0,0-.37.07Zm8.21,1.72H42.56a1.81,1.81,0,0,1-2-1.58v-3a1.82,1.82,0,0,1,2-1.59H50.4a1.82,1.82,0,0,1,2,1.59v3a1.81,1.81,0,0,1-2,1.58"/><path class="cls-1" d="M57.71,78.66a.78.78,0,0,0,.37.08h7.84a.78.78,0,0,0,.37-.08V76a1,1,0,0,0-.37-.07H58.08a1,1,0,0,0-.37.07Zm8.21,1.72H58.08a1.81,1.81,0,0,1-2-1.58v-3a1.82,1.82,0,0,1,2-1.59h7.84a1.82,1.82,0,0,1,2,1.59v3a1.81,1.81,0,0,1-2,1.58"/><path class="cls-1" d="M73.23,78.66a.78.78,0,0,0,.37.08h7.84a.78.78,0,0,0,.37-.08V76a1,1,0,0,0-.37-.07H73.6a1,1,0,0,0-.37.07Zm8.21,1.72H73.6a1.81,1.81,0,0,1-2-1.58v-3a1.82,1.82,0,0,1,2-1.59h7.84a1.82,1.82,0,0,1,2,1.59v3a1.81,1.81,0,0,1-2,1.58"/><path class="cls-1" d="M42.19,86.58a1,1,0,0,0,.37.07H50.4a1,1,0,0,0,.37-.07V83.9a1,1,0,0,0-.37-.07H42.56a1,1,0,0,0-.37.07ZM50.4,88.3H42.56a1.82,1.82,0,0,1-2-1.59V83.77a1.82,1.82,0,0,1,2-1.59H50.4a1.82,1.82,0,0,1,2,1.59v2.94a1.82,1.82,0,0,1-2,1.59"/><path class="cls-1" d="M57.71,86.58a1,1,0,0,0,.37.07h7.84a1,1,0,0,0,.37-.07V83.9a1,1,0,0,0-.37-.07H58.08a1,1,0,0,0-.37.07Zm8.21,1.72H58.08a1.82,1.82,0,0,1-2-1.59V83.77a1.82,1.82,0,0,1,2-1.59h7.84a1.82,1.82,0,0,1,2,1.59v2.94a1.82,1.82,0,0,1-2,1.59"/><path class="cls-1" d="M73.23,86.58a1,1,0,0,0,.37.07h7.84a1,1,0,0,0,.37-.07V83.9a1,1,0,0,0-.37-.07H73.6a1,1,0,0,0-.37.07Zm8.21,1.72H73.6a1.82,1.82,0,0,1-2-1.59V83.77a1.82,1.82,0,0,1,2-1.59h7.84a1.82,1.82,0,0,1,2,1.59v2.94a1.82,1.82,0,0,1-2,1.59"/><path class="cls-1" d="M42.19,94.49a.78.78,0,0,0,.37.08H50.4a.78.78,0,0,0,.37-.08V91.82a.78.78,0,0,0-.37-.08H42.56a.78.78,0,0,0-.37.08Zm8.21,1.72H42.56a1.81,1.81,0,0,1-2-1.58V91.68a1.81,1.81,0,0,1,2-1.58H50.4a1.81,1.81,0,0,1,2,1.58v2.95a1.81,1.81,0,0,1-2,1.58"/><path class="cls-1" d="M57.71,94.49a.78.78,0,0,0,.37.08h7.84a.78.78,0,0,0,.37-.08V91.82a.78.78,0,0,0-.37-.08H58.08a.78.78,0,0,0-.37.08Zm8.21,1.72H58.08a1.81,1.81,0,0,1-2-1.58V91.68a1.81,1.81,0,0,1,2-1.58h7.84a1.81,1.81,0,0,1,2,1.58v2.95a1.81,1.81,0,0,1-2,1.58"/><path class="cls-1" d="M73.23,94.49a.78.78,0,0,0,.37.08h7.84a.78.78,0,0,0,.37-.08V91.82a.78.78,0,0,0-.37-.08H73.6a.78.78,0,0,0-.37.08Zm8.21,1.72H73.6a1.81,1.81,0,0,1-2-1.58V91.68a1.81,1.81,0,0,1,2-1.58h7.84a1.81,1.81,0,0,1,2,1.58v2.95a1.81,1.81,0,0,1-2,1.58"/><path class="cls-1" d="M40.75,70c.13.08.88.45,4.31.66,2,.12,3.8.12,3.82.12H75.13s1.85,0,3.81-.12c3.43-.21,4.18-.58,4.31-.66s.58-1.15.93-4.81c.23-2.43.4-5.71.49-9.74.17-7.29.08-15.52,0-19.94,0-1.35,0-2.42,0-3a3.68,3.68,0,0,0-1.41-3.35,2.84,2.84,0,0,0-1.34-.45H42.08c-.28,0-2.75.16-2.75,3.8,0,.61,0,1.67,0,3,0,4.42-.14,12.65,0,19.94.09,4,.26,7.31.49,9.74.35,3.66.78,4.59.93,4.81m34.38,2.42H48.88c-.09,0-2,0-4.11-.13-4-.25-4.89-.75-5.29-1.24-.68-.87-1.51-3.42-1.8-15.56-.17-7.32-.07-15.57,0-20,0-1.35,0-2.41,0-3,0-2.76,1.17-4.09,2.16-4.73a4.38,4.38,0,0,1,2.23-.71H81.92a4.43,4.43,0,0,1,2.24.71c1,.64,2.16,2,2.16,4.73,0,.6,0,1.66,0,3,0,4.43.15,12.68,0,20-.29,12.14-1.11,14.69-1.8,15.56-.39.49-1.31,1-5.28,1.24-2.09.13-4,.13-4.11.13"/><path class="cls-1" d="M43.11,57.39H80.89V32.13H43.11ZM81.72,59H42.28a.82.82,0,0,1-.82-.82V31.31a.83.83,0,0,1,.82-.83H81.72a.83.83,0,0,1,.82.83v26.9a.82.82,0,0,1-.82.82"/><path class="cls-1" d="M62,36.93a7.83,7.83,0,1,0,7.83,7.83A7.84,7.84,0,0,0,62,36.93m0,17.3a9.48,9.48,0,1,1,9.47-9.47A9.48,9.48,0,0,1,62,54.23"/><path class="cls-1" d="M60.05,48.74a.82.82,0,0,1-.58-.24l-2.79-2.74a.81.81,0,0,1,0-1.16.82.82,0,0,1,1.16,0l2.23,2.18L66.18,41a.82.82,0,1,1,1.13,1.2l-6.7,6.31a.82.82,0,0,1-.56.23"/><path class="cls-1" d="M42.51,24.34h39c0-2.2-.33-6.32-1.9-8a2.05,2.05,0,0,0-1.54-.68H46a2.05,2.05,0,0,0-1.54.68c-1.57,1.65-1.9,5.77-1.9,8M82.3,26H41.7a.82.82,0,0,1-.82-.78c0-.3-.3-7.2,2.34-10A3.65,3.65,0,0,1,46,14h32.1a3.65,3.65,0,0,1,2.73,1.2c2.64,2.76,2.35,9.66,2.34,10a.82.82,0,0,1-.82.78"/><path class="cls-1" d="M43.42,67.32h4.81a.32.32,0,0,0,0-.17V63.29a.32.32,0,0,0,0-.17H43.42a.32.32,0,0,0,0,.17v3.86a.32.32,0,0,0,0,.17M48.33,69h-5a1.69,1.69,0,0,1-1.58-1.82V63.29a1.69,1.69,0,0,1,1.58-1.82h5a1.69,1.69,0,0,1,1.58,1.82v3.86A1.69,1.69,0,0,1,48.33,69"/><path class="cls-1" d="M50.61,67.32h4.81a.32.32,0,0,0,0-.17V63.29a.32.32,0,0,0,0-.17H50.61a.32.32,0,0,0,0,.17v3.86a.32.32,0,0,0,0,.17M55.52,69h-5a1.69,1.69,0,0,1-1.58-1.82V63.29a1.69,1.69,0,0,1,1.58-1.82h5a1.69,1.69,0,0,1,1.58,1.82v3.86A1.69,1.69,0,0,1,55.52,69"/><path class="cls-1" d="M69.12,67.32h4.82a.34.34,0,0,0,0-.17V63.29a.34.34,0,0,0,0-.17H69.12a.52.52,0,0,0,0,.17v3.86a.52.52,0,0,0,0,.17M74,69H69a1.7,1.7,0,0,1-1.59-1.82V63.29A1.7,1.7,0,0,1,69,61.47h5a1.7,1.7,0,0,1,1.58,1.82v3.86A1.7,1.7,0,0,1,74,69"/><path class="cls-1" d="M58.25,62c-.22,0-.4.25-.4.54v5.28c0,.29.18.54.4.54h8.1c.22,0,.4-.25.4-.54V62.58c0-.29-.18-.54-.4-.54Zm8.1,8h-8.1a2.12,2.12,0,0,1-2-2.18V62.58a2.12,2.12,0,0,1,2-2.18h8.1a2.12,2.12,0,0,1,2.05,2.18v5.28A2.12,2.12,0,0,1,66.35,70"/><path class="cls-1" d="M76.31,67.32h4.82a.52.52,0,0,0,0-.17V63.29a.52.52,0,0,0,0-.17H76.32a.32.32,0,0,0,0,.17v3.86a.52.52,0,0,0,0,.17M81.23,69h-5a1.69,1.69,0,0,1-1.58-1.82V63.29a1.69,1.69,0,0,1,1.58-1.82h5a1.7,1.7,0,0,1,1.58,1.82v3.86A1.7,1.7,0,0,1,81.23,69"/><path class="cls-1" d="M43.06,100.63c-.27,0-.51.17-.51.37v4.61c0,.19.24.37.51.37h8.81c.28,0,.52-.18.52-.37V101c0-.2-.24-.37-.52-.37Zm8.81,7H43.06a2.09,2.09,0,0,1-2.16-2V101a2.09,2.09,0,0,1,2.16-2h8.81A2.09,2.09,0,0,1,54,101v4.61a2.09,2.09,0,0,1-2.16,2"/><path class="cls-1" d="M57.59,100.63c-.27,0-.51.17-.51.37v4.61c0,.19.24.37.51.37h8.82c.27,0,.51-.18.51-.37V101c0-.2-.24-.37-.51-.37Zm8.82,7H57.59a2.09,2.09,0,0,1-2.16-2V101a2.09,2.09,0,0,1,2.16-2h8.82a2.09,2.09,0,0,1,2.16,2v4.61a2.09,2.09,0,0,1-2.16,2"/><path class="cls-1" d="M72.13,100.63c-.28,0-.51.17-.51.37v4.61c0,.19.23.37.51.37h8.81c.28,0,.51-.18.51-.37V101c0-.2-.23-.37-.51-.37Zm8.81,7H72.13a2.09,2.09,0,0,1-2.16-2V101a2.09,2.09,0,0,1,2.16-2h8.81a2.09,2.09,0,0,1,2.16,2v4.61a2.09,2.09,0,0,1-2.16,2"/><path class="cls-1" d="M77.52,19.5h-31a.83.83,0,0,1,0-1.65h31a.83.83,0,0,1,0,1.65"/></g></svg>