<?xml version="1.0" encoding="UTF-8"?><svg id="a" xmlns="http://www.w3.org/2000/svg" xmlns:xlink="http://www.w3.org/1999/xlink" viewBox="0 0 124 124"><defs><style>.e,.f{fill:none;}.g{fill:#5cc6cc;}.f{stroke:#5cc6cc;stroke-miterlimit:10;stroke-width:1.2px;}.h{clip-path:url(#c);}.i{clip-path:url(#d);}</style><clipPath id="c"><rect class="e" x="12.47" y="17.93" width="100.39" height="89.55"/></clipPath><clipPath id="d"><rect class="e" x="12.47" y="17.93" width="100.39" height="89.55"/></clipPath></defs><g id="b"><g class="h"><path class="g" d="M101.42,66.34c-.08-.13-.18-.26-.27-.38-.68-.83-1.49-1.6-2.21-2.42v15.26c-.03,.2-.06,.4-.1,.6l-.03,.19c-.38,3.08-2.21,5.84-4.89,7.38l-2.18,1.25c-15.9,9.13-24.02,13.79-24.81,14.24-.38,.18-.73,.32-1.13,.47-.94,.33-1.95,.53-2.98,.59h-1.12c-1.15-.06-2.17-.26-3.12-.6-.39-.14-.76-.29-1.14-.48-.24-.11-.48-.23-.67-.34l-26.3-15.13c-2.68-1.55-4.51-4.3-4.88-7.38l-.02-.15c-.05-.21-.08-.44-.11-.66v-16.04c-.33,1.13-.65,2.28-1.22,3.3-.32,.57-.81,.84-1.32,.88-.16,.64-.63,1.18-1.41,1.28v10.63c0,.08,0,.15,0,.21,.04,.33,.09,.68,.17,1.05,.54,4.32,3.09,8.14,6.82,10.28l26.32,15.14c.29,.17,.6,.32,.9,.47,.52,.25,1.01,.46,1.55,.64,1.3,.47,2.69,.74,4.15,.82,.08,.01,.18,.01,.27,.01h.62c.06,0,.12,0,.18,0h.18c.1,0,.19,0,.33-.01,1.42-.08,2.8-.35,4.09-.81,.55-.19,1.07-.41,1.55-.64,.18-.09,2.17-1.22,25.05-14.37l2.18-1.25c3.74-2.14,6.28-5.97,6.83-10.25,.06-.36,.12-.72,.16-1.12,0-.06,0-.13,0-.19v-11.61c-.58-.05-1.15-.39-1.46-.89h0Z"/><path class="g" d="M102.75,46.26l-.02-.11c-.02-.18-.04-.34-.07-.52-.26-1.85-.85-3.56-1.74-5.17-.05-.08-.09-.16-.13-.22-.07-.12-.13-.2-.19-.3l-.14-.22-.07-.1c-1.26-1.95-3-3.58-5.01-4.75-11.86-6.81-25.76-14.8-25.95-14.9l-.36-.21c-2.02-1.16-4.34-1.79-6.7-1.82-.08,0-.15,0-.2,0h-.14c-2.38,.04-4.71,.67-6.75,1.84l-26.3,15.12c-2,1.16-3.73,2.77-4.96,4.67-.09,.13-.16,.23-.22,.35-.08,.13-.14,.22-.19,.33-.06,.09-.1,.15-.14,.22-.89,1.61-1.48,3.33-1.74,5.11v.13c-.04,.19-.05,.32-.07,.47l-.02,.11c-.09,.35-.14,.7-.14,1.05v8.31c.17-.45,.37-.9,.64-1.29,.75-1.09,1.51-1.65,1.98-2.74,.23-.53,.76-.8,1.32-.86v-3.46l.04-.11c.04-.13,.07-.27,.08-.41,.02-.22,.04-.41,.07-.59,0-.04,0-.1,.02-.15,.2-1.31,.63-2.53,1.27-3.66l.09-.15c.05-.1,.1-.17,.15-.26h0l.13-.19c.92-1.42,2.2-2.63,3.67-3.47l26.3-15.11c1.47-.84,3.13-1.29,4.81-1.31h.17c1.75,.02,3.41,.47,4.85,1.29l.37,.21c.4,.22,25.75,14.79,25.96,14.91,1.48,.86,2.73,2.04,3.64,3.41l.2,.33c.05,.08,.08,.13,.11,.18l.06,.1c.69,1.22,1.12,2.46,1.3,3.75,.04,.27,.07,.49,.09,.7,0,.13,.04,.26,.08,.39l.03,.2v2.76c.07,.03,.14,.06,.21,.1,.21,.11,.38,.27,.51,.46,.15,.17,.26,.36,.31,.59,.37-.04,.75,.03,1.05,.24,.66,.48,1.29,.97,1.86,1.53v-5.73c0-.36-.05-.71-.13-1.05h0Z"/></g><path class="g" d="M15.03,67.91l17.35-25.83,5,3.51-17.35,25.83-5-3.51h0Zm9.82-.53l11.47-17.07,4.73,3.31c.25,.18,.58,.21,.86,.08l11.3-5.13c2.42-1.15,5.17-1.14,7.57,.03l4.66,2.28c1.72,.84,3.14,2.26,3.98,3.98l3.23,6.59c.73,1.5,.12,3.34-1.37,4.1-1.44,.73-3.22,.22-4.04-1.17l-1.7-2.87c-.41-.69-.99-1.24-1.7-1.61l-3.43-1.8c-.55-.29-1.16-.43-1.77-.43-.58,0-1.15,.13-1.68,.39l-14.81,7.26c-.11,.05-.2,.12-.28,.21l-7.22,8.36-9.79-6.5h0Zm8.84,11.88c-.05-.92,.26-1.8,.88-2.48l8.5-9.98,14.65-7.18c.59-.29,1.29-.28,1.88,.02l3.43,1.8c.42,.22,.77,.55,1.01,.96l1.7,2.87c1.29,2.19,4.08,2.99,6.34,1.84,2.33-1.19,3.29-4.07,2.14-6.42l-3.23-6.59c-1.01-2.07-2.71-3.77-4.78-4.78l-.9-.44,1.98-.99c2.02-1.01,4.4-.94,6.36,.19,9.14,5.3,9.39,5.38,9.53,5.43,.38,.13,.68,.21,6.2-3.08l11.93,17.75-6.57,4.45c-.14,.01-.29,.05-.41,.14l-.12,.08-.37-.48c-.71-.92-1.74-1.51-2.89-1.66-1.15-.15-2.3,.16-3.22,.87l-.51,.4c-.76,.58-1.28,1.39-1.52,2.3l-.43-.56c-1.3-1.68-3.73-2-5.41-.7l-.44,.33c-.6,.47-1.04,1.09-1.29,1.79l-.68-.88c-.68-.89-1.67-1.45-2.78-1.6-1.11-.15-2.21,.15-3.1,.84l-.48,.37c-1.83,1.41-2.17,4.05-.76,5.88l.71,.92c-.77,.05-1.53,.31-2.18,.81l-.45,.35c-1.73,1.34-2.06,3.83-.72,5.57l1.84,2.39-7.44,5.11c-.06,.04-.11,.08-.15,.13-.61,.68-1.46,1.08-2.37,1.13-.91,.05-1.79-.27-2.47-.88-.68-.61-1.08-1.46-1.13-2.37-.05-.92,.27-1.8,.88-2.48l6.83-7.58c.32-.36,.29-.91-.06-1.23-.36-.33-.91-.3-1.23,.06l-6.83,7.58c-.26,.29-.48,.62-.67,.95l-.46,.51c-.61,.68-1.46,1.08-2.37,1.13-.91,.06-1.79-.26-2.48-.88-1.41-1.27-1.52-3.44-.25-4.85l6.83-7.57c.32-.36,.29-.91-.06-1.23-.36-.32-.91-.3-1.23,.06l-.92,1.02c-.12,.05-.24,.12-.33,.22l-6.83,7.58c-1.26,1.4-3.44,1.51-4.85,.25-1.4-1.27-1.52-3.44-.25-4.85l6.83-7.58c.32-.36,.29-.91-.06-1.23-.36-.32-.91-.29-1.23,.06l-6.83,7.58c-.22,.25-.41,.51-.58,.79l-.11,.12c-.61,.68-1.46,1.08-2.37,1.13-.92,.06-1.79-.26-2.48-.88-.68-.61-1.08-1.46-1.13-2.37h0Zm35.36,7.09c-.75-.97-.57-2.37,.4-3.12l.45-.35c.4-.31,.88-.46,1.36-.46,.67,0,1.33,.3,1.76,.87l3.9,5.06c.36,.47,.52,1.05,.44,1.64-.08,.59-.38,1.11-.85,1.48l-.45,.35c-.97,.74-2.37,.57-3.12-.41l-3.9-5.06h0Zm6.8-2.26l-1.45-1.88-2.71-3.52c-.82-1.07-.62-2.61,.44-3.43l.48-.37c.43-.33,.95-.51,1.49-.51,.11,0,.21,0,.32,.02,.65,.08,1.22,.42,1.62,.93l6.48,8.41c.4,.52,.57,1.16,.49,1.81-.08,.65-.42,1.22-.93,1.62l-.49,.38c-1.07,.82-2.6,.62-3.43-.45l-2.32-3.02h0Zm4.23-6.39c-.34-.45-.49-1-.42-1.56,.07-.56,.36-1.06,.81-1.4l.44-.33c.92-.71,2.25-.54,2.96,.38l4.04,5.24c.71,.92,.54,2.25-.38,2.96l-.44,.34c-.45,.34-1,.49-1.56,.42-.56-.07-1.06-.36-1.4-.81l-4.04-5.24h0Zm7.71-.67c-.43-.55-.61-1.24-.52-1.93,.09-.69,.44-1.31,1-1.73l.51-.4c.55-.42,1.24-.61,1.93-.52,.69,.09,1.31,.44,1.73,.99l1.19,1.54c.88,1.14,.66,2.78-.47,3.66l-.51,.39c-.55,.43-1.24,.61-1.93,.52-.69-.09-1.31-.44-1.73-1l-1.19-1.54h0Zm.41-31.46l4.76-3.48,17.35,25.83-4.76,3.48-17.35-25.83h0ZM13.1,67.65c-.26,.39-.17,.93,.22,1.2l6.43,4.51c.15,.1,.32,.16,.5,.16,.05,0,.11,0,.16-.02,.23-.04,.43-.18,.56-.37l2.89-4.31,9.7,6.44-.31,.37c-.91,1.01-1.38,2.33-1.31,3.71,.07,1.38,.68,2.65,1.7,3.58,.96,.87,2.18,1.33,3.46,1.33,.09,0,.18,0,.27,0,.58-.03,1.14-.17,1.67-.39-.02,1.44,.54,2.88,1.68,3.91,.99,.89,2.23,1.33,3.46,1.33,.86,0,1.72-.24,2.49-.67,0,1.42,.55,2.84,1.69,3.86,.96,.87,2.18,1.33,3.46,1.33,.09,0,.18,0,.27,0,.74-.04,1.45-.24,2.09-.57,.08,1.37,.68,2.63,1.7,3.54,.96,.87,2.18,1.33,3.46,1.33,.09,0,.18,0,.27,0,1.34-.07,2.58-.64,3.5-1.62l7.44-5.11,.99,1.29c.65,.84,1.58,1.38,2.63,1.51,.17,.02,.35,.03,.52,.03,.87,0,1.71-.28,2.41-.82l.45-.35c.84-.65,1.38-1.58,1.51-2.63,.02-.18,.02-.36,.02-.54,.33,.08,.66,.13,1,.13,.89,0,1.79-.28,2.55-.87l.49-.38c.89-.68,1.45-1.67,1.6-2.78,.02-.14,0-.28,.01-.42,.18,.05,.35,.1,.53,.12,.17,.02,.34,.03,.5,.03,.85,0,1.66-.28,2.35-.8l.44-.34c1.02-.78,1.52-1.98,1.49-3.17,.14,.03,.27,.08,.42,.1,.19,.03,.38,.04,.57,.04,.96,0,1.88-.31,2.65-.91l.51-.39c1.76-1.36,2.17-3.8,1.07-5.66l6.98-4.73,2.35,3.49c.13,.2,.34,.33,.57,.37,.05,0,.1,.01,.15,.01,.18,0,.36-.06,.52-.17l6.17-4.51c.38-.28,.47-.8,.21-1.19l-18.32-27.28c-.13-.2-.34-.33-.57-.37-.23-.04-.47,.01-.67,.16l-6.17,4.51c-.38,.28-.47,.8-.21,1.19l2.1,3.13c-2.25,1.33-4.17,2.43-4.88,2.77-.88-.49-4.22-2.4-8.99-5.17-2.47-1.43-5.46-1.52-8.01-.25l-3.17,1.58-1.79-.88c-2.88-1.41-6.18-1.42-9.07-.05l-10.83,4.91-4.36-3.05,2.02-3c.27-.39,.17-.93-.22-1.2l-6.43-4.51c-.19-.13-.43-.19-.66-.14-.23,.04-.43,.18-.56,.37l-18.32,27.28h0Z"/><g class="i"><path class="f" d="M15.03,67.91l17.35-25.83,5,3.51-17.35,25.83-5-3.51h0Zm9.82-.53l11.47-17.07,4.73,3.31c.25,.18,.58,.21,.86,.08l11.3-5.13c2.42-1.15,5.17-1.14,7.57,.03l4.66,2.28c1.72,.84,3.14,2.26,3.98,3.98l3.23,6.59c.73,1.5,.12,3.34-1.37,4.1-1.44,.73-3.22,.22-4.04-1.17l-1.7-2.87c-.41-.69-.99-1.24-1.7-1.61l-3.43-1.8c-.55-.29-1.16-.43-1.77-.43-.58,0-1.15,.13-1.68,.39l-14.81,7.26c-.11,.05-.2,.12-.28,.21l-7.22,8.36-9.79-6.5h0Zm8.84,11.88c-.05-.92,.26-1.8,.88-2.48l8.5-9.98,14.65-7.18c.59-.29,1.29-.28,1.88,.02l3.43,1.8c.42,.22,.77,.55,1.01,.96l1.7,2.87c1.29,2.19,4.08,2.99,6.34,1.84,2.33-1.19,3.29-4.07,2.14-6.42l-3.23-6.59c-1.01-2.07-2.71-3.77-4.78-4.78l-.9-.44,1.98-.99c2.02-1.01,4.4-.94,6.36,.19,9.14,5.3,9.39,5.38,9.53,5.43,.38,.13,.68,.21,6.2-3.08l11.93,17.75-6.57,4.45c-.14,.01-.29,.05-.41,.14l-.12,.08-.37-.48c-.71-.92-1.74-1.51-2.89-1.66-1.15-.15-2.3,.16-3.22,.87l-.51,.4c-.76,.58-1.28,1.39-1.52,2.3l-.43-.56c-1.3-1.68-3.73-2-5.41-.7l-.44,.33c-.6,.47-1.04,1.09-1.29,1.79l-.68-.88c-.68-.89-1.67-1.45-2.78-1.6-1.11-.15-2.21,.15-3.1,.84l-.48,.37c-1.83,1.41-2.17,4.05-.76,5.88l.71,.92c-.77,.05-1.53,.31-2.18,.81l-.45,.35c-1.73,1.34-2.06,3.83-.72,5.57l1.84,2.39-7.44,5.11c-.06,.04-.11,.08-.15,.13-.61,.68-1.46,1.08-2.37,1.13-.91,.05-1.79-.27-2.47-.88-.68-.61-1.08-1.46-1.13-2.37-.05-.92,.27-1.8,.88-2.48l6.83-7.58c.32-.36,.29-.91-.06-1.23-.36-.33-.91-.3-1.23,.06l-6.83,7.58c-.26,.29-.48,.62-.67,.95l-.46,.51c-.61,.68-1.46,1.08-2.37,1.13-.91,.06-1.79-.26-2.48-.88-1.41-1.27-1.52-3.44-.25-4.85l6.83-7.57c.32-.36,.29-.91-.06-1.23-.36-.32-.91-.3-1.23,.06l-.92,1.02c-.12,.05-.24,.12-.33,.22l-6.83,7.58c-1.26,1.4-3.44,1.51-4.85,.25-1.4-1.27-1.52-3.44-.25-4.85l6.83-7.58c.32-.36,.29-.91-.06-1.23-.36-.32-.91-.29-1.23,.06l-6.83,7.58c-.22,.25-.41,.51-.58,.79l-.11,.12c-.61,.68-1.46,1.08-2.37,1.13-.92,.06-1.79-.26-2.48-.88-.68-.61-1.08-1.46-1.13-2.37h0Zm35.36,7.09c-.75-.97-.57-2.37,.4-3.12l.45-.35c.4-.31,.88-.46,1.36-.46,.67,0,1.33,.3,1.76,.87l3.9,5.06c.36,.47,.52,1.05,.44,1.64-.08,.59-.38,1.11-.85,1.48l-.45,.35c-.97,.74-2.37,.57-3.12-.41l-3.9-5.06h0Zm6.8-2.26l-1.45-1.88-2.71-3.52c-.82-1.07-.62-2.61,.44-3.43l.48-.37c.43-.33,.95-.51,1.49-.51,.11,0,.21,0,.32,.02,.65,.08,1.22,.42,1.62,.93l6.48,8.41c.4,.52,.57,1.16,.49,1.81-.08,.65-.42,1.22-.93,1.62l-.49,.38c-1.07,.82-2.6,.62-3.43-.45l-2.32-3.02h0Zm4.23-6.39c-.34-.45-.49-1-.42-1.56,.07-.56,.36-1.06,.81-1.4l.44-.33c.92-.71,2.25-.54,2.96,.38l4.04,5.24c.71,.92,.54,2.25-.38,2.96l-.44,.34c-.45,.34-1,.49-1.56,.42-.56-.07-1.06-.36-1.4-.81l-4.04-5.24h0Zm7.71-.67c-.43-.55-.61-1.24-.52-1.93,.09-.69,.44-1.31,1-1.73l.51-.4c.55-.42,1.24-.61,1.93-.52,.69,.09,1.31,.44,1.73,.99l1.19,1.54c.88,1.14,.66,2.78-.47,3.66l-.51,.39c-.55,.43-1.24,.61-1.93,.52-.69-.09-1.31-.44-1.73-1l-1.19-1.54h0Zm.41-31.46l4.76-3.48,17.35,25.83-4.76,3.48-17.35-25.83h0ZM13.1,67.65c-.26,.39-.17,.93,.22,1.2l6.43,4.51c.15,.1,.32,.16,.5,.16,.05,0,.11,0,.16-.02,.23-.04,.43-.18,.56-.37l2.89-4.31,9.7,6.44-.31,.37c-.91,1.01-1.38,2.33-1.31,3.71,.07,1.38,.68,2.65,1.7,3.58,.96,.87,2.18,1.33,3.46,1.33,.09,0,.18,0,.27,0,.58-.03,1.14-.17,1.67-.39-.02,1.44,.54,2.88,1.68,3.91,.99,.89,2.23,1.33,3.46,1.33,.86,0,1.72-.24,2.49-.67,0,1.42,.55,2.84,1.69,3.86,.96,.87,2.18,1.33,3.46,1.33,.09,0,.18,0,.27,0,.74-.04,1.45-.24,2.09-.57,.08,1.37,.68,2.63,1.7,3.54,.96,.87,2.18,1.33,3.46,1.33,.09,0,.18,0,.27,0,1.34-.07,2.58-.64,3.5-1.62l7.44-5.11,.99,1.29c.65,.84,1.58,1.38,2.63,1.51,.17,.02,.35,.03,.52,.03,.87,0,1.71-.28,2.41-.82l.45-.35c.84-.65,1.38-1.58,1.51-2.63,.02-.18,.02-.36,.02-.54,.33,.08,.66,.13,1,.13,.89,0,1.79-.28,2.55-.87l.49-.38c.89-.68,1.45-1.67,1.6-2.78,.02-.14,0-.28,.01-.42,.18,.05,.35,.1,.53,.12,.17,.02,.34,.03,.5,.03,.85,0,1.66-.28,2.35-.8l.44-.34c1.02-.78,1.52-1.98,1.49-3.17,.14,.03,.27,.08,.42,.1,.19,.03,.38,.04,.57,.04,.96,0,1.88-.31,2.65-.91l.51-.39c1.76-1.36,2.17-3.8,1.07-5.66l6.98-4.73,2.35,3.49c.13,.2,.34,.33,.57,.37,.05,0,.1,.01,.15,.01,.18,0,.36-.06,.52-.17l6.17-4.51c.38-.28,.47-.8,.21-1.19l-18.32-27.28c-.13-.2-.34-.33-.57-.37-.23-.04-.47,.01-.67,.16l-6.17,4.51c-.38,.28-.47,.8-.21,1.19l2.1,3.13c-2.25,1.33-4.17,2.43-4.88,2.77-.88-.49-4.22-2.4-8.99-5.17-2.47-1.43-5.46-1.52-8.01-.25l-3.17,1.58-1.79-.88c-2.88-1.41-6.18-1.42-9.07-.05l-10.83,4.91-4.36-3.05,2.02-3c.27-.39,.17-.93-.22-1.2l-6.43-4.51c-.19-.13-.43-.19-.66-.14-.23,.04-.43,.18-.56,.37l-18.32,27.28h0Z"/></g></g></svg>