<?xml version="1.0" encoding="utf-8"?>
<!-- Generator: Adobe Illustrator 26.1.0, SVG Export Plug-In . SVG Version: 6.00 Build 0)  -->
<svg version="1.1" id="Layer_1" xmlns="http://www.w3.org/2000/svg" xmlns:xlink="http://www.w3.org/1999/xlink" x="0px" y="0px"
	 viewBox="0 0 50 50" style="enable-background:new 0 0 50 50;" xml:space="preserve">
<style type="text/css">
	.st0{fill:none;stroke:#3DC0CB;stroke-width:1.833;stroke-linecap:round;stroke-linejoin:round;stroke-miterlimit:10;}
</style>
<polyline class="st0" points="3.2,44.5 9.9,44.5 9.9,29.8 3.2,29.8 "/>
<path class="st0" d="M9.9,31.6h7.8l5.6,2.8c0,0,1.7,0,5.6,0c4.2,0,3.5,4.7,0.5,4.7c-2.2,0-8.1,0-8.1,0"/>
<path class="st0" d="M30.5,38.9c0,0,9.2-3.8,11.5-4.8c2.3-1,5.2,1.8,1.4,4.4c0,0-11.4,6.5-13.9,8c-2.5,1.5-4.9,0.9-7.8-0.7
	S16,42.4,16,42.4H9.9"/>
<path class="st0" d="M14.1,28.3c0-2.5,0.4-13,12.4-13c14.7,0,12.4,15.2,12.4,16.6"/>
<polyline class="st0" points="21.7,16.1 21.7,11.5 24.3,11.5 31.4,11.5 31.4,16.1 "/>
<polyline class="st0" points="29.4,11.5 32.3,3 20.9,3 23.7,11.5 "/>
<path class="st0" d="M30.9,7.6c3.3,1.9,11.8,6.7,11.9,6.8c1.7,0.9,2.6,2.7,2.8,4.5c0,0.1,0,15.9,0,16c0,0.7-0.2,1.4-0.6,2 M8.1,29.8
	c0-4.7,0-10.8,0-10.8C8.3,18,8.5,17.1,9,16.3v0c0.4-1.4,9.4-6.1,13.5-8.4"/>
<path class="st0" d="M29.4,22.3c0-2.4-4.9-2.4-5.1,0.2s5.1,2,5.1,5c0,2.4-5.1,2.2-5.1-0.3"/>
<line class="st0" x1="26.8" y1="20.5" x2="26.8" y2="18.2"/>
<line class="st0" x1="26.8" y1="29.4" x2="26.8" y2="31.1"/>
</svg>
