<svg id="Layer_1" data-name="Layer 1" xmlns="http://www.w3.org/2000/svg" viewBox="0 0 84.61 93.13"><defs><style>.cls-1{fill:#5bc6cc;}</style></defs><path class="cls-1" d="M82.57,30.81l0-.1c0-.19,0-.39-.08-.59a14.47,14.47,0,0,0-1.72-5.06c0-.09-.09-.15-.12-.22l-.19-.3-.14-.24.55-.49-.61.4a14.9,14.9,0,0,0-5-4.7L67.8,15.22V3.51a2,2,0,0,0-2-1.95h-47a2,2,0,0,0-2,1.95V15.17L9.34,19.51a14.76,14.76,0,0,0-4.92,4.63,3.9,3.9,0,0,0-.22.36l-.2.32c0,.1-.09.15-.12.22a14.32,14.32,0,0,0-1.72,5q-.06.33-.09.63l0,.12a4.54,4.54,0,0,0-.13,1V63.16a1.49,1.49,0,0,0,0,.21,8.55,8.55,0,0,0,.15,1.05A13.81,13.81,0,0,0,8.86,74.63L35,89.66c.3.16.6.32.9.46a12.43,12.43,0,0,0,1.53.64,14.77,14.77,0,0,0,4.13.81h1.56a14.42,14.42,0,0,0,4.07-.81,12.53,12.53,0,0,0,1.53-.63C48.89,90.05,50.78,89,73,76.2l2.44-1.4.3-.17a13.83,13.83,0,0,0,6.78-10.18c.06-.36.12-.73.15-1.13a1,1,0,0,0,0-.17V31.85A5.1,5.1,0,0,0,82.57,30.81ZM16.89,74.73l-6.08-3.5A9.85,9.85,0,0,1,6,63.91l0-.15c0-.21-.07-.43-.1-.65V31.82l0-.11a1.76,1.76,0,0,0,.07-.41c0-.21,0-.4.08-.64A10.75,10.75,0,0,1,7.3,26.93l.08-.14.15-.25h0l.12-.19A10.93,10.93,0,0,1,11.3,22.9l5.59-3.22Zm47,2.19-.37.22C59.89,79.22,48,86.07,47,86.61l0,0a11,11,0,0,1-1.08.43,10.38,10.38,0,0,1-3,.59H41.82a10.67,10.67,0,0,1-3.1-.59,10.14,10.14,0,0,1-1.14-.47l-.67-.35L20.81,77V66.53H63.89Zm0-49.25-.37.34L51.64,35.93a2,2,0,0,0-.54,2.72,2,2,0,0,0,2.71.54l10.08-6.74V62.62H20.81V21.54H58.68L40.48,33.69a1.94,1.94,0,0,0-.84,1.25,2,2,0,0,0,.29,1.47,2,2,0,0,0,2.71.54l21.25-14.2Zm0-10.77v.73H20.81V5.47H63.89V16a1.75,1.75,0,0,0,0,.56ZM78.78,63.11l-.09.6,0,.2a9.92,9.92,0,0,1-4.85,7.32l-.3.17-2.26,1.29-3.45,2V19.73l5.52,3.17a10.86,10.86,0,0,1,3.61,3.39l.2.32.11.18.05.11a10.56,10.56,0,0,1,1.31,3.76c0,.22.06.44.08.65a1.68,1.68,0,0,0,.07.39l0,.21Z"/><path class="cls-1" d="M42.31,70.4a6.47,6.47,0,1,0,6.46,6.47A6.47,6.47,0,0,0,42.31,70.4Zm0,9a2.56,2.56,0,1,1,2.56-2.56A2.56,2.56,0,0,1,42.31,79.43Z"/><path class="cls-1" d="M57.22,11.32a2,2,0,0,1-1.95,1.95H29.35a2,2,0,1,1,0-3.9H55.27A2,2,0,0,1,57.22,11.32Z"/></svg>