<?xml version="1.0" encoding="utf-8"?>
<!-- Generator: Adobe Illustrator 21.0.2, SVG Export Plug-In . SVG Version: 6.00 Build 0)  -->
<svg version="1.0" xmlns="http://www.w3.org/2000/svg" xmlns:xlink="http://www.w3.org/1999/xlink" x="0px" y="0px"
	 viewBox="0 0 96 96" enable-background="new 0 0 96 96" xml:space="preserve">
<g id="Guidelines">
</g>
<g id="Your_Icons">
	<g>
		<path fill="#FBB040" d="M31.465,17.638c-0.014-1.949-1.262-3.154-3.258-3.16c-2.032-0.006-3.333,1.207-3.343,3.156
			c-0.005,1.022,0.002,2.043,0,3.065h6.602C31.468,19.678,31.472,18.658,31.465,17.638z"/>
		<path fill="#FBB040" d="M72.043,17.557c-0.019-1.898-1.346-3.088-3.355-3.079c-1.967,0.009-3.226,1.208-3.244,3.11
			c-0.01,1.037-0.004,2.074-0.002,3.111h6.601C72.041,19.651,72.054,18.604,72.043,17.557z"/>
		<g>
			<path fill="#FBB040" fill-opacity="0.3" d="M76.54,81.291H20.46c-2.914,0-5.299-2.384-5.299-5.299V26.37
				c0-2.914,2.384-5.299,5.299-5.299H76.54c2.914,0,5.299,2.384,5.299,5.299v49.622C81.838,78.906,79.454,81.291,76.54,81.291z"/>
			<path fill="#FBB040" d="M76.539,82.452H20.461c-3.562,0-6.461-2.899-6.461-6.461V26.37c0-3.562,2.898-6.46,6.461-6.46h56.079
				c3.562,0,6.461,2.898,6.461,6.46v49.622C83,79.554,80.102,82.452,76.539,82.452z M20.461,22.233
				c-2.281,0-4.137,1.856-4.137,4.136v49.622c0,2.281,1.856,4.137,4.137,4.137h56.079c2.281,0,4.137-1.856,4.137-4.137V26.37
				c0-2.281-1.856-4.136-4.137-4.136H20.461z"/>
		</g>
		<g>
			<path fill="#FFFFFF" d="M76.997,38.689v32.928c0,2.914-2.384,5.299-5.299,5.299H25.302c-2.914,0-5.299-2.384-5.299-5.299V38.689
				H76.997z"/>
			<path fill="#FBB040" d="M71.698,77.613H25.302c-3.306,0-5.995-2.69-5.995-5.996V37.992h58.388v33.625
				C77.694,74.923,75.004,77.613,71.698,77.613z M20.7,39.386v32.231c0,2.537,2.064,4.602,4.602,4.602h46.397
				c2.537,0,4.602-2.065,4.602-4.602V39.386H20.7z"/>
		</g>
		<text transform="matrix(1 0 0 1 20.041 35.0215)" fill="#FBB004" font-family="'MyriadPro-Bold'" font-size="13.3345px">OCTOBER</text>
	</g>
	
		<text transform="matrix(1 0.0094 -0.0094 1 30.8571 70.4642)" fill="#FBB004" font-family="'MyriadPro-Bold'" font-size="39.0994px">1</text>
	
		<text transform="matrix(1 0.0094 -0.0094 1 47.9166 60.0834)" fill="#FBB040" font-family="'MyriadPro-Bold'" font-size="14.0918px">ST</text>
</g>
</svg>
