<svg id="Layer_1" data-name="Layer 1" xmlns="http://www.w3.org/2000/svg" viewBox="0 0 124 124"><defs><style>.cls-1,.cls-3{fill:#fff;}.cls-1,.cls-5{stroke:#fbb040;stroke-linecap:round;stroke-linejoin:round;}.cls-1{stroke-width:2.2567px;}.cls-2,.cls-4{fill:#fbb004;}.cls-2{opacity:0.4;}.cls-5{fill:none;stroke-width:1.354px;}</style></defs><title>medicare-icons</title><rect class="cls-1" x="25.9682" y="50.9694" width="67.6998" height="35.2039" rx="2.0184"/><rect class="cls-1" x="25.9682" y="43.1464" width="67.6998" height="35.2039" rx="1.98"/><path class="cls-2" d="M84.7687,47.2771H35.206a8.5863,8.5863,0,0,1-5.0242,4.9575V69.262A8.586,8.586,0,0,1,35.206,74.22H84.7687a8.5955,8.5955,0,0,1,4.6857-4.8336V52.1107A8.5961,8.5961,0,0,1,84.7687,47.2771Z"/><circle class="cls-3" cx="59.4796" cy="61.0868" r="8.6881"/><circle class="cls-3" cx="42.7803" cy="61.0868" r="1.6784"/><path class="cls-4" d="M59.5384,62.037a3.643,3.643,0,0,1-2.2767-.763A2.4981,2.4981,0,0,1,57.261,57.24a4.1373,4.1373,0,0,1,4.7967.0848A.6949.6949,0,1,1,61.189,58.41a2.8072,2.8072,0,0,0-3.0593-.0848,1.1149,1.1149,0,0,0,0,1.8632,2.2518,2.2518,0,0,0,1.4087.4587.695.695,0,1,1,0,1.39Z"/><path class="cls-4" d="M59.5183,66.1687a4.05,4.05,0,0,1-2.4991-.809.6952.6952,0,1,1,.8687-1.0855,2.805,2.805,0,0,0,3.0586.0848,1.1148,1.1148,0,0,0,0-1.864,2.253,2.253,0,0,0-1.4081-.458.695.695,0,0,1,0-1.39,3.6442,3.6442,0,0,1,2.2761.7624,2.4972,2.4972,0,0,1,0,4.0343A3.698,3.698,0,0,1,59.5183,66.1687Z"/><path class="cls-4" d="M59.5384,57.8672a.6952.6952,0,0,1-.6949-.695V55.6558a.695.695,0,1,1,1.39,0v1.5164A.6952.6952,0,0,1,59.5384,57.8672Z"/><path class="cls-4" d="M59.5384,67.7233a.6947.6947,0,0,1-.6949-.6949V65.5119a.695.695,0,1,1,1.39,0v1.5165A.6952.6952,0,0,1,59.5384,67.7233Z"/><circle class="cls-3" cx="76.2917" cy="61.0868" r="1.6784"/><line class="cls-5" x1="27.064" y1="82.3246" x2="93.3797" y2="82.3246"/><path class="cls-4" d="M59.6406,7a54.81,54.81,0,1,0,54.81,54.8105A54.8105,54.8105,0,0,0,59.6406,7ZM13.2171,61.8105A46.3873,46.3873,0,0,1,91.6416,28.2273L26.0574,93.8115A46.2467,46.2467,0,0,1,13.2171,61.8105Zm46.4235,46.4233A46.2089,46.2089,0,0,1,29.45,97.0326c1.3281.0477-.2057,3.1947,1.1307,1.4679L95.662,32.5677a46.3925,46.3925,0,0,1-36.0214,75.6661Z"/></svg>