<?xml version="1.0" encoding="UTF-8"?><svg id="a" xmlns="http://www.w3.org/2000/svg" viewBox="0 0 124 124"><defs><style>.c{fill:#3dc1cc;}</style></defs><g id="b"><path class="c" d="M101.44,80.19c-.03,.21-.06,.4-.1,.61l-.03,.2c-.38,3.11-2.23,5.88-4.93,7.44l-2.2,1.27c-16.03,9.21-24.22,13.91-25.02,14.36-.38,.18-.74,.32-1.14,.47-.95,.33-1.96,.54-3,.6h-1.13c-1.16-.06-2.19-.26-3.15-.61-.39-.14-.76-.29-1.15-.48-.25-.11-.48-.23-.68-.34l-26.52-15.26c-2.71-1.56-4.55-4.33-4.92-7.44l-.02-.15c-.05-.22-.08-.44-.11-.67v-31.77l.03-.11c.04-.13,.07-.27,.08-.41,.02-.23,.04-.41,.07-.6,.01-.04,.01-.1,.02-.15,.21-1.32,.64-2.55,1.28-3.69l.09-.15c.05-.1,.1-.18,.15-.26h0l.13-.19c.93-1.43,2.22-2.65,3.7-3.5l26.52-15.24c1.48-.84,3.16-1.3,4.85-1.32h.18c1.77,.02,3.44,.47,4.89,1.3l.37,.22c.4,.23,25.96,14.92,26.17,15.03,1.49,.86,2.76,2.06,3.67,3.44l.21,.33c.05,.08,.08,.13,.11,.19l.06,.1c.7,1.23,1.13,2.48,1.31,3.79,.04,.27,.07,.49,.09,.71,0,.13,.04,.26,.08,.39l.03,.21v31.7h0Zm1.48-39.5c-1.27-1.96-3.02-3.61-5.05-4.79-11.95-6.87-25.98-14.93-26.17-15.02l-.36-.22c-2.04-1.17-4.37-1.8-6.76-1.83-.08,0-.15,0-.21,0h-.14c-2.4,.04-4.75,.68-6.81,1.85l-26.52,15.24c-2.02,1.17-3.76,2.8-5,4.71-.09,.13-.16,.23-.23,.35-.08,.13-.14,.23-.2,.33-.06,.09-.1,.16-.14,.23-.9,1.63-1.49,3.35-1.76,5.15v.13c-.04,.19-.05,.32-.07,.47l-.02,.11c-.09,.35-.14,.71-.14,1.06v31.8c0,.08,0,.15,0,.22,.04,.33,.09,.69,.17,1.06,.55,4.35,3.12,8.21,6.87,10.37l26.54,15.27c.29,.17,.61,.32,.91,.47,.52,.26,1.02,.46,1.56,.65,1.31,.47,2.72,.74,4.19,.82,.08,.01,.18,.01,.27,.01h.63c.06,0,.12,0,.19,0h.18c.1,0,.2,0,.33-.01,1.43-.08,2.82-.35,4.12-.81,.56-.2,1.08-.41,1.56-.65,.18-.09,2.19-1.23,25.26-14.49l2.2-1.27c3.77-2.16,6.34-6.02,6.88-10.34,.06-.36,.12-.73,.16-1.13,0-.06,0-.13,0-.19v-31.79c0-.36-.05-.72-.13-1.06l-.02-.11c-.02-.18-.04-.34-.07-.52-.26-1.86-.85-3.59-1.76-5.22-.05-.08-.09-.16-.13-.23-.07-.12-.13-.21-.19-.3l-.14-.23"/><path class="c" d="M92.87,64.75h-1.35c-.6,0-1.19,0-1.77,0-1.26,.01-1.84,.48-2.11,1.68-1.08,4.93-3.8,8.77-8.09,11.4-.68,.41-.98,.98-.98,1.8v5.28h-6v-2.44c0-.77-.19-1.34-.54-1.7-.34-.35-.9-.53-1.66-.53h-15.18c-1.46,0-2.15,.69-2.16,2.14,0,.46,0,.91,0,1.39v1.13h-6.57l-.04-.64c0-.15-.02-.29-.02-.44v-1.19c0-1.04-.02-2.07,.01-3.11,.03-.98-.31-1.65-1.17-2.23-3.83-2.6-6.29-6.23-7.28-10.81-.94-4.37-.03-9.1,2.52-12.96,2.54-3.83,6.5-6.52,10.88-7.36,1.19-.23,2.46-.35,3.78-.36,2.13-.03,4.25-.02,6.37-.02s4.1,0,6.15-.02c.52,0,1.12-.16,1.6-.41,1.64-.85,3.26-1.76,4.87-2.65l3.33-1.81,.08,.95c0,.15,.02,.28,.02,.41v.9c.02,.82,.03,1.64,.01,2.46-.03,1.06,.36,1.73,1.33,2.24,3.04,1.61,5.41,3.98,7.05,7.07,.34,.65,.63,1.32,.89,1.98l.09,.21c.4,.99,.93,1.35,1.96,1.37,.8,.01,1.61,.01,2.42,0h1.56v6.25h0Zm1.82-9.84c-1.3-.02-2.6-.02-3.89,0-.4,.02-.9-.07-1.21-.74-1.71-3.64-4.32-6.6-7.79-8.82-.34-.22-.62-.72-.63-1.13v-.53c-.05-1.73-.08-3.5,0-5.27,.05-1.3-.36-2.03-1.38-2.46h-.77c-.88,.48-1.78,.96-2.67,1.44-2.23,1.2-4.53,2.43-6.76,3.71-1.38,.78-2.75,1.14-4.3,1.1-2.74-.07-5.54-.05-8.25-.04h-2.08c-9.62,.05-17.76,6.29-20.26,15.52-.2,.72-.31,1.48-.42,2.22l-.18,1.09-.12,.59v3.01c.08,.32,.15,.74,.22,1.16,.15,.86,.29,1.76,.51,2.6,1.18,4.5,3.68,8.26,7.44,11.16,.45,.35,.64,.75,.64,1.32-.02,1.68-.01,3.35-.01,5.03v.6c0,1.36,.69,2.06,2.03,2.06,3.27,.01,6.53,.01,9.8,0,1.27,0,1.98-.71,2-1.97v-2.69h12.33v2.66c0,1.28,.71,2,1.96,2,3.1,.01,6.2,.01,9.3,0,1.24,0,1.94-.72,1.95-1.95,.02-1.78,.02-3.55,0-5.33,0-.57,.19-.96,.64-1.27,3.8-2.72,6.42-6.34,7.83-10.77,.12-.39,.4-.9,1.22-.88,.91,.04,1.81,.03,2.82,0,1.12-.02,1.84-.76,1.84-1.86,.02-3.25,.02-6.49,0-9.73,0-1.08-.73-1.82-1.8-1.84h0Z"/><path class="c" d="M68.59,51.68c0,1.03-.79,1.78-1.88,1.78-1.38,.01-2.77,.01-4.16,.01h-3.57c-1.42,0-2.85,0-4.28-.01-.79,0-1.41-.5-1.65-1.27-.24-.76,0-1.53,.61-1.91,.37-.24,.82-.39,1.18-.39,4.19-.04,8.36-.03,11.89-.02,.52,0,.99,.2,1.33,.54,.34,.33,.53,.78,.53,1.27h0Z"/></g></svg>