<svg xmlns="http://www.w3.org/2000/svg" viewBox="0 0 124 124"><defs><style>.cls-1,.cls-6{fill:#fff;}.cls-2,.cls-3{fill:none;}.cls-2,.cls-3,.cls-6{stroke:#fbb040;}.cls-2{stroke-miterlimit:10;}.cls-2,.cls-6{stroke-width:3.0077px;}.cls-3,.cls-6{stroke-linecap:round;stroke-linejoin:round;}.cls-3{stroke-width:1.8046px;}.cls-4{fill:#fbb040;}.cls-5{fill:#fee7c5;}</style></defs><title>ad&amp;amp;d-icons</title><g id="Your_Icons" data-name="Your Icons"><rect class="cls-1" x="35.7754" y="36.2864" width="61.7086" height="56.0436"/><rect class="cls-1" x="35.1965" y="23.4112" width="62.2547" height="84.3163" rx="7.2836"/><rect class="cls-2" x="35.1965" y="23.4112" width="62.2547" height="84.3163" rx="7.2836"/><line class="cls-3" x1="35.9753" y1="32.9707" x2="96.6724" y2="32.9707"/><line class="cls-3" x1="35.9753" y1="94.3398" x2="96.6724" y2="94.3398"/><circle class="cls-4" cx="66.5633" cy="100.6975" r="3.2595"/><rect class="cls-1" x="80.2247" y="59.1881" width="27.4171" height="49.7425" rx="4.297"/><rect class="cls-5" x="80.5663" y="59.1881" width="27.4171" height="49.7425" rx="4.297"/><rect class="cls-1" x="80.5663" y="66.7838" width="27.0949" height="33.063"/><rect class="cls-2" x="80.2247" y="59.1881" width="27.4171" height="49.7425" rx="4.297"/><line class="cls-3" x1="80.6842" y1="66.6181" x2="107.1824" y2="66.6181"/><line class="cls-3" x1="90.7105" y1="63.0373" x2="97.156" y2="63.0373"/><line class="cls-3" x1="80.6842" y1="99.9198" x2="107.1824" y2="99.9198"/><circle class="cls-4" cx="93.9333" cy="104.2916" r="2.4754"/><ellipse class="cls-5" cx="40.4998" cy="44.4435" rx="28.3541" ry="28.7361"/><path class="cls-4" d="M40.5,18.7151a25.7313,25.7313,0,0,1,0,51.4568,25.7313,25.7313,0,0,1,0-51.4568m0-3.0077A28.7387,28.7387,0,1,0,68.8539,44.4435,28.547,28.547,0,0,0,40.5,15.7074Z"/><circle class="cls-1" cx="40.5" cy="44.4436" r="21.5435"/><path class="cls-4" d="M40.5,23.8024A20.6411,20.6411,0,1,1,19.8587,44.4435,20.6645,20.6645,0,0,1,40.5,23.8024m0-1.8047A22.4458,22.4458,0,1,0,62.9456,44.4435,22.4458,22.4458,0,0,0,40.5,21.9977Z"/><polyline class="cls-6" points="29.497 46.267 37.742 53.395 49.901 34.947"/></g></svg>