<?xml version="1.0" encoding="utf-8"?>
<!-- Generator: Adobe Illustrator 21.0.2, SVG Export Plug-In . SVG Version: 6.00 Build 0)  -->
<svg version="1.0" xmlns="http://www.w3.org/2000/svg" xmlns:xlink="http://www.w3.org/1999/xlink" x="0px" y="0px"
	 viewBox="0 0 96 96" enable-background="new 0 0 96 96" xml:space="preserve">
<g id="Guidelines">
</g>
<g id="Your_Icons">
	<g>
		
			<path fill="#FFFFFF" stroke="#FBB040" stroke-width="2.5" stroke-linecap="round" stroke-linejoin="round" stroke-miterlimit="10" d="
			M85.014,70.651H14.486c-1.235,0-2.236-1.001-2.236-2.236V33.887c0-1.235,1.001-2.236,2.236-2.236h70.528
			c1.235,0,2.236,1.001,2.236,2.236v34.528C87.25,69.65,86.249,70.651,85.014,70.651z"/>
		
			<path fill="#FFFFFF" stroke="#FBB040" stroke-width="2.5" stroke-linecap="round" stroke-linejoin="round" stroke-miterlimit="10" d="
			M85.057,61.984H14.443c-1.211,0-2.193-0.982-2.193-2.193V25.178c0-1.211,0.982-2.193,2.193-2.193h70.613
			c1.211,0,2.193,0.982,2.193,2.193v34.613C87.25,61.002,86.268,61.984,85.057,61.984z"/>
		<path opacity="0.4" fill="#FBB004" d="M77.391,27.561H22.484c-0.978,2.539-3.011,4.546-5.566,5.492v18.863
			c2.555,0.946,4.588,2.953,5.566,5.492h54.907c0.93-2.415,2.81-4.357,5.191-5.355V32.915
			C80.201,31.918,78.321,29.976,77.391,27.561z"/>
		<circle fill="#FFFFFF" cx="49.375" cy="42.859" r="9.625"/>
		<circle fill="#FFFFFF" cx="30.875" cy="42.859" r="1.859"/>
		<g>
			<g>
				<path fill="#FBB004" d="M49.44,43.912c-0.945,0-1.842-0.3-2.522-0.845c-0.731-0.585-1.135-1.379-1.135-2.234
					c0-0.855,0.403-1.65,1.134-2.235c1.384-1.107,3.867-1.064,5.314,0.094c0.332,0.266,0.386,0.75,0.12,1.082
					c-0.265,0.333-0.75,0.386-1.083,0.12c-0.868-0.694-2.579-0.741-3.389-0.094c-0.359,0.287-0.557,0.654-0.557,1.032
					s0.198,0.745,0.557,1.032c0.41,0.328,0.964,0.508,1.561,0.508c0.425,0,0.77,0.345,0.77,0.77
					C50.21,43.567,49.865,43.912,49.44,43.912z"/>
				<path fill="#FBB004" d="M49.418,48.489c-1.003,0-2.023-0.3-2.769-0.896c-0.332-0.266-0.386-0.751-0.12-1.083
					s0.75-0.385,1.083-0.12c0.868,0.695,2.578,0.741,3.388,0.094c0.36-0.287,0.557-0.654,0.557-1.032
					c0-0.378-0.198-0.745-0.557-1.032c-0.409-0.327-0.963-0.507-1.56-0.507c-0.425,0-0.77-0.345-0.77-0.77
					c0-0.425,0.345-0.77,0.77-0.77c0.945,0,1.841,0.3,2.521,0.845c0.732,0.585,1.136,1.38,1.136,2.235
					c0,0.855-0.403,1.65-1.136,2.234C51.291,48.224,50.362,48.489,49.418,48.489z"/>
			</g>
			<path fill="#FBB004" d="M49.44,39.293c-0.425,0-0.77-0.345-0.77-0.77v-1.68c0-0.425,0.345-0.77,0.77-0.77
				c0.425,0,0.77,0.345,0.77,0.77v1.68C50.21,38.948,49.865,39.293,49.44,39.293z"/>
			<path fill="#FBB004" d="M49.44,50.212c-0.425,0-0.77-0.344-0.77-0.77v-1.68c0-0.426,0.345-0.77,0.77-0.77
				c0.425,0,0.77,0.344,0.77,0.77v1.68C50.21,49.867,49.865,50.212,49.44,50.212z"/>
		</g>
		<circle fill="#FFFFFF" cx="68" cy="42.859" r="1.859"/>
		
			<line fill="none" stroke="#FBB040" stroke-width="1.5" stroke-linecap="round" stroke-linejoin="round" stroke-miterlimit="10" x1="13.464" y1="66.387" x2="86.931" y2="66.387"/>
	</g>
</g>
</svg>
