<?xml version="1.0" encoding="utf-8"?>
<!-- Generator: Adobe Illustrator 21.0.2, SVG Export Plug-In . SVG Version: 6.00 Build 0)  -->
<svg version="1.0" xmlns="http://www.w3.org/2000/svg" xmlns:xlink="http://www.w3.org/1999/xlink" x="0px" y="0px"
	 viewBox="0 0 96 96" enable-background="new 0 0 96 96" xml:space="preserve">
<g id="Guidelines">
</g>
<g id="Your_Icons">
	<rect x="22.5" y="38.5" fill="#FEE7B3" width="24" height="21"/>
	<g>
		<path fill="none" stroke="#FBB004" stroke-width="2.5" stroke-linejoin="round" stroke-miterlimit="10" d="M74,75.208
			c0,4.012-3.281,7.292-7.292,7.292H28.792c-4.01,0-7.292-3.28-7.292-7.292v-52.5c0-4.012,3.281-7.292,7.292-7.292h37.917
			c4.01,0,7.292,3.28,7.292,7.292V75.208z"/>
		<path fill="none" stroke="#FBB004" stroke-width="1.5" stroke-linejoin="round" stroke-miterlimit="10" d="M68.167,30.309
			c0,1.434-1.173,2.608-2.609,2.608H29.942c-1.436,0-2.609-1.173-2.609-2.608v-6.45c0-1.436,1.173-2.609,2.609-2.609h35.615
			c1.436,0,2.609,1.173,2.609,2.609V30.309z"/>
		
			<line fill="none" stroke="#FBB004" stroke-width="2.5" stroke-linejoin="round" stroke-miterlimit="10" x1="21.5" y1="59.167" x2="74" y2="59.167"/>
		
			<line fill="none" stroke="#FBB004" stroke-width="2.5" stroke-linejoin="round" stroke-miterlimit="10" x1="21.5" y1="38.75" x2="74" y2="38.75"/>
		
			<line fill="none" stroke="#FBB004" stroke-width="2.5" stroke-linejoin="round" stroke-miterlimit="10" x1="47.75" y1="38.75" x2="47.75" y2="82.5"/>
		
			<line fill="none" stroke="#FBB004" stroke-width="2.5" stroke-linecap="round" stroke-linejoin="round" stroke-miterlimit="10" x1="28.792" y1="50.417" x2="37.542" y2="50.417"/>
		
			<line fill="none" stroke="#FBB004" stroke-width="1.5" stroke-linecap="round" stroke-linejoin="round" stroke-miterlimit="10" x1="56.5" y1="50.417" x2="65.25" y2="50.417"/>
		
			<line fill="none" stroke="#FBB004" stroke-width="1.5" stroke-linecap="round" stroke-linejoin="round" stroke-miterlimit="10" x1="56.5" y1="73.75" x2="65.25" y2="73.75"/>
		
			<line fill="none" stroke="#FBB004" stroke-width="1.5" stroke-linecap="round" stroke-linejoin="round" stroke-miterlimit="10" x1="56.5" y1="67.917" x2="65.25" y2="67.917"/>
		
			<line fill="none" stroke="#FBB004" stroke-width="2.5" stroke-linecap="round" stroke-linejoin="round" stroke-miterlimit="10" x1="33.167" y1="46.042" x2="33.167" y2="54.792"/>
		
			<line fill="none" stroke="#FBB004" stroke-width="1.5" stroke-linecap="round" stroke-linejoin="round" stroke-miterlimit="10" x1="28.792" y1="66.458" x2="37.542" y2="75.208"/>
		
			<line fill="none" stroke="#FBB004" stroke-width="1.5" stroke-linecap="round" stroke-linejoin="round" stroke-miterlimit="10" x1="37.542" y1="66.458" x2="28.792" y2="75.208"/>
	</g>
</g>
</svg>
