<?xml version="1.0" encoding="UTF-8"?><svg id="a" xmlns="http://www.w3.org/2000/svg" viewBox="0 0 124 124"><defs><style>.b{fill:none;}.c{fill:#59c5c7;}.d{fill:#5cc6cc;}</style></defs><path class="b" d="M49.34,52.02v19.29h43.29v-19.29c0-1.87-1.26-3.39-2.8-3.39H52.15c-1.55,0-2.81,1.52-2.81,3.39Z"/><path class="b" d="M49.34,76.75c0,1.87,1.26,3.39,2.81,3.39h37.68c1.55,0,2.8-1.52,2.8-3.39v-1.63H49.34v1.63Zm21.65-.59c.81,0,1.47,.66,1.47,1.47s-.66,1.47-1.47,1.47-1.47-.66-1.47-1.47,.66-1.47,1.47-1.47Z"/><path class="b" d="M42.25,64.98c-.81,0-1.47-.66-1.47-1.47s.66-1.47,1.47-1.47,1.47,.66,1.47,1.47-.66,1.47-1.47,1.47Zm47.58-20.16c3.65,0,6.62,3.23,6.62,7.2v24.73c0,3.97-2.97,7.2-6.62,7.2h-16.94v2.08h9.87c1.05,0,1.91,.85,1.91,1.91s-.85,1.91-1.91,1.91h-23.55c-1.05,0-1.91-.85-1.91-1.91s.85-1.91,1.91-1.91h9.87v-2.08h-16.93c-3.65,0-6.62-3.23-6.62-7.2v-24.73c0-3.97,2.97-7.2,6.62-7.2h37.68Z"/><path class="d" d="M45.53,52.02v24.73c0,3.97,2.97,7.2,6.62,7.2h16.93v2.08h-9.87c-1.05,0-1.91,.85-1.91,1.91s.85,1.91,1.91,1.91h23.55c1.05,0,1.91-.85,1.91-1.91s-.85-1.91-1.91-1.91h-9.87v-2.08h16.94c3.65,0,6.62-3.23,6.62-7.2v-24.73c0-3.97-2.97-7.2-6.62-7.2H52.15c-3.65,0-6.62,3.23-6.62,7.2Zm47.1,24.73c0,1.87-1.26,3.39-2.8,3.39H52.15c-1.55,0-2.81-1.52-2.81-3.39v-1.63h43.29v1.63Zm0-24.73v19.29H49.34v-19.29c0-1.87,1.26-3.39,2.81-3.39h37.68c1.55,0,2.8,1.52,2.8,3.39Z"/><path class="d" d="M70.99,79.11c.81,0,1.47-.66,1.47-1.47s-.66-1.47-1.47-1.47-1.47,.66-1.47,1.47,.66,1.47,1.47,1.47Z"/><path class="d" d="M42.25,62.03c-.81,0-1.47,.66-1.47,1.47s.66,1.47,1.47,1.47,1.47-.66,1.47-1.47-.66-1.47-1.47-1.47Z"/><path class="c" d="M103.02,46.24l-.02-.11c-.02-.17-.04-.34-.07-.51-.26-1.85-.85-3.56-1.74-5.17-.05-.08-.09-.16-.13-.22-.07-.12-.13-.2-.18-.3l-.14-.22-.07-.1c-1.26-1.94-2.99-3.58-5-4.74-11.84-6.8-25.74-14.79-25.92-14.89l-.36-.21c-2.02-1.16-4.33-1.79-6.69-1.82-.08,0-.15,0-.2,0h-.14c-2.38,.04-4.7,.67-6.74,1.84l-13.87,7.97h-9.68c-1.93,0-3.49,1.57-3.49,3.49v4.14c-1.67,1.1-3.11,2.51-4.18,4.16-.09,.13-.16,.23-.22,.35-.08,.13-.14,.22-.19,.33-.06,.09-.1,.16-.14,.22-.89,1.61-1.48,3.32-1.74,5.1v.13c-.04,.18-.05,.32-.07,.47l-.02,.11c-.09,.35-.14,.7-.14,1.05v31.5c0,.08,0,.15,0,.21,.04,.33,.09,.68,.17,1.05,.54,4.31,3.09,8.13,6.81,10.27l26.29,15.13c.29,.17,.6,.32,.9,.47,.51,.25,1.01,.46,1.54,.64,1.3,.47,2.69,.74,4.15,.82,.08,.01,.17,.01,.27,.01h.62c.06,0,.12,0,.18,0h.18c.1,0,.19,0,.33-.01,1.42-.08,2.8-.35,4.08-.81,.55-.19,1.07-.41,1.54-.64,.18-.09,2.17-1.21,25.03-14.35l2.18-1.25c3.73-2.14,6.28-5.97,6.82-10.24,.06-.36,.12-.72,.16-1.12,0-.06,0-.13,0-.18v-31.49c0-.36-.05-.71-.13-1.05Zm-3.81,32.5c-.03,.2-.06,.4-.1,.6l-.03,.19c-.38,3.08-2.21,5.83-4.89,7.38l-2.18,1.25c-15.89,9.12-24,13.78-24.79,14.22-.38,.18-.73,.32-1.13,.47-.94,.33-1.94,.53-2.97,.59h-1.12c-1.15-.06-2.17-.26-3.12-.6-.39-.14-.76-.29-1.14-.48-.24-.11-.48-.23-.67-.34l-26.27-15.12c-2.68-1.55-4.51-4.29-4.88-7.38l-.02-.15c-.05-.21-.08-.44-.11-.66v-31.48l.03-.11c.04-.13,.07-.27,.08-.41,.02-.22,.04-.41,.07-.59,.01-.04,.01-.1,.02-.15,.2-1.31,.63-2.53,1.27-3.65l.09-.15c.05-.1,.1-.18,.15-.26h0l.13-.18c.28-.42,.59-.82,.93-1.21v25.79c0,1.93,1.57,3.49,3.49,3.49h10.19c1.05,0,1.91-.85,1.91-1.91s-.85-1.91-1.91-1.91h-9.87v-5.02h9.87c1.05,0,1.91-.85,1.91-1.91s-.85-1.91-1.91-1.91h-9.87v-24.06l2.73-1.57h17.01v9.68c0,1.05,.85,1.91,1.91,1.91s1.91-.85,1.91-1.91v-10c0-1.93-1.57-3.49-3.49-3.49h-2.8l7.94-4.56c1.47-.84,3.13-1.29,4.81-1.31h.17c1.75,.02,3.41,.47,4.85,1.29l.37,.21c.4,.22,25.72,14.78,25.93,14.89,1.48,.85,2.73,2.04,3.63,3.41l.2,.33c.05,.08,.08,.13,.11,.18l.06,.1c.69,1.21,1.12,2.46,1.3,3.75,.04,.27,.07,.49,.09,.7,0,.13,.04,.26,.08,.39l.03,.2v31.4Z"/></svg>