<svg xmlns="http://www.w3.org/2000/svg" viewBox="0 0 124 124"><defs><style>.cls-1{fill:none;stroke:#fbb004;stroke-miterlimit:10;stroke-width:2.3862px;}.cls-2,.cls-3{fill:#fbb004;}.cls-3{fill-opacity:0.3;}.cls-4{fill:#fff;}</style></defs><title>ad&amp;amp;d-icons</title><g id="Your_Icons" data-name="Your Icons"><path class="cls-1" d="M91.28,44.2493c2.2254,1.7939,2.0761,8.3905,3.5106,11.5733A232.7913,232.7913,0,0,1,76.0359,74.7089l6.4394-27.1914A5.452,5.452,0,0,1,91.28,44.2493ZM44.685,59.9322a24.8947,24.8947,0,0,0-1.2383,3.5031L38.568,59.64Zm58.9941,47.4532a8.97,8.97,0,0,1-12.2424.1846c-3.9517-3.5787-5.8734-5.6746-5.9-5.705a.6793.6793,0,0,0-.5018-.2211.3762.3762,0,0,0-.04.0014c-19.4142,1.15-29.993-6.9965-35.4459-14.0354a27.4,27.4,0,0,1-5.1207-22.6947c.8526-3.6921,3.724-12.2547,11.99-12.2547h.0887c12.9591.0966,20.3276,18.7389,20.4017,18.9269a.6041.6041,0,0,0,.0583.1165l.0165.0232.0035.005.0174.0245c-3.4769,3.0926-5.7622,4.9569-5.8305,5.0123a.6777.6777,0,0,0,.8525,1.0538,237.3621,237.3621,0,0,0,29.1057-28.7839,6.1906,6.1906,0,0,1,10.0969.7019c4.3808,7.3372,8.6242,18.6313,1.5347,28.2567C102.879,91.42,90.53,90.4363,90.4123,90.4244a.7013.7013,0,0,0-.7373.6116.6771.6771,0,0,0,.6089.7387c.0781.0066.41.0358.9558.0358a24.613,24.613,0,0,0,10.1692-2.445,83.5721,83.5721,0,0,0,9.1946,2.6812,4.0329,4.0329,0,0,1,1.8881,6.838Z"/><path class="cls-2" d="M54.6719,59.02a2.0469,2.0469,0,1,0,1.378,2.546A2.047,2.047,0,0,0,54.6719,59.02Z"/><path class="cls-3" d="M37.903,51.119c6.5478,0,11.4365-1.6161,14.57-4.8228a13.0853,13.0853,0,0,0,3.5259-10.2284,1.2977,1.2977,0,0,0-1.0031-1.0943c-6.6161-1.4615-12.1-.7118-16.2974,2.2367A18.0533,18.0533,0,0,0,32.1,46.6526a105.8024,105.8024,0,0,1,2.2126-19.154c1.2956.13,2.5561.2179,3.74.2179,5.3319,0,9.5342-1.3019,12.5308-3.8882a12.5488,12.5488,0,0,0,4.339-8.3994,1.3,1.3,0,0,0-1.0157-1.3146c-9.1328-2.01-14.58,1.6379-17.6643,5.381,1.1734-4.2526,2.1512-6.93,2.1851-7.02a1.2971,1.2971,0,0,0-2.4267-.917A106.9817,106.9817,0,0,0,32.66,22.8025,12.0512,12.0512,0,0,0,30.271,16.69c-2.1987-2.8167-5.679-4.4252-10.3474-4.7849a1.3109,1.3109,0,0,0-1.2791.7524,9.2618,9.2618,0,0,0,.2786,7.64c1.8035,3.4752,5.907,5.8309,12.1965,7.0036a1.2641,1.2641,0,0,0,.2381.0229,1.2871,1.2871,0,0,0,.3031-.095,111.0422,111.0422,0,0,0-1.9767,13.9972,18.28,18.28,0,0,0-3.5723-6.9973c-2.8775-3.3967-6.981-5.3217-12.1965-5.722a1.2069,1.2069,0,0,0-1.34.9145,16.2685,16.2685,0,0,0,1.6238,12.27c2.6848,4.4252,7.6723,7.3458,14.818,8.6781a1.2637,1.2637,0,0,0,.238.0228c.0713,0,.1293-.0551.1992-.0668A61.0948,61.0948,0,0,0,32.86,69.463a1.2989,1.2989,0,0,0,1.2184.8511,1.3126,1.3126,0,0,0,.4457-.0785,1.2986,1.2986,0,0,0,.7727-1.6642,57.7984,57.7984,0,0,1-3.1831-18.036c.1624.1.2964.2508.49.272A48.1307,48.1307,0,0,0,37.903,51.119Zm2.3076-11.8014c3.374-2.3632,7.8345-3.04,13.2578-2.0086a10.4115,10.4115,0,0,1-2.8522,7.176c-3.1486,3.2246-8.6376,4.5265-16.3051,3.8831A16.0452,16.0452,0,0,1,40.2106,39.3176ZM52.1638,16.4167a10.1046,10.1046,0,0,1-3.3131,5.4815c-2.913,2.4848-7.3153,3.5563-13.0779,3.1434C37.1659,21.8044,41.52,14.6209,52.1638,16.4167Zm-30.92,2.7179a6.4882,6.4882,0,0,1-.5142-4.5417c3.3891.4281,5.9019,1.6617,7.4825,3.673a10.1244,10.1244,0,0,1,1.95,6.1856C25.59,23.3876,22.52,21.5638,21.2434,19.1346Zm-4.81,21.2368a13.6009,13.6009,0,0,1-1.5958-9.1645,14.0828,14.0828,0,0,1,9.286,4.6861c3.2777,3.8578,3.8147,9.0936,3.8654,11.6139C22.4238,46.22,18.5407,43.824,16.4332,40.3714Z"/><path class="cls-4" d="M45.48,59.9322a24.8947,24.8947,0,0,0-1.2383,3.5031L39.3634,59.64Z"/></g></svg>