<?xml version="1.0" encoding="utf-8"?>
<!-- Generator: Adobe Illustrator 21.0.2, SVG Export Plug-In . SVG Version: 6.00 Build 0)  -->
<svg version="1.0" xmlns="http://www.w3.org/2000/svg" xmlns:xlink="http://www.w3.org/1999/xlink" x="0px" y="0px"
	 viewBox="0 0 96 96" enable-background="new 0 0 96 96" xml:space="preserve">
<g id="Guidelines">
</g>
<g id="Your_Icons">
	<g>
		<circle fill="#FEE7C5" cx="59.25" cy="20.771" r="13.021"/>
		
			<circle fill="none" stroke="#FBB040" stroke-width="1.5" stroke-linecap="round" stroke-linejoin="round" stroke-miterlimit="10" cx="59.25" cy="20.771" r="13.021"/>
		
			<circle fill="#FFFFFF" stroke="#FBB040" stroke-width="1.5" stroke-linecap="round" stroke-linejoin="round" stroke-miterlimit="10" cx="59.25" cy="20.771" r="9.597"/>
		<path fill="#FBB040" d="M80.903,48.948c0,0,0.225,1.612,0.344,1.612c0.599,0,1.83,0.159,3.087-0.167
			c0.844-0.219,1.557-0.659,2.215-1.138c0.06,0,0.18,0,0.24,0c1.856,0,3.652-1.018,4.61-2.694c0.239-0.419,0.06-0.898-0.299-1.078
			c-0.419-0.239-0.898-0.06-1.078,0.299c-0.479,0.838-1.257,1.437-2.095,1.736c0.419-0.898,0.479-2.036,0.18-2.934
			c-0.479-1.497-2.215-2.335-3.712-1.796c-0.718,0.239-1.317,0.778-1.676,1.497c-0.299,0.659-0.359,1.497-0.12,2.215
			c0.239,0.838,0.958,1.676,1.856,2.155c-0.18,0.06-0.365,0.103-0.539,0.18C82.986,49.244,81.422,48.994,80.903,48.948z
			 M84.034,46.023c-0.12-0.359-0.12-0.718,0.06-1.078s0.419-0.599,0.778-0.718c0.12-0.06,0.239-0.06,0.419-0.06
			c0.599,0,1.138,0.359,1.317,0.898c0.18,0.659,0.06,1.557-0.239,2.036c0,0.06-0.06,0.06-0.06,0.12
			c-0.06,0.12-0.18,0.18-0.299,0.239C85.411,47.699,84.334,46.861,84.034,46.023z"/>
		<g>
			<g>
				<path fill="#FBB040" d="M59.25,21.433c-0.813,0-1.584-0.258-2.17-0.727c-0.629-0.503-0.976-1.186-0.976-1.921
					c0-0.736,0.346-1.419,0.976-1.923c1.19-0.952,3.326-0.915,4.571,0.081c0.285,0.229,0.332,0.645,0.103,0.931
					c-0.228,0.286-0.645,0.332-0.931,0.103c-0.746-0.597-2.219-0.638-2.916-0.081c-0.309,0.247-0.479,0.563-0.479,0.888
					s0.17,0.64,0.479,0.888c0.352,0.282,0.829,0.437,1.343,0.437c0.366,0,0.662,0.297,0.662,0.662
					C59.912,21.136,59.615,21.433,59.25,21.433z"/>
				<path fill="#FBB040" d="M59.231,25.37c-0.863,0-1.741-0.258-2.382-0.771c-0.285-0.229-0.332-0.646-0.103-0.931
					s0.645-0.331,0.931-0.103c0.746,0.598,2.217,0.638,2.915,0.081c0.309-0.247,0.48-0.563,0.48-0.888s-0.17-0.641-0.48-0.888
					c-0.352-0.281-0.829-0.436-1.342-0.436c-0.366,0-0.662-0.297-0.662-0.662c0-0.366,0.297-0.662,0.662-0.662
					c0.813,0,1.584,0.258,2.169,0.727c0.63,0.503,0.977,1.187,0.977,1.923s-0.346,1.419-0.977,1.922
					C60.842,25.142,60.043,25.37,59.231,25.37z"/>
			</g>
			<path fill="#FBB040" d="M59.25,17.459c-0.366,0-0.662-0.297-0.662-0.662v-1.445c0-0.366,0.297-0.662,0.662-0.662
				s0.662,0.297,0.662,0.662v1.445C59.912,17.162,59.615,17.459,59.25,17.459z"/>
			<path fill="#FBB040" d="M59.25,26.852c-0.366,0-0.662-0.296-0.662-0.662v-1.445c0-0.366,0.297-0.662,0.662-0.662
				s0.662,0.296,0.662,0.662v1.445C59.912,26.555,59.615,26.852,59.25,26.852z"/>
		</g>
		<path fill="#FFFFFF" stroke="#FBB040" stroke-width="2.5" stroke-miterlimit="10" d="M81.25,53.299
			c0-14.083-13.991-25.5-31.25-25.5c-3.219,0-6.323,0.398-9.245,1.135c-1.845-5.606-6.505-7.385-6.505-7.385v9.729
			c-5.377,2.566-9.734,6.401-12.442,11.008h-5.519c-2.524,0-4.589,2.065-4.589,4.589v11.013c0,2.524,2.065,4.589,4.589,4.589h4.555
			c2.196,4.642,6.006,8.626,10.872,11.496v7.044c0,1.668,1.365,3.032,3.033,3.032H37c1.668,0,3.032-1.365,3.032-3.032v-3.55
			c3.132,0.86,6.481,1.333,9.968,1.333c4.703,0,9.16-0.853,13.161-2.372v4.589c0,1.668,1.365,3.032,3.032,3.032h2.251
			c1.668,0,3.033-1.365,3.033-3.032v-9.204C77.492,67.164,81.25,60.591,81.25,53.299z"/>
		<circle fill="#FBB040" cx="34.354" cy="43.651" r="2.264"/>
	</g>
</g>
</svg>
