<?xml version="1.0" encoding="utf-8"?>
<!-- Generator: Adobe Illustrator 21.0.2, SVG Export Plug-In . SVG Version: 6.00 Build 0)  -->
<svg version="1.0" xmlns="http://www.w3.org/2000/svg" xmlns:xlink="http://www.w3.org/1999/xlink" x="0px" y="0px"
	 viewBox="0 0 96 96" enable-background="new 0 0 96 96" xml:space="preserve">
<g id="Guidelines">
</g>
<g id="Your_Icons">
	<g>
		
			<rect x="10.972" y="28.388" transform="matrix(0.9673 -0.2538 0.2538 0.9673 -6.9675 12.2691)" fill="#FEE7C5" width="66.19" height="9.5"/>
		<path fill="#FBB040" d="M24.864,72.15c-3.204,0-6.142-2.142-7.006-5.381L9.32,34.786c-0.498-1.864-0.237-3.816,0.735-5.497
			c0.972-1.681,2.535-2.88,4.399-3.377l51.48-13.743c1.866-0.498,3.817-0.237,5.497,0.735c1.681,0.972,2.88,2.535,3.378,4.399
			l8.538,31.983c1.03,3.862-1.273,7.843-5.136,8.874l-51.48,13.743C26.108,72.071,25.481,72.15,24.864,72.15z M67.8,14.424
			c-0.407,0-0.817,0.053-1.221,0.161l-51.48,13.743c-1.219,0.326-2.242,1.112-2.88,2.214c-0.638,1.102-0.81,2.381-0.484,3.6
			l8.538,31.983c0.675,2.53,3.28,4.039,5.815,3.364l51.48-13.743c2.53-0.676,4.04-3.284,3.364-5.814l-8.538-31.983
			c-0.325-1.219-1.111-2.242-2.214-2.88C69.442,14.642,68.625,14.424,67.8,14.424z"/>
		
			<rect x="10.123" y="27.97" transform="matrix(0.9662 -0.2578 0.2578 0.9662 -5.9722 11.8959)" fill="#FBB040" width="64.5" height="1.5"/>
		
			<rect x="12.445" y="36.666" transform="matrix(0.9662 -0.2578 0.2578 0.9662 -8.1356 12.7883)" fill="#FBB040" width="64.5" height="1.5"/>
	</g>
	<path fill="#FFFFFF" d="M80.975,76.589H27.692c-3.3,0-6-2.7-6-6V37.485c0-3.3,2.7-6,6-6h53.283c3.3,0,6,2.7,6,6v33.103
		C86.975,73.889,84.275,76.589,80.975,76.589z"/>
	<g>
		<path fill="#FBB040" d="M80.975,77.839H27.692c-3.998,0-7.25-3.253-7.25-7.25V37.485c0-3.998,3.252-7.25,7.25-7.25h53.283
			c3.998,0,7.25,3.252,7.25,7.25v33.103C88.225,74.586,84.973,77.839,80.975,77.839z M27.692,32.735c-2.619,0-4.75,2.131-4.75,4.75
			v33.103c0,2.62,2.131,4.75,4.75,4.75h53.283c2.619,0,4.75-2.131,4.75-4.75V37.485c0-2.619-2.131-4.75-4.75-4.75H27.692z"/>
		
			<ellipse transform="matrix(0.7071 -0.7071 0.7071 0.7071 -28.6067 61.0718)" fill="#FBB040" cx="59.417" cy="65.067" rx="1.613" ry="1.613"/>
		
			<ellipse transform="matrix(0.7071 -0.7071 0.7071 0.7071 -26.7844 65.4711)" fill="#FBB040" cx="65.638" cy="65.067" rx="1.613" ry="1.613"/>
		
			<ellipse transform="matrix(0.7071 -0.7071 0.7071 0.7071 -24.9622 69.8703)" fill="#FBB040" cx="71.86" cy="65.067" rx="1.613" ry="1.613"/>
		
			<ellipse transform="matrix(0.7071 -0.7071 0.7071 0.7071 -23.14 74.2696)" fill="#FBB040" cx="78.081" cy="65.067" rx="1.613" ry="1.613"/>
		<g>
			<path fill="#FBB040" d="M42.752,39.329H30.976c-0.724,0-1.312,0.588-1.312,1.312c0,0.724,0.587,1.312,1.312,1.312h11.775
				c0.724,0,1.312-0.587,1.312-1.312C44.063,39.916,43.476,39.329,42.752,39.329z"/>
			<path fill="#FBB040" d="M44.085,39.329H32.309c-0.724,0-1.312,0.588-1.312,1.312c0,0.724,0.587,1.312,1.312,1.312h11.775
				c0.724,0,1.312-0.587,1.312-1.312C45.396,39.916,44.809,39.329,44.085,39.329z"/>
		</g>
	</g>
</g>
</svg>
