<?xml version="1.0" encoding="utf-8"?>
<!-- Generator: Adobe Illustrator 21.0.2, SVG Export Plug-In . SVG Version: 6.00 Build 0)  -->
<svg version="1.0" xmlns="http://www.w3.org/2000/svg" xmlns:xlink="http://www.w3.org/1999/xlink" x="0px" y="0px"
	 viewBox="0 0 96 96" enable-background="new 0 0 96 96" xml:space="preserve">
<g id="Guidelines">
</g>
<g id="Your_Icons">
	<polygon fill="#FFFFFF" points="13.601,38.424 13.398,69.426 63.245,69.426 63.245,38.221 38.524,17.755 	"/>
	<path fill="#FBB004" d="M55.138,41.022h-2.808c-1.568,0-2.844-1.276-2.844-2.844V22.254c0-1.568,1.276-2.844,2.844-2.844h2.808
		c1.568,0,2.844,1.276,2.844,2.844v15.924C57.982,39.747,56.707,41.022,55.138,41.022z M52.331,20.626
		c-0.898,0-1.627,0.73-1.627,1.628v15.924c0,0.898,0.729,1.628,1.627,1.628h2.808c0.898,0,1.627-0.73,1.627-1.628V22.254
		c0-0.898-0.729-1.628-1.627-1.628H52.331z"/>
	<path fill="#FBB004" d="M35.594,27.714v3.06c0,0.587,0.476,1.063,1.063,1.063c0.587,0,1.063-0.476,1.063-1.063v-3.06
		c0-0.587-0.476-1.063-1.063-1.063S35.594,27.128,35.594,27.714z"/>
	<path fill="#FBB004" d="M35.594,26.634v3.06c0,0.587,0.476,1.063,1.063,1.063c0.587,0,1.063-0.476,1.063-1.063v-3.06
		c0-0.587-0.476-1.063-1.063-1.063S35.594,26.047,35.594,26.634z"/>
	<path fill="#FBB004" d="M39.512,27.714v3.06c0,0.587,0.476,1.063,1.063,1.063s1.063-0.476,1.063-1.063v-3.06
		c0-0.587-0.476-1.063-1.063-1.063S39.512,27.128,39.512,27.714z"/>
	<path fill="#FBB004" d="M39.512,26.634v3.06c0,0.587,0.476,1.063,1.063,1.063s1.063-0.476,1.063-1.063v-3.06
		c0-0.587-0.476-1.063-1.063-1.063S39.512,26.047,39.512,26.634z"/>
	<path fill="#FBB004" d="M65.798,70.776H10.683c-0.56,0-1.013-0.453-1.013-1.013c0-0.56,0.453-1.013,1.013-1.013h55.115
		c0.56,0,1.013,0.453,1.013,1.013C66.811,70.323,66.358,70.776,65.798,70.776z"/>
	<path fill="#FBB004" d="M13.385,70.371c-0.56,0-1.013-0.453-1.013-1.013v-30.8c0-0.56,0.453-1.013,1.013-1.013
		c0.56,0,1.013,0.453,1.013,1.013v30.8C14.398,69.918,13.945,70.371,13.385,70.371z"/>
	<path fill="#4E8ABE" d="M63.233,70.371c-0.56,0-1.013-0.453-1.013-1.013v-30.8c0-0.56,0.453-1.013,1.013-1.013
		s1.013,0.453,1.013,1.013v30.8C64.245,69.918,63.792,70.371,63.233,70.371z"/>
	<path opacity="0.4" fill="#FBB004" d="M35.89,46.867c0-4.088-3.314-7.402-7.402-7.402c-4.088,0-7.402,3.314-7.402,7.402
		c0,0.075,0.009,0.147,0.011,0.221h-0.011v4.081v8.512v3.331c0,1.221,0.999,2.221,2.221,2.221H33.67
		c1.221,0,2.221-0.999,2.221-2.221v-3.331V51.17v-4.081h-0.011C35.881,47.014,35.89,46.942,35.89,46.867z"/>
	<polygon fill="#FFFFFF" points="47.035,25.354 61.523,37.512 61.523,52.709 47.035,48.96 	"/>
	<path fill="#FBB004" d="M67.406,42.745c-0.232,0.001-0.466-0.079-0.656-0.241L38.626,18.6L9.856,42.357
		c-0.43,0.356-1.069,0.294-1.426-0.136c-0.356-0.432-0.295-1.07,0.136-1.426L37.99,16.496c0.379-0.311,0.927-0.307,1.301,0.009
		l28.77,24.455c0.427,0.362,0.478,1.002,0.116,1.428C67.978,42.624,67.692,42.745,67.406,42.745z"/>
	<path fill="#FBB004" d="M33.67,65.841H23.308c-1.56,0-2.829-1.269-2.829-2.829l0.009-16.532c0.203-4.237,3.713-7.623,8-7.623
		c4.416,0,8.01,3.593,8.01,8.01v16.145C36.498,64.572,35.229,65.841,33.67,65.841z M21.695,47.088v15.924
		c0,0.889,0.724,1.613,1.613,1.613H33.67c0.889,0,1.613-0.724,1.613-1.613l-0.011-15.942l0.608-0.204h-0.597
		c0-3.746-3.048-6.794-6.794-6.794s-6.794,3.048-6.794,6.794V47.088z"/>
	<circle fill="#FBB004" cx="24.965" cy="53.839" r="1.503"/>
	<g>
		<path fill="#FFFFFF" d="M54.057,56.355h-9.291c-1.23,0-2.236-1.006-2.236-2.236v-8.629c0-1.23,1.006-2.236,2.236-2.236h9.291
			c1.23,0,2.236,1.006,2.236,2.236v8.629C56.294,55.349,55.287,56.355,54.057,56.355z"/>
		<path fill="#FBB004" d="M54.057,56.963h-9.29c-1.569,0-2.845-1.276-2.845-2.845v-8.629c0-1.568,1.276-2.844,2.845-2.844h9.29
			c1.568,0,2.845,1.276,2.845,2.844v8.629C56.902,55.687,55.625,56.963,54.057,56.963z M44.767,43.861
			c-0.898,0-1.629,0.73-1.629,1.628v8.629c0,0.898,0.731,1.629,1.629,1.629h9.29c0.898,0,1.628-0.731,1.628-1.629v-8.629
			c0-0.898-0.73-1.628-1.628-1.628H44.767z"/>
	</g>
	<path fill="#FBB004" d="M55.883,50.514H43.185c-0.336,0-0.608-0.272-0.608-0.608c0-0.336,0.272-0.608,0.608-0.608h12.697
		c0.336,0,0.609,0.272,0.609,0.608C56.491,50.242,56.218,50.514,55.883,50.514z"/>
	<path fill="#FBB004" d="M49.534,56.863c-0.336,0-0.609-0.272-0.609-0.608V43.557c0-0.336,0.273-0.608,0.609-0.608
		s0.609,0.272,0.609,0.608v12.699C50.143,56.591,49.87,56.863,49.534,56.863z"/>
	<g>
		<g>
			<circle fill="#FFFFFF" cx="68.531" cy="61.028" r="22.469"/>
		</g>
		<g opacity="0.4">
			<circle fill="#FBB004" cx="68.531" cy="61.028" r="22.469"/>
		</g>
		<g>
			<circle fill="#FFFFFF" cx="68.531" cy="61.028" r="18.448"/>
			<path fill="#FBB004" d="M68.531,43.639c9.588,0,17.389,7.801,17.389,17.389s-7.801,17.389-17.389,17.389
				s-17.389-7.801-17.389-17.389S58.942,43.639,68.531,43.639 M68.531,42.58c-10.189,0-18.448,8.26-18.448,18.448
				s8.26,18.448,18.448,18.448s18.448-8.26,18.448-18.448S78.719,42.58,68.531,42.58L68.531,42.58z"/>
		</g>
		<path fill="#FBB004" d="M68.531,40.325c11.416,0,20.703,9.288,20.703,20.703s-9.288,20.703-20.703,20.703
			s-20.703-9.288-20.703-20.703S57.115,40.325,68.531,40.325 M68.531,38.559c-12.41,0-22.469,10.06-22.469,22.469
			s10.06,22.469,22.469,22.469S91,73.438,91,61.028S80.94,38.559,68.531,38.559L68.531,38.559z"/>
		<g>
			<path fill="#FBB004" d="M68.258,63.238c-1.827-0.074-3.536-0.724-4.808-1.83c-1.368-1.188-2.086-2.753-2.019-4.405
				c0.067-1.653,0.907-3.157,2.366-4.231c2.76-2.032,7.555-1.755,10.262,0.595c0.621,0.539,0.687,1.479,0.148,2.1
				c-0.538,0.622-1.479,0.689-2.101,0.148c-1.623-1.41-4.927-1.634-6.542-0.445c-0.716,0.527-1.127,1.221-1.156,1.952
				c-0.029,0.731,0.324,1.454,0.995,2.037c0.766,0.666,1.823,1.057,2.976,1.103c0.821,0.033,1.461,0.726,1.428,1.548
				S69.079,63.271,68.258,63.238z"/>
			<path fill="#FBB004" d="M67.859,72.082c-1.939-0.078-3.887-0.738-5.281-1.947c-0.621-0.541-0.687-1.481-0.148-2.101
				s1.479-0.686,2.101-0.148c1.623,1.411,4.924,1.633,6.541,0.445c0.717-0.527,1.128-1.221,1.158-1.952
				c0.029-0.731-0.324-1.456-0.997-2.039c-0.765-0.664-1.822-1.055-2.975-1.102c-0.821-0.033-1.461-0.726-1.428-1.548
				c0.033-0.821,0.726-1.461,1.548-1.428c1.827,0.074,3.534,0.724,4.807,1.828c1.369,1.188,2.087,2.755,2.021,4.408
				c-0.067,1.653-0.907,3.157-2.368,4.229C71.499,71.714,69.683,72.155,67.859,72.082z"/>
		</g>
	</g>
	<path fill="#FBB004" d="M68.617,54.311c-0.821-0.033-1.461-0.726-1.428-1.548l0.131-3.246c0.033-0.821,0.726-1.461,1.548-1.428
		c0.821,0.033,1.461,0.726,1.428,1.548l-0.131,3.246C70.132,53.705,69.439,54.344,68.617,54.311z"/>
	<path fill="#FBB004" d="M67.768,75.412c-0.821-0.033-1.461-0.725-1.428-1.548l0.131-3.246c0.033-0.823,0.726-1.461,1.548-1.428
		c0.821,0.033,1.461,0.725,1.428,1.548l-0.131,3.246C69.282,74.805,68.589,75.445,67.768,75.412z"/>
</g>
</svg>
