<?xml version="1.0" encoding="utf-8"?>
<!-- Generator: Adobe Illustrator 21.0.2, SVG Export Plug-In . SVG Version: 6.00 Build 0)  -->
<svg version="1.0" xmlns="http://www.w3.org/2000/svg" xmlns:xlink="http://www.w3.org/1999/xlink" x="0px" y="0px"
	 viewBox="0 0 96 96" enable-background="new 0 0 96 96" xml:space="preserve">
<g id="Guidelines">
</g>
<g id="Your_Icons">
	<path fill="#FFFFFF" d="M40.891,86.169H20.16c-2.603,0-4.733-2.13-4.733-4.733v-45.32c0-2.603,2.13-4.733,4.733-4.733h20.731
		c2.603,0,4.733,2.13,4.733,4.733v45.32C45.624,84.039,43.494,86.169,40.891,86.169z"/>
	<path fill="#FEE7B3" d="M41.267,86.169H20.536c-2.603,0-4.733-2.13-4.733-4.733v-45.32c0-2.603,2.13-4.733,4.733-4.733h20.731
		c2.603,0,4.733,2.13,4.733,4.733v45.32C46,84.039,43.87,86.169,41.267,86.169z"/>
	<rect x="15.803" y="39.749" fill="#FFFFFF" width="29.842" height="36.415"/>
	<path fill="none" stroke="#FBB004" stroke-width="2.0342" stroke-miterlimit="10" d="M40.891,86.169H20.16
		c-2.603,0-4.733-2.13-4.733-4.733v-45.32c0-2.603,2.13-4.733,4.733-4.733h20.731c2.603,0,4.733,2.13,4.733,4.733v45.32
		C45.624,84.039,43.494,86.169,40.891,86.169z"/>
	
		<line fill="none" stroke="#FBB004" stroke-width="1.2205" stroke-linecap="round" stroke-linejoin="round" stroke-miterlimit="10" x1="15.933" y1="39.567" x2="45.118" y2="39.567"/>
	
		<line fill="none" stroke="#FBB004" stroke-width="1.2205" stroke-linecap="round" stroke-linejoin="round" stroke-miterlimit="10" x1="26.976" y1="35.623" x2="34.075" y2="35.623"/>
	
		<line fill="none" stroke="#FBB004" stroke-width="1.2205" stroke-linecap="round" stroke-linejoin="round" stroke-miterlimit="10" x1="15.933" y1="76.245" x2="45.118" y2="76.245"/>
	<circle fill="#FBB004" cx="30.525" cy="81.06" r="2.726"/>
	<path fill="#FBB004" d="M91.5,31.991c-0.027,11.931-11.905,21.582-26.533,21.551c-3.268-0.008-6.393-0.496-9.278-1.383
		l-15.237,7.053l5.987-11.886c-4.896-3.934-7.927-9.405-7.915-15.448C38.551,19.94,50.429,10.29,65.06,10.322
		C79.689,10.354,91.525,20.053,91.5,31.991z"/>
</g>
</svg>
