<?xml version="1.0" encoding="utf-8"?>
<!-- Generator: Adobe Illustrator 21.0.2, SVG Export Plug-In . SVG Version: 6.00 Build 0)  -->
<svg version="1.0" xmlns="http://www.w3.org/2000/svg" xmlns:xlink="http://www.w3.org/1999/xlink" x="0px" y="0px"
	 viewBox="0 0 96 96" enable-background="new 0 0 96 96" xml:space="preserve">
<g id="Guidelines">
</g>
<g id="Your_Icons">
	<g>
		<g>
			
				<rect x="7.575" y="44.309" transform="matrix(0.9841 -0.1778 0.1778 0.9841 -9.6562 5.8745)" fill="#FFFFFF" width="40.756" height="25.025"/>
			<path fill="#FBB004" d="M10.124,73.844c-0.22,0-0.437-0.067-0.62-0.194c-0.237-0.164-0.398-0.416-0.45-0.7L4.605,48.324
				c-0.051-0.284,0.013-0.576,0.177-0.813c0.165-0.237,0.416-0.399,0.7-0.45l40.107-7.245c0.284-0.054,0.576,0.012,0.814,0.177
				c0.237,0.164,0.398,0.416,0.45,0.7l4.448,24.626c0.106,0.591-0.286,1.156-0.877,1.263l-40.106,7.246
				C10.253,73.839,10.189,73.844,10.124,73.844z M6.938,49.007l4.063,22.487l37.967-6.859l-4.062-22.486L6.938,49.007z"/>
		</g>
		<g>
			<path fill="#FEEFCD" d="M45.793,59.137c0.351,1.943-0.94,3.801-2.882,4.152l-26.374,4.764c-1.942,0.351-3.801-0.938-4.153-2.881
				l-1.906-10.55c-0.351-1.942,0.938-3.8,2.882-4.151l26.374-4.765c1.942-0.351,3.8,0.939,4.151,2.881L45.793,59.137z"/>
			<path fill="#FBB004" d="M15.892,68.764c-0.852,0-1.683-0.258-2.399-0.755c-0.928-0.643-1.549-1.61-1.751-2.721l-1.905-10.55
				c-0.2-1.111,0.043-2.233,0.687-3.16c0.643-0.928,1.61-1.548,2.721-1.749l26.373-4.764c2.299-0.411,4.496,1.114,4.909,3.406
				l1.907,10.55l0,0c0.414,2.293-1.115,4.496-3.408,4.91l-26.374,4.764C16.399,68.742,16.145,68.764,15.892,68.764z M40.371,46.302
				c-0.172,0-0.346,0.015-0.52,0.047l-26.374,4.764c-0.769,0.138-1.437,0.568-1.881,1.209c-0.445,0.641-0.614,1.416-0.475,2.184
				l1.905,10.55c0.138,0.768,0.568,1.436,1.21,1.881c0.641,0.445,1.417,0.612,2.185,0.474l26.374-4.765
				c1.586-0.286,2.642-1.809,2.356-3.394l-1.907-10.55C42.989,47.293,41.756,46.302,40.371,46.302z"/>
		</g>
		<g>
			<path fill="#FBB004" d="M18.807,60.9l-0.152-0.827c-0.588,0.081-1.182,0.028-1.549-0.103l0.075-1.067
				c0.403,0.133,0.95,0.222,1.516,0.118c0.497-0.091,0.801-0.345,0.737-0.692c-0.06-0.332-0.378-0.49-1.063-0.589
				c-0.989-0.143-1.704-0.462-1.859-1.306c-0.14-0.766,0.29-1.466,1.188-1.819l-0.152-0.828l0.854-0.157l0.14,0.767
				c0.588-0.08,1.002-0.031,1.315,0.056l-0.072,1.029c-0.244-0.054-0.681-0.18-1.308-0.065c-0.566,0.104-0.703,0.381-0.659,0.625
				c0.053,0.287,0.391,0.414,1.182,0.557c1.103,0.176,1.609,0.578,1.752,1.362c0.142,0.775-0.285,1.537-1.255,1.895l0.163,0.888
				L18.807,60.9z"/>
			<path fill="#FBB004" d="M25.8,55.764l-2.819,0.517l0.048,1.148c0.153-0.051,0.287-0.076,0.466-0.109
				c0.693-0.127,1.427-0.099,2.009,0.175c0.616,0.268,1.063,0.812,1.219,1.661c0.248,1.354-0.696,2.765-2.654,3.123
				c-0.884,0.162-1.659,0.095-2.101-0.042l0.068-1.331c0.353,0.098,1.05,0.178,1.711,0.057c0.705-0.129,1.392-0.603,1.25-1.375
				c-0.137-0.749-0.814-1.099-2.268-0.832c-0.403,0.074-0.679,0.148-0.973,0.248L21.538,55.1l4.006-0.735L25.8,55.764z"/>
			<path fill="#FBB004" d="M32.259,56.858c0.411,2.249-0.211,3.959-2.069,4.3c-1.879,0.345-3.017-1.193-3.405-3.25
				c-0.386-2.103,0.205-3.934,2.084-4.278C30.815,53.273,31.894,54.867,32.259,56.858z M28.496,57.593
				c0.295,1.67,0.843,2.39,1.503,2.269c0.66-0.121,0.866-1.015,0.563-2.67c-0.296-1.612-0.798-2.398-1.48-2.272
				C28.455,55.035,28.175,55.907,28.496,57.593z"/>
			<path fill="#FBB004" d="M38.246,55.76c0.413,2.248-0.211,3.959-2.067,4.3c-1.88,0.344-3.018-1.193-3.406-3.251
				c-0.386-2.103,0.204-3.934,2.084-4.278C36.803,52.174,37.881,53.769,38.246,55.76z M34.485,56.496
				c0.294,1.669,0.842,2.389,1.502,2.269c0.66-0.121,0.866-1.015,0.563-2.67c-0.296-1.611-0.798-2.397-1.48-2.272
				C34.442,53.938,34.164,54.808,34.485,56.496z"/>
		</g>
		<path fill="#FFFFFF" d="M60.382,28.758c-2.835,0-5.547,0.49-8.049,1.376c-1.092-1.778-2.527-2.8-4.066-2.872
			c-1.597-0.066-3.213,1.047-4.523,3.159c-1.046,1.686-1.772,3.831-1.848,5.541l0.08,1.579c-2.693,3.472-4.288,7.729-4.288,12.33
			c0,11.642,10.179,21.112,22.693,21.112c12.511,0,22.69-9.47,22.69-21.112C83.072,38.229,72.894,28.758,60.382,28.758z"/>
		<path fill="#FEEFCD" d="M49.23,57.12l-3.144-1.256c-1.661-0.664-2.477-2.566-1.813-4.228l0.114-0.286
			c0.664-1.661,2.566-2.477,4.228-1.813l3.144,1.256c1.661,0.664,2.477,2.566,1.813,4.228l-0.114,0.286
			C52.793,56.968,50.891,57.784,49.23,57.12z"/>
		<path fill="#FBB004" d="M66.881,46.548c-0.157,0-0.316-0.042-0.46-0.132c-0.408-0.254-0.532-0.79-0.278-1.198
			c1.377-2.21,1.894-7.378-0.023-8.573c-1.569-0.978-4.718,0.755-6.567,2.699c-0.034,0.086-0.082,0.169-0.144,0.243l-0.864,1.037
			c-0.291,0.351-0.807,0.417-1.179,0.148c-0.37-0.268-0.47-0.778-0.227-1.166c1.638-2.622,6.77-6.389,9.9-4.438
			c3.085,1.924,2.208,8.354,0.578,10.969C67.455,46.403,67.172,46.548,66.881,46.548z"/>
		<path fill="#FBB004" d="M79.538,39.93c-0.29,0-0.569-0.163-0.703-0.442c-1.13-2.365-0.126-5.211,2.238-6.342
			c0.954-0.456,2.029-0.515,3.026-0.162c0.998,0.352,1.798,1.072,2.255,2.026c0.383,0.8,0.431,1.701,0.137,2.538
			c-0.296,0.837-0.9,1.51-1.702,1.892c-0.676,0.324-1.441,0.366-2.148,0.116c-0.709-0.25-1.278-0.761-1.602-1.439
			c-0.278-0.579-0.314-1.233-0.1-1.839c0.214-0.606,0.651-1.093,1.233-1.37c0.5-0.241,1.064-0.27,1.588-0.085
			s0.946,0.563,1.186,1.063c0.185,0.387,0.023,0.852-0.364,1.037c-0.389,0.186-0.852,0.022-1.037-0.365
			c-0.061-0.127-0.169-0.223-0.301-0.27c-0.134-0.047-0.275-0.039-0.401,0.021c-0.206,0.099-0.361,0.271-0.437,0.485
			c-0.076,0.214-0.064,0.446,0.035,0.651c0.146,0.304,0.401,0.532,0.717,0.644c0.317,0.112,0.66,0.094,0.961-0.052
			c0.428-0.204,0.75-0.561,0.906-1.007c0.158-0.445,0.132-0.924-0.071-1.349c-0.278-0.581-0.765-1.018-1.371-1.232
			c-0.606-0.213-1.257-0.178-1.837,0.099c-1.591,0.762-2.267,2.677-1.506,4.27c0.185,0.387,0.021,0.851-0.366,1.037
			C79.764,39.906,79.65,39.93,79.538,39.93z"/>
		<g>
			<path fill="none" d="M50.648,30.254l0.146,0.246c0.033-0.015,0.067-0.032,0.1-0.046c-0.779-1.166-1.732-1.853-2.668-1.897
				c-0.982-0.054-2.142,0.836-3.128,2.425c-0.875,1.408-1.506,3.225-1.603,4.58c0.02-0.022,0.043-0.042,0.064-0.063l-0.005-0.142
				l0.005,0.142c2.018-2.084,4.476-3.791,7.235-4.998L50.648,30.254z"/>
			<path fill="none" d="M60.414,30.053c-2.577,0-5.048,0.43-7.334,1.215c0.556,1.335,0.853,2.796,0.796,4.037
				c-0.021,0.429-0.374,0.75-0.814,0.74c-0.428-0.02-0.759-0.384-0.739-0.813c0.047-1.036-0.211-2.27-0.692-3.403
				c-0.014,0.006-0.026,0.013-0.039,0.018l0.077,0.131l-0.077-0.131c-3.149,1.344-5.882,3.382-7.968,5.904l0.005,0.155l-0.005-0.155
				c-0.009,0.011-0.02,0.022-0.029,0.034l0.003,0.057c0.02,0.406-0.278,0.746-0.673,0.8c-2.302,3.13-3.649,6.907-3.649,10.97
				c0,10.784,9.484,19.559,21.138,19.559S81.55,60.395,81.55,49.611C81.55,38.827,72.069,30.053,60.414,30.053z"/>
			<path fill="#FBB004" d="M60.414,28.498c-2.833,0-5.545,0.49-8.049,1.376c-1.092-1.778-2.525-2.8-4.066-2.872
				c-1.597-0.066-3.211,1.047-4.523,3.159c-1.045,1.686-1.77,3.831-1.848,5.541l0.082,1.579c-2.695,3.472-4.289,7.729-4.289,12.329
				c0,11.642,10.18,21.114,22.693,21.114c12.511,0,22.69-9.471,22.69-21.114C83.104,37.969,72.925,28.498,60.414,28.498z
				 M60.414,69.17c-11.655,0-21.138-8.774-21.138-19.559c0-4.062,1.347-7.839,3.649-10.97c0.395-0.055,0.692-0.394,0.673-0.8
				l-0.003-0.057c0.009-0.011,0.02-0.022,0.029-0.034l-0.117-2.055c-0.02,0.021,0.009-0.156-0.011-0.134
				c0.097-1.355,0.729-3.172,1.603-4.58c0.985-1.589,2.145-2.479,3.128-2.425c0.92,0.043,1.858,0.709,2.631,1.843
				c0.012,0.018,0.024,0.036,0.036,0.054c-0.033,0.015,0.129,0.15,0.094,0.165l0.603,1.229c0.014-0.006,0.026-0.013,0.039-0.018
				c0.481,1.133,0.739,2.367,0.692,3.403c-0.02,0.429,0.311,0.793,0.739,0.813c0.44,0.009,0.793-0.312,0.814-0.74
				c0.058-1.24-0.24-2.702-0.796-4.037c2.285-0.785,4.757-1.215,7.334-1.215c11.655,0,21.135,8.774,21.135,19.558
				C81.55,60.395,72.069,69.17,60.414,69.17z"/>
		</g>
		<path fill="#FBB004" d="M42.015,47.456c-0.385,0-0.736-0.258-0.84-0.647c-0.424-1.598,0.53-3.243,2.127-3.668
			c0.662-0.177,1.356-0.085,1.95,0.259c0.595,0.344,1.02,0.9,1.198,1.564c0.123,0.464-0.153,0.941-0.618,1.064
			c-0.459,0.124-0.94-0.152-1.064-0.617c-0.057-0.215-0.195-0.395-0.386-0.506c-0.195-0.112-0.419-0.141-0.632-0.084
			c-0.671,0.178-1.071,0.87-0.893,1.541c0.123,0.464-0.154,0.94-0.618,1.064C42.165,47.446,42.089,47.456,42.015,47.456z"/>
		<path fill="#FBB004" d="M58.45,51.036c-0.155,0-0.312-0.041-0.454-0.128c-0.409-0.251-0.539-0.787-0.287-1.196
			c0.175-0.286,0.228-0.624,0.149-0.951c-0.079-0.327-0.28-0.604-0.567-0.779c-0.19-0.116-0.417-0.151-0.631-0.099
			c-0.216,0.052-0.398,0.185-0.513,0.374c-0.251,0.411-0.787,0.54-1.195,0.29c-0.41-0.25-0.54-0.786-0.29-1.196
			c0.357-0.586,0.922-0.998,1.589-1.159c0.668-0.161,1.36-0.053,1.947,0.306c0.683,0.418,1.163,1.077,1.351,1.855
			c0.189,0.779,0.061,1.584-0.357,2.267C59.029,50.888,58.743,51.036,58.45,51.036z"/>
		<path fill="#FBB004" d="M54.099,51.252c-0.782-1.14-2.018-2.037-3.479-2.525c-0.764-0.256-1.546-0.385-2.32-0.385
			c-2.297,0-4.166,1.148-4.76,2.924c-0.604,1.81,0.267,3.833,2.025,5.177c0.07,0.128,0.15,0.248,0.257,0.354
			c0.152,0.152,0.351,0.229,0.551,0.229c0.024,0,0.047-0.012,0.071-0.014c0.383,0.21,0.79,0.395,1.225,0.541
			c0.765,0.255,1.547,0.386,2.322,0.386c2.299,0,4.166-1.148,4.76-2.924C55.161,53.795,54.928,52.459,54.099,51.252z M53.278,54.521
			c-0.378,1.131-1.667,1.863-3.286,1.863c-0.087,0-0.173-0.018-0.26-0.023c-0.029-0.049-0.05-0.102-0.09-0.146
			c-0.168-0.184,0.024-1.259,0.481-2.205c0.187-0.387,0.026-0.852-0.36-1.039c-0.387-0.187-0.85-0.026-1.039,0.358
			c-0.22,0.452-0.738,1.643-0.689,2.7c-0.427-0.153-0.82-0.346-1.175-0.572c-0.035-0.44,0.134-1.342,0.501-2.22
			c0.167-0.395-0.02-0.85-0.416-1.017c-0.392-0.166-0.85,0.02-1.017,0.415c-0.12,0.285-0.334,0.846-0.478,1.482
			c-0.506-0.752-0.692-1.59-0.436-2.358c0.378-1.13,1.669-1.862,3.286-1.862c0.607,0,1.222,0.103,1.828,0.305
			c1.142,0.382,2.097,1.067,2.689,1.929C53.365,52.927,53.527,53.775,53.278,54.521z"/>
		<g>
			<path fill="#FFFFFF" d="M43.549,63.866c-0.677,0.947-1.553,2.483-1.303,3.529c0.026,0.105,0.068,0.202,0.117,0.295
				c0.495-0.336,1.171-0.308,1.698-0.088l-0.434,1.061c0.105,0.105,0.184,0.235,0.216,0.383c0.07,0.065,0.372,0.288,1.294,0.38
				c0.059,0.006,0.117,0.018,0.173,0.038c0.127-0.02,0.794-0.197,2.069-1.767L43.549,63.866z"/>
			<path fill="#FBB004" d="M48.963,67.082l-4.935-4.936c-0.152-0.152-0.366-0.238-0.575-0.226c-0.214,0.006-0.416,0.102-0.559,0.263
				c-0.281,0.319-2.728,3.19-2.161,5.571c0.149,0.629,0.574,1.467,1.734,2.035c0.247,0.446,0.867,0.998,2.41,1.174
				c0.106,0.033,0.241,0.059,0.408,0.059c1.034,0,2.296-0.984,3.75-2.923C49.268,67.788,49.236,67.355,48.963,67.082z
				 M45.308,69.463c-0.056-0.02-0.114-0.032-0.173-0.038c-0.922-0.091-1.224-0.314-1.294-0.38c-0.032-0.147-0.111-0.278-0.216-0.383
				l0.434-1.061c-0.527-0.22-1.203-0.247-1.698,0.088c-0.049-0.093-0.091-0.19-0.117-0.295c-0.25-1.046,0.626-2.581,1.303-3.529
				l3.829,3.829C46.102,69.265,45.436,69.443,45.308,69.463z"/>
		</g>
		<path fill="#FBB004" d="M63.519,69.618l-6.978,0.131c-0.216,0.005-0.425,0.099-0.562,0.257c-0.144,0.159-0.216,0.371-0.199,0.585
			c0.036,0.424,0.405,4.178,2.514,5.422c0.556,0.328,1.454,0.603,2.668,0.162c0.493,0.131,1.321,0.067,2.517-0.922
			c0.097-0.055,0.21-0.134,0.325-0.254c0.718-0.745,0.885-2.337,0.497-4.728C64.24,69.888,63.906,69.61,63.519,69.618z
			 M62.699,73.902c-0.053,0.026-0.102,0.059-0.147,0.097c-0.706,0.601-1.075,0.664-1.171,0.67c-0.129-0.08-0.276-0.114-0.425-0.111
			l-0.463-1.049c-0.524,0.226-1.013,0.694-1.114,1.285c-0.102-0.03-0.2-0.067-0.293-0.122c-0.928-0.545-1.426-2.241-1.638-3.386
			l5.414-0.102C63.108,73.193,62.774,73.796,62.699,73.902z"/>
		<path fill="#FBB004" d="M76.724,63.512l-4.909,3.119c-0.152,0.097-0.261,0.255-0.29,0.427c-0.033,0.176,0.009,0.358,0.114,0.503
			c0.208,0.285,2.1,2.798,4.14,2.769c0.537-0.009,1.297-0.203,1.969-1.043c0.407-0.12,0.969-0.524,1.391-1.748
			c0.046-0.08,0.093-0.187,0.123-0.322c0.187-0.841-0.384-2.047-1.698-3.58C77.354,63.392,76.996,63.339,76.724,63.512z M78,66.917
			c-0.026,0.043-0.047,0.088-0.062,0.134c-0.241,0.733-0.478,0.938-0.544,0.984c-0.126,0-0.246,0.039-0.349,0.106l-0.785-0.547
			c-0.275,0.389-0.419,0.934-0.237,1.398c-0.083,0.023-0.172,0.039-0.261,0.041c-0.897,0.014-1.986-0.976-2.634-1.699l3.81-2.422
			C77.983,66.235,78.007,66.81,78,66.917z"/>
		<path fill="#FFFFFF" d="M45.313,69.492c-0.056-0.02-0.114-0.032-0.173-0.038c-0.922-0.091-1.222-0.314-1.294-0.38
			c-0.032-0.147-0.109-0.278-0.216-0.383l0.436-1.061c-0.527-0.22-1.203-0.247-1.698,0.088c-0.05-0.093-0.093-0.19-0.117-0.295
			c-0.25-1.046,0.626-2.581,1.303-3.529l3.829,3.829C46.107,69.294,45.44,69.472,45.313,69.492z"/>
		<path fill="#FFFFFF" d="M62.699,73.902c-0.053,0.026-0.102,0.059-0.147,0.097c-0.706,0.601-1.075,0.664-1.171,0.67
			c-0.129-0.08-0.276-0.114-0.425-0.111l-0.463-1.049c-0.524,0.226-1.013,0.694-1.114,1.285c-0.102-0.03-0.2-0.067-0.293-0.122
			c-0.928-0.545-1.426-2.241-1.638-3.386l5.414-0.102C63.108,73.193,62.774,73.796,62.699,73.902z"/>
		<path fill="#FFFFFF" d="M77.848,66.842c-0.026,0.042-0.046,0.087-0.061,0.134c-0.243,0.733-0.478,0.938-0.544,0.984
			c-0.126,0-0.246,0.039-0.351,0.106l-0.785-0.547c-0.273,0.389-0.419,0.934-0.235,1.397c-0.085,0.024-0.172,0.041-0.263,0.043
			c-0.896,0.014-1.984-0.978-2.633-1.701l3.81-2.42C77.833,66.16,77.855,66.734,77.848,66.842z"/>
	</g>
</g>
</svg>
