<?xml version="1.0" encoding="utf-8"?>
<!-- Generator: Adobe Illustrator 21.0.2, SVG Export Plug-In . SVG Version: 6.00 Build 0)  -->
<svg version="1.0" xmlns="http://www.w3.org/2000/svg" xmlns:xlink="http://www.w3.org/1999/xlink" x="0px" y="0px"
	 viewBox="0 0 96 96" enable-background="new 0 0 96 96" xml:space="preserve">
<g id="Guidelines">
</g>
<g id="Your_Icons">
	<g>
		<g>
			<g>
				<path fill="none" stroke="#FBB004" stroke-width="1.5" stroke-linecap="round" stroke-linejoin="round" d="M51.028,74.118
					c-8.671,1.529-16.941-4.26-18.47-12.932c-0.603-3.418-0.068-6.774,1.331-9.679"/>
				<g>
					<polygon fill="#FBB004" points="35.557,56.282 33.321,52.698 29.188,51.82 37.662,46.502 					"/>
				</g>
			</g>
		</g>
		<g>
			<g>
				<path fill="none" stroke="#FBB004" stroke-width="1.5" stroke-linecap="round" stroke-linejoin="round" d="M43.831,43.6
					c8.671-1.529,16.941,4.26,18.47,12.932c0.603,3.418,0.068,6.774-1.331,9.679"/>
				<g>
					<polygon fill="#FBB004" points="59.302,61.436 61.539,65.02 65.671,65.898 57.198,71.216 					"/>
				</g>
			</g>
		</g>
	</g>
	<g>
		<path fill="#FEE7B3" stroke="#FBB040" stroke-width="1.5" stroke-miterlimit="10" d="M17.975,14.663
			c0,1.519-0.02,2.977,0.004,4.434c0.044,2.651,1.473,4.744,3.814,5.636c2.509,0.957,5.452,0.34,7.166-1.514
			c1.017-1.1,1.557-2.406,1.577-3.904c0.021-1.528,0.005-3.057,0.005-4.629c11.125,0,22.186,0,33.358,0
			c0,0.267-0.006,0.543,0.001,0.819c0.04,1.626-0.085,3.278,0.161,4.872c0.425,2.756,2.888,4.704,5.688,4.758
			c3.246,0.062,5.584-1.409,6.418-4.125c0.214-0.696,0.265-1.457,0.289-2.192c0.044-1.361,0.013-2.724,0.013-4.25
			c0.9,0.142,1.731,0.201,2.522,0.409c4.11,1.08,7.049,4.834,7.053,9.084c0.017,17.47,0.021,34.94-0.002,52.41
			c-0.007,5.271-4.242,9.371-9.663,9.437c-2.228,0.027-4.457,0.005-6.686,0.005c-17.111,0-34.221-0.002-51.332,0.002
			c-3.81,0.001-6.752-1.556-8.718-4.845c-0.84-1.405-1.245-2.952-1.245-4.59c-0.005-17.47-0.014-34.94,0.004-52.41
			c0.005-4.929,3.895-9.04,8.806-9.406C17.42,14.649,17.635,14.663,17.975,14.663z M80.582,35.705c-22.286,0-44.486,0-66.72,0
			c0,0.32,0,0.583,0,0.845c0,13.11,0,26.221,0,39.331c0,2.923,1.613,4.553,4.524,4.553c19.222,0.002,38.445,0.002,57.667,0
			c2.906,0,4.528-1.637,4.528-4.553c0-13.11,0-26.221,0-39.331C80.582,36.289,80.582,36.026,80.582,35.705z"/>
		<path fill="#FBB040" d="M27.984,14.67c0,1.46,0.011,2.921-0.003,4.381c-0.02,2.199-1.428,3.52-3.729,3.519
			c-2.272-0.001-3.73-1.354-3.743-3.524c-0.018-2.945-0.016-5.89-0.001-8.834c0.012-2.207,1.484-3.581,3.786-3.574
			c2.26,0.007,3.673,1.372,3.689,3.579C27.993,11.701,27.984,13.185,27.984,14.67z"/>
		<path fill="#FBB040" d="M66.456,14.613c0-1.484-0.011-2.969,0.003-4.453c0.02-2.154,1.446-3.512,3.673-3.522
			c2.274-0.01,3.777,1.337,3.799,3.486c0.03,2.993,0.029,5.986,0,8.978c-0.02,2.053-1.461,3.448-3.512,3.463
			c-0.453,0.003-0.919,0.013-1.356-0.084c-1.516-0.337-2.568-1.63-2.598-3.2c-0.029-1.556-0.006-3.112-0.006-4.669H66.456z"/>
	</g>
</g>
</svg>
