<?xml version="1.0" encoding="utf-8"?>
<!-- Generator: Adobe Illustrator 21.0.2, SVG Export Plug-In . SVG Version: 6.00 Build 0)  -->
<svg version="1.0" xmlns="http://www.w3.org/2000/svg" xmlns:xlink="http://www.w3.org/1999/xlink" x="0px" y="0px"
	 viewBox="0 0 96 96" enable-background="new 0 0 96 96" xml:space="preserve">
<g id="Guidelines">
</g>
<g id="Your_Icons">
	<g>
		<polygon fill="#FFFFFF" points="21,80.3 29.279,62.233 46.75,70.239 38.471,88.306 31.82,80.453 		"/>
		<path fill="#FBB004" d="M39.607,88.827l6.78-14.794c0.25-0.546,0.021-1.176-0.506-1.464c-0.041-0.022-0.081-0.045-0.122-0.069
			c-0.592-0.349-1.35-0.151-1.636,0.473l-5.232,11.416c-0.343,0.749-1.349,0.887-1.881,0.258l-3.906-4.611
			c-0.444-0.524-1.093-0.831-1.78-0.84l-6.662-0.095c-0.813-0.012-1.346-0.856-1.006-1.595l4.787-11.596
			c0.41-0.893-0.375-1.797-1.345-1.636c-0.008,0.001-0.017,0.003-0.025,0.004c-0.408,0.061-0.775,0.279-0.947,0.654l-6.262,14.847
			c-0.176,0.384-0.146,0.831,0.079,1.188c0.03,0.048,0.064,0.094,0.1,0.138c0.232,0.276,0.574,0.44,0.939,0.445l9.739,0.138
			c0.325,0.005,0.632,0.15,0.843,0.398l5.953,7.028c0.276,0.326,0.701,0.489,1.124,0.43C39.065,89.486,39.429,89.216,39.607,88.827z
			"/>
	</g>
	<g>
		<polygon fill="#FFFFFF" points="57.63,89.093 49.136,71.126 66.511,62.912 75.005,80.879 64.714,80.912 		"/>
		<path fill="#FBB004" d="M76.135,80.344l-6.956-14.712c-0.257-0.543-0.886-0.773-1.446-0.555c-0.043,0.017-0.087,0.033-0.132,0.049
			c-0.648,0.228-0.985,0.935-0.691,1.556l5.367,11.353c0.352,0.745-0.189,1.603-1.013,1.606l-6.042,0.02
			c-0.687,0.002-1.339,0.302-1.789,0.821l-4.361,5.037c-0.532,0.615-1.521,0.479-1.868-0.257l-5.959-12.633
			c-0.396-0.839-1.594-0.871-2.011-0.042c-0.024,0.047-0.049,0.092-0.075,0.135c-0.216,0.352-0.286,0.773-0.11,1.146L56.5,89.627
			c0.181,0.382,0.542,0.647,0.96,0.704c0.057,0.008,0.113,0.012,0.17,0.012c0.36,0,0.706-0.156,0.945-0.432l6.376-7.364
			c0.213-0.246,0.522-0.388,0.847-0.389l9.211-0.031c0.428-0.001,0.825-0.221,1.053-0.583C76.29,81.184,76.317,80.731,76.135,80.344
			z"/>
	</g>
	<path fill="#FBB004" d="M47.36,75.75c-0.371,0-0.723-0.165-0.96-0.45l-4.261-5.111l-5.891,3.09
		c-0.328,0.173-0.716,0.191-1.06,0.048c-0.343-0.142-0.604-0.429-0.715-0.783l-1.978-6.347l-6.629,0.6
		c-0.366,0.033-0.734-0.099-0.996-0.361c-0.263-0.263-0.395-0.627-0.361-0.997l0.604-6.625l-6.351-1.981
		c-0.354-0.11-0.641-0.373-0.783-0.715c-0.142-0.343-0.124-0.73,0.048-1.059l3.09-5.891l-5.111-4.261
		c-0.284-0.237-0.449-0.589-0.449-0.96c0-0.371,0.165-0.723,0.45-0.96l5.11-4.257l-3.09-5.894c-0.172-0.329-0.189-0.717-0.047-1.059
		c0.142-0.343,0.429-0.604,0.782-0.715l6.351-1.978l-0.604-6.628c-0.033-0.37,0.099-0.735,0.361-0.997
		c0.262-0.262,0.619-0.397,0.997-0.361l6.629,0.603l1.977-6.347c0.11-0.354,0.372-0.641,0.715-0.783
		c0.344-0.141,0.732-0.125,1.059,0.048l5.892,3.087l4.261-5.111c0.475-0.57,1.445-0.57,1.92,0l4.261,5.111l5.889-3.087
		c0.327-0.172,0.717-0.189,1.059-0.048c0.343,0.142,0.604,0.429,0.715,0.783l1.98,6.348l6.626-0.603
		c0.372-0.039,0.734,0.098,0.997,0.36s0.395,0.627,0.361,0.997l-0.601,6.628l6.351,1.978c0.354,0.11,0.641,0.372,0.782,0.715
		c0.143,0.342,0.125,0.73-0.047,1.059l-3.091,5.894l5.11,4.257c0.285,0.237,0.45,0.589,0.45,0.96c0,0.371-0.165,0.723-0.449,0.96
		l-5.111,4.261l3.09,5.891c0.173,0.328,0.19,0.716,0.049,1.059c-0.143,0.342-0.429,0.604-0.783,0.715l-6.351,1.981l0.601,6.625
		c0.033,0.369-0.099,0.734-0.361,0.997c-0.262,0.262-0.631,0.394-0.996,0.361l-6.627-0.6l-1.98,6.348
		c-0.11,0.354-0.372,0.641-0.715,0.783c-0.342,0.143-0.73,0.125-1.06-0.048l-5.888-3.09L48.32,75.3
		C48.083,75.585,47.731,75.75,47.36,75.75z M42.452,67.363c0.362,0,0.717,0.157,0.961,0.45l3.947,4.735l3.947-4.735
		c0.376-0.452,1.015-0.583,1.541-0.307l5.454,2.863l1.835-5.88c0.175-0.563,0.716-0.928,1.306-0.873l6.14,0.556l-0.557-6.138
		c-0.053-0.586,0.311-1.131,0.873-1.306l5.883-1.835l-2.862-5.458c-0.274-0.521-0.146-1.164,0.306-1.541l4.735-3.947l-4.734-3.944
		c-0.453-0.377-0.581-1.019-0.308-1.541l2.863-5.46l-5.883-1.833c-0.563-0.175-0.926-0.719-0.873-1.306l0.557-6.141l-6.139,0.559
		c-0.59,0.059-1.132-0.31-1.307-0.873l-1.835-5.881l-5.455,2.86c-0.522,0.275-1.164,0.145-1.54-0.307l-3.947-4.735l-3.947,4.735
		c-0.377,0.451-1.019,0.582-1.54,0.307l-5.457-2.86l-1.832,5.88c-0.176,0.563-0.727,0.931-1.307,0.873l-6.141-0.559l0.559,6.14
		c0.053,0.587-0.311,1.131-0.873,1.307l-5.884,1.833l2.863,5.46c0.273,0.522,0.146,1.164-0.308,1.541l-4.734,3.944l4.735,3.947
		c0.452,0.377,0.58,1.019,0.307,1.541l-2.863,5.458l5.884,1.835c0.563,0.175,0.926,0.72,0.873,1.307l-0.559,6.138l6.142-0.556
		c0.581-0.054,1.13,0.31,1.306,0.874l1.831,5.879l5.457-2.863C42.057,67.41,42.256,67.363,42.452,67.363z"/>
	<path fill="none" stroke="#FBB004" stroke-width="1.5" stroke-miterlimit="10" d="M65.333,59.728l-0.312-2.097
		c-0.12-1.111,0.256-2.208,1.029-3.01c0.42-0.436,0.946-0.766,1.521-0.956l2.899-0.964c0.05-0.017,0.073-0.075,0.048-0.122
		l-1.469-2.681c-0.793-1.449-0.558-3.217,0.584-4.401c0.084-0.088,0.174-0.171,0.267-0.251l2.302-1.99
		c0.04-0.035,0.039-0.097-0.002-0.131l-2.332-1.872c-1.41-1.132-1.838-3.095-1.026-4.711l1.343-2.673
		c0.024-0.048-0.001-0.105-0.052-0.12L67.26,32.91c-1.735-0.507-2.881-2.156-2.749-3.959l0.218-2.981
		c0.004-0.053-0.041-0.097-0.094-0.091l-2.974,0.326c-1.796,0.197-3.486-0.888-4.055-2.604l-0.941-2.839
		c-0.017-0.05-0.075-0.073-0.122-0.048l-2.628,1.44c-1.584,0.868-3.558,0.512-4.739-0.854l-1.957-2.264
		c-0.035-0.04-0.097-0.039-0.131,0.002l-1.92,2.389c-0.069,0.086-0.145,0.173-0.224,0.255c-1.145,1.187-2.905,1.488-4.38,0.748
		l-2.73-1.37c-0.047-0.024-0.105,0.001-0.12,0.052l-0.858,2.938c-0.17,0.581-0.481,1.117-0.9,1.551
		c-0.775,0.804-1.858,1.218-2.971,1.138l-3.055-0.22c-0.053-0.004-0.096,0.041-0.091,0.094l0.331,3.045
		c0.122,1.108-0.252,2.205-1.027,3.009c-0.419,0.434-0.944,0.765-1.518,0.956l-2.905,0.964c-0.05,0.017-0.073,0.075-0.048,0.122
		l1.361,2.485c0.792,1.447,0.708,3.292-0.401,4.514c-0.103,0.113-0.212,0.22-0.33,0.322l-2.314,2.002
		c-0.04,0.035-0.039,0.097,0.002,0.131l2.33,1.872c1.41,1.132,1.837,3.095,1.027,4.711l-1.341,2.674
		c-0.024,0.048,0.001,0.105,0.052,0.12l2.872,0.838c1.734,0.506,2.88,2.155,2.749,3.957l-0.217,2.983
		c-0.004,0.053,0.041,0.097,0.094,0.091l2.97-0.326c1.798-0.197,3.489,0.888,4.058,2.604l0.942,2.839
		c0.017,0.05,0.075,0.073,0.122,0.048l2.622-1.438c1.585-0.87,3.562-0.514,4.745,0.853l1.957,2.263
		c0.035,0.04,0.097,0.039,0.131-0.002l1.917-2.388c0.065-0.082,0.146-0.175,0.231-0.263c1.142-1.185,2.901-1.482,4.376-0.741
		l2.733,1.369c0.047,0.024,0.105-0.001,0.12-0.052l0.859-2.937c0.167-0.577,0.479-1.115,0.899-1.55
		c0.775-0.804,2.097-1.065,2.972-1.137s3.208,1.261,3.292,0.969C65.583,61.228,65.333,59.728,65.333,59.728z"/>
	
		<line fill="none" stroke="#FBB004" stroke-width="1.5" stroke-linecap="round" stroke-linejoin="round" stroke-miterlimit="10" x1="69.316" y1="80.637" x2="61.768" y2="64.671"/>
	<g>
		
			<polyline fill="none" stroke="#FBB004" stroke-width="2.4143" stroke-linecap="round" stroke-linejoin="round" stroke-miterlimit="10" points="
			33.1,51.847 33.1,40.028 30.686,40.983 		"/>
		
			<path fill="none" stroke="#FBB004" stroke-width="2.4143" stroke-linecap="round" stroke-linejoin="round" stroke-miterlimit="10" d="
			M43.964,46.059c0,3.336-0.997,6.038-3.621,6.038c-2.622,0-3.621-2.702-3.621-6.038c0-3.331,1-6.033,3.621-6.033
			C42.967,40.025,43.964,42.727,43.964,46.059z"/>
		
			<path fill="none" stroke="#FBB004" stroke-width="2.4143" stroke-linecap="round" stroke-linejoin="round" stroke-miterlimit="10" d="
			M53.621,46.059c0,3.336-0.997,6.038-3.621,6.038c-2.622,0-3.621-2.702-3.621-6.038c0-3.331,1-6.033,3.621-6.033
			C52.624,40.025,53.621,42.727,53.621,46.059z"/>
		
			<path fill="none" stroke="#FBB004" stroke-width="2.4143" stroke-linecap="round" stroke-linejoin="round" stroke-miterlimit="10" d="
			M63.278,46.059c0,3.336-0.997,6.038-3.621,6.038c-2.622,0-3.621-2.702-3.621-6.038c0-3.331,1-6.033,3.621-6.033
			C62.281,40.025,63.278,42.727,63.278,46.059z"/>
	</g>
	<polygon opacity="0.3" fill="#FBB004" points="32.75,67.561 35.75,72.228 40.75,70.478 34.402,84.487 31.356,80.711 26.795,80.649 
			"/>
	
		<line fill="none" stroke="#FBB004" stroke-width="1.5" stroke-linecap="round" stroke-linejoin="round" stroke-miterlimit="10" x1="26.684" y1="80.242" x2="33.417" y2="65.728"/>
	
		<line fill="none" stroke="#FBB004" stroke-width="1.5" stroke-linecap="round" stroke-linejoin="round" stroke-miterlimit="10" x1="34.581" y1="83.976" x2="41.958" y2="68.728"/>
	<path opacity="0.3" fill="#FBB004" d="M60.707,67.406l-1.082,4.739c-1.037,0.49-4.401-1.119-3.911-0.082l4.665,9.868
		c0.691,1.462,2.715,1.607,3.608,0.259l0.112-0.169c0.416-0.628,1.14-0.981,1.891-0.923h0c1.585,0.122,2.714-1.509,2.041-2.949
		l-4.554-9.745C62.988,67.361,61.747,66.914,60.707,67.406z"/>
	
		<line fill="none" stroke="#FBB004" stroke-width="1.5" stroke-linecap="round" stroke-linejoin="round" stroke-miterlimit="10" x1="61.419" y1="84.37" x2="54.5" y2="69.644"/>
</g>
</svg>
