<?xml version="1.0" encoding="utf-8"?>
<!-- Generator: Adobe Illustrator 21.0.2, SVG Export Plug-In . SVG Version: 6.00 Build 0)  -->
<svg version="1.0" xmlns="http://www.w3.org/2000/svg" xmlns:xlink="http://www.w3.org/1999/xlink" x="0px" y="0px"
	 viewBox="0 0 96 96" enable-background="new 0 0 96 96" xml:space="preserve">
<g id="Guidelines">
</g>
<g id="Your_Icons">
	<polygon fill="#FEE7B3" points="73.715,53.119 73.715,45.168 86.046,45.168 84.092,49.211 85.844,53.052 	"/>
	<polygon fill="#FEE7B3" points="22.035,45.033 22.035,52.984 9.704,52.984 11.658,48.941 9.906,45.101 	"/>
	
		<polygon fill="none" stroke="#FBB004" stroke-width="2.0214" stroke-linecap="round" stroke-linejoin="round" stroke-miterlimit="10" points="
		7.75,57.97 26.145,57.97 26.145,40.182 7.75,40.182 11.793,48.807 	"/>
	
		<line fill="none" stroke="#FBB004" stroke-width="1.2128" stroke-linecap="round" stroke-linejoin="round" stroke-miterlimit="10" x1="10.203" y1="44.846" x2="26.549" y2="44.846"/>
	
		<line fill="none" stroke="#FBB004" stroke-width="1.2128" stroke-linecap="round" stroke-linejoin="round" stroke-miterlimit="10" x1="10.203" y1="52.932" x2="26.549" y2="52.932"/>
	
		<polygon fill="none" stroke="#FBB004" stroke-width="2.0214" stroke-linecap="round" stroke-linejoin="round" stroke-miterlimit="10" points="
		88,40.182 69.605,40.182 69.605,57.97 88,57.97 83.957,49.346 	"/>
	
		<line fill="none" stroke="#FBB004" stroke-width="1.2128" stroke-linecap="round" stroke-linejoin="round" stroke-miterlimit="10" x1="85.547" y1="53.306" x2="69.201" y2="53.306"/>
	
		<line fill="none" stroke="#FBB004" stroke-width="1.2128" stroke-linecap="round" stroke-linejoin="round" stroke-miterlimit="10" x1="85.547" y1="45.22" x2="69.201" y2="45.22"/>
	<g>
		<circle fill="#FFFFFF" cx="48.38" cy="48.268" r="28.704"/>
	</g>
	<g>
		<circle fill="#FEE7B3" cx="48.38" cy="48.268" r="28.704"/>
	</g>
	<g>
		<path fill="#FFFFFF" d="M48.38,69.424c-11.666,0-21.156-9.49-21.156-21.156s9.491-21.156,21.156-21.156s21.156,9.49,21.156,21.156
			S60.046,69.424,48.38,69.424z"/>
		<path fill="#FBB004" d="M48.38,27.718c11.331,0,20.55,9.219,20.55,20.55s-9.219,20.55-20.55,20.55s-20.55-9.219-20.55-20.55
			S37.049,27.718,48.38,27.718 M48.38,26.505c-12.019,0-21.763,9.743-21.763,21.763c0,12.019,9.743,21.763,21.763,21.763
			c12.019,0,21.763-9.743,21.763-21.763C70.143,36.248,60.4,26.505,48.38,26.505L48.38,26.505z"/>
	</g>
	<g>
		<path fill="#FBB004" d="M48.38,21.585c14.713,0,26.683,11.97,26.683,26.683c0,14.713-11.97,26.683-26.683,26.683
			c-14.713,0-26.683-11.97-26.683-26.683C21.698,33.555,33.667,21.585,48.38,21.585 M48.38,19.564
			c-15.853,0-28.704,12.851-28.704,28.704c0,15.853,12.851,28.704,28.704,28.704S77.084,64.12,77.084,48.268
			C77.084,32.415,64.233,19.564,48.38,19.564L48.38,19.564z"/>
	</g>
	
		<line fill="none" stroke="#FBB004" stroke-width="1.2128" stroke-linecap="round" stroke-miterlimit="10" x1="58.5" y1="39.5" x2="45.231" y2="59.317"/>
	<g>
		<path fill="#FBB040" d="M30.768,50.861l0.017-1.762l1.623-1.44c2.742-2.406,4.076-3.791,4.128-5.247
			c0.009-1.015-0.596-1.824-2.032-1.838c-1.072-0.011-2.016,0.517-2.671,1.009l-0.804-2.095c0.945-0.7,2.406-1.261,4.091-1.245
			c2.815,0.026,4.35,1.688,4.329,3.947c-0.02,2.088-1.548,3.739-3.363,5.331l-1.158,0.946l0,0.039l4.692,0.044l-0.022,2.394
			L30.768,50.861z"/>
		<path fill="#FBB040" d="M46.55,51.01l0.028-2.968l-5.515-0.052l0.018-1.896l4.783-7.538l3.562,0.033l-0.069,7.296l1.494,0.014
			l-0.021,2.184l-1.494-0.015l-0.028,2.968L46.55,51.01z M46.599,45.858l0.026-2.757c0.007-0.747,0.052-1.513,0.118-2.316
			l-0.077-0.001c-0.41,0.801-0.742,1.525-1.17,2.307l-1.691,2.703l0,0.038L46.599,45.858z"/>
	</g>
	<g>
		<path fill="#FBB040" d="M64.809,46.498l-0.018,1.839l-5.232,10.56l-3.083-0.029l5.226-9.966l0-0.039l-5.706-0.054l0.022-2.394
			L64.809,46.498z"/>
	</g>
</g>
</svg>
