<?xml version="1.0" encoding="utf-8"?>
<!-- Generator: Adobe Illustrator 21.0.2, SVG Export Plug-In . SVG Version: 6.00 Build 0)  -->
<svg version="1.0" xmlns="http://www.w3.org/2000/svg" xmlns:xlink="http://www.w3.org/1999/xlink" x="0px" y="0px"
	 viewBox="0 0 96 96" enable-background="new 0 0 96 96" xml:space="preserve">
<g id="Guidelines">
</g>
<g id="Your_Icons">
	<g>
		
			<path fill="#FFFFFF" stroke="#FBB040" stroke-width="1.5583" stroke-linecap="round" stroke-linejoin="round" stroke-miterlimit="10" d="
			M69.606,65.651H25.644c-0.77,0-1.394-0.624-1.394-1.394V42.735c0-0.77,0.624-1.394,1.394-1.394h43.962
			c0.77,0,1.394,0.624,1.394,1.394v21.522C71,65.027,70.376,65.651,69.606,65.651z"/>
		
			<path fill="#FFFFFF" stroke="#FBB040" stroke-width="1.5583" stroke-linecap="round" stroke-linejoin="round" stroke-miterlimit="10" d="
			M69.633,60.249H25.617c-0.755,0-1.367-0.612-1.367-1.367V37.306c0-0.755,0.612-1.367,1.367-1.367h44.015
			c0.755,0,1.367,0.612,1.367,1.367v21.575C71,59.637,70.388,60.249,69.633,60.249z"/>
		<path opacity="0.4" fill="#FBB004" d="M64.855,38.791H30.629c-0.61,1.583-1.877,2.834-3.469,3.423v11.758
			c1.593,0.59,2.86,1.841,3.469,3.423h34.225c0.58-1.505,1.752-2.716,3.236-3.338V42.129C66.606,41.507,65.434,40.297,64.855,38.791
			z"/>
		<circle fill="#FFFFFF" cx="47.391" cy="48.328" r="6"/>
		<circle fill="#FFFFFF" cx="35.86" cy="48.328" r="1.159"/>
		<g>
			<g>
				<path fill="#FBB004" d="M47.432,48.984c-0.589,0-1.148-0.187-1.572-0.527c-0.456-0.365-0.707-0.86-0.707-1.392
					c0-0.533,0.251-1.028,0.707-1.393c0.862-0.69,2.41-0.663,3.312,0.059c0.207,0.166,0.24,0.467,0.075,0.674
					c-0.165,0.207-0.467,0.241-0.675,0.075c-0.541-0.433-1.608-0.462-2.113-0.059c-0.224,0.179-0.347,0.408-0.347,0.644
					s0.123,0.464,0.347,0.643c0.255,0.204,0.601,0.317,0.973,0.317c0.265,0,0.48,0.215,0.48,0.48S47.697,48.984,47.432,48.984z"/>
				<path fill="#FBB004" d="M47.418,51.837c-0.625,0-1.261-0.187-1.726-0.559c-0.207-0.166-0.24-0.468-0.075-0.675
					c0.166-0.207,0.467-0.24,0.675-0.075c0.541,0.433,1.607,0.462,2.112,0.059c0.224-0.179,0.347-0.408,0.347-0.644
					s-0.123-0.465-0.347-0.644c-0.255-0.204-0.6-0.316-0.972-0.316c-0.265,0-0.48-0.215-0.48-0.48s0.215-0.48,0.48-0.48
					c0.589,0,1.147,0.187,1.572,0.526c0.456,0.365,0.708,0.86,0.708,1.393s-0.251,1.028-0.708,1.393
					C48.586,51.671,48.006,51.837,47.418,51.837z"/>
			</g>
			<path fill="#FBB004" d="M47.432,46.104c-0.265,0-0.48-0.215-0.48-0.48v-1.047c0-0.265,0.215-0.48,0.48-0.48
				c0.265,0,0.48,0.215,0.48,0.48v1.047C47.912,45.889,47.697,46.104,47.432,46.104z"/>
			<path fill="#FBB004" d="M47.432,52.91c-0.265,0-0.48-0.215-0.48-0.48v-1.047c0-0.265,0.215-0.48,0.48-0.48
				c0.265,0,0.48,0.215,0.48,0.48v1.047C47.912,52.695,47.697,52.91,47.432,52.91z"/>
		</g>
		<circle fill="#FFFFFF" cx="59.001" cy="48.328" r="1.159"/>
		
			<line fill="none" stroke="#FBB040" stroke-width="0.935" stroke-linecap="round" stroke-linejoin="round" stroke-miterlimit="10" x1="25.007" y1="62.993" x2="70.801" y2="62.993"/>
	</g>
	<path fill="#FBB004" d="M47.25,85.25c-19.023,0-34.5-15.477-34.5-34.5s15.477-34.5,34.5-34.5s34.5,15.477,34.5,34.5
		S66.273,85.25,47.25,85.25z M47.25,18.75c-17.645,0-32,14.355-32,32s14.355,32,32,32s32-14.355,32-32S64.895,18.75,47.25,18.75z"/>
	<line fill="none" stroke="#FBB004" stroke-width="2.5" stroke-miterlimit="10" x1="22" y1="72" x2="72.5" y2="29.5"/>
</g>
</svg>
