<?xml version="1.0" encoding="utf-8"?>
<!-- Generator: Adobe Illustrator 25.2.0, SVG Export Plug-In . SVG Version: 6.00 Build 0)  -->
<svg version="1.1" id="Layer_1" xmlns="http://www.w3.org/2000/svg" xmlns:xlink="http://www.w3.org/1999/xlink" x="0px" y="0px"
	 viewBox="0 0 124 124" style="enable-background:new 0 0 124 124;" xml:space="preserve">
<style type="text/css">
	.st0{fill:#3AC1CC;}
</style>
<path class="st0" d="M111.84,40.13l-0.02-0.12c-0.02-0.24-0.06-0.48-0.08-0.74c-0.31-2.18-1.03-4.28-2.13-6.25
	c-0.06-0.11-0.11-0.19-0.16-0.27c-0.1-0.14-0.17-0.26-0.25-0.42c-0.07-0.1-0.12-0.18-0.17-0.26l0.69-0.59l-0.75,0.49
	c-1.55-2.38-3.69-4.4-6.17-5.82l-4.88-2.81V11.05c0-1.34-1.09-2.43-2.42-2.43H28.91c-1.34,0-2.43,1.09-2.43,2.43v12.1l-0.63,0.31
	l-4.65,2.68c-2.47,1.43-4.59,3.41-6.11,5.74c-0.11,0.16-0.19,0.3-0.27,0.43c-0.08,0.16-0.16,0.27-0.24,0.41
	c-0.06,0.11-0.11,0.19-0.16,0.28c-1.11,2-1.83,4.08-2.13,6.23c-0.05,0.27-0.07,0.53-0.1,0.78l-0.02,0.13
	C12.05,40.56,12,40.99,12,41.42v38.77c0,0.08,0,0.17,0.01,0.25c0.05,0.42,0.11,0.84,0.19,1.3c0.67,5.3,3.8,10,8.38,12.63
	l32.36,18.62c0.36,0.2,0.73,0.41,1.11,0.59c0.62,0.3,1.24,0.55,1.89,0.79c1.6,0.56,3.32,0.9,5.12,1h0.33l0.77,0.01l0.44-0.01
	c0.12,0,0.24,0,0.39-0.01c1.75-0.1,3.44-0.43,5.03-0.99c0.67-0.24,1.3-0.5,1.9-0.79c0.22-0.11,2.68-1.51,30.8-17.66l2.67-1.54
	c4.59-2.63,7.72-7.34,8.39-12.6c0.08-0.44,0.16-0.88,0.2-1.39V41.42C112,40.99,111.95,40.55,111.84,40.13z M26.48,92.18L23,90.17
	c-3.3-1.89-5.54-5.28-5.99-9.06V81.1c-0.01-0.05-0.02-0.11-0.04-0.16c-0.05-0.29-0.1-0.56-0.13-0.84V41.37l0.04-0.12
	c0.05-0.17,0.08-0.33,0.1-0.5c0.02-0.26,0.05-0.5,0.1-0.8c0.23-1.6,0.77-3.16,1.58-4.61l0.11-0.18c0.07-0.12,0.13-0.23,0.2-0.33
	l0.08-0.13h-0.01l0.06-0.08c1.15-1.75,2.7-3.23,4.52-4.27l2.87-1.65V92.18z M59.92,110.43l-1.11-0.27
	c-0.43-0.11-0.85-0.22-1.26-0.37c-0.47-0.16-0.93-0.35-1.4-0.57c-0.3-0.14-0.59-0.3-0.83-0.43L31.32,94.97V35.24h28.6V110.43z
	 M93.09,94.72l-0.45,0.26c-15.35,8.82-23.92,13.75-24.82,14.24l-0.05,0.02c-0.42,0.2-0.85,0.38-1.34,0.55
	c-0.11,0.04-0.24,0.08-0.36,0.12l-1.3,0.41v-8.51l28.32-15.99V94.72z M93.09,80.48l-0.62,0.2c-0.17,0.05-0.32,0.12-0.45,0.19
	L64.76,96.25V85.24l28.32-15.97V80.48z M93.09,63.91l-0.62,0.2c-0.16,0.05-0.31,0.12-0.47,0.2L64.76,79.69V68.68l28.32-15.98V63.91z
	 M93.09,47.35l-0.62,0.2c-0.17,0.05-0.32,0.11-0.47,0.19L64.76,63.12V52.11l28.32-15.99V47.35z M64.76,46.55V35.24H84.8L64.76,46.55
	z M93.09,30.39H31.32V13.46h61.76V30.39z M107.16,80.12c-0.04,0.26-0.07,0.51-0.12,0.78L107,81.12c-0.45,3.77-2.7,7.16-6,9.05
	l-0.37,0.22c-0.06,0.04-0.55,0.31-1.36,0.78l-1.34,0.78V28.91l2.46,1.42c1.82,1.04,3.37,2.5,4.48,4.2l0.24,0.38
	c0.07,0.12,0.11,0.18,0.14,0.24l0.06,0.12c0.86,1.52,1.4,3.07,1.61,4.66c0.05,0.29,0.07,0.55,0.1,0.81c0.02,0.17,0.05,0.32,0.1,0.48
	l0.04,0.26V80.12z"/>
</svg>
