<?xml version="1.0" encoding="UTF-8"?><svg id="Integration" xmlns="http://www.w3.org/2000/svg" viewBox="0 0 124 124"><defs><style>.cls-1{fill:#59c5c7;}</style></defs><g id="CCU_Icon_Hex_Shape_Light"><path class="cls-1" d="M99.46,79.14c-.03,.2-.06,.39-.1,.6l-.03,.19c-.38,3.05-2.18,5.77-4.84,7.3l-2.15,1.24c-15.72,9.03-23.75,13.64-24.53,14.08-.37,.17-.72,.32-1.12,.46-.93,.33-1.92,.53-2.94,.59h-1.11c-1.13-.06-2.14-.26-3.09-.6-.38-.13-.75-.29-1.12-.47-.24-.11-.47-.23-.66-.34l-26-14.96c-2.65-1.53-4.46-4.25-4.83-7.3l-.02-.14c-.05-.21-.08-.43-.11-.65v-31.16l.03-.11c.04-.12,.07-.27,.08-.4,.02-.22,.04-.4,.07-.59,.01-.04,.01-.1,.02-.14,.2-1.3,.62-2.5,1.26-3.62l.09-.14c.05-.1,.1-.17,.14-.26h0l.13-.18c.91-1.4,2.17-2.6,3.63-3.43l26-14.94c1.45-.83,3.1-1.28,4.76-1.3h.17c1.73,.02,3.38,.46,4.8,1.28l.37,.21c.39,.22,25.45,14.63,25.66,14.74,1.46,.85,2.7,2.02,3.6,3.38l.2,.33c.05,.08,.08,.12,.11,.18l.06,.1c.68,1.2,1.11,2.43,1.29,3.71,.04,.27,.07,.48,.09,.69,0,.12,.04,.26,.08,.38l.03,.2v31.08h0Zm1.45-38.73c-1.25-1.92-2.96-3.54-4.95-4.69-11.72-6.73-25.47-14.64-25.66-14.73l-.36-.21c-2-1.14-4.29-1.77-6.63-1.8-.08,0-.14,0-.2,0h-.13c-2.36,.04-4.65,.66-6.67,1.82l-26,14.94c-1.98,1.14-3.68,2.74-4.9,4.62-.09,.12-.15,.23-.22,.35-.08,.12-.13,.22-.19,.33-.06,.09-.1,.15-.13,.22-.88,1.6-1.46,3.29-1.72,5.05v.12c-.04,.18-.05,.32-.07,.46l-.02,.11c-.09,.35-.13,.69-.13,1.04v31.18c0,.08,0,.14,0,.21,.04,.33,.09,.67,.16,1.04,.54,4.27,3.06,8.05,6.74,10.16l26.02,14.97c.29,.16,.6,.32,.89,.46,.51,.25,1,.45,1.53,.63,1.29,.46,2.66,.73,4.11,.81,.08,.01,.17,.01,.27,.01h.62c.06,0,.12,0,.18,0h.17c.1,0,.19,0,.33-.01,1.4-.08,2.77-.35,4.04-.8,.55-.19,1.06-.4,1.53-.63,.17-.09,2.14-1.2,24.77-14.2l2.15-1.24c3.69-2.12,6.21-5.9,6.75-10.14,.06-.36,.12-.71,.15-1.11,0-.06,0-.12,0-.18v-31.17c0-.36-.05-.7-.12-1.04l-.02-.11c-.02-.17-.04-.34-.07-.51-.26-1.83-.84-3.52-1.72-5.12-.05-.08-.09-.15-.12-.22-.07-.12-.13-.2-.18-.3l-.13-.22"/></g><g id="CCU_Icon_Hex_Shape_Light-2"><path class="cls-1" d="M99.46,79.14c-.03,.2-.06,.39-.1,.6l-.03,.19c-.38,3.05-2.18,5.77-4.84,7.3l-2.15,1.24c-15.72,9.03-23.75,13.64-24.53,14.08-.37,.17-.72,.32-1.12,.46-.93,.33-1.92,.53-2.94,.59h-1.11c-1.13-.06-2.14-.26-3.09-.6-.38-.13-.75-.29-1.12-.47-.24-.11-.47-.23-.66-.34l-26-14.96c-2.65-1.53-4.46-4.25-4.83-7.3l-.02-.14c-.05-.21-.08-.43-.11-.65v-31.16l.03-.11c.04-.12,.07-.27,.08-.4,.02-.22,.04-.4,.07-.59,.01-.04,.01-.1,.02-.14,.2-1.3,.62-2.5,1.26-3.62l.09-.14c.05-.1,.1-.17,.14-.26h0l.13-.18c.91-1.4,2.17-2.6,3.63-3.43l26-14.94c1.45-.83,3.1-1.28,4.76-1.3h.17c1.73,.02,3.38,.46,4.8,1.28l.37,.21c.39,.22,25.45,14.63,25.66,14.74,1.46,.85,2.7,2.02,3.6,3.38l.2,.33c.05,.08,.08,.12,.11,.18l.06,.1c.68,1.2,1.11,2.43,1.29,3.71,.04,.27,.07,.48,.09,.69,0,.12,.04,.26,.08,.38l.03,.2v31.08h0Zm1.45-38.73c-1.25-1.92-2.96-3.54-4.95-4.69-11.72-6.73-25.47-14.64-25.66-14.73l-.36-.21c-2-1.14-4.29-1.77-6.63-1.8-.08,0-.14,0-.2,0h-.13c-2.36,.04-4.65,.66-6.67,1.82l-26,14.94c-1.98,1.14-3.68,2.74-4.9,4.62-.09,.12-.15,.23-.22,.35-.08,.12-.13,.22-.19,.33-.06,.09-.1,.15-.13,.22-.88,1.6-1.46,3.29-1.72,5.05v.12c-.04,.18-.05,.32-.07,.46l-.02,.11c-.09,.35-.13,.69-.13,1.04v31.18c0,.08,0,.14,0,.21,.04,.33,.09,.67,.16,1.04,.54,4.27,3.06,8.05,6.74,10.16l26.02,14.97c.29,.16,.6,.32,.89,.46,.51,.25,1,.45,1.53,.63,1.29,.46,2.66,.73,4.11,.81,.08,.01,.17,.01,.27,.01h.62c.06,0,.12,0,.18,0h.17c.1,0,.19,0,.33-.01,1.4-.08,2.77-.35,4.04-.8,.55-.19,1.06-.4,1.53-.63,.17-.09,2.14-1.2,24.77-14.2l2.15-1.24c3.69-2.12,6.21-5.9,6.75-10.14,.06-.36,.12-.71,.15-1.11,0-.06,0-.12,0-.18v-31.17c0-.36-.05-.7-.12-1.04l-.02-.11c-.02-.17-.04-.34-.07-.51-.26-1.83-.84-3.52-1.72-5.12-.05-.08-.09-.15-.12-.22-.07-.12-.13-.2-.18-.3l-.13-.22"/></g><g><path class="cls-1" d="M85.54,61.58c0-3.95-1.04-7.66-2.84-10.89l2.45-1.36c-.75-1.35-1.63-2.64-2.62-3.83l-2.15,1.79c-2.91-3.51-6.88-6.1-11.4-7.32l.73-2.71c-1.49-.4-3.03-.67-4.57-.79l-.22,2.8c-.59-.05-1.19-.09-1.79-.09-4.17,0-8.06,1.16-11.4,3.15l-1.44-2.42c-1.33,.79-2.59,1.7-3.76,2.72l1.86,2.12c-3.42,3-5.92,7.01-7.03,11.58l-2.73-.66c-.36,1.5-.59,3.04-.67,4.59l2.81,.15c-.02,.4-.06,.79-.06,1.2,0,4.38,1.28,8.46,3.46,11.91l-2.38,1.5c.82,1.31,1.77,2.55,2.82,3.68l2.07-1.91c.48,.52,.99,1.01,1.52,1.48l2.28-3.66c-3.39-3.3-5.51-7.91-5.51-13.01,0-10.02,8.15-18.17,18.17-18.17s18.17,8.15,18.17,18.17-8.15,18.17-18.17,18.17c-1.34,0-2.64-.16-3.9-.43l-2.36,3.79c.51,.15,1.03,.29,1.56,.4l-.58,2.73c1.51,.32,3.06,.5,4.61,.55l.07-2.81c.2,0,.4,.03,.6,.03,4.59,0,8.86-1.39,12.42-3.77l1.55,2.33c1.28-.86,2.5-1.84,3.6-2.92l-1.96-2.01c3.25-3.17,5.54-7.3,6.4-11.94l2.75,.51c.28-1.51,.42-3.07,.42-4.62h-2.78Z"/><polygon class="cls-1" points="66.19 69.17 66.55 58.14 56.82 63.34 59.69 65.13 45.61 87.75 49.23 90 63.31 67.38 66.19 69.17"/></g></svg>