<?xml version="1.0" encoding="utf-8"?>
<!-- Generator: Adobe Illustrator 21.0.2, SVG Export Plug-In . SVG Version: 6.00 Build 0)  -->
<svg version="1.0" xmlns="http://www.w3.org/2000/svg" xmlns:xlink="http://www.w3.org/1999/xlink" x="0px" y="0px"
	 viewBox="0 0 96 96" enable-background="new 0 0 96 96" xml:space="preserve">
<g id="Guidelines">
</g>
<g id="Your_Icons">
	<g>
		<path fill="#FBB040" d="M43.718,41.572c0,7.367-4.659,11.213-9.751,11.213c-5.364,0-9.589-4.009-9.589-10.617
			c0-6.284,3.846-11.051,9.859-11.051C40.306,31.117,43.718,35.559,43.718,41.572z M30.501,41.951c0,3.684,1.246,6.338,3.629,6.338
			c2.329,0,3.467-2.384,3.467-6.338c0-3.576-0.975-6.338-3.521-6.338C31.638,35.613,30.501,38.43,30.501,41.951z M34.4,67.52
			l20.205-36.403h4.443L38.789,67.52H34.4z M69.07,56.198c0,7.367-4.659,11.213-9.751,11.213c-5.308,0-9.533-4.009-9.587-10.617
			c0-6.284,3.846-11.051,9.859-11.051C65.658,45.743,69.07,50.185,69.07,56.198z M55.906,56.577
			c-0.054,3.684,1.192,6.338,3.576,6.338c2.329,0,3.467-2.384,3.467-6.338c0-3.576-0.921-6.338-3.467-6.338
			C56.989,50.239,55.906,53.056,55.906,56.577z"/>
	</g>
	<g>
		<g>
			<g>
				<path fill="none" stroke="#FEE7C6" stroke-width="2.7436" stroke-linecap="round" stroke-linejoin="round" d="M73.888,74.815
					C58.08,88.656,34.044,87.061,20.203,71.253c-6.295-7.19-9.397-16.082-9.421-24.943"/>
				<g>
					<polygon fill="#FEE7C6" points="17.458,52.576 10.771,48.705 3.342,50.831 12.469,34.972 					"/>
				</g>
			</g>
		</g>
		<g>
			<g>
				<path fill="none" stroke="#FBB040" stroke-width="2.7436" stroke-linecap="round" stroke-linejoin="round" d="M21.474,21.421
					C37.282,7.58,61.318,9.175,75.159,24.984c6.295,7.19,9.397,16.082,9.421,24.943"/>
				<g>
					<polygon fill="#FBB040" points="77.904,43.661 84.591,47.532 92.02,45.406 82.893,61.265 					"/>
				</g>
			</g>
		</g>
	</g>
</g>
</svg>
