<?xml version="1.0" encoding="utf-8"?>
<!-- Generator: Adobe Illustrator 25.2.0, SVG Export Plug-In . SVG Version: 6.00 Build 0)  -->
<svg version="1.1" id="Layer_2" xmlns="http://www.w3.org/2000/svg" xmlns:xlink="http://www.w3.org/1999/xlink" x="0px" y="0px"
	 viewBox="0 0 124 124" style="enable-background:new 0 0 124 124;" xml:space="preserve">
<style type="text/css">
	.st0{fill:#3DC1CC;}
	.st1{fill:none;stroke:#3DC1CC;stroke-width:4.679;stroke-linejoin:round;stroke-miterlimit:10;}
	.st2{fill:none;stroke:#3DC1CC;stroke-width:4.679;stroke-linecap:round;stroke-linejoin:round;stroke-miterlimit:10;}
</style>
<g>
	<path class="st0" d="M113.34,41.18l-0.02-0.14c-0.02-0.22-0.05-0.43-0.09-0.65c-0.33-2.34-1.07-4.51-2.2-6.55
		c-0.06-0.1-0.11-0.2-0.16-0.28c-0.09-0.15-0.16-0.26-0.23-0.38l-0.17-0.28l0.69-0.63l-0.78,0.5c-1.6-2.46-3.79-4.53-6.34-6.01
		C89.02,18.15,71.41,8.03,71.18,7.9l-0.46-0.27c-2.56-1.47-5.49-2.27-8.48-2.3c-0.1-0.01-0.18-0.01-0.26-0.01h-0.17
		c-3.02,0.05-5.96,0.85-8.55,2.33l-33.3,19.13c-2.54,1.47-4.72,3.51-6.28,5.91c-0.11,0.16-0.2,0.3-0.28,0.44
		c-0.1,0.16-0.17,0.28-0.25,0.42c-0.07,0.11-0.12,0.2-0.17,0.28c-1.13,2.04-1.87,4.21-2.2,6.46l-0.01,0.16
		c-0.04,0.23-0.05,0.41-0.07,0.59l-0.02,0.14c-0.11,0.44-0.17,0.89-0.17,1.33v39.92c0,0.1,0.01,0.18,0.01,0.27
		c0.05,0.42,0.11,0.86,0.21,1.33c0.69,5.47,3.92,10.31,8.63,13.02l33.32,19.17c0.37,0.21,0.76,0.41,1.15,0.59
		c0.65,0.32,1.28,0.58,1.96,0.81c1.65,0.59,3.41,0.94,5.26,1.03c0.1,0.01,0.22,0.01,0.34,0.01l0.79,0.01c0.07,0,0.15-0.01,0.23-0.01
		h0.22c0.12,0,0.25,0,0.42-0.01c1.8-0.1,3.55-0.44,5.17-1.02c0.7-0.25,1.35-0.52,1.96-0.81c0.22-0.11,2.75-1.54,31.72-18.19
		l2.76-1.59c4.73-2.71,7.95-7.56,8.64-12.98c0.07-0.46,0.15-0.91,0.2-1.42c0.01-0.07,0.01-0.16,0.01-0.23V42.51
		C113.5,42.06,113.44,41.62,113.34,41.18z M108.51,82.37c-0.04,0.26-0.07,0.5-0.12,0.76l-0.04,0.25c-0.48,3.9-2.8,7.39-6.19,9.35
		l-2.76,1.59c-20.13,11.56-30.41,17.46-31.41,18.03c-0.48,0.22-0.92,0.41-1.43,0.59c-1.19,0.42-2.46,0.68-3.77,0.75l-0.89,0.01
		l-0.53-0.01c-1.45-0.07-2.75-0.33-3.95-0.76c-0.49-0.17-0.96-0.37-1.44-0.6c-0.31-0.14-0.6-0.3-0.85-0.43l-33.3-19.16
		c-3.4-1.96-5.71-5.44-6.18-9.35l-0.02-0.18c-0.06-0.27-0.1-0.55-0.14-0.84l-0.01-39.89l0.05-0.14c0.05-0.16,0.09-0.34,0.1-0.52
		c0.02-0.28,0.05-0.52,0.09-0.75c0.01-0.05,0.01-0.12,0.03-0.18c0.26-1.66,0.8-3.2,1.61-4.63l0.11-0.18
		c0.06-0.12,0.12-0.22,0.18-0.33v-0.01l0.16-0.22c1.17-1.8,2.78-3.32,4.64-4.4l33.3-19.13c1.86-1.06,3.97-1.64,6.1-1.66h0.22
		c2.22,0.02,4.32,0.59,6.14,1.64l0.47,0.27c0.51,0.28,32.59,18.73,32.86,18.88c1.87,1.08,3.46,2.59,4.61,4.32l0.26,0.42
		c0.06,0.1,0.1,0.16,0.14,0.23l0.07,0.12c0.87,1.54,1.42,3.12,1.65,4.75c0.05,0.34,0.09,0.62,0.11,0.89
		c0.01,0.16,0.05,0.33,0.1,0.49l0.04,0.26V82.37z"/>
	<g>
		<path class="st1" d="M55.92,31.27c0.81-2.69,3.34-4.53,6.21-4.53c2.87,0,5.4,1.85,6.21,4.53l0.04,0.14l0.12-0.09
			c2.27-1.71,5.43-1.75,7.75-0.11c2.32,1.65,3.26,4.59,2.3,7.23l-0.05,0.13l0.15,0c2.87-0.08,5.45,1.7,6.34,4.36
			c0.89,2.67-0.13,5.58-2.5,7.17l-0.12,0.08l0.12,0.08c2.37,1.58,3.38,4.5,2.5,7.17c-0.89,2.66-3.47,4.44-6.34,4.36l-0.15-0.01
			l0.05,0.14c0.96,2.64,0.03,5.59-2.3,7.23c-2.32,1.64-5.48,1.6-7.75-0.11l-0.12-0.09l-0.04,0.14c-0.81,2.69-3.34,4.54-6.21,4.54
			c-2.87,0-5.4-1.85-6.21-4.54l-0.04-0.14l-0.12,0.09c-2.27,1.71-5.43,1.75-7.75,0.11c-2.32-1.65-3.26-4.59-2.3-7.23l0.05-0.14
			l-0.15,0.01c-2.87,0.08-5.45-1.7-6.34-4.36c-0.89-2.67,0.13-5.58,2.5-7.17l0.12-0.08l-0.12-0.08c-2.37-1.59-3.38-4.5-2.5-7.17
			c0.89-2.66,3.47-4.44,6.34-4.36l0.15,0l-0.05-0.13c-0.96-2.64-0.03-5.58,2.3-7.23c2.32-1.65,5.48-1.6,7.75,0.11l0.12,0.09
			L55.92,31.27z"/>
		<polyline class="st1" points="86.65,63.55 97.46,82.26 85.14,80.18 80.87,91.92 71.55,76.75 		"/>
		<polyline class="st1" points="37.34,63.55 26.54,82.26 38.86,80.18 43.13,91.92 52.45,76.75 		"/>
		<polyline class="st2" points="72.03,40.89 59.38,57.84 50.86,49.32 		"/>
	</g>
</g>
</svg>
