<svg id="Layer_1" data-name="Layer 1" xmlns="http://www.w3.org/2000/svg" viewBox="0 0 124 124"><defs><style>.cls-1{fill:#fbb004;}.cls-2{fill:#fddf9b;}.cls-3{fill:#fcc036;fill-opacity:0.4;}</style></defs><title>medicare-icons</title><path class="cls-1" d="M24.1164,28.1675H14.2376V23.3562H24.3769V13.2169h4.8113v9.8788A5.0718,5.0718,0,0,1,24.1164,28.1675Z"/><rect class="cls-2" x="29.921" y="39.9422" width="13.1983" height="4.8113" rx="2.4056"/><rect class="cls-2" x="29.921" y="49.5647" width="8.2696" height="4.8113" rx="2.4056"/><rect class="cls-2" x="29.921" y="68.8099" width="8.2696" height="4.8113" rx="2.4056"/><rect class="cls-2" x="29.921" y="78.4325" width="11.9204" height="4.8113" rx="2.4056"/><rect class="cls-2" x="29.921" y="59.1873" width="8.2696" height="4.8113" rx="2.4056"/><rect class="cls-1" x="54.8377" y="49.5647" width="15.6554" height="4.8113" rx="2.4056"/><rect class="cls-1" x="54.8377" y="68.8099" width="8.2643" height="4.8113" rx="2.4056"/><rect class="cls-1" x="50.1063" y="59.1873" width="17.2575" height="4.8113" rx="2.4056"/><path class="cls-1" d="M72.4715,108.5685H18.1136a6.2816,6.2816,0,0,1-6.2816-6.2817V23.2427a1.6194,1.6194,0,0,1,.4748-1.1456l10.834-10.8252a1.5741,1.5741,0,0,1,1.1128-.4606H72.4715a6.2815,6.2815,0,0,1,6.2816,6.2816V34H73.9418V17.0929a1.47,1.47,0,0,0-1.47-1.47H25.5937l-8.95,8.9413v77.723a1.47,1.47,0,0,0,1.47,1.47H72.471a1.4708,1.4708,0,0,0,1.4708-1.4708V90.9992h4.8113v11.2876A6.2816,6.2816,0,0,1,72.4715,108.5685Z"/><path class="cls-1" d="M68.8861,90.0426A27.0873,27.0873,0,1,1,88.037,82.1112,26.9029,26.9029,0,0,1,68.8861,90.0426Zm0-49.3537a22.2666,22.2666,0,1,0,15.7493,6.5125A22.2046,22.2046,0,0,0,68.8861,40.6889Z"/><path class="cls-1" d="M102.8763,107.4094,86.7249,91.2576a3.38,3.38,0,0,1,.0006-4.78L93.206,80A3.2351,3.2351,0,0,1,97.7806,80l16.2546,16.2542a1.2408,1.2408,0,0,1,0,1.755l-9.4041,9.4A1.2409,1.2409,0,0,1,102.8763,107.4094Zm-10.86-17.6642,10.8605,10.8609a1.2409,1.2409,0,0,0,1.7544.0005l2.6-2.597a1.2408,1.2408,0,0,0,.0005-1.7553L96.3705,85.3935a1.2409,1.2409,0,0,0-1.7544-.0005l-2.6,2.597A1.2408,1.2408,0,0,0,92.0161,89.7452Z"/><rect class="cls-1" x="86.5692" y="79.3176" width="4.8106" height="7.4622" transform="translate(-32.6643 87.2388) rotate(-45)"/><rect class="cls-1" x="108.1495" y="100.4183" width="4.8108" height="7.9138" rx="2.4053" transform="translate(-41.4238 108.7384) rotate(-44.9975)"/><ellipse class="cls-3" cx="69" cy="64" rx="24" ry="25"/></svg>