<svg xmlns="http://www.w3.org/2000/svg" viewBox="0 0 96 96"><defs><style>.cls-1,.cls-6,.cls-7,.cls-9{fill:#fff;}.cls-1,.cls-11,.cls-12,.cls-2,.cls-4,.cls-5,.cls-7,.cls-8{stroke:#fbb040;}.cls-1,.cls-2,.cls-5,.cls-7,.cls-9{stroke-miterlimit:10;}.cls-11,.cls-12,.cls-2,.cls-4,.cls-8{fill:none;}.cls-2,.cls-7,.cls-8,.cls-9{stroke-width:1.5px;}.cls-3{fill:#fbb040;}.cls-11,.cls-12,.cls-4,.cls-8{stroke-linecap:round;stroke-linejoin:round;}.cls-4{stroke-width:2.5px;}.cls-10,.cls-5{fill:#fee7c5;}.cls-9{stroke:#fbb004;}.cls-11{stroke-width:1.13px;}.cls-12{stroke-width:0.68px;}</style></defs><title>mortgage-campaign-icons</title><g id="Your_Icons" data-name="Your Icons"><polygon class="cls-1" points="15.11 38.99 14.86 77.24 76.36 77.24 76.36 38.74 45.86 13.49 15.11 38.99"/><rect class="cls-2" x="60.13" y="16.28" width="8.98" height="25.17" rx="2.76"/><path class="cls-3" d="M42.24,25.78v3.78a1.32,1.32,0,0,0,2.63,0V25.78a1.32,1.32,0,0,0-2.63,0Z"/><path class="cls-3" d="M42.24,24.45v3.77a1.32,1.32,0,0,0,2.63,0V24.45a1.32,1.32,0,0,0-2.63,0Z"/><path class="cls-3" d="M47.08,25.78v3.78a1.31,1.31,0,1,0,2.62,0V25.78a1.31,1.31,0,0,0-2.62,0Z"/><path class="cls-3" d="M47.08,24.45v3.77a1.31,1.31,0,0,0,2.62,0V24.45a1.31,1.31,0,0,0-2.62,0Z"/><line class="cls-4" x1="11.51" y1="77.66" x2="79.51" y2="77.66"/><line class="cls-4" x1="14.84" y1="39.16" x2="14.84" y2="77.16"/><line class="cls-4" x1="76.34" y1="39.16" x2="76.34" y2="77.16"/><path class="cls-5" d="M42.61,49.41a9.13,9.13,0,0,0-18.26,0c0,.09,0,.18,0,.27h0V69.33a2.74,2.74,0,0,0,2.73,2.74H39.87a2.74,2.74,0,0,0,2.74-2.74V49.68h0C42.6,49.59,42.61,49.5,42.61,49.41Z"/><polygon class="cls-6" points="56.36 22.87 74.23 37.87 74.23 56.62 56.36 51.99 56.36 22.87"/><polyline class="cls-4" points="9.69 42.88 46 12.9 81.49 43.08"/><path class="cls-2" d="M42.61,49.41a9.13,9.13,0,0,0-18.26,0c0,.09,0,.18,0,.27h0V69.33a2.74,2.74,0,0,0,2.73,2.74H39.87a2.74,2.74,0,0,0,2.74-2.74V49.68h0C42.6,49.59,42.61,49.5,42.61,49.41Z"/><circle class="cls-3" cx="29.13" cy="58.01" r="1.85"/><rect class="cls-7" x="50.8" y="44.95" width="16.98" height="16.17" rx="2.76"/><line class="cls-8" x1="51.61" y1="53.16" x2="67.28" y2="53.16"/><line class="cls-8" x1="59.44" y1="45.33" x2="59.44" y2="60.99"/><path class="cls-9" d="M65.81,40.59c-10.76,0-23.94,8.31-23.94,24a23.95,23.95,0,1,0,23.94-24Z"/><rect class="cls-6" x="48.23" y="60.84" width="35.4" height="13.05"/><polygon class="cls-10" points="60.38 60.26 48.59 60.31 53.4 54.51 63.5 54.58 60.38 60.26"/><polygon class="cls-10" points="71.43 60.26 83.22 60.31 78.41 54.51 68.31 54.58 71.43 60.26"/><polygon class="cls-11" points="83.75 60.56 48.07 60.56 53.47 54.67 78.34 54.67 83.75 60.56"/><line class="cls-12" x1="48.13" y1="65.08" x2="83.68" y2="65.08"/><line class="cls-12" x1="48.13" y1="69.58" x2="83.68" y2="69.58"/><line class="cls-11" x1="48.13" y1="74.08" x2="83.68" y2="74.08"/><line class="cls-12" x1="60.04" y1="60.69" x2="63.68" y2="54.66"/><line class="cls-12" x1="68.26" y1="54.66" x2="71.89" y2="60.69"/><rect class="cls-6" x="60.08" y="62.23" width="11.55" height="9.77"/><line class="cls-12" x1="60.04" y1="60.69" x2="60.04" y2="73.74"/><line class="cls-12" x1="71.89" y1="73.74" x2="71.89" y2="60.69"/><path class="cls-3" d="M65.65,67.92a2.16,2.16,0,0,1-1.34-.45,1.47,1.47,0,0,1,0-2.37,2.42,2.42,0,0,1,2.82.05.4.4,0,0,1,.07.57.41.41,0,0,1-.58.07,1.64,1.64,0,0,0-1.8-.05.66.66,0,0,0,0,1.09,1.31,1.31,0,0,0,.83.27.41.41,0,0,1,.41.41A.41.41,0,0,1,65.65,67.92Z"/><path class="cls-3" d="M65.64,70.35a2.38,2.38,0,0,1-1.47-.48.41.41,0,0,1-.06-.57.4.4,0,0,1,.57-.07,1.64,1.64,0,0,0,1.8,0,.7.7,0,0,0,.3-.54.72.72,0,0,0-.3-.55,1.35,1.35,0,0,0-.83-.27.41.41,0,0,1-.41-.41.42.42,0,0,1,.41-.41,2.14,2.14,0,0,1,1.34.45,1.47,1.47,0,0,1,0,2.37A2.14,2.14,0,0,1,65.64,70.35Z"/><path class="cls-3" d="M65.65,65.47a.42.42,0,0,1-.41-.41v-.89a.41.41,0,0,1,.41-.41.41.41,0,0,1,.41.41v.89A.41.41,0,0,1,65.65,65.47Z"/><path class="cls-3" d="M65.65,71.26a.41.41,0,0,1-.41-.41V70a.42.42,0,0,1,.41-.41.41.41,0,0,1,.41.41v.89A.41.41,0,0,1,65.65,71.26Z"/><line class="cls-11" x1="48.13" y1="60.76" x2="48.13" y2="73.81"/><line class="cls-11" x1="83.68" y1="60.76" x2="83.68" y2="73.81"/></g></svg>