<svg xmlns="http://www.w3.org/2000/svg" viewBox="0 0 96 96"><defs><style>.cls-1{fill:#fbb004;}.cls-2{fill:#fff;}.cls-3{opacity:0.3;}.cls-4{fill:#fbb040;}</style></defs><title>mortgage-campaign-icons</title><g id="Your_Icons" data-name="Your Icons"><path class="cls-1" d="M75.29,28.36,63.48,23.89A7.89,7.89,0,0,0,49,18.4L37.18,13.93a4.27,4.27,0,0,0-5.49,2.47L12.05,68.3a4.26,4.26,0,0,0,2.47,5.49L52.63,88.22a4.26,4.26,0,0,0,5.49-2.48L77.77,33.85A4.26,4.26,0,0,0,75.29,28.36ZM50.17,20.42a5.93,5.93,0,0,1,11.09,4.2l-1.77,4.67,3.31,1.26a2.27,2.27,0,0,1,1.33,2.93l-.71,1.85L41.46,27l.7-1.86a2.28,2.28,0,0,1,2.93-1.32l3.31,1.25Zm6.12,64.63a2.3,2.3,0,0,1-3,1.34L15.21,72a2.3,2.3,0,0,1-1.33-3L33.52,17.1a2.3,2.3,0,0,1,3-1.34l11.68,4.42-.91,2.39L45.78,22a4.24,4.24,0,0,0-5.45,2.46l-1.4,3.69,25.63,9.7L66,34.17a4.22,4.22,0,0,0-2.45-5.45L62,28.16l.9-2.39L74.6,30.19a2.3,2.3,0,0,1,1.34,3Z"/><path class="cls-1" d="M54.51,25.7a3.42,3.42,0,1,0-2-4.41A3.43,3.43,0,0,0,54.51,25.7Zm1.73-4.57a1.47,1.47,0,1,1-1.89.85A1.47,1.47,0,0,1,56.24,21.13Z"/><circle class="cls-2" cx="58.13" cy="62.56" r="23.22"/><circle class="cls-2" cx="58.13" cy="62.56" r="23.22"/><g class="cls-3"><circle class="cls-4" cx="58.13" cy="62.56" r="19.07"/></g><path class="cls-4" d="M58.13,44.46A18.1,18.1,0,1,1,40,62.56a18.12,18.12,0,0,1,18.1-18.1m0-1A19.07,19.07,0,1,0,77.2,62.56,19.07,19.07,0,0,0,58.13,43.49Z"/><path class="cls-4" d="M58.13,41A21.61,21.61,0,1,1,36.52,62.56,21.63,21.63,0,0,1,58.13,41m0-1.62A23.23,23.23,0,1,0,81.35,62.56,23.22,23.22,0,0,0,58.13,39.33Z"/><path class="cls-4" d="M83,39.47l.79,1.37A68.83,68.83,0,0,0,69.43,54.65,59.89,59.89,0,0,0,59.91,71l-1.16.76a21.64,21.64,0,0,0-2.58,2,20.61,20.61,0,0,0-1-3l-.61-1.51a38.23,38.23,0,0,0-3.33-6.81,4.27,4.27,0,0,0-2.94-2.09c1.42-1.31,2.66-2,3.72-2q2.18,0,4.79,5.88l.95,2.11A78,78,0,0,1,69,50.91,64.66,64.66,0,0,1,83,39.47Z"/></g></svg>