<svg id="Layer_1" xmlns="http://www.w3.org/2000/svg" viewBox="0 0 96 96"><style>.st0,.st1{fill:#dc7a09}.st1{opacity:.3;enable-background:new}</style><path class="st0" d="M48,96C21.5,96,0,74.5,0,48S21.5,0,48,0s48,21.5,48,48S74.5,96,48,96z M48,2.5C22.9,2.5,2.5,22.9,2.5,48 S22.9,93.5,48,93.5S93.5,73.1,93.5,48S73.1,2.5,48,2.5z"/><path class="st0" d="M81.2 58.7c-.7 0-1.3-.6-1.3-1.3V47.3c0-.7.6-1.3 1.3-1.3s1.3.6 1.3 1.3v10.2C82.5 58.2 81.9 58.7 81.2 58.7zM85.3 58.6c-.4 0-.8-.3-.8-.8v-10c0-.4.3-.8.8-.8s.8.3.8.8v10C86.1 58.3 85.7 58.6 85.3 58.6zM71.2 55.8c-.4 0-.8-.3-.8-.8v-9c0-.4.3-.8.8-.8s.8.3.8.8v9C72 55.5 71.6 55.8 71.2 55.8zM76.4 55.3c-.4 0-.8-.3-.8-.8v-7.9c0-.4.3-.8.8-.8s.8.3.8.8v7.9C77.2 54.9 76.8 55.3 76.4 55.3z"/><path class="st1" d="M44.5 29.5L40.4 40.6 35.2 42.8 35.2 44.8 65.4 44.5 80.9 45.9 76.9 38.1 70.5 38.2 62.6 31.7zM39.5 55.7l.2 4.4c0 0 17.7.8 22.5.3 4.9-.5 18.6-2.2 18.6-2.2l.3-4.1c0 0-13.2 2-21.2 2S39.5 55.7 39.5 55.7zM24.8 43.8L24.8 49.7 11.7 48.8 21.1 44.6 23.4 45z"/><path class="st0" d="M38.5,60.2H24.1c-0.7,0-1.3-0.6-1.3-1.3v-8.6l-0.1-0.2l-0.7,0H9.5c-0.6,0-1.1-0.4-1.2-1C8.1,48.5,8.4,48,9,47.7 l10.3-4.4c0.2-0.1,0.3-0.1,0.5-0.1h2.6V19.6c0-0.6,0.5-1.2,1.1-1.2l16.8-2.1c0.6-0.1,1.1,0.3,1.3,0.8l3.7,10.3 c0,0.1,0.1,0.3,0.1,0.4l0,0.8c2,0,6.2,0.2,9.4,0.4c3.5,0.3,7.8,0.9,9,2l3.6,2.9l3.6,3l5.8,0c0,0,0,0,0,0c0.5,0,0.9,0.3,1.1,0.7 l3.6,6.9l1.8,1.8h3.2c0.7,0,1.3,0.6,1.3,1.3s-0.6,1.3-1.3,1.3h-3.8c-0.3,0-0.7-0.1-0.9-0.4l-2.3-2.3c-0.1-0.1-0.2-0.2-0.2-0.3 l-3.3-6.4l-5.5,0c-0.3,0-0.6-0.1-0.8-0.3l-3.9-3.2L62.2,33c0,0,0,0-0.1-0.1c-0.2-0.1-1.6-0.9-7.6-1.4c-4.3-0.4-10.4-0.5-10.4-0.5 c-0.7,0-1.2-0.6-1.2-1.2l0-1.8l-3.3-9.1l-14.7,1.8v23.8c0,0.7-0.6,1.3-1.3,1.3H20l-4.5,1.9l7.9,0c0.4,0,0.8,0.2,1,0.6l0.7,1.1 c0.1,0.2,0.2,0.4,0.2,0.7v7.7h13.1c0.7,0,1.3,0.6,1.3,1.3S39.2,60.2,38.5,60.2z M62,32.8C62,32.8,62,32.8,62,32.8 C62,32.8,62,32.8,62,32.8z M62,32.8C62,32.8,62,32.8,62,32.8C62,32.8,62,32.8,62,32.8z"/><path class="st0" d="M38.9,60.6c-0.7,0-1.3-0.6-1.3-1.3V46h-3.6c-0.5,0-0.9-0.3-1.1-0.7c-0.2-0.4-0.2-0.9,0.1-1.3l1.2-1.8 c0.1-0.2,0.3-0.3,0.5-0.4l4.6-2.2L43.1,29c0.2-0.7,0.9-1,1.6-0.8c0.7,0.2,1,0.9,0.8,1.6l-3.9,11.2c-0.1,0.3-0.3,0.6-0.6,0.7 l-3.8,1.9h1.8c0.7,0,1.3,0.6,1.3,1.3v14.6C40.2,60.1,39.6,60.6,38.9,60.6z"/><path class="st0" d="M53.2 61.8C45 61.8 38.7 61 38.6 61c-.4 0-.7-.4-.7-.8 0-.4.4-.7.8-.7.1 0 11.2 1.3 22.9.4 10.3-.7 18.8-2.6 18.9-2.6.1 0 .1 0 .2 0h6.2c.4 0 .8.3.8.8s-.3.8-.8.8h-6.1c-.9.2-9.1 1.9-19 2.6C58.8 61.7 55.9 61.8 53.2 61.8zM23.5 60.4H10.2c-.7 0-1.3-.6-1.3-1.3s.6-1.3 1.3-1.3h13.3c.7 0 1.3.6 1.3 1.3S24.2 60.4 23.5 60.4zM80.6 47.1c0 0-.1 0-.1 0-2.5-.2-15.3-1.4-23.1-1.5-8.8-.1-19.9.3-20 .4-.7 0-1.3-.5-1.3-1.2 0-.7.5-1.3 1.2-1.3.1 0 11.2-.4 20.1-.4 7.8.1 19.8 1.1 23.3 1.5.7.1 1.2.7 1.1 1.4C81.8 46.6 81.2 47.1 80.6 47.1z"/><path class="st0" d="M13.3 59.3c-.7 0-1.3-.6-1.3-1.3V47.9c0-.7.6-1.3 1.3-1.3s1.3.6 1.3 1.3v10.2C14.6 58.8 14 59.3 13.3 59.3zM57.4 57.4c-7.7 0-18-.6-18.1-.6-.4 0-.7-.4-.7-.8s.4-.7.8-.7c.1 0 14.1.8 21.6.5 9.1-.3 15.3-1.1 19.6-2.6.4-.1.8.1 1 .5.1.4-.1.8-.5 1-4.4 1.5-10.7 2.3-20 2.7C59.9 57.4 58.7 57.4 57.4 57.4z"/><path class="st0" d="M47.7 56.3c-.4 0-.8-.3-.8-.8v-11c0-.4.3-.8.8-.8s.8.3.8.8v11C48.4 56 48.1 56.3 47.7 56.3zM56.5 56.6c-.4 0-.8-.3-.8-.8V45c0-.4.3-.8.8-.8s.8.3.8.8v10.8C57.2 56.3 56.9 56.6 56.5 56.6zM64.7 56.3c-.4 0-.8-.3-.8-.8V45.1c0-.4.3-.8.8-.8s.8.3.8.8v10.4C65.5 55.9 65.1 56.3 64.7 56.3zM44.3 68.3C27 68.3 9.9 66.1 9.7 66c-.7-.1-1.2-.7-1.1-1.4s.7-1.2 1.4-1.1c.2 0 17.1 2.2 34.2 2.2 18.5 0 37.8-2.2 38-2.2.7-.1 1.3.4 1.4 1.1.1.7-.4 1.3-1.1 1.4C82.4 66.1 62.9 68.3 44.3 68.3z"/></svg>