<svg id="Layer_1" xmlns="http://www.w3.org/2000/svg" viewBox="0 0 96 96"><style>.st0{fill:#dc7a09}</style><g id="Your_Icons"><path class="st0" d="M48,96C21.5,96,0,74.5,0,48S21.5,0,48,0s48,21.5,48,48S74.5,96,48,96z M48,2.5C22.9,2.5,2.5,22.9,2.5,48 S22.9,93.5,48,93.5S93.5,73.1,93.5,48S73.1,2.5,48,2.5z"/><path class="st0" d="M52.9,59.2c-0.8,0-1.9-0.8-2.6-1.2c-5.5-3-9.3-6.8-12.3-12.3c-0.4-0.7-1.2-1.8-1.2-2.6c0-0.6,0.7-1.3,1.6-2.1 l-8.1-12.5c-0.8,0.8-1.5,1.9-2,2.8c-1,1.8-1.5,3.6-1.5,5.6c0,2.8,1.1,5.3,2.1,7.9c0.7,1.8,1.5,3.6,2.5,5.3 c3.2,5.1,9.3,11.3,14.5,14.5c1.7,1,3.4,1.8,5.3,2.5c2.6,0.9,5.1,2.1,7.9,2.1c2,0,3.8-0.6,5.6-1.5c1-0.6,2.2-1.3,3.1-2.2l-12.8-7.7 C54.1,58.6,53.4,59.2,52.9,59.2z"/><path class="st0" d="M42.2 37c0-.9-.9-1.9-1.4-2.7-1-1.7-1.9-3.4-2.9-5.2-.3-.6-1-2.1-1.6-2.3-.2-.1-.4-.1-.6-.1-1.1 0-3.2.5-4.2.9 0 0-.1 0-.1.1l8.1 12.4C40.8 39.1 42.2 37.9 42.2 37zM69.1 59.7c-.2-.6-1.7-1.3-2.3-1.6-1.7-1-3.5-1.9-5.2-2.9-.8-.5-1.7-1.4-2.7-1.4-1 0-2.1 1.5-3.3 2.9l12.6 7.6c.4-1 .9-3 .9-4C69.2 60.1 69.2 59.9 69.1 59.7z"/></g></svg>