<svg xmlns="http://www.w3.org/2000/svg" viewBox="0 0 83.65 101.58"><defs><style>.cls-1{fill:#59c5c7;}.cls-2,.cls-3{fill:none;}.cls-3{stroke:#59c5c7;stroke-miterlimit:10;stroke-width:4px;}</style></defs><g id="Layer_2" data-name="Layer 2"><g id="Layer_1-2" data-name="Layer 1"><path class="cls-1" d="M72.72,51.31c-1.33,0-2.65,0-4,0a1.17,1.17,0,0,1-1.23-.75,21.27,21.27,0,0,0-7.94-9,1.54,1.54,0,0,1-.64-1.15v-.54c0-1.76-.07-3.57,0-5.37A2.25,2.25,0,0,0,57.52,32h-.79L54,33.47c-2.27,1.22-4.62,2.48-6.89,3.78a8.12,8.12,0,0,1-4.38,1.12c-2.79-.07-5.65,0-8.41,0H32.21A21.25,21.25,0,0,0,11.55,54.16a19.16,19.16,0,0,0-.43,2.26l-.18,1.11-.12.6V61.2c.07.33.14.75.21,1.18.15.88.3,1.79.52,2.65a20.7,20.7,0,0,0,7.59,11.38,1.55,1.55,0,0,1,.65,1.35c0,1.71,0,3.42,0,5.13v.61a1.85,1.85,0,0,0,2.07,2.1q5,0,10,0a1.85,1.85,0,0,0,2-2V80.85H46.46v2.71a1.83,1.83,0,0,0,2,2q4.74,0,9.48,0a1.82,1.82,0,0,0,2-2q0-2.72,0-5.43a1.41,1.41,0,0,1,.65-1.3,21,21,0,0,0,8-11A1.16,1.16,0,0,1,69.8,65c.93,0,1.85,0,2.88,0a1.8,1.8,0,0,0,1.88-1.9q0-5,0-9.92A1.79,1.79,0,0,0,72.72,51.31Zm-1.86,10H69.48c-.61,0-1.21,0-1.81,0a1.89,1.89,0,0,0-2.15,1.71,17.57,17.57,0,0,1-8.25,11.62,2,2,0,0,0-1,1.84v5.38H50.15V79.4a2.38,2.38,0,0,0-.55-1.73,2.29,2.29,0,0,0-1.69-.54H32.43a1.92,1.92,0,0,0-2.2,2.18c0,.47,0,.93,0,1.42v1.15H23.52l0-.65c0-.15,0-.3,0-.45V79.57c0-1.06,0-2.11,0-3.17a2.4,2.4,0,0,0-1.19-2.27A17.53,17.53,0,0,1,28.52,42.4,20.69,20.69,0,0,1,32.37,42c2.17,0,4.33,0,6.5,0s4.18,0,6.27,0a3.79,3.79,0,0,0,1.63-.42c1.67-.87,3.32-1.79,5-2.7L55.14,37l.08,1c0,.15,0,.29,0,.42v.92c0,.84,0,1.67,0,2.51a2.24,2.24,0,0,0,1.36,2.28,17,17,0,0,1,7.19,7.21,21.25,21.25,0,0,1,.91,2l.09.21a1.91,1.91,0,0,0,2,1.4h4.06Z"/><path class="cls-1" d="M51.9,50.15c0,1-1.23,1.66-2.91,1.67H30.42a2.8,2.8,0,0,1-2.55-1.19c-.36-.7,0-1.43.94-1.79a5.55,5.55,0,0,1,1.82-.36c6.48,0,12.93,0,18.39,0a4.16,4.16,0,0,1,2.06.5A1.44,1.44,0,0,1,51.9,50.15Z"/><path class="cls-2" d="M41.34,32.9a15.45,15.45,0,0,1-15.05-12L9.71,30.45A11.2,11.2,0,0,0,5.94,34l-.13.18h0l-.15.27-.09.15a10.93,10.93,0,0,0-1.31,3.76s0,.11,0,.15,0,.38-.07.61a2,2,0,0,1-.08.42l0,.11v32.4c0,.23.06.46.11.68l0,.15a10.2,10.2,0,0,0,5,7.59l27,15.56c.2.11.44.24.69.35a10.74,10.74,0,0,0,1.17.49,11.09,11.09,0,0,0,3.21.62h1.15a11.16,11.16,0,0,0,3.06-.61c.41-.15.77-.3,1.16-.48L72.2,81.79l2.24-1.29a10.24,10.24,0,0,0,5-7.59l0-.2c0-.21.07-.41.1-.62V39.77l0-.21a1.89,1.89,0,0,1-.08-.4c0-.22,0-.44-.09-.72a10.85,10.85,0,0,0-1.34-3.86l-.06-.1-.11-.19L77.68,34a11.24,11.24,0,0,0-3.74-3.51l-17.45-10A15.44,15.44,0,0,1,41.34,32.9Z"/><path class="cls-1" d="M83.52,38.64l0-.11c0-.18,0-.35-.07-.53a15.29,15.29,0,0,0-1.79-5.32l-.13-.23-.19-.31-.14-.23.56-.51-.63.41A15.32,15.32,0,0,0,76,26.93l-19.25-11c0,.51.08,1,.08,1.57a15.26,15.26,0,0,1-.3,3l17.45,10A11.24,11.24,0,0,1,77.68,34l.21.34.11.19.06.1a10.85,10.85,0,0,1,1.34,3.86c0,.28.07.5.09.72a1.89,1.89,0,0,0,.08.4l0,.21V72.09c0,.21-.06.41-.1.62l0,.2a10.24,10.24,0,0,1-5,7.59L72.2,81.79,46.69,96.43c-.39.18-.75.33-1.16.48a11.16,11.16,0,0,1-3.06.61H41.32a11.09,11.09,0,0,1-3.21-.62,10.74,10.74,0,0,1-1.17-.49c-.25-.11-.49-.24-.69-.35L9.21,80.5a10.2,10.2,0,0,1-5-7.59l0-.15c0-.22-.08-.45-.11-.68V39.68l0-.11a2,2,0,0,0,.08-.42c0-.23,0-.42.07-.61s0-.1,0-.15a10.93,10.93,0,0,1,1.31-3.76l.09-.15.15-.27h0L5.94,34a11.2,11.2,0,0,1,3.77-3.57l16.58-9.53a15.77,15.77,0,0,1-.4-3.47c0-.34,0-.66.05-1L7.69,26.94a15.14,15.14,0,0,0-5.1,4.8c-.09.13-.16.24-.23.36l-.2.34L2,32.67A15.43,15.43,0,0,0,.23,37.92v.13c0,.19,0,.33-.06.48l0,.11A4.45,4.45,0,0,0,0,39.72V72.14c0,.08,0,.15,0,.22,0,.34.09.7.17,1.08A14.27,14.27,0,0,0,7.19,84L34.25,99.58c.3.17.62.33.93.48a13.67,13.67,0,0,0,1.59.66,15,15,0,0,0,4.27.84h1.63a15,15,0,0,0,4.2-.83,14.61,14.61,0,0,0,1.59-.66c.18-.09,2.23-1.25,25.76-14.77L76.46,84a14.28,14.28,0,0,0,7-10.54c.06-.37.12-.74.16-1.15a1.21,1.21,0,0,0,0-.19V39.72A4.84,4.84,0,0,0,83.52,38.64Z"/><path class="cls-3" d="M26.29,20.92a15.44,15.44,0,0,0,30.2-.5,15.26,15.26,0,0,0,.3-3c0-.53,0-1.06-.08-1.57a15.44,15.44,0,0,0-30.77.58c0,.33-.05.65-.05,1A15.77,15.77,0,0,0,26.29,20.92Z"/><path class="cls-1" d="M45.88,20.63a3.79,3.79,0,0,1-3,3.51l-.33.09v1.39a1.24,1.24,0,0,1-2.47,0V24.23l-.33-.1a3.79,3.79,0,0,1-3-3.47,1.24,1.24,0,0,1,2.48,0c0,.59.86,1.24,2.07,1.24s2.06-.66,2.06-1.25c0-.42-.42-.85-1.06-1.08a.9.9,0,0,1-.24-.12l-3.24-2,0,0a3.61,3.61,0,0,1-2.05-3.12,3.8,3.8,0,0,1,3-3.51l.33-.09V9.28a1.24,1.24,0,0,1,2.47,0v1.37l.33.09a3.8,3.8,0,0,1,3,3.51,1.24,1.24,0,0,1-2.48,0c0-.59-.88-1.25-2.06-1.25s-2.07.66-2.07,1.25a1.21,1.21,0,0,0,.76.95.21.21,0,0,1,.1.06l3.15,2,.08,0A3.75,3.75,0,0,1,45.88,20.63Z"/></g></g></svg>