<?xml version="1.0" encoding="utf-8"?>
<!-- Generator: Adobe Illustrator 21.0.2, SVG Export Plug-In . SVG Version: 6.00 Build 0)  -->
<svg version="1.0" xmlns="http://www.w3.org/2000/svg" xmlns:xlink="http://www.w3.org/1999/xlink" x="0px" y="0px"
	 viewBox="0 0 96 96" enable-background="new 0 0 96 96" xml:space="preserve">
<g id="Guidelines">
</g>
<g id="Your_Icons">
	<path fill="#FFFFFF" d="M48,95.5C21.809,95.5,0.5,74.191,0.5,48S21.809,0.5,48,0.5S95.5,21.809,95.5,48S74.191,95.5,48,95.5z M48,2
		C22.636,2,2,22.636,2,48s20.636,46,46,46s46-20.636,46-46S73.364,2,48,2z"/>
	<g>
		<path fill="#FFFFFF" d="M52.803,58.127c-0.806,0-1.849-0.746-2.566-1.163c-5.429-3.012-9.187-6.771-12.2-12.2
			c-0.418-0.716-1.163-1.76-1.163-2.565c0-0.587,0.72-1.314,1.632-2.087l-8.033-12.342c-0.814,0.788-1.435,1.867-1.951,2.795
			C27.567,32.324,27,34.113,27,36.112c0,2.775,1.133,5.28,2.058,7.816c0.656,1.819,1.461,3.58,2.476,5.22
			c3.132,5.071,9.247,11.187,14.318,14.318c1.64,1.015,3.401,1.819,5.22,2.476C53.608,66.866,56.114,68,58.888,68
			c1.999,0,3.789-0.566,5.548-1.521c1.018-0.566,2.224-1.253,3.021-2.19l-12.695-7.646C54.036,57.482,53.357,58.127,52.803,58.127z"
			/>
		<path fill="#FFFFFF" d="M42.273,36.112c0-0.924-0.895-1.879-1.372-2.655c-0.984-1.67-1.909-3.401-2.864-5.101
			c-0.298-0.596-0.955-2.058-1.581-2.267C36.247,26,36.038,26,35.829,26c-1.074,0-3.162,0.477-4.146,0.925
			c-0.043,0.018-0.081,0.046-0.123,0.066l7.983,12.266C40.904,38.156,42.273,37.028,42.273,36.112z"/>
		<path fill="#FFFFFF" d="M68.91,58.544c-0.209-0.627-1.67-1.283-2.267-1.581c-1.7-0.955-3.431-1.88-5.101-2.864
			c-0.775-0.478-1.73-1.372-2.655-1.372c-0.949,0-2.126,1.469-3.263,2.875l12.521,7.541C68.571,62.107,69,60.189,69,59.171
			C69,58.962,69,58.753,68.91,58.544z"/>
	</g>
</g>
</svg>
