<svg id="Layer_1" data-name="Layer 1" xmlns="http://www.w3.org/2000/svg" xmlns:xlink="http://www.w3.org/1999/xlink" viewBox="0 0 124 124"><defs><style>.cls-1,.cls-2,.cls-4,.cls-6,.cls-7,.cls-9{fill:none;}.cls-2,.cls-4,.cls-6,.cls-7,.cls-9{stroke:#004e79;}.cls-2,.cls-7,.cls-9{stroke-linecap:round;}.cls-2,.cls-6,.cls-7,.cls-9{stroke-linejoin:round;}.cls-2{stroke-width:4.33px;}.cls-3{clip-path:url(#clip-path);}.cls-4{stroke-width:4.74px;}.cls-5{clip-path:url(#clip-path-2);}.cls-6,.cls-7{stroke-width:3.71px;}.cls-8{fill:#004e79;}.cls-9{stroke-width:5.1px;}</style><clipPath id="clip-path"><polygon class="cls-1" points="15.22 9.78 15.22 113.88 109.21 113.88 109.21 111.14 109.04 9.78 15.22 9.78"/></clipPath><clipPath id="clip-path-2"><rect class="cls-1" x="14.79" y="9.59" width="94.43" height="104.74"/></clipPath></defs><path class="cls-2" d="M40.45,77.68h6.46M40.45,67.43h6.46M40.45,57.19h6.46M40.45,87.26H81M40.45,46.94H52.27M54.1,96.83H70.25M40.45,36.69H56.6"/><g class="cls-3"><path class="cls-4" d="M30,29.49l-6.23,3.6a11,11,0,0,0-5,8.77l.47,38.8a11.55,11.55,0,0,0,5.1,8.83L57.68,109.3a11,11,0,0,0,10.08.06l32.69-18.87a11,11,0,0,0,5-8.77L105,42.92a11.54,11.54,0,0,0-5.09-8.83l-6.48-5.2"/></g><g class="cls-5"><path class="cls-6" d="M97.81,59.31A19.67,19.67,0,1,1,78.14,39.64,19.67,19.67,0,0,1,97.81,59.31Z"/><polyline class="cls-7" points="30.6 92.49 30.6 11.45 92.89 11.45 92.89 46.3"/></g><rect class="cls-8" x="38.8" y="11.45" width="6.56" height="11.47"/><rect class="cls-8" x="51.91" y="11.45" width="6.56" height="11.47"/><rect class="cls-8" x="78.14" y="11.45" width="6.56" height="11.47"/><rect class="cls-8" x="65.02" y="11.45" width="6.56" height="11.47"/><line class="cls-7" x1="92.89" y1="72.97" x2="92.89" y2="95.28"/><polyline class="cls-9" points="90.27 52.83 74.09 69 66.01 60.92"/></svg>