<?xml version="1.0" encoding="utf-8"?>
<!-- Generator: Adobe Illustrator 21.1.0, SVG Export Plug-In . SVG Version: 6.00 Build 0)  -->
<svg version="1.0" xmlns="http://www.w3.org/2000/svg" xmlns:xlink="http://www.w3.org/1999/xlink" x="0px" y="0px"
	 viewBox="0 0 96 96" enable-background="new 0 0 96 96" xml:space="preserve">
<g id="Guidelines">
</g>
<g id="Your_Icons">
	<polygon fill="#FEDFB3" points="65.941,26.465 72.033,27.34 66.344,66.936 54.16,65.186 52.41,77.369 21.951,72.993 29.391,21.213 
		35.483,22.089 	"/>
	<g>
		<g>
			<g>
				
					<polyline fill="none" stroke="#FBB040" stroke-width="1.5" stroke-linecap="round" stroke-linejoin="round" stroke-miterlimit="10" points="
					72.908,21.249 79,22.124 69.81,86.087 14.984,78.209 24.175,14.246 30.267,15.122 				"/>
				
					<path fill="#FFFFFF" stroke="#FBB040" stroke-width="1.5" stroke-linecap="round" stroke-linejoin="round" stroke-miterlimit="10" d="
					M57.679,19.06c0.483-3.364-1.849-6.483-5.216-6.967c-3.364-0.483-6.484,1.852-6.967,5.216l-9.138-1.313l-1.313,9.138
					l30.458,4.376l1.313-9.138L57.679,19.06z"/>
				
					<polyline fill="none" stroke="#FBB040" stroke-width="1.5" stroke-linecap="round" stroke-linejoin="round" stroke-miterlimit="10" points="
					35.483,22.089 29.391,21.213 21.951,72.993 52.41,77.369 54.16,65.186 66.344,66.936 72.033,27.34 65.941,26.465 				"/>
			</g>
			
				<line fill="none" stroke="#FBB040" stroke-width="1.5" stroke-linecap="round" stroke-linejoin="round" stroke-miterlimit="10" x1="66.344" y1="66.936" x2="52.41" y2="77.369"/>
		</g>
	</g>
	
		<polyline fill="none" stroke="#FBB040" stroke-width="1.5" stroke-linecap="round" stroke-linejoin="round" stroke-miterlimit="10" points="
		59.928,41.441 43.473,59.164 35.245,50.303 	"/>
</g>
</svg>
