<svg id="Layer_1" data-name="Layer 1" xmlns="http://www.w3.org/2000/svg" xmlns:xlink="http://www.w3.org/1999/xlink" viewBox="0 0 124 124"><defs><style>.cls-1,.cls-3,.cls-5,.cls-6{fill:none;}.cls-2{clip-path:url(#clip-path);}.cls-3,.cls-5,.cls-6{stroke:#004e79;}.cls-3{stroke-width:4.92px;}.cls-4{clip-path:url(#clip-path-2);}.cls-5,.cls-6{stroke-linecap:round;stroke-linejoin:round;}.cls-5{stroke-width:4.5px;}.cls-6{stroke-width:4.08px;}.cls-7{fill:#004e79;}</style><clipPath id="clip-path"><polygon class="cls-1" points="15.18 11.76 15.18 119.89 112.8 119.89 112.8 75.33 112.69 11.76 15.18 11.76"/></clipPath><clipPath id="clip-path-2"><rect class="cls-1" x="14.79" y="5.57" width="98.08" height="114.78"/></clipPath></defs><g class="cls-2"><path class="cls-3" d="M32.7,30.71,24.09,36a11.45,11.45,0,0,0-5.19,9.11l.49,40.3a12,12,0,0,0,5.3,9.17l34.65,20.58a11.44,11.44,0,0,0,10.48.06l34-19.6a11.43,11.43,0,0,0,5.18-9.1l-.49-40.31A12,12,0,0,0,103.17,37L96.43,31.6"/></g><g class="cls-4"><path class="cls-5" d="M76.31,7.82V31.6m0,0H96.43M32.7,97.86v-90H76.31L96.43,29.1V99.05"/><path class="cls-6" d="M44.08,72.22H86.37M67.06,64.47H86.37M74.75,56.72H86.37M74.75,49H86.37M44.08,80H86.37M44.08,95.82c13.53-.25,28.08-.25,41.79,0M44.08,87.71c13.53-.24,28.08-.24,41.79,0"/><path class="cls-7" d="M62.4,49.86c0,3.59-2.62,6.68-6.69,7.87l-.74.21v3.11a2.77,2.77,0,1,1-5.54,0V57.94l-.74-.22c-4-1.18-6.65-4.25-6.69-7.8a2.78,2.78,0,0,1,5.56,0c0,1.32,1.92,2.78,4.64,2.78s4.64-1.48,4.64-2.8c0-.94-1-1.92-2.39-2.43a2.4,2.4,0,0,1-.53-.27l-7.28-4.59-.06,0a8.08,8.08,0,0,1-4.58-7c0-3.58,2.62-6.67,6.69-7.87l.74-.22V24.38a2.77,2.77,0,1,1,5.54,0v3.06l.74.22c4.07,1.2,6.69,4.29,6.69,7.87a2.78,2.78,0,0,1-5.56,0c0-1.33-2-2.81-4.64-2.81s-4.64,1.48-4.64,2.81a2.71,2.71,0,0,0,1.72,2.14l.22.13,7.07,4.47.16.08c3.45,1.39,5.67,4.34,5.67,7.51"/></g></svg>