<svg id="Layer_1" data-name="Layer 1" xmlns="http://www.w3.org/2000/svg" xmlns:xlink="http://www.w3.org/1999/xlink" viewBox="0 0 124 124"><defs><style>.cls-1,.cls-3{fill:none;}.cls-2{clip-path:url(#clip-path);}.cls-3{stroke:#004e79;stroke-linecap:round;stroke-linejoin:round;stroke-width:4.32px;}.cls-4{clip-path:url(#clip-path-2);}.cls-5{fill:#004e79;}</style><clipPath id="clip-path"><rect class="cls-1" x="28.95" y="28.97" width="69.66" height="61.07"/></clipPath><clipPath id="clip-path-2"><rect class="cls-1" x="17.77" y="12.22" width="90.39" height="99.49"/></clipPath></defs><g class="cls-2"><path class="cls-3" d="M91.85,79.73a4,4,0,0,1-3.76,4.13H37.83a4,4,0,0,1-3.76-4.13V41.22a4,4,0,0,1,3.76-4.13H88.09a4,4,0,0,1,3.76,4.13ZM63,83.86v7.36m1.26-12.56A1.26,1.26,0,1,1,63,77.36,1.28,1.28,0,0,1,64.22,78.66ZM34.07,73.47H91.85m-35.17-26a3.77,3.77,0,1,1-3.77-3.89A3.83,3.83,0,0,1,56.68,47.48Zm20.1,13A3.77,3.77,0,1,1,73,56.58,3.83,3.83,0,0,1,76.78,60.48Zm-32.66-13h5m7.54,0H81.8m-12.56,13H44.12m32.66,0h5"/></g><g class="cls-4"><path class="cls-5" d="M108,43.69v-.12c0-.2,0-.42-.08-.65A16.19,16.19,0,0,0,106,37.26a1.27,1.27,0,0,0-.14-.24,3.08,3.08,0,0,0-.2-.34c-.08-.13-.12-.2-.16-.28l.61-.53-.68.43A16.66,16.66,0,0,0,99.85,31L71,14.49l-.4-.24a15.37,15.37,0,0,0-7.45-2h-.39a15.4,15.4,0,0,0-7.49,2L26.08,31.05a16.35,16.35,0,0,0-5.52,5.19,2.42,2.42,0,0,0-.24.39,3.85,3.85,0,0,0-.22.35,1.75,1.75,0,0,0-.14.25A16.11,16.11,0,0,0,18,42.86c0,.25-.07.48-.09.71l0,.12a4.69,4.69,0,0,0-.15,1.17v35a1.77,1.77,0,0,0,0,.23c0,.38.09.77.17,1.19a15.61,15.61,0,0,0,4,8.57l.36.39-.22.48a2.28,2.28,0,0,0-.18.89v9a2.19,2.19,0,0,0,2.19,2.18h19l11.66,6.71c.32.19.67.36,1,.52a14.72,14.72,0,0,0,1.71.71,16,16,0,0,0,4.62.91h1.76a16.19,16.19,0,0,0,4.54-.89,18.13,18.13,0,0,0,1.72-.72c.15-.07,1.09-.6,12.46-7.13l.18-.11h19.55a2.18,2.18,0,0,0,2.18-2.18v-9a2.27,2.27,0,0,0-.32-1.15l-.31-.51.38-.45a15.19,15.19,0,0,0,3.71-8.2,11.57,11.57,0,0,0,.18-1.26c0-.06,0-.12,0-.19v-35a4.58,4.58,0,0,0-.15-1.17M71.34,104.35c-2.18,1.25-2.93,1.67-3.12,1.79l-.06,0a11.44,11.44,0,0,1-1.2.5,12.09,12.09,0,0,1-3.31.66H62.41a12.08,12.08,0,0,1-3.46-.67,11.89,11.89,0,0,1-1.28-.53c-.26-.12-.53-.26-.74-.38l-5-2.91H74Zm28.79-5.89H82.76a1.83,1.83,0,0,0-.87,0H44a2.1,2.1,0,0,0-.79,0H26.3V93.82h73.83ZM57.48,18.05a11.07,11.07,0,0,1,5.35-1.46H63A11.07,11.07,0,0,1,68.41,18l.4.24c.3.16,15.89,9.12,24,13.79l4.83,2.77a11.82,11.82,0,0,1,4,3.8l.22.35c0,.1.1.15.13.21l0,.11a11.76,11.76,0,0,1,1.47,4.22c0,.25.07.5.09.74a1.65,1.65,0,0,0,.09.43l0,.22V79.74c0,.33-.08.55-.12.79l0,.2a11,11,0,0,1-5.43,8.2l-.9.51H28.61l-.9-.51a11,11,0,0,1-5.42-8.21s0-.09,0-.15a6.33,6.33,0,0,1-.12-.74v-35l0-.12a1.71,1.71,0,0,0,.1-.46,5.23,5.23,0,0,1,.09-.72,11.62,11.62,0,0,1,1.42-4.16l.09-.16c.07-.11.12-.21.18-.3l.13-.2h0a12.18,12.18,0,0,1,4.09-3.86"/></g></svg>