<?xml version="1.0" encoding="utf-8"?>
<!-- Generator: Adobe Illustrator 21.1.0, SVG Export Plug-In . SVG Version: 6.00 Build 0)  -->
<svg version="1.0" xmlns="http://www.w3.org/2000/svg" xmlns:xlink="http://www.w3.org/1999/xlink" x="0px" y="0px"
	 viewBox="0 0 96 96" enable-background="new 0 0 96 96" xml:space="preserve">
<g id="Guidelines">
</g>
<g id="Your_Icons">
	<rect x="6.536" y="37.127" fill="#FFFFFF" width="58.67" height="21.628"/>
	<polygon fill="#FEE7C5" points="26.673,36.162 7.142,36.255 15.113,26.637 31.847,26.746 	"/>
	<polygon fill="#FEE7C5" points="44.992,36.162 64.522,36.255 56.552,26.637 39.818,26.746 	"/>
	<path fill="#FBB040" d="M65.399,37.605H6.269c-0.37,0-0.704-0.218-0.853-0.557c-0.149-0.338-0.084-0.732,0.166-1.005l8.95-9.772
		c0.177-0.193,0.426-0.303,0.688-0.303h41.23c0.261,0,0.511,0.11,0.688,0.303l8.95,9.772c0.249,0.273,0.315,0.667,0.166,1.005
		C66.103,37.387,65.768,37.605,65.399,37.605z M8.387,35.741h54.894l-7.242-7.908h-40.41L8.387,35.741z"/>
	<path fill="#FBB040" d="M65.293,44.723H6.374c-0.309,0-0.559-0.251-0.559-0.559c0-0.309,0.251-0.559,0.559-0.559h58.919
		c0.309,0,0.559,0.251,0.559,0.559C65.852,44.472,65.602,44.723,65.293,44.723z"/>
	<path fill="#FBB040" d="M65.293,52.181H6.374c-0.309,0-0.559-0.251-0.559-0.559c0-0.309,0.251-0.559,0.559-0.559h58.919
		c0.309,0,0.559,0.251,0.559,0.559C65.852,51.93,65.602,52.181,65.293,52.181z"/>
	<path fill="#FBB040" d="M65.293,60.012H6.374c-0.515,0-0.932-0.417-0.932-0.932c0-0.515,0.417-0.932,0.932-0.932h58.919
		c0.515,0,0.932,0.417,0.932,0.932C66.225,59.594,65.808,60.012,65.293,60.012z"/>
	<path fill="#FBB040" d="M26.117,37.447c-0.098,0-0.198-0.026-0.288-0.08c-0.264-0.16-0.35-0.503-0.19-0.768l6.025-10.002
		c0.16-0.264,0.504-0.35,0.768-0.19c0.264,0.16,0.35,0.503,0.19,0.768l-6.025,10.002C26.491,37.351,26.306,37.447,26.117,37.447z"/>
	<path fill="#FBB040" d="M45.757,37.447c-0.189,0-0.374-0.097-0.48-0.271l-6.025-10.002c-0.159-0.265-0.074-0.609,0.19-0.768
		c0.264-0.16,0.608-0.074,0.768,0.19l6.025,10.002c0.159,0.265,0.074,0.609-0.19,0.768C45.955,37.421,45.855,37.447,45.757,37.447z"
		/>
	<rect x="26.176" y="39.428" fill="#FFFFFF" width="19.142" height="16.199"/>
	<path fill="#FBB040" d="M26.117,59.076c-0.309,0-0.559-0.251-0.559-0.559V36.888c0-0.309,0.251-0.559,0.559-0.559
		c0.309,0,0.559,0.251,0.559,0.559v21.628C26.676,58.825,26.426,59.076,26.117,59.076z"/>
	<path fill="#FBB040" d="M45.756,59.076c-0.309,0-0.559-0.251-0.559-0.559V36.888c0-0.309,0.251-0.559,0.559-0.559
		c0.309,0,0.559,0.251,0.559,0.559v21.628C46.316,58.825,46.065,59.076,45.756,59.076z"/>
	<g>
		<g>
			<path fill="#FBB040" d="M35.414,48.862c-0.832,0-1.62-0.264-2.219-0.744c-0.643-0.515-0.998-1.213-0.998-1.965
				c0-0.752,0.354-1.451,0.998-1.966c1.217-0.974,3.401-0.936,4.674,0.083c0.292,0.234,0.339,0.66,0.106,0.951
				c-0.233,0.293-0.66,0.34-0.952,0.106c-0.763-0.611-2.269-0.652-2.981-0.083c-0.316,0.253-0.49,0.576-0.49,0.908
				s0.174,0.655,0.49,0.907c0.36,0.288,0.848,0.447,1.373,0.447c0.374,0,0.677,0.303,0.677,0.677
				C36.091,48.558,35.788,48.862,35.414,48.862z"/>
			<path fill="#FBB040" d="M35.394,52.888c-0.882,0-1.78-0.264-2.435-0.788c-0.292-0.234-0.339-0.66-0.106-0.952
				c0.234-0.292,0.66-0.339,0.952-0.106c0.763,0.612,2.267,0.652,2.98,0.083c0.316-0.253,0.49-0.576,0.49-0.908
				c0-0.333-0.174-0.656-0.49-0.908c-0.36-0.288-0.847-0.446-1.372-0.446c-0.374,0-0.677-0.303-0.677-0.677
				c0-0.374,0.303-0.677,0.677-0.677c0.832,0,1.619,0.264,2.218,0.743c0.644,0.515,0.999,1.214,0.999,1.966
				c0,0.752-0.354,1.451-0.999,1.965C37.042,52.654,36.225,52.888,35.394,52.888z"/>
		</g>
		<path fill="#FBB040" d="M35.414,44.798c-0.374,0-0.677-0.303-0.677-0.677v-1.478c0-0.374,0.303-0.677,0.677-0.677
			s0.677,0.303,0.677,0.677v1.478C36.091,44.495,35.788,44.798,35.414,44.798z"/>
		<path fill="#FBB040" d="M35.414,54.403c-0.374,0-0.677-0.303-0.677-0.677v-1.478c0-0.375,0.303-0.677,0.677-0.677
			s0.677,0.303,0.677,0.677v1.478C36.091,54.099,35.788,54.403,35.414,54.403z"/>
	</g>
	<path fill="#FBB040" d="M6.374,59.563c-0.515,0-0.932-0.417-0.932-0.932V37.002c0-0.515,0.417-0.932,0.932-0.932
		s0.932,0.417,0.932,0.932v21.628C7.307,59.146,6.889,59.563,6.374,59.563z"/>
	<path fill="#FBB040" d="M65.293,59.563c-0.515,0-0.932-0.417-0.932-0.932V37.002c0-0.515,0.417-0.932,0.932-0.932
		c0.515,0,0.932,0.417,0.932,0.932v21.628C66.225,59.146,65.808,59.563,65.293,59.563z"/>
	<g>
		<circle fill="#FFFFFF" cx="69.19" cy="57.688" r="21.81"/>
	</g>
	<g opacity="0.4">
		<circle fill="#FBB040" cx="69.19" cy="57.688" r="21.81"/>
	</g>
	<g>
		<circle fill="#FFFFFF" cx="69.19" cy="57.688" r="17.907"/>
		<path fill="#FBB040" d="M69.19,40.809c9.307,0,16.878,7.572,16.878,16.878S78.497,74.566,69.19,74.566
			s-16.878-7.572-16.878-16.878S59.883,40.809,69.19,40.809 M69.19,39.781c-9.89,0-17.907,8.017-17.907,17.907
			s8.017,17.907,17.907,17.907c9.89,0,17.907-8.017,17.907-17.907S79.08,39.781,69.19,39.781L69.19,39.781z"/>
	</g>
	<path fill="#FBB040" d="M69.19,37.592c11.081,0,20.096,9.015,20.096,20.096S80.271,77.783,69.19,77.783
		s-20.096-9.015-20.096-20.096S58.109,37.592,69.19,37.592 M69.19,35.878c-12.045,0-21.81,9.765-21.81,21.81
		s9.765,21.81,21.81,21.81S91,69.733,91,57.688S81.235,35.878,69.19,35.878L69.19,35.878z"/>
	<g>
		<g>
			<g>
				
					<polyline fill="none" stroke="#FBB040" stroke-width="1.5" stroke-linecap="round" stroke-linejoin="round" stroke-miterlimit="10" points="
					79.876,49.297 79.876,54.705 74.469,54.705 				"/>
				
					<path fill="none" stroke="#FBB040" stroke-width="1.5" stroke-linecap="round" stroke-linejoin="round" stroke-miterlimit="10" d="
					M60.41,54.705c1.337-3.777,5.496-6.489,9.733-6.489s8.396,2.708,9.733,6.489"/>
			</g>
			<g>
				
					<polyline fill="none" stroke="#FBB040" stroke-width="1.5" stroke-linecap="round" stroke-linejoin="round" stroke-miterlimit="10" points="
					60.41,66.601 60.41,61.193 65.817,61.193 				"/>
				
					<path fill="none" stroke="#FBB040" stroke-width="1.5" stroke-linecap="round" stroke-linejoin="round" stroke-miterlimit="10" d="
					M79.876,61.193c-1.337,3.777-5.496,6.489-9.733,6.489s-8.396-2.708-9.733-6.489"/>
			</g>
		</g>
	</g>
</g>
</svg>
