<svg xmlns="http://www.w3.org/2000/svg" viewBox="0 0 96 96"><defs><style>.cls-1,.cls-6,.cls-7,.cls-9{fill:#fff;}.cls-1,.cls-2,.cls-4,.cls-5,.cls-7,.cls-8{stroke:#fbb040;}.cls-1,.cls-2,.cls-5,.cls-7,.cls-9{stroke-miterlimit:10;}.cls-2,.cls-4,.cls-8{fill:none;}.cls-2,.cls-7,.cls-8,.cls-9{stroke-width:1.5px;}.cls-10,.cls-3{fill:#fbb040;}.cls-4,.cls-8{stroke-linecap:round;stroke-linejoin:round;}.cls-4{stroke-width:2.5px;}.cls-5{fill:#fee7c5;}.cls-9{stroke:#fbb004;}.cls-10{fill-opacity:0.3;}</style></defs><title>mortgage-campaign-icons</title><g id="Your_Icons" data-name="Your Icons"><polygon class="cls-1" points="17.98 39.38 17.73 77.63 79.23 77.63 79.23 39.13 48.73 13.88 17.98 39.38"/><rect class="cls-2" x="63.01" y="16.67" width="8.98" height="25.17" rx="2.76"/><path class="cls-3" d="M45.12,26.17V30a1.31,1.31,0,0,0,2.62,0V26.17a1.31,1.31,0,1,0-2.62,0Z"/><path class="cls-3" d="M45.12,24.84v3.77a1.31,1.31,0,0,0,2.62,0V24.84a1.31,1.31,0,0,0-2.62,0Z"/><path class="cls-3" d="M50,26.17V30a1.32,1.32,0,0,0,2.63,0V26.17a1.32,1.32,0,0,0-2.63,0Z"/><path class="cls-3" d="M50,24.84v3.77a1.32,1.32,0,0,0,2.63,0V24.84a1.32,1.32,0,0,0-2.63,0Z"/><line class="cls-4" x1="14.38" y1="78.05" x2="82.38" y2="78.05"/><line class="cls-4" x1="17.72" y1="39.55" x2="17.72" y2="77.55"/><line class="cls-4" x1="79.22" y1="39.55" x2="79.22" y2="77.55"/><path class="cls-5" d="M45.48,49.8a9.13,9.13,0,1,0-18.26,0c0,.09,0,.18,0,.27h0V69.72A2.74,2.74,0,0,0,30,72.46H42.74a2.74,2.74,0,0,0,2.74-2.74V50.07h0C45.47,50,45.48,49.89,45.48,49.8Z"/><polygon class="cls-6" points="59.23 23.26 77.11 38.26 77.11 57.01 59.23 52.38 59.23 23.26"/><polyline class="cls-4" points="12.57 43.27 48.87 13.29 84.37 43.47"/><path class="cls-2" d="M45.48,49.8a9.13,9.13,0,1,0-18.26,0c0,.09,0,.18,0,.27h0V69.72A2.74,2.74,0,0,0,30,72.46H42.74a2.74,2.74,0,0,0,2.74-2.74V50.07h0C45.47,50,45.48,49.89,45.48,49.8Z"/><circle class="cls-3" cx="32.01" cy="58.4" r="1.85"/><rect class="cls-7" x="53.68" y="45.34" width="16.98" height="16.17" rx="2.76"/><line class="cls-8" x1="54.48" y1="53.55" x2="70.15" y2="53.55"/><line class="cls-8" x1="62.32" y1="45.72" x2="62.32" y2="61.38"/><path class="cls-9" d="M68.69,41c-10.77,0-23.95,8.31-23.95,24A23.95,23.95,0,1,0,68.69,41Z"/><path class="cls-3" d="M66.89,75.26a.55.55,0,0,1-.55-.55V62.37h-4V74.71a.54.54,0,1,1-1.08,0V61.83a.55.55,0,0,1,.54-.55h5.13a.55.55,0,0,1,.54.55V74.71A.55.55,0,0,1,66.89,75.26Z"/><polyline class="cls-10" points="74.11 74.71 74.11 64.84 68.99 64.84 68.99 74.71"/><path class="cls-3" d="M74.11,75.26a.55.55,0,0,1-.54-.55V65.39h-4v9.32a.54.54,0,1,1-1.08,0V64.84A.54.54,0,0,1,69,64.3h5.12a.55.55,0,0,1,.55.54v9.87A.55.55,0,0,1,74.11,75.26Z"/><path class="cls-3" d="M81.34,75.26a.55.55,0,0,1-.54-.55V59.41h-4v15.3a.55.55,0,0,1-.54.55.55.55,0,0,1-.55-.55V58.86a.55.55,0,0,1,.55-.54h5.12a.55.55,0,0,1,.55.54V74.71A.55.55,0,0,1,81.34,75.26Z"/><polyline class="cls-10" points="59.66 74.71 59.66 68.64 54.53 68.64 54.53 74.71"/><path class="cls-3" d="M59.66,75.26a.55.55,0,0,1-.55-.55V69.18h-4v5.53a.55.55,0,0,1-.55.55.55.55,0,0,1-.54-.55V68.64a.55.55,0,0,1,.54-.55h5.13a.55.55,0,0,1,.54.55v6.07A.55.55,0,0,1,59.66,75.26Z"/><path class="cls-3" d="M82.73,75.75H53.23a.55.55,0,0,1-.54-.55.54.54,0,0,1,.54-.54h29.5a.54.54,0,0,1,.54.54A.55.55,0,0,1,82.73,75.75Z"/><path class="cls-3" d="M56.86,63.23a.55.55,0,0,1-.38-.15.54.54,0,0,1,0-.77l7.34-7.75a.52.52,0,0,1,.66-.1l6.61,3.81,5-4.85a.53.53,0,0,1,.76,0,.54.54,0,0,1,0,.77l-5.3,5.14a.54.54,0,0,1-.65.08l-6.59-3.8-7,7.44A.56.56,0,0,1,56.86,63.23Z"/><polygon class="cls-3" points="79.1 51.24 76.85 56.38 76.26 54 73.89 53.33 79.1 51.24"/></g></svg>