<svg width="77" height="86" viewBox="0 0 77 86" xmlns="http://www.w3.org/2000/svg" xmlns:xlink="http://www.w3.org/1999/xlink"><title>icon-Checking Account</title><defs><path id="a" d="M2.92414411e-15 0L77 0 77 86 2.92414411e-15 86z"/></defs><g fill="none" fill-rule="evenodd"><g><mask id="b" fill="#fff"><use xlink:href="#a"/></mask><path d="M39.0900863,86.0000015 C37.1817634,86.0009256 35.2706601,85.5593968 33.7896013,84.6809674 L5.64670469,67.9935851 C2.74575734,66.2728261 0.440755395,62.2870335 0.399048484,58.9177152 L2.92414411e-15,26.2334758 C-0.0393374905,22.8363883 2.23507938,18.8450419 5.17866047,17.1474238 L32.7432213,1.25423802 C35.6914365,-0.444305718 40.287538,-0.412834063 43.2098023,1.31810696 L62.3560548,12.6691924 L60.3782204,15.9959315 L41.2328947,4.6439204 C39.4951067,3.61368651 36.4319658,3.59424814 34.6793488,4.60504364 L7.11571478,20.4973038 C5.36495134,21.5071737 3.85052706,24.1656029 3.87369757,26.1871939 L4.27315709,58.8695821 C4.29818124,60.9133884 5.86450745,63.6227276 7.62361227,64.6668461 L35.7674357,81.3542283 C37.5052237,82.3853879 40.5683646,82.4048262 42.319128,81.3940307 L69.8836888,65.5008449 C71.6353791,64.4900494 73.1507302,61.8325458 73.125706,59.8128061 L72.7262465,27.1267154 C72.7095637,25.7299293 71.9681075,23.9601115 70.8373868,22.6170123 L73.801358,20.1261234 C75.5002195,22.1430862 76.5725505,24.8079949 76.6003551,27.0804335 L77.0003789,59.7655986 C77.0415215,63.1608348 74.7661779,67.1521812 71.8207431,68.8507249 L44.2561823,84.7448363 C42.8029282,85.5825378 40.9474341,86.0000015 39.0900863,86.0000015" fill="#3AC1CC" mask="url(#b)"/></g><path d="M65.623867,62 L11.376133,62 C10.616441,62 10,61.3816325 10,60.6184221 L10,29.3815779 C10,28.6183675 10.616441,28 11.376133,28 L52.5140981,28 C53.2747142,28 53.890231,28.6183675 53.890231,29.3815779 C53.890231,30.1447882 53.2747142,30.7631557 52.5140981,30.7631557 L12.7522659,30.7631557 L12.7522659,59.2359158 L64.2477341,59.2359158 L64.2477341,41.2837598 C64.2477341,40.5205494 64.8641751,39.9021819 65.623867,39.9021819 C66.383559,39.9021819 67,40.5205494 67,41.2837598 L67,60.6184221 C67,61.3816325 66.383559,62 65.623867,62" fill="#3AC1CC"/><path d="M41.8691684 37L18.1308316 37C17.5047215 37 17 36.5536723 17 36 17 35.4479419 17.5047215 35 18.1308316 35L41.8691684 35C42.4934532 35 43 35.4479419 43 36 43 36.5536723 42.4934532 37 41.8691684 37M31.8568133 44L18.1431867 44C17.5120812 44 17 43.5536723 17 43 17 42.4479419 17.5120812 42 18.1431867 42L31.8568133 42C32.4879188 42 33 42.4479419 33 43 33 43.5536723 32.4879188 44 31.8568133 44M22.7996125 54L19.2003875 54C18.536735 54 18 53.5536723 18 53 18 52.4479419 18.536735 52 19.2003875 52L22.7996125 52C23.4622961 52 24 52.4479419 24 53 24 53.5536723 23.4622961 54 22.7996125 54M30.7996125 54L27.2003875 54C26.536735 54 26 53.5536723 26 53 26 52.4479419 26.536735 52 27.2003875 52L30.7996125 52C31.4622961 52 32 52.4479419 32 53 32 53.5536723 31.4622961 54 30.7996125 54M59.9715182 41.8311549L62.2233629 42.8895005 66.6071751 33.4182827 71.9878112 14.2983721 65.2544085 11.137273 54.3326853 27.6461641 49.9451846 37.1192403 51.1024594 37.6628155C51.1319676 37.6739658 51.1605536 37.6869744 51.1900618 37.7009123L59.9337108 41.8125711C59.9466207 41.8181463 59.9586084 41.8246506 59.9715182 41.8311549L59.9715182 41.8311549zM51.2417012 40.781172L47.1280734 49.1336469 56.3724398 45.7430383 57.4577883 43.7025404 51.2417012 40.781172zM44.3727451 53C43.9891385 53 43.6147532 52.8383212 43.3491794 52.5381933 42.9757162 52.1163418 42.8936465 51.5086525 43.1426219 51.0013157L48.7528688 39.6113237 47.5402661 39.040802C47.2101431 38.8865567 46.9547128 38.6050126 46.8311472 38.2602837 46.7066594 37.9155548 46.7223357 37.5355167 46.8763316 37.2028673L51.8890374 26.3815386C51.9185456 26.319283 51.9526644 26.2570274 51.9904718 26.2003469L63.6240803 8.6145264C64.0003099 8.04679226 64.73156 7.8423708 65.3466216 8.12856084L74.2073813 12.2885375C74.8178322 12.5756567 75.1313569 13.2669729 74.9478527 13.9201924L69.2186509 34.2805696C69.198364 34.3511879 69.1734665 34.4208771 69.142114 34.4877786L64.1312525 45.3118948C63.8103508 46.0041402 62.9942646 46.3051973 62.3063547 45.9809105L59.9493871 44.8733179 58.544059 47.5150006C58.3845303 47.8151285 58.1208007 48.044638 57.8035875 48.1607866L44.8421099 52.916373C44.6890361 52.9721243 44.5304296 53 44.3727451 53L44.3727451 53z" fill="#3AC1CC"/></g></svg>