<?xml version="1.0" encoding="UTF-8"?><svg id="Layer_1" xmlns="http://www.w3.org/2000/svg" viewBox="0 0 125 137.58"><defs><style>.cls-1{fill:#3dc1cc;}.cls-2{fill:#b3d7da;}.cls-2,.cls-3{isolation:isolate;opacity:.3;}.cls-3{fill:#fff;}</style></defs><path class="cls-1" d="M124.81,43.53l-.03-.16c-.03-.27-.06-.52-.1-.79-.4-2.84-1.3-5.47-2.67-7.95-.08-.12-.13-.24-.19-.34-.1-.18-.19-.31-.28-.46l-.21-.34-.1-.15c-1.94-2.99-4.6-5.5-7.7-7.29C95.29,15.57,73.92,3.29,73.64,3.14l-.55-.33C69.98,1.03,66.42,.06,62.79,.02c-.12-.02-.22-.02-.31-.02h-.21c-3.66,.06-7.23,1.03-10.37,2.82L11.49,26.05c-3.08,1.78-5.72,4.26-7.62,7.17-.13,.19-.24,.36-.34,.54-.12,.19-.21,.34-.3,.51-.09,.13-.15,.24-.21,.34-1.37,2.48-2.27,5.11-2.67,7.85v.19c-.06,.28-.07,.49-.1,.72l-.03,.16c-.13,.54-.21,1.08-.21,1.61v48.45c0,.12,.02,.22,.02,.33,.06,.51,.13,1.05,.25,1.61,.84,6.63,4.75,12.51,10.47,15.79l40.44,23.27c.45,.25,.93,.49,1.39,.72,.79,.39,1.55,.7,2.38,.99,2,.72,4.14,1.14,6.38,1.26,.12,.01,.27,.01,.42,.01l.96,.02c.09,0,.18-.02,.28-.02h.27c.15,0,.3,0,.51-.01,2.18-.12,4.3-.54,6.28-1.24,.85-.3,1.64-.63,2.38-.99,.27-.13,3.33-1.87,38.49-22.07l3.35-1.93c5.74-3.29,9.65-9.17,10.49-15.75,.09-.55,.18-1.11,.24-1.72,.01-.09,.01-.19,.01-.28V45.14c0-.55-.07-1.09-.19-1.61Zm-5.86,49.99c-.05,.31-.09,.61-.15,.93l-.04,.3c-.58,4.74-3.39,8.97-7.52,11.34l-3.35,1.93c-24.43,14.03-36.91,21.19-38.12,21.88-.58,.27-1.12,.49-1.73,.72-1.45,.51-2.99,.82-4.57,.91h-1.72c-1.76-.09-3.33-.4-4.8-.93-.6-.21-1.17-.45-1.75-.73-.37-.16-.73-.36-1.03-.52L13.76,106.08c-4.12-2.38-6.93-6.6-7.5-11.34l-.03-.22c-.07-.33-.12-.67-.16-1.02V45.08l.04-.16c.06-.19,.11-.42,.12-.63,.03-.34,.06-.63,.1-.91,.02-.06,.02-.15,.03-.22,.31-2.02,.97-3.89,1.96-5.62l.13-.22c.07-.15,.15-.27,.22-.4h0l.19-.28c1.42-2.18,3.38-4.03,5.63-5.33L54.92,8.07c2.26-1.29,4.81-1.99,7.4-2.02h.27c2.69,.03,5.25,.72,7.46,1.99l.57,.33c.61,.34,39.56,22.73,39.88,22.91,2.27,1.32,4.2,3.14,5.59,5.25l.31,.51c.07,.12,.12,.19,.16,.28l.09,.15c1.06,1.87,1.72,3.78,2,5.77,.06,.42,.11,.75,.13,1.08,.02,.19,.06,.4,.12,.6l.05,.31v48.3Z"/><path class="cls-1" d="M106.2,86.03c-.84,0-1.54-.7-1.54-1.54v-12.84c0-.84,.7-1.54,1.54-1.54s1.54,.7,1.54,1.54v12.84c0,.84-.7,1.54-1.54,1.54Z"/><path class="cls-1" d="M111.37,85.89c-.56,0-.98-.42-.98-.98v-12.7c0-.56,.42-.98,.98-.98s.98,.42,.98,.98v12.7c0,.56-.42,.98-.98,.98Z"/><path class="cls-1" d="M93.5,82.26c-.56,0-.98-.42-.98-.98v-11.31c0-.56,.42-.98,.98-.98s.98,.42,.98,.98v11.31c0,.56-.42,.98-.98,.98Z"/><path class="cls-1" d="M100.06,81.57c-.56,0-.98-.42-.98-.98v-9.91c0-.56,.42-.98,.98-.98s.98,.42,.98,.98v9.91c0,.56-.42,.98-.98,.98Z"/><polygon class="cls-2" points="59.57 48.9 54.41 63 47.99 65.79 47.99 68.3 86.24 67.88 105.78 69.7 100.62 59.79 92.52 60.07 82.61 51.69 59.57 48.9"/><path class="cls-2" d="M53.29,82.12l.14,5.58s22.48,.98,28.62,.42c6.14-.56,23.59-2.79,23.59-2.79l.42-5.17s-16.75,2.51-26.8,2.51-25.97-.56-25.97-.56Z"/><polygon class="cls-3" points="34.72 67.05 34.72 74.45 18.11 73.47 29.98 68.02 32.91 68.58 34.72 67.05"/><path class="cls-1" d="M52.04,87.85h-18.15c-.84,0-1.54-.7-1.54-1.54v-10.89l-.14-.28H15.32c-.7,0-1.4-.56-1.54-1.26s.28-1.54,.98-1.81l13.12-5.58c.14-.14,.42-.14,.56-.14h3.35v-30.02c0-.84,.56-1.54,1.4-1.54l21.22-2.65c.7-.14,1.4,.28,1.68,.98l4.75,12.98c0,.14,.14,.28,.14,.56v1.12c2.51,0,7.82,.28,11.87,.56,4.33,.42,9.77,1.12,11.45,2.51l4.61,3.63,4.47,3.77h7.4c.56,0,1.12,.28,1.4,.84l4.47,8.8,2.23,2.37h4.05c.84,0,1.54,.7,1.54,1.54s-.7,1.54-1.54,1.54h-4.75c-.42,0-.84-.14-1.12-.42l-2.93-2.93c-.14-.14-.14-.28-.28-.42l-4.19-8.1h-6.98c-.42,0-.7-.14-.98-.42l-4.89-4.05-4.61-3.63-.14-.14c-.28-.14-2.09-1.12-9.63-1.81-5.44-.42-13.12-.56-13.26-.56-.84,0-1.54-.7-1.54-1.54v-2.37l-4.19-11.59-18.57,2.37v30.16c0,.84-.7,1.54-1.54,1.54h-4.61l-5.58,2.37h10.05c.56,0,.98,.28,1.26,.7l.84,1.4c.14,.28,.28,.56,.28,.84v9.77h16.61c.84,0,1.54,.7,1.54,1.54s-.84,1.81-1.68,1.81Zm29.88-34.76h0Zm0,0h0Z"/><path class="cls-1" d="M52.59,88.41c-.84,0-1.54-.7-1.54-1.54v-17.03h-4.47c-.56,0-1.12-.28-1.4-.84s-.28-1.12,.14-1.68l1.54-2.23c.14-.28,.42-.42,.56-.56l5.86-2.79,4.75-13.54c.28-.84,1.26-1.26,1.95-.98,.84,.28,1.26,1.26,.98,1.95l-4.89,14.1c-.14,.42-.42,.7-.84,.84l-4.89,2.51h2.23c.84,0,1.54,.7,1.54,1.54v18.57c0,.98-.7,1.68-1.54,1.68Z"/><path class="cls-1" d="M70.74,89.8c-10.47,0-18.43-.84-18.57-.84-.56,0-.84-.56-.84-1.12s.56-.84,1.12-.84c.14,0,14.24,1.68,29.04,.56,13.12-.98,23.87-3.21,23.87-3.35h7.96c.56,0,.98,.42,.98,.98s-.56,.98-.98,.98h-7.68c-1.12,.28-11.59,2.37-24.01,3.35-3.77,.28-7.54,.28-10.89,.28Z"/><path class="cls-1" d="M33.05,88.13H16.3c-.84,0-1.54-.7-1.54-1.54s.7-1.54,1.54-1.54h16.75c.84,0,1.54,.7,1.54,1.54,.14,.84-.7,1.54-1.54,1.54Z"/><path class="cls-1" d="M105.37,71.23h-.14c-3.07-.28-19.27-1.81-29.32-1.81-11.17-.14-25.13,.42-25.27,.42-.84,0-1.68-.7-1.68-1.54s.7-1.68,1.54-1.68c.14,0,14.24-.56,25.41-.42,9.77,0,25.13,1.4,29.6,1.81,.84,.14,1.54,.84,1.4,1.68,0,.98-.7,1.54-1.54,1.54Z"/><path class="cls-1" d="M20.21,86.73c-.84,0-1.54-.7-1.54-1.54v-12.98c0-.84,.7-1.54,1.54-1.54s1.54,.7,1.54,1.54v12.98c0,.84-.7,1.54-1.54,1.54Z"/><path class="cls-1" d="M76.05,84.22c-9.77,0-22.9-.7-23.04-.7-.56,0-.98-.42-.84-.98,0-.56,.42-.98,.98-.84,.14,0,17.87,.98,27.36,.7,11.59-.42,19.41-1.4,24.71-3.21,.56-.14,.98,.14,1.26,.56,.14,.56-.14,.98-.56,1.26-5.58,1.81-13.54,2.93-25.27,3.35-1.54-.14-3.07-.14-4.61-.14Z"/><path class="cls-1" d="M63.62,82.96c-.56,0-.98-.42-.98-.98v-13.96c0-.56,.42-.98,.98-.98s.98,.42,.98,.98v13.96c0,.56-.42,.98-.98,.98Z"/><path class="cls-1" d="M74.79,83.24c-.56,0-.98-.42-.98-.98v-13.68c0-.56,.42-.98,.98-.98s.98,.42,.98,.98v13.68c0,.56-.42,.98-.98,.98Z"/><path class="cls-1" d="M85.26,82.82c-.56,0-.98-.42-.98-.98v-13.12c0-.56,.42-.98,.98-.98s.98,.42,.98,.98v13.12c0,.56-.42,.98-.98,.98Z"/><path class="cls-1" d="M59.3,98.04c-21.92,0-43.56-2.79-43.7-2.79-.84-.14-1.54-.84-1.4-1.81s.84-1.54,1.81-1.4c.28,0,21.64,2.79,43.28,2.79,23.45,0,47.89-2.79,48.16-2.79,.84-.14,1.68,.56,1.81,1.4,.14,.84-.56,1.68-1.4,1.81-.28,0-24.85,2.79-48.58,2.79Z"/></svg>