<?xml version="1.0" encoding="UTF-8"?><svg id="Layer_1" xmlns="http://www.w3.org/2000/svg" viewBox="0 0 121.74 134"><defs><style>.cls-1{stroke:#40c0cb;stroke-width:3px;}.cls-1,.cls-2{fill:none;stroke-miterlimit:10;}.cls-3{fill:#5ac5c7;}.cls-4{fill:#5bc6cb;}.cls-2{stroke:#5bc6cb;stroke-width:2.5px;}</style></defs><path class="cls-3" d="M82.85,9.45l-11.65-6.7C68.14,1,64.66,.06,61.1,0h-.2c-.09,0-.19,0-.31,.01-3.54,.04-7,.99-10.03,2.72l-.54,.32c-.28,.15-21.09,12.11-38.83,22.3-3.01,1.75-5.6,4.19-7.5,7.1l-.92-.6,.81,.74-.2,.33c-.09,.15-.17,.28-.28,.45-.06,.1-.12,.22-.19,.33-1.34,2.42-2.21,4.98-2.61,7.74-.04,.26-.07,.51-.1,.77l-.03,.16C.07,42.91,0,43.43,0,43.97v47.17c0,.09,0,.19,.01,.28,.06,.6,.15,1.14,.23,1.67,.82,6.4,4.63,12.14,10.22,15.34l3.26,1.88c34.25,19.68,37.23,21.37,37.49,21.5,.71,.35,1.48,.67,2.31,.96,1.92,.68,3.99,1.09,6.11,1.21,.2,.01,.35,.01,.49,.01h.26c.1,0,.19,.01,.28,.01h.93c.14-.01,.29-.01,.41-.03,2.18-.12,4.26-.52,6.21-1.22,.8-.28,1.54-.58,2.31-.96,.45-.22,.92-.45,1.35-.7l39.38-22.66c5.57-3.2,9.39-8.92,10.2-15.38,.12-.55,.19-1.08,.25-1.57,0-.1,.01-.2,.01-.32V43.97c0-.52-.07-1.05-.2-1.57l-.03-.16c-.03-.22-.04-.42-.09-.7v-.19c-.41-2.66-1.28-5.22-2.62-7.64-.06-.1-.12-.2-.2-.33-.09-.16-.17-.31-.29-.49-.1-.17-.2-.33-.33-.52-1.85-2.84-4.42-5.25-7.42-6.99l-3.99-2.3,1.06,7.4c2.2,1.27,4.1,3.07,5.49,5.2l.19,.26h0c.07,.15,.15,.26,.22,.41l.13,.22c.96,1.69,1.6,3.51,1.91,5.47,.01,.07,.01,.16,.03,.22,.04,.28,.07,.55,.1,.89,.01,.2,.06,.42,.12,.61l.06,.16v47.16c-.06,.33-.1,.67-.17,.99l-.03,.22c-.55,4.61-3.29,8.73-7.31,11.05l-39.35,22.65c-.29,.16-.64,.35-1,.51-.57,.28-1.12,.51-1.7,.71-1.43,.51-2.95,.82-4.67,.9h-1.67c-1.54-.09-3.04-.39-4.45-.89-.6-.22-1.12-.44-1.69-.7-1.18-.67-13.33-7.64-37.13-21.31l-3.26-1.88c-4.02-2.31-6.75-6.43-7.32-11.05l-.04-.29c-.06-.31-.1-.6-.15-.9V44.04l.04-.31c.06-.19,.1-.39,.12-.58,.03-.32,.07-.64,.13-1.05,.28-1.94,.92-3.8,1.95-5.62l.09-.15c.04-.09,.09-.16,.16-.28l.31-.49c1.35-2.05,3.23-3.83,5.44-5.11,.32-.17,38.25-21.98,38.84-22.31l.55-.32c2.15-1.24,4.64-1.91,7.26-1.94h.26c2.52,.03,5.01,.71,7.2,1.96l3.48,2,11.11-.41Z"/><path class="cls-4" d="M106.56,97.53H53.3c-1.61,0-2.91-1.3-2.91-2.91V17.18c0-1.61,1.3-2.91,2.91-2.91h53.26c1.61,0,2.91,1.3,2.91,2.91V94.61c0,1.61-1.3,2.91-2.91,2.91Zm-50.35-5.82h47.44V20.09H56.21V91.7Z"/><path class="cls-4" d="M86.77,97.53h-13.69c-1.61,0-2.91-1.3-2.91-2.91v-30.83c0-1.61,1.3-2.91,2.91-2.91h13.69c1.61,0,2.91,1.3,2.91,2.91v30.83c0,1.61-1.3,2.91-2.91,2.91Zm-10.78-5.82h7.87v-25.01h-7.87v25.01Z"/><path class="cls-4" d="M106.56,20.09H53.3c-1.18,0-2.24-.71-2.69-1.8-.45-1.09-.2-2.34,.63-3.17l6.27-6.27c.55-.55,1.29-.85,2.06-.85h40.73c.77,0,1.51,.31,2.06,.85l6.27,6.27c.83,.83,1.08,2.08,.63,3.17-.45,1.09-1.51,1.8-2.69,1.8Z"/><path class="cls-4" d="M52.74,97.53H16.24c-1.61,0-2.91-1.3-2.91-2.91V36.38c0-1.61,1.3-2.91,2.91-2.91H51.73c1.61,0,2.91,1.3,2.91,2.91s-1.3,2.91-2.91,2.91H19.15v52.42H52.74c1.61,0,2.91,1.3,2.91,2.91s-1.3,2.91-2.91,2.91Z"/><path class="cls-4" d="M92.7,107.84H30.27c-1.61,0-2.91-1.3-2.91-2.91s1.3-2.91,2.91-2.91h62.43c1.61,0,2.91,1.3,2.91,2.91s-1.3,2.91-2.91,2.91Z"/><rect class="cls-1" x="23.64" y="43.47" width="21.7" height="11.8" rx="2.12" ry="2.12"/><rect class="cls-1" x="23.64" y="59.82" width="21.7" height="11.8" rx="2.12" ry="2.12"/><rect class="cls-1" x="23.64" y="76.17" width="21.7" height="11.8" rx="2.12" ry="2.12"/><rect class="cls-2" x="58.91" y="23.86" width="19.05" height="11.16" rx="2.04" ry="2.04"/><rect class="cls-2" x="82.28" y="23.86" width="19.05" height="11.16" rx="2.04" ry="2.04"/><rect class="cls-2" x="58.91" y="39.34" width="19.05" height="11.16" rx="2.04" ry="2.04"/><rect class="cls-2" x="82.28" y="39.34" width="19.05" height="11.16" rx="2.04" ry="2.04"/></svg>