<svg xmlns="http://www.w3.org/2000/svg" viewBox="0 0 83.64 92.06"><defs><style>.cls-1{fill:#59c5c7}</style></defs><g id="Layer_2" data-name="Layer 2"><g id="Layer_1-2" data-name="Layer 1"><path class="cls-1" d="M83.51,29.12l0-.1c0-.2,0-.4-.08-.61a15,15,0,0,0-1.78-5.23l-.13-.24-.36-.59A15.47,15.47,0,0,0,76,17.42L67.8,12.79l-.76-3a2,2,0,0,0-2.47-1.46l-3,.77L61.27,9l-12-6.9-.35-.21A14.25,14.25,0,0,0,42,0h-.35a14.4,14.4,0,0,0-6.93,1.89l-27,15.54a15.08,15.08,0,0,0-5.11,4.8c-.09.13-.16.24-.23.36s-.14.22-.2.33a2,2,0,0,0-.13.24,14.88,14.88,0,0,0-1.78,5.2c0,.23-.07.44-.09.66l0,.11A4.41,4.41,0,0,0,0,30.2V62.63a1.48,1.48,0,0,0,0,.21c0,.35.09.71.16,1.1a14.27,14.27,0,0,0,7,10.56L34.25,90.07q.45.25.93.48a13.53,13.53,0,0,0,1.58.66,15.41,15.41,0,0,0,4.27.84h1.63a15,15,0,0,0,4.2-.84,12.85,12.85,0,0,0,1.59-.65c.18-.09,2.18-1.22,25.68-14.73l2.32-1.33a14.28,14.28,0,0,0,7-10.54c.06-.37.13-.74.16-1.17a1,1,0,0,0,0-.17V30.2A4.43,4.43,0,0,0,83.51,29.12ZM63.61,12.79l3.47,13.58H20l-.59-2.3ZM70,30.42V62.23H14V30.42Zm9.64,32.15c0,.21-.06.42-.1.63l0,.2a10.22,10.22,0,0,1-5,7.59l-2.33,1.33L46.68,86.92c-.39.18-.76.33-1.16.48a11.16,11.16,0,0,1-3.06.61H41.32a11.23,11.23,0,0,1-3.22-.62,10.74,10.74,0,0,1-1.17-.49,6.31,6.31,0,0,1-.69-.36L9.2,71a10.2,10.2,0,0,1-5-7.59.68.68,0,0,0,0-.14c0-.23-.08-.46-.11-.69V30.17l0-.11a2,2,0,0,0,.08-.42c0-.22,0-.42.08-.67a11,11,0,0,1,1.25-3.73l.85-1.33a11.46,11.46,0,0,1,3.37-3l27-15.53a10.16,10.16,0,0,1,4.95-1.35h.18a10.28,10.28,0,0,1,5,1.33l.37.22,8.67,5L16.45,20.65a2,2,0,0,0-1.24.93A2,2,0,0,0,15,23.11l.83,3.26H12a2,2,0,0,0-2,2V64.26a2,2,0,0,0,2,2H72a2,2,0,0,0,2-2V28.39a2,2,0,0,0-2-2h-.72L69.17,18.2l4.76,2.73a11.33,11.33,0,0,1,3.78,3.57l.12.2-.57.5.63-.4A1,1,0,0,1,78,25l.06.09A11,11,0,0,1,79.4,29c0,.23.06.45.08.68a2,2,0,0,0,.08.4l0,.21Z"/><path class="cls-1" d="M23.3 47.51a2 2 0 0 1-2 2h-.39a2 2 0 1 1 0-4.05h.39A2 2 0 0 1 23.3 47.51zM44.58 47.51a2 2 0 0 1-2 2h-.71a2 2 0 1 1 0-4.05h.71A2 2 0 0 1 44.58 47.51zM55.23 47.51a2 2 0 0 1-2 2h-.71a2 2 0 0 1 0-4.05h.71A2 2 0 0 1 55.23 47.51zM33.94 47.51a2 2 0 0 1-2 2h-.71a2 2 0 1 1 0-4.05h.71A2 2 0 0 1 33.94 47.51zM65.56 47.51a2 2 0 0 1-2 2h-.39a2 2 0 1 1 0-4.05h.39A2 2 0 0 1 65.56 47.51zM32.8 37.2a2 2 0 0 1-2 2H21.21a2 2 0 1 1 0-4h9.56A2 2 0 0 1 32.8 37.2z"/></g></g></svg>