<svg xmlns="http://www.w3.org/2000/svg" viewBox="0 0 96 96"><defs><style>.cls-1,.cls-6,.cls-7{fill:#fff;}.cls-1,.cls-2,.cls-4,.cls-5,.cls-7,.cls-8{stroke:#fbb040;}.cls-1,.cls-2,.cls-5,.cls-7{stroke-miterlimit:10;}.cls-2,.cls-4,.cls-8{fill:none;}.cls-2,.cls-7,.cls-8{stroke-width:1.5px;}.cls-3{fill:#fbb040;}.cls-4,.cls-8{stroke-linecap:round;stroke-linejoin:round;}.cls-4{stroke-width:2.5px;}.cls-5{fill:#fee7c5;}</style></defs><title>mortgage-campaign-icons</title><g id="Your_Icons" data-name="Your Icons"><polygon class="cls-1" points="17.98 39.38 17.73 77.63 79.23 77.63 79.23 39.13 48.73 13.88 17.98 39.38"/><rect class="cls-2" x="63.01" y="16.67" width="8.98" height="25.17" rx="2.76"/><path class="cls-3" d="M45.12,26.17V30a1.31,1.31,0,0,0,2.62,0V26.17a1.31,1.31,0,1,0-2.62,0Z"/><path class="cls-3" d="M45.12,24.84v3.77a1.31,1.31,0,0,0,2.62,0V24.84a1.31,1.31,0,0,0-2.62,0Z"/><path class="cls-3" d="M50,26.17V30a1.32,1.32,0,0,0,2.63,0V26.17a1.32,1.32,0,0,0-2.63,0Z"/><path class="cls-3" d="M50,24.84v3.77a1.32,1.32,0,0,0,2.63,0V24.84a1.32,1.32,0,0,0-2.63,0Z"/><line class="cls-4" x1="14.38" y1="78.05" x2="82.38" y2="78.05"/><line class="cls-4" x1="17.72" y1="39.55" x2="17.72" y2="77.55"/><line class="cls-4" x1="79.22" y1="39.55" x2="79.22" y2="77.55"/><path class="cls-5" d="M45.48,49.8a9.13,9.13,0,1,0-18.26,0c0,.09,0,.18,0,.27h0V69.72A2.74,2.74,0,0,0,30,72.46H42.74a2.74,2.74,0,0,0,2.74-2.74V50.07h0C45.47,50,45.48,49.89,45.48,49.8Z"/><polygon class="cls-6" points="59.23 23.26 77.11 38.26 77.11 57.01 59.23 52.38 59.23 23.26"/><polyline class="cls-4" points="12.57 43.27 48.87 13.29 84.37 43.47"/><path class="cls-2" d="M45.48,49.8a9.13,9.13,0,1,0-18.26,0c0,.09,0,.18,0,.27h0V69.72A2.74,2.74,0,0,0,30,72.46H42.74a2.74,2.74,0,0,0,2.74-2.74V50.07h0C45.47,50,45.48,49.89,45.48,49.8Z"/><circle class="cls-3" cx="32.01" cy="58.4" r="1.85"/><rect class="cls-7" x="53.68" y="45.34" width="16.98" height="16.17" rx="2.76"/><line class="cls-8" x1="54.48" y1="53.55" x2="70.15" y2="53.55"/><line class="cls-8" x1="62.32" y1="45.72" x2="62.32" y2="61.38"/></g></svg>