<?xml version="1.0" encoding="utf-8"?>
<!-- Generator: Adobe Illustrator 21.1.0, SVG Export Plug-In . SVG Version: 6.00 Build 0)  -->
<svg version="1.1" id="Layer_1" xmlns="http://www.w3.org/2000/svg" xmlns:xlink="http://www.w3.org/1999/xlink" x="0px" y="0px"
	 viewBox="0 0 92 92" style="enable-background:new 0 0 92 92;" xml:space="preserve">
<style type="text/css">
	.st0{fill:#FFFFFF;}
	.st1{fill:#FBB040;fill-opacity:0.3;}
	.st2{fill:#FBB040;}
	.st3{fill:#FEE7C5;}
	.st4{opacity:0.3;}
	.st5{opacity:0.3;fill:#FBB040;}
	.st6{fill:none;stroke:#FBB004;stroke-width:2.7436;stroke-linecap:round;stroke-linejoin:round;}
	.st7{fill:#FBB004;}
	.st8{fill:none;stroke:#FBB040;stroke-width:2.7436;stroke-linecap:round;stroke-linejoin:round;}
</style>
<g>
	<path class="st2" d="M44,36.8c0,8.5-5.4,12.9-11.2,12.9c-6.2,0-11-4.6-11-12.2c0-7.2,4.4-12.7,11.3-12.7C40.1,24.7,44,29.8,44,36.8
		z M28.8,37.2c0,4.2,1.4,7.3,4.2,7.3c2.7,0,4-2.7,4-7.3c0-4.1-1.1-7.3-4.1-7.3C30.1,29.9,28.8,33.2,28.8,37.2z M33.3,66.6l23.2-41.9
		h5.1L38.3,66.6H33.3z M73.2,53.6c0,8.5-5.4,12.9-11.2,12.9c-6.1,0-11-4.6-11-12.2c0-7.2,4.4-12.7,11.3-12.7
		C69.2,41.6,73.2,46.7,73.2,53.6z M58,54c-0.1,4.2,1.4,7.3,4.1,7.3c2.7,0,4-2.7,4-7.3c0-4.1-1.1-7.3-4-7.3C59.3,46.7,58,50,58,54z"
		/>
</g>
<g>
	<g>
		<path class="st6" d="M73.3,71.9c-15.8,13.8-39.8,12.2-53.7-3.6c-6.3-7.2-9.4-16.1-9.4-24.9"/>
		<g>
			<polygon class="st7" points="16.8,49.7 10.2,45.8 2.7,47.9 11.9,32.1 			"/>
		</g>
	</g>
</g>
<g>
	<g>
		<path class="st8" d="M20.9,18.5C36.7,4.7,60.7,6.3,74.5,22.1c6.3,7.2,9.4,16.1,9.4,24.9"/>
		<g>
			<polygon class="st2" points="77.3,40.7 84,44.6 91.4,42.5 82.3,58.4 			"/>
		</g>
	</g>
</g>
</svg>
