<svg id="Layer_1" xmlns="http://www.w3.org/2000/svg" viewBox="0 0 96 96"><style>.st0{fill:#dc7a09}.st1{opacity:.3}.st2{fill:#fff}</style><g id="Your_Icons"><path class="st0" d="M48,96C21.5,96,0,74.5,0,48S21.5,0,48,0s48,21.5,48,48S74.5,96,48,96z M48,2.5C22.9,2.5,2.5,22.9,2.5,48 S22.9,93.5,48,93.5S93.5,73.1,93.5,48S73.1,2.5,48,2.5z"/><g class="st1"><path class="st0" d="M52.9,46.4h16.8c3.7,0,6.7,2.8,6.7,6.3V59c0,3.5-3,6.3-6.7,6.3h-1.7v6.3l-7.6-6.3h-7.6 c-3.7,0-6.7-2.8-6.7-6.3v-6.3C46.1,49.2,49.2,46.4,52.9,46.4z"/><path class="st0" d="M68.1,72.9c-0.3,0-0.6-0.1-0.8-0.3l-7.2-6h-7.1c-4.4,0-8-3.4-8-7.6v-6.3c0-4.2,3.6-7.6,8-7.6h16.8 c4.4,0,8,3.4,8,7.6V59c0,4.2-3.6,7.6-8,7.6h-0.4v5.1c0,0.5-0.3,0.9-0.7,1.1C68.4,72.9,68.2,72.9,68.1,72.9z M52.9,47.6 c-3,0-5.5,2.3-5.5,5.1V59c0,2.8,2.5,5.1,5.5,5.1h7.6c0.3,0,0.6,0.1,0.8,0.3l5.5,4.6v-3.7c0-0.7,0.6-1.3,1.3-1.3h1.7 c3,0,5.5-2.3,5.5-5.1v-6.3c0-2.8-2.5-5.1-5.5-5.1L52.9,47.6L52.9,47.6z"/></g><path class="st2" d="M54.2,24.3H29.4c-5.5,0-9.9,4.5-9.9,10v10c0,5.5,4.4,10,9.9,10h2.5v10l11.2-10h11.2c5.5,0,9.9-4.5,9.9-10 v-10C64.1,28.8,59.7,24.3,54.2,24.3z"/><path class="st0" d="M31.9,65.5c-0.2,0-0.3,0-0.5-0.1c-0.5-0.2-0.7-0.6-0.7-1.1v-8.7h-1.2c-6.2,0-11.2-5-11.2-11.2v-10 c0-6.2,5-11.2,11.2-11.2h24.8c6.2,0,11.2,5,11.2,11.2v10c0,6.2-5,11.2-11.2,11.2H43.6l-10.8,9.7C32.5,65.4,32.2,65.5,31.9,65.5z M29.4,25.6c-4.8,0-8.7,3.9-8.7,8.7v10c0,4.8,3.9,8.7,8.7,8.7h2.5c0.7,0,1.3,0.6,1.3,1.3v7.2l9.1-8.1c0.2-0.2,0.5-0.3,0.8-0.3 h11.2c4.8,0,8.7-3.9,8.7-8.7v-10c0-4.8-3.9-8.7-8.7-8.7L29.4,25.6L29.4,25.6z"/></g></svg>