<svg xmlns="http://www.w3.org/2000/svg" viewBox="0 0 96 96"><defs><style>.cls-1,.cls-2{fill:none;stroke:#fbb004;stroke-miterlimit:10;stroke-width:3px;}.cls-1{stroke-linecap:round;}</style></defs><title>mortgage-campaign-icons</title><g id="Your_Icons" data-name="Your Icons"><line class="cls-1" x1="7.74" y1="52.26" x2="28.74" y2="52.26"/><line class="cls-1" x1="13.74" y1="43.26" x2="34.74" y2="43.26"/><line class="cls-1" x1="15.24" y1="59.76" x2="34.74" y2="59.76"/><path class="cls-2" d="M27.79,38.86a27,27,0,1,1-.64,25.6"/><line class="cls-2" x1="51.24" y1="25.26" x2="51.24" y2="19.26"/><line class="cls-1" x1="46.74" y1="19.26" x2="55.74" y2="19.26"/><line class="cls-2" x1="33.24" y1="31.26" x2="28.74" y2="26.76"/><line class="cls-1" x1="31.74" y1="23.76" x2="25.74" y2="29.76"/><line class="cls-2" x1="67.74" y1="31.26" x2="72.24" y2="26.76"/><line class="cls-1" x1="69.24" y1="23.76" x2="75.24" y2="29.76"/><path class="cls-1" d="M38.83,37.21A19.51,19.51,0,0,1,65.49,39"/><circle class="cls-2" cx="51.24" cy="53.76" r="4.5"/><line class="cls-2" x1="47.49" y1="56.26" x2="42.24" y2="59.76"/><line class="cls-1" x1="69.24" y1="41.76" x2="54.98" y2="51.26"/></g></svg>