<svg id="Layer_1" data-name="Layer 1" xmlns="http://www.w3.org/2000/svg" viewBox="0 0 92 92"><defs><style>.cls-1,.cls-2{fill:#fbb040;}.cls-2{fill-opacity:0.3;}</style></defs><title>Learn and PLan CTA Icons( content)first</title><path class="cls-1" d="M43.62,72.37a1.21,1.21,0,0,1-1.21-1.21V43.73h-9V71.17a1.21,1.21,0,1,1-2.42,0V42.53a1.21,1.21,0,0,1,1.21-1.21H43.62a1.21,1.21,0,0,1,1.21,1.21V71.17A1.21,1.21,0,0,1,43.62,72.37Z"/><polyline class="cls-2" points="59.69 71.17 59.69 49.23 48.3 49.23 48.3 71.17"/><path class="cls-1" d="M59.69,72.37a1.21,1.21,0,0,1-1.21-1.21V50.44h-9V71.17a1.21,1.21,0,1,1-2.42,0V49.23A1.21,1.21,0,0,1,48.3,48H59.69a1.21,1.21,0,0,1,1.21,1.21V71.17A1.21,1.21,0,0,1,59.69,72.37Z"/><path class="cls-1" d="M75.75,72.37a1.21,1.21,0,0,1-1.21-1.21v-34h-9v34a1.21,1.21,0,0,1-2.42,0V35.94a1.21,1.21,0,0,1,1.21-1.21H75.75A1.21,1.21,0,0,1,77,35.94V71.17A1.21,1.21,0,0,1,75.75,72.37Z"/><polyline class="cls-2" points="27.56 71.17 27.56 57.66 16.17 57.66 16.17 71.17"/><path class="cls-1" d="M27.56,72.37a1.21,1.21,0,0,1-1.21-1.21V58.87h-9v12.3a1.21,1.21,0,1,1-2.42,0V57.66a1.21,1.21,0,0,1,1.21-1.21H27.56a1.21,1.21,0,0,1,1.21,1.21v13.5A1.21,1.21,0,0,1,27.56,72.37Z"/><path class="cls-1" d="M78.83,73.46H13.28a1.21,1.21,0,0,1,0-2.42H78.83a1.21,1.21,0,0,1,0,2.42Z"/><path class="cls-1" d="M21.34,45.65a1.21,1.21,0,0,1-.88-2l16.3-17.24a1.21,1.21,0,0,1,1.48-.22l14.68,8.47L64,23.84a1.21,1.21,0,0,1,1.68,1.73L54,37a1.21,1.21,0,0,1-1.45.18L37.86,28.73,22.21,45.27A1.21,1.21,0,0,1,21.34,45.65Z"/><polygon class="cls-1" points="70.76 19 65.77 30.42 64.45 25.13 59.2 23.65 70.76 19"/></svg>