<svg id="Layer_1" data-name="Layer 1" xmlns="http://www.w3.org/2000/svg" viewBox="0 0 92 92"><defs><style>.cls-1,.cls-2{fill:#fbb040;}.cls-1{fill-opacity:0.3;}.cls-3{fill:#fff;}.cls-4{fill:#fee7c5;}</style></defs><title>Learn and PLan CTA Icons( content)first</title><rect class="cls-1" x="9.92" y="15.07" width="71.75" height="64.8" rx="5.7" ry="5.7"/><path class="cls-2" d="M76,81.12H15.62a7,7,0,0,1-7-7V20.77a7,7,0,0,1,7-7H76a7,7,0,0,1,7,7v53.4A7,7,0,0,1,76,81.12ZM15.62,16.32a4.46,4.46,0,0,0-4.45,4.45v53.4a4.46,4.46,0,0,0,4.45,4.45H76a4.46,4.46,0,0,0,4.45-4.45V20.77A4.46,4.46,0,0,0,76,16.32Z"/><path class="cls-3" d="M76.46,34V69.46a5.72,5.72,0,0,1-5.7,5.7H20.83a5.72,5.72,0,0,1-5.7-5.7V34Z"/><path class="cls-2" d="M70.76,75.91H20.83a6.46,6.46,0,0,1-6.45-6.45V33.28H77.21V69.46A6.46,6.46,0,0,1,70.76,75.91ZM15.88,34.78V69.46a5,5,0,0,0,5,5H70.76a5,5,0,0,0,5-5V34.78Z"/><rect class="cls-4" x="34.19" y="39.38" width="9.34" height="7.13"/><path class="cls-2" d="M42.82,40.09V45.8H34.9V40.09h7.92m1.43-1.43H33.47v8.56H44.24V38.66Z"/><rect class="cls-4" x="47.5" y="39.38" width="9.34" height="7.13"/><path class="cls-2" d="M56.13,40.09V45.8H48.21V40.09h7.92m1.43-1.43H46.78v8.56H57.55V38.66Z"/><rect class="cls-4" x="60.81" y="39.38" width="9.34" height="7.13"/><path class="cls-2" d="M69.44,40.09V45.8H61.52V40.09h7.92m1.43-1.43H60.1v8.56H70.86V38.66Z"/><rect class="cls-4" x="20.88" y="50.49" width="9.34" height="7.13"/><path class="cls-2" d="M29.51,51.21v5.71H21.59V51.21h7.92m1.43-1.43H20.16v8.56H30.93V49.78Z"/><rect class="cls-4" x="34.19" y="50.49" width="9.34" height="7.13"/><path class="cls-2" d="M42.82,51.21v5.71H34.9V51.21h7.92m1.43-1.43H33.47v8.56H44.24V49.78Z"/><rect class="cls-4" x="47.5" y="50.49" width="9.34" height="7.13"/><path class="cls-2" d="M56.13,51.21v5.71H48.21V51.21h7.92m1.43-1.43H46.78v8.56H57.55V49.78Z"/><rect class="cls-4" x="60.81" y="50.49" width="9.34" height="7.13"/><path class="cls-2" d="M69.44,51.21v5.71H61.52V51.21h7.92m1.43-1.43H60.1v8.56H70.86V49.78Z"/><rect class="cls-4" x="20.88" y="61.61" width="9.34" height="7.13"/><path class="cls-2" d="M29.51,62.32V68H21.59V62.32h7.92m1.43-1.43H20.16v8.56H30.93V60.9Z"/><rect class="cls-4" x="34.19" y="61.61" width="9.34" height="7.13"/><path class="cls-2" d="M42.82,62.32V68H34.9V62.32h7.92m1.43-1.43H33.47v8.56H44.24V60.9Z"/><path class="cls-2" d="M27.46,15.61c0,1.39,0,2.78,0,4.16a3.19,3.19,0,0,1-3.54,3.34,3.23,3.23,0,0,1-3.56-3.35q0-4.2,0-8.4A3.26,3.26,0,0,1,24,8a3.22,3.22,0,0,1,3.51,3.4C27.47,12.78,27.46,14.19,27.46,15.61Z"/><path class="cls-2" d="M64,15.55c0-1.41,0-2.82,0-4.23A3.22,3.22,0,0,1,67.52,8a3.26,3.26,0,0,1,3.61,3.31q0,4.27,0,8.53a3.19,3.19,0,0,1-3.34,3.29A5.79,5.79,0,0,1,66.5,23,3.13,3.13,0,0,1,64,20c0-1.48,0-3,0-4.44Z"/></svg>