<svg id="Layer_1" data-name="Layer 1" xmlns="http://www.w3.org/2000/svg" viewBox="0 0 92 92"><defs><style>.cls-1{fill:#fff;stroke-width:2.15px;}.cls-1,.cls-4{stroke:#fbb040;stroke-linecap:round;stroke-linejoin:round;}.cls-2{fill:#fee7c5;}.cls-3{fill:#fbb040;}.cls-4{fill:none;stroke-width:1.29px;}</style></defs><title>Learn and PLan CTA Icons( content)first</title><rect class="cls-1" x="19.95" y="42.54" width="64.36" height="33.47"/><rect class="cls-1" x="19.95" y="35.17" width="64.36" height="35.98"/><rect class="cls-2" x="24.18" y="39.99" width="56.01" height="26.9"/><path class="cls-3" d="M74.42,51.46a3,3,0,0,1-1.87-.63,2,2,0,0,1,0-3.31,3.39,3.39,0,0,1,3.93.07.57.57,0,1,1-.71.89,2.3,2.3,0,0,0-2.51-.07.91.91,0,0,0,0,1.53,1.85,1.85,0,0,0,1.15.38.57.57,0,1,1,0,1.14Z"/><path class="cls-3" d="M74.41,54.84a3.32,3.32,0,0,1-2-.66.57.57,0,0,1,.71-.89,2.3,2.3,0,0,0,2.51.07.91.91,0,0,0,0-1.53,1.85,1.85,0,0,0-1.15-.38.57.57,0,0,1,0-1.14,3,3,0,0,1,1.87.62,2,2,0,0,1,0,3.31A3,3,0,0,1,74.41,54.84Z"/><path class="cls-3" d="M74.42,48a.57.57,0,0,1-.57-.57V46.23a.57.57,0,1,1,1.14,0v1.24A.57.57,0,0,1,74.42,48Z"/><path class="cls-3" d="M74.42,56.12a.57.57,0,0,1-.57-.57V54.3a.57.57,0,1,1,1.14,0v1.24A.57.57,0,0,1,74.42,56.12Z"/><line class="cls-4" x1="29.74" y1="56.52" x2="67.5" y2="56.52"/><line class="cls-4" x1="29.74" y1="62.24" x2="46.05" y2="62.24"/><line class="cls-4" x1="29.74" y1="48.51" x2="31.46" y2="48.51"/><line class="cls-4" x1="42.51" y1="48.51" x2="44.22" y2="48.51"/><line class="cls-4" x1="35.39" y1="48.51" x2="40.54" y2="48.51"/><line class="cls-4" x1="51.2" y1="62.24" x2="67.5" y2="62.24"/><circle class="cls-3" cx="33.37" cy="48.55" r="0.68"/><path class="cls-3" d="M76.12,26.81c7,13.73,8.51,12,8.51,12,0,.94-.77,3.5-1.72,3.5H20c-.94,0-6.39-.64-15-15.16-.72-1.2-.07-1.72.88-1.72H73C74.24,25.52,75.71,26,76.12,26.81Z"/><rect class="cls-3" x="74.51" y="35.18" width="9.65" height="4.93"/></svg>