<svg id="Layer_1" data-name="Layer 1" xmlns="http://www.w3.org/2000/svg" viewBox="0 0 92 92"><defs><style>.cls-1{fill:#fff;}.cls-2{fill:#fee7c5;}.cls-3{fill:#fbb040;}</style></defs><title>Learn and PLan CTA Icons( content)first</title><path class="cls-1" d="M78,32.49H74.3L70.6,18.63a6,6,0,0,0-7.34-4.25L11.78,28.12a6,6,0,0,0-4.25,7.34l8.54,32A6,6,0,0,0,18.69,71v.61a6,6,0,0,0,6,6H78a6,6,0,0,0,6-6V38.49A6,6,0,0,0,78,32.49Z"/><rect class="cls-2" x="7.97" y="29.39" width="66.19" height="9.5" transform="translate(-7.32 11.54) rotate(-14.7)"/><path class="cls-3" d="M21.86,73.15a7.26,7.26,0,0,1-7-5.38l-8.54-32a7.27,7.27,0,0,1,5.13-8.87L62.93,13.17a7.27,7.27,0,0,1,8.88,5.13l8.54,32a7.26,7.26,0,0,1-5.14,8.87L23.73,72.9A7.21,7.21,0,0,1,21.86,73.15ZM64.8,15.42a4.74,4.74,0,0,0-1.22.16L12.1,29.33a4.77,4.77,0,0,0-3.36,5.81l8.54,32a4.75,4.75,0,0,0,5.81,3.36L74.57,56.75a4.76,4.76,0,0,0,3.36-5.81l-8.54-32a4.78,4.78,0,0,0-4.59-3.52Z"/><rect class="cls-3" x="7.12" y="28.97" width="64.5" height="1.5" transform="translate(-6.33 11.16) rotate(-14.94)"/><rect class="cls-3" x="9.44" y="37.67" width="64.5" height="1.5" transform="translate(-8.49 12.05) rotate(-14.94)"/><rect class="cls-1" x="18.69" y="32.49" width="65.28" height="45.1" rx="6" ry="6"/><path class="cls-3" d="M78,78.84H24.69a7.26,7.26,0,0,1-7.25-7.25V38.49a7.26,7.26,0,0,1,7.25-7.25H78a7.26,7.26,0,0,1,7.25,7.25v33.1A7.26,7.26,0,0,1,78,78.84ZM24.69,33.74a4.76,4.76,0,0,0-4.75,4.75v33.1a4.76,4.76,0,0,0,4.75,4.75H78a4.76,4.76,0,0,0,4.75-4.75V38.49A4.76,4.76,0,0,0,78,33.74Z"/><circle class="cls-3" cx="56.42" cy="66.07" r="1.61" transform="translate(-30.19 59.24) rotate(-45)"/><circle class="cls-3" cx="62.64" cy="66.07" r="1.61" transform="translate(-28.37 63.64) rotate(-45)"/><circle class="cls-3" cx="68.86" cy="66.07" r="1.61" transform="translate(-26.55 68.04) rotate(-45)"/><circle class="cls-3" cx="75.08" cy="66.07" r="1.61" transform="translate(-24.73 72.44) rotate(-45)"/><path class="cls-3" d="M39.75,40.33H28A1.31,1.31,0,0,0,28,43H39.75a1.31,1.31,0,0,0,0-2.62Z"/><path class="cls-3" d="M41.09,40.33H29.31a1.31,1.31,0,1,0,0,2.62H41.08a1.31,1.31,0,0,0,0-2.62Z"/></svg>