<svg id="Layer_1" data-name="Layer 1" xmlns="http://www.w3.org/2000/svg" viewBox="0 0 92 92"><defs><style>.cls-1{fill:#fee7b3;stroke-width:0.96px;}.cls-1,.cls-2,.cls-4,.cls-5,.cls-6{stroke:#fbb004;}.cls-1,.cls-2{stroke-miterlimit:10;}.cls-2,.cls-4,.cls-6{fill:none;}.cls-2,.cls-4,.cls-5,.cls-6{stroke-linecap:round;}.cls-2{stroke-width:0.97px;}.cls-3{fill:#fbb004;}.cls-4,.cls-5,.cls-6{stroke-linejoin:round;}.cls-4{stroke-width:2.09px;}.cls-5{fill:#fff;stroke-width:1.41px;}.cls-6{stroke-width:2.35px;}</style></defs><title>Learn and PLan CTA Icons( content)first</title><path class="cls-1" d="M78.88,43.5H67C62.24,47,56.84,54,56.84,59.58c0,7.7,4.29,11.79,16.08,11.79S89,67.28,89,59.58C89,54,83.6,47,78.88,43.5Z"/><path class="cls-2" d="M78.54,43.6c.38-5.52,4.59-10.7,4.59-10.7l-8,3.22L72.8,30.75l-2.29,5.37-8-3.22s4.41,6.16,4.44,10.46l-.31.24C61.9,47.07,56.5,54.11,56.5,59.68c0,7.7,4.29,11.79,16.08,11.79s16.08-4.09,16.08-11.79C88.66,54.11,83.26,47.07,78.54,43.6Z"/><path class="cls-3" d="M83.25,33l-8,3.22-2.29-5.37-2.29,5.37L62.6,33s4.59,6.44,4.59,10.74H78.66C78.66,39.46,83.25,33,83.25,33Z"/><path class="cls-4" d="M69.17,61a3.74,3.74,0,1,0,3.74-3.74,3.74,3.74,0,1,1,3.74-3.74"/><line class="cls-4" x1="72.91" y1="64.72" x2="72.91" y2="67.22"/><line class="cls-4" x1="72.91" y1="47.29" x2="72.91" y2="49.78"/><path class="cls-1" d="M26.78,41.1H14.86C10.14,44.57,4.74,51.62,4.74,57.18,4.74,64.88,9,69,20.82,69S36.9,64.88,36.9,57.18C36.9,51.62,31.49,44.57,26.78,41.1Z"/><path class="cls-2" d="M26.44,41.19C26.82,35.67,31,30.5,31,30.5l-8,3.22L20.7,28.35l-2.29,5.37-8-3.22S14.79,36.66,14.82,41l-.31.24C9.8,44.67,4.39,51.71,4.39,57.27c0,7.7,4.29,11.79,16.08,11.79S36.56,65,36.56,57.27C36.56,51.71,31.16,44.67,26.44,41.19Z"/><path class="cls-3" d="M31.15,30.62l-8,3.22-2.29-5.37-2.29,5.37-8-3.22s4.59,6.44,4.59,10.74H26.56C26.56,37.06,31.15,30.62,31.15,30.62Z"/><path class="cls-4" d="M17.07,58.59a3.74,3.74,0,1,0,3.74-3.74,3.74,3.74,0,1,1,3.74-3.74"/><line class="cls-4" x1="20.81" y1="62.32" x2="20.81" y2="64.81"/><line class="cls-4" x1="20.81" y1="44.89" x2="20.81" y2="47.38"/><path class="cls-5" d="M53.65,39.74H38.06c-6.16,4.54-13.23,13.75-13.23,21,0,10.06,5.6,15.41,21,15.41s21-5.35,21-15.41C66.87,53.48,59.81,44.28,53.65,39.74Z"/><path class="cls-3" d="M60.68,22.85l-11.3,5.08-3.23-8.46-3.23,8.46-11.3-5.08S38.08,33,38.08,39.78H54.22C54.22,33,60.68,22.85,60.68,22.85Z"/><path class="cls-6" d="M41.8,61.53a4.2,4.2,0,1,0,4.2-4.2,4.2,4.2,0,1,1,4.2-4.2"/><line class="cls-6" x1="46" y1="65.73" x2="46" y2="68.54"/><line class="cls-6" x1="46" y1="46.12" x2="46" y2="48.92"/></svg>