<svg id="Layer_1" data-name="Layer 1" xmlns="http://www.w3.org/2000/svg" viewBox="0 0 92 92"><defs><style>.cls-1{fill:#fff;}.cls-2{opacity:0.3;}.cls-3{fill:#fbb040;}</style></defs><title>Learn and PLan CTA Icons( content)first</title><circle class="cls-1" cx="45.57" cy="46.11" r="36"/><circle class="cls-1" cx="45.57" cy="46.11" r="36"/><g class="cls-2"><circle class="cls-3" cx="45.57" cy="46.11" r="29.56"/></g><path class="cls-3" d="M45.57,18.06A28.06,28.06,0,1,1,17.51,46.11,28.09,28.09,0,0,1,45.57,18.06m0-1.5A29.56,29.56,0,1,0,75.13,46.11,29.56,29.56,0,0,0,45.57,16.56Z"/><path class="cls-3" d="M45.57,12.61a33.5,33.5,0,1,1-33.5,33.5,33.54,33.54,0,0,1,33.5-33.5m0-2.5a36,36,0,1,0,36,36,36,36,0,0,0-36-36Z"/><path class="cls-3" d="M38.08,65.38V63.2a12.4,12.4,0,0,0,3.47-.36q.46-.26.6-1.49.22-1.68.24-7.4,0-2.48-.07-4.58l-.07-3.12a3.32,3.32,0,0,0-.33-1.91,2.92,2.92,0,0,0-1.79-.42l-2-.09v-2a33,33,0,0,0,10.57-2.25l.66.54q-.42,5.09-.45,14.82a67.72,67.72,0,0,0,.16,6.8,1.54,1.54,0,0,0,.49,1.07,13.89,13.89,0,0,0,3.47.49v2.18q-4.8-.17-7.42-.18Q44.23,65.24,38.08,65.38ZM45.6,26.8a4.14,4.14,0,1,1-.05,8.27,4.14,4.14,0,1,1,.05-8.27Z"/></svg>