<svg id="Layer_1" data-name="Layer 1" xmlns="http://www.w3.org/2000/svg" viewBox="0 0 92 92"><defs><style>.cls-1{fill:#fff;}.cls-2,.cls-3{fill:#fbb040;}.cls-2{opacity:0.3;}</style></defs><title>Learn and PLan CTA Icons( content)first</title><path class="cls-1" d="M39.27,14.9C23.07,14.9,9.9,25.56,9.9,38.65,9.9,45,13,51,18.62,55.54a1.12,1.12,0,0,1,.3,1.37L13.5,67.75l14.62-6.8a1.1,1.1,0,0,1,.8-.06,35.43,35.43,0,0,0,10.35,1.52c16.19,0,29.37-10.66,29.37-23.75S55.46,14.9,39.27,14.9Z"/><path class="cls-2" d="M11.07,70.89a1.11,1.11,0,0,1-1-1.61l6.46-12.9c-5.73-4.87-8.87-11.24-8.87-18.06,0-14.33,14.17-26,31.6-26s31.6,11.66,31.6,26-14.17,26-31.6,26a37.73,37.73,0,0,1-10.59-1.49l-17.13,8A1.11,1.11,0,0,1,11.07,70.89Zm28.2-56.33C23.07,14.56,9.9,25.22,9.9,38.32c0,6.39,3.1,12.39,8.73,16.89a1.12,1.12,0,0,1,.3,1.37L13.5,67.41l14.62-6.8a1.1,1.1,0,0,1,.8-.06,35.43,35.43,0,0,0,10.35,1.52c16.19,0,29.37-10.66,29.37-23.75S55.46,14.56,39.27,14.56Z"/><path class="cls-3" d="M33.11,55c.7,11.91,13.11,20.87,27.71,20A31.82,31.82,0,0,0,70,73.16l15.61,6.18L79,67.81c4.67-4.2,7.38-9.84,7-15.87-.7-11.92-13.11-20.88-27.71-20S32.41,43.13,33.11,55Z"/><path class="cls-1" d="M60.66,51.93c1.43-2,2.72-3.35,2.72-5.89,0-2.72-1.38-4.29-4.06-4.29-1.7,0-3.21.67-3.75,1.7a3.48,3.48,0,0,1,2.5,3.3,3.35,3.35,0,0,1-3.57,3.48,3.81,3.81,0,0,1-3.88-4.11c0-4,3.75-7.59,10-7.59,6.52,0,10.22,3.66,10.22,7.95,0,3.53-1.92,5.31-4.55,7.14-2.28,1.52-3.93,3-4.73,5.67H58.11A12.3,12.3,0,0,1,60.66,51.93ZM55.93,66a4,4,0,1,1,4,3.84A3.84,3.84,0,0,1,55.93,66Z"/></svg>