<svg id="Layer_1" data-name="Layer 1" xmlns="http://www.w3.org/2000/svg" viewBox="0 0 92 92"><defs><style>.cls-1{fill:#fbb040;}.cls-2,.cls-4{fill:none;stroke-linecap:round;stroke-linejoin:round;stroke-width:2.74px;}.cls-2{stroke:#fbb004;}.cls-3{fill:#fbb004;}.cls-4{stroke:#fbb040;}</style></defs><title>Learn and PLan CTA Icons( content)first</title><path class="cls-1" d="M44,36.76c0,8.47-5.36,12.9-11.22,12.9-6.17,0-11-4.61-11-12.21,0-7.23,4.42-12.71,11.34-12.71S44,29.85,44,36.76Zm-15.2.44c0,4.24,1.43,7.29,4.17,7.29s4-2.74,4-7.29c0-4.11-1.12-7.29-4.05-7.29S28.8,33.15,28.8,37.2Zm4.49,29.41L56.53,24.74h5.11L38.34,66.61Zm39.88-13c0,8.47-5.36,12.9-11.22,12.9-6.1,0-11-4.61-11-12.21,0-7.23,4.42-12.71,11.34-12.71S73.17,46.67,73.17,53.59ZM58,54c-.06,4.24,1.37,7.29,4.11,7.29s4-2.74,4-7.29c0-4.11-1.06-7.29-4-7.29S58,50,58,54Z"/><path class="cls-2" d="M73.27,71.9A38,38,0,0,1,10.17,43.4"/><polygon class="cls-3" points="16.84 49.66 10.15 45.79 2.73 47.92 11.85 32.06 16.84 49.66"/><path class="cls-4" d="M20.86,18.51A38,38,0,0,1,84,47"/><polygon class="cls-1" points="77.29 40.75 83.98 44.62 91.41 42.49 82.28 58.35 77.29 40.75"/></svg>