<svg id="Layer_1" data-name="Layer 1" xmlns="http://www.w3.org/2000/svg" viewBox="0 0 92 92"><defs><style>.cls-1{fill:#fee7c5;}.cls-2{fill:none;}.cls-2,.cls-3,.cls-5{stroke:#fbb040;}.cls-2,.cls-3{stroke-linecap:round;stroke-linejoin:round;stroke-width:1.5px;}.cls-3,.cls-5{fill:#fff;}.cls-4{fill:#fbb040;}.cls-5{stroke-miterlimit:10;stroke-width:2.5px;}</style></defs><title>Learn and PLan CTA Icons( content)first</title><circle class="cls-1" cx="55.75" cy="19.77" r="13.02"/><circle class="cls-2" cx="55.75" cy="19.77" r="13.02"/><circle class="cls-3" cx="55.75" cy="19.77" r="9.6"/><path class="cls-4" d="M77.4,47.95a7.76,7.76,0,0,0,.34,1.61,10.76,10.76,0,0,0,3.09-.17A6.6,6.6,0,0,0,83,48.26h.24a5.36,5.36,0,0,0,4.61-2.69.79.79,0,0,0-1.38-.78,4,4,0,0,1-2.1,1.74,4.15,4.15,0,0,0,.18-2.93,2.92,2.92,0,0,0-5.39-.3,3.13,3.13,0,0,0-.12,2.22A3.81,3.81,0,0,0,81,47.66c-.18.06-.37.1-.54.18A6.9,6.9,0,0,1,77.4,47.95ZM80.53,45a1.36,1.36,0,0,1,.06-1.08,1.31,1.31,0,0,1,.78-.72.89.89,0,0,1,.42-.06,1.37,1.37,0,0,1,1.32.9,2.91,2.91,0,0,1-.24,2c0,.06-.06.06-.06.12a.6.6,0,0,1-.3.24C81.91,46.7,80.83,45.86,80.53,45Z"/><path class="cls-4" d="M55.75,20.43a3.47,3.47,0,0,1-2.17-.73,2.38,2.38,0,0,1,0-3.84,3.94,3.94,0,0,1,4.57.08.66.66,0,1,1-.83,1,2.68,2.68,0,0,0-2.92-.08,1.06,1.06,0,0,0,0,1.78,2.15,2.15,0,0,0,1.34.44.66.66,0,1,1,0,1.32Z"/><path class="cls-4" d="M55.73,24.37a3.86,3.86,0,0,1-2.38-.77.66.66,0,0,1,.83-1,2.67,2.67,0,0,0,2.91.08,1.06,1.06,0,0,0,0-1.78,2.15,2.15,0,0,0-1.34-.44.66.66,0,0,1,0-1.32,3.47,3.47,0,0,1,2.17.73,2.38,2.38,0,0,1,0,3.84A3.52,3.52,0,0,1,55.73,24.37Z"/><path class="cls-4" d="M55.75,16.46a.66.66,0,0,1-.66-.66V14.35a.66.66,0,1,1,1.32,0V15.8A.66.66,0,0,1,55.75,16.46Z"/><path class="cls-4" d="M55.75,25.85a.66.66,0,0,1-.66-.66V23.74a.66.66,0,0,1,1.32,0v1.45A.66.66,0,0,1,55.75,25.85Z"/><path class="cls-5" d="M77.75,52.3c0-14.08-14-25.5-31.25-25.5a37.79,37.79,0,0,0-9.24,1.14,12.14,12.14,0,0,0-6.51-7.39v9.73a28.5,28.5,0,0,0-12.44,11H12.79A4.6,4.6,0,0,0,8.2,45.87v11a4.6,4.6,0,0,0,4.59,4.59h4.56A27,27,0,0,0,28.22,73v7a3,3,0,0,0,3,3H33.5a3,3,0,0,0,3-3V76.47a37.64,37.64,0,0,0,10,1.33,37.1,37.1,0,0,0,13.16-2.37V80a3,3,0,0,0,3,3h2.25a3,3,0,0,0,3-3v-9.2C74,66.16,77.75,59.59,77.75,52.3Z"/><circle class="cls-4" cx="30.85" cy="42.65" r="2.26"/></svg>