<?xml version="1.0" encoding="utf-8"?>
<!-- Generator: Adobe Illustrator 21.1.0, SVG Export Plug-In . SVG Version: 6.00 Build 0)  -->
<svg version="1.1" id="Layer_1" xmlns="http://www.w3.org/2000/svg" xmlns:xlink="http://www.w3.org/1999/xlink" x="0px" y="0px"
	 viewBox="0 0 92 92" style="enable-background:new 0 0 92 92;" xml:space="preserve">
<style type="text/css">
	.st0{fill:#FFFFFF;}
	.st1{fill:#FBB040;fill-opacity:0.3;}
	.st2{fill:#FBB040;}
	.st3{fill:#FEE7C5;}
	.st4{opacity:0.3;}
	.st5{opacity:0.3;fill:#FBB040;}
	.st6{fill:none;stroke:#FBB004;stroke-width:2.7436;stroke-linecap:round;stroke-linejoin:round;}
	.st7{fill:#FBB004;}
	.st8{fill:none;stroke:#FBB040;stroke-width:2.7436;stroke-linecap:round;stroke-linejoin:round;}
</style>
<g>
	<circle class="st0" cx="45.6" cy="46.1" r="36"/>
</g>
<g>
	<circle class="st0" cx="45.6" cy="46.1" r="36"/>
</g>
<g class="st4">
	<circle class="st2" cx="45.6" cy="46.1" r="29.6"/>
</g>
<path class="st2" d="M45.6,18.1c15.5,0,28.1,12.6,28.1,28.1S61,74.2,45.6,74.2S17.5,61.6,17.5,46.1S30.1,18.1,45.6,18.1 M45.6,16.6
	C29.2,16.6,16,29.8,16,46.1s13.2,29.6,29.6,29.6s29.6-13.2,29.6-29.6S61.9,16.6,45.6,16.6L45.6,16.6z"/>
<path class="st2" d="M45.6,12.6c18.5,0,33.5,15,33.5,33.5S64,79.6,45.6,79.6s-33.5-15-33.5-33.5S27.1,12.6,45.6,12.6 M45.6,10.1
	c-19.9,0-36,16.1-36,36c0,19.9,16.1,36,36,36s36-16.1,36-36C81.6,26.2,65.5,10.1,45.6,10.1L45.6,10.1z"/>
<g>
	<path class="st2" d="M38.1,65.4l0-2.2c2-0.1,3.2-0.2,3.5-0.4c0.3-0.2,0.5-0.7,0.6-1.5c0.1-1.1,0.2-3.6,0.2-7.4c0-1.7,0-3.2-0.1-4.6
		l-0.1-3.1c0-1-0.1-1.7-0.3-1.9c-0.2-0.2-0.8-0.4-1.8-0.4l-2-0.1l0-2c4.3-0.3,7.8-1.1,10.6-2.3l0.7,0.5c-0.3,3.4-0.4,8.3-0.4,14.8
		c0,3.8,0,6,0.2,6.8c0.1,0.6,0.2,0.9,0.5,1.1c0.2,0.2,1.4,0.3,3.5,0.5l0,2.2c-3.2-0.1-5.7-0.2-7.4-0.2
		C44.7,65.2,42.2,65.3,38.1,65.4z M45.6,26.8c1.1,0,2.1,0.4,2.9,1.2c0.8,0.8,1.2,1.8,1.2,2.9c0,1.1-0.4,2.1-1.2,2.9
		c-0.8,0.8-1.8,1.2-2.9,1.2c-1.1,0-2.1-0.4-2.9-1.2c-0.8-0.8-1.2-1.8-1.2-2.9c0-1.2,0.4-2.1,1.2-2.9S44.4,26.8,45.6,26.8z"/>
</g>
</svg>
