<?xml version="1.0" encoding="utf-8"?>
<!-- Generator: Adobe Illustrator 24.2.3, SVG Export Plug-In . SVG Version: 6.00 Build 0)  -->
<svg version="1.1" xmlns="http://www.w3.org/2000/svg" xmlns:xlink="http://www.w3.org/1999/xlink" x="0px" y="0px"
	 viewBox="0 0 173 173" style="enable-background:new 0 0 173 173;" xml:space="preserve">
<style type="text/css">
	.st0{display:none;}
	.st1{fill:#021D49;}
</style>
<g id="Layer_2" class="st0">
</g>
<g id="art">
	<g>
		<path class="st1" d="M146.31,62.24l-0.03-0.14c-0.03-0.29-0.07-0.57-0.11-0.88c-0.37-2.63-1.23-5.15-2.55-7.5
			c-0.07-0.14-0.13-0.24-0.19-0.34l-0.52-0.85c-1.92-2.94-4.48-5.35-7.45-7.07l-11.69-6.64l-1.09-4.25
			c-0.2-0.75-0.67-1.39-1.33-1.78c-0.67-0.4-1.46-0.5-2.21-0.32l-4.35,1.1l-0.39-0.22c-14.17-8.15-16.79-9.64-17.25-9.9l-0.5-0.3
			c-2.98-1.71-6.4-2.64-9.89-2.68c-0.11-0.01-0.22-0.01-0.29-0.01h-0.22c-3.51,0.06-6.94,0.99-9.94,2.71l-38.79,22.3
			c-2.97,1.71-5.51,4.09-7.33,6.89c-0.13,0.19-0.23,0.34-0.33,0.52c-0.11,0.17-0.2,0.32-0.29,0.47c-0.09,0.14-0.14,0.24-0.19,0.34
			c-1.33,2.4-2.2,4.89-2.55,7.46c-0.06,0.33-0.1,0.63-0.13,0.95l-0.03,0.16c-0.13,0.52-0.19,1.03-0.19,1.54v46.53
			c0,0.1,0,0.2,0.01,0.3c0.04,0.5,0.13,1.02,0.23,1.58c0.8,6.36,4.56,11.99,10.06,15.15l38.84,22.34c0.43,0.24,0.87,0.47,1.33,0.69
			c0.75,0.37,1.49,0.67,2.27,0.95c1.92,0.67,3.99,1.09,6.13,1.21c0.13,0.01,0.27,0.01,0.42,0.01h1.45c0.14,0,0.29,0,0.47-0.01
			c2.1-0.11,4.13-0.53,6.03-1.21c0.82-0.27,1.58-0.59,2.28-0.93c0.26-0.13,3.13-1.75,36.84-21.13l3.33-1.91
			c5.51-3.16,9.27-8.81,10.07-15.12c0.09-0.53,0.19-1.06,0.23-1.68c0.01-0.09,0.01-0.16,0.01-0.24V63.79
			C146.5,63.27,146.44,62.76,146.31,62.24z M117.76,38.81l4.98,19.48H55.19l-0.85-3.3L117.76,38.81z M126.86,64.1v45.64H46.54V64.1
			H126.86z M140.69,110.23c-0.04,0.3-0.09,0.6-0.14,0.9l-0.04,0.29c-0.56,4.55-3.24,8.61-7.2,10.89l-3.34,1.91
			c-23.04,13.24-35.32,20.29-36.48,20.95c-0.56,0.26-1.09,0.47-1.66,0.69c-1.39,0.49-2.87,0.79-4.39,0.88l-1.02,0.01l-0.62-0.01
			c-1.69-0.09-3.2-0.39-4.62-0.89c-0.57-0.2-1.12-0.43-1.68-0.7c-0.36-0.16-0.7-0.34-0.99-0.52L39.7,122.31
			c-3.96-2.28-6.66-6.34-7.2-10.89c0-0.07-0.01-0.13-0.03-0.2c-0.06-0.33-0.11-0.66-0.16-0.99L32.3,63.75l0.06-0.16
			c0.06-0.19,0.1-0.4,0.11-0.6c0.03-0.32,0.06-0.6,0.11-0.96c0.26-1.84,0.86-3.64,1.79-5.35l1.22-1.91
			c1.31-1.72,2.96-3.19,4.84-4.28l38.78-22.28c2.17-1.25,4.62-1.91,7.1-1.94h0.26c2.58,0.03,5.04,0.69,7.17,1.91l0.53,0.32
			l12.44,7.14L50.1,50.09c-0.75,0.19-1.39,0.66-1.78,1.33c-0.4,0.66-0.52,1.45-0.32,2.2l1.19,4.68h-5.55c-1.61,0-2.9,1.31-2.9,2.9
			v51.46c0,1.59,1.29,2.9,2.9,2.9h86.11c1.61,0,2.9-1.31,2.9-2.9V61.19c0-1.59-1.29-2.9-2.9-2.9h-1.03l-2.98-11.72l6.83,3.92
			c2.18,1.26,4.06,3.04,5.42,5.12l0.17,0.29l-0.82,0.72l0.9-0.57c0.06,0.07,0.1,0.16,0.14,0.24l0.09,0.13
			c1.03,1.82,1.66,3.69,1.94,5.61c0.06,0.33,0.09,0.65,0.11,0.98c0.01,0.19,0.06,0.37,0.11,0.57l0.04,0.3V110.23z"/>
		<path class="st1" d="M59.93,88.62c0,1.61-1.31,2.9-2.91,2.9h-0.56c-1.61,0-2.91-1.29-2.91-2.9c0-1.61,1.31-2.91,2.91-2.91h0.56
			C58.62,85.71,59.93,87.02,59.93,88.62z"/>
		<path class="st1" d="M90.46,88.62c0,1.61-1.29,2.9-2.9,2.9h-1.02c-1.61,0-2.91-1.29-2.91-2.9c0-1.61,1.31-2.91,2.91-2.91h1.02
			C89.17,85.71,90.46,87.02,90.46,88.62z"/>
		<path class="st1" d="M105.74,88.62c0,1.61-1.31,2.9-2.91,2.9h-1.02c-1.59,0-2.9-1.29-2.9-2.9c0-1.61,1.31-2.91,2.9-2.91h1.02
			C104.43,85.71,105.74,87.02,105.74,88.62z"/>
		<path class="st1" d="M75.19,88.62c0,1.61-1.31,2.9-2.9,2.9h-1.02c-1.61,0-2.91-1.29-2.91-2.9c0-1.61,1.31-2.91,2.91-2.91h1.02
			C73.89,85.71,75.19,87.02,75.19,88.62z"/>
		<path class="st1" d="M120.56,88.62c0,1.61-1.31,2.9-2.91,2.9h-0.56c-1.61,0-2.91-1.29-2.91-2.9c0-1.61,1.31-2.91,2.91-2.91h0.56
			C119.25,85.71,120.56,87.02,120.56,88.62z"/>
		<path class="st1" d="M73.56,73.83c0,1.61-1.31,2.91-2.91,2.91H56.93c-1.61,0-2.91-1.31-2.91-2.91c0-1.59,1.31-2.9,2.91-2.9h13.72
			C72.25,70.93,73.56,72.24,73.56,73.83z"/>
	</g>
</g>
</svg>
