<?xml version="1.0" encoding="utf-8"?>
<!-- Generator: Adobe Illustrator 21.0.2, SVG Export Plug-In . SVG Version: 6.00 Build 0)  -->
<svg version="1.1" id="Layer_1" xmlns="http://www.w3.org/2000/svg" xmlns:xlink="http://www.w3.org/1999/xlink" x="0px" y="0px"
	 viewBox="0 0 43 38.2" style="enable-background:new 0 0 43 38.2;" xml:space="preserve">
<style type="text/css">
	.st0{fill:none;}
	.st1{fill:#B2D6DA;}
	.st2{fill:#FFFFFF;}
	.st3{fill:#007886;}
</style>
<g>
	<path class="st0" d="M15.7,33.9c2.2,0.5,3.9,0.8,7,0.8h11.7c1.9,0,2-0.5,2-1.1c0-1.1-0.9-2-2-2c-0.4,0-0.7-0.3-0.7-0.7
		s0.3-0.7,0.7-0.7h1.8c1.1,0,2-0.9,2-2c0-1.1-0.9-2-2-2c-0.4,0-0.7-0.3-0.7-0.7s0.3-0.7,0.7-0.7h1.8c1.1,0,2-0.9,2-2s-0.9-2-2-2
		c-0.4,0-0.7-0.3-0.7-0.7s0.3-0.7,0.7-0.7h1.8c1,0,2-1.7,2-2.9c0-1.1-0.9-2-2-2H25.3c-0.2,0-0.4-0.1-0.6-0.3
		c-0.1-0.2-0.1-0.4-0.1-0.6c0-0.1,2.6-6.1,1.8-9c-0.7-2.5-2-3.3-2.8-3.2c-0.7,0.1-1.2,0.8-1.2,1.7c0,6.8-6.4,14.6-11.2,15.8V33
		C13.1,33.3,14.5,33.6,15.7,33.9z"/>
	<path class="st1" d="M9,16.7H2.2V36H9V16.7z M6.5,34.4c-0.5,0-0.9-0.4-0.9-0.9c0-0.5,0.4-0.9,0.9-0.9s0.9,0.4,0.9,0.9
		C7.4,34,7,34.4,6.5,34.4z"/>
	<path class="st2" d="M43,16.5c0-1.9-1.5-3.4-3.4-3.4H26.3c0.7-1.9,2.2-6.3,1.5-9c-0.9-3.3-2.8-4.3-4.3-4.1c-1.4,0.2-2.4,1.5-2.4,3
		c0,6.4-5.9,13.2-9.9,14.4v1.4C16,17.7,22.4,9.9,22.4,3c0-0.9,0.5-1.6,1.2-1.7c0.9-0.1,2.1,0.6,2.8,3.2c0.8,2.9-1.7,9-1.8,9
		c-0.1,0.2-0.1,0.4,0.1,0.6c0.1,0.2,0.3,0.3,0.6,0.3h14.4c1.1,0,2,0.9,2,2c0,1.2-1,2.9-2,2.9h-1.8c-0.4,0-0.7,0.3-0.7,0.7
		s0.3,0.7,0.7,0.7c1.1,0,2,0.9,2,2s-0.9,2-2,2h-1.8c-0.4,0-0.7,0.3-0.7,0.7s0.3,0.7,0.7,0.7c1.1,0,2,0.9,2,2c0,1.1-0.9,2-2,2h-1.8
		c-0.4,0-0.7,0.3-0.7,0.7s0.3,0.7,0.7,0.7c1.1,0,2,0.9,2,2c0,0.6-0.2,1.1-2,1.1H22.6c-3.1,0-4.7-0.3-7-0.8c-1.2-0.3-2.6-0.5-4.5-0.8
		v1.4c1.7,0.3,3,0.5,4.2,0.8c2.3,0.5,4,0.8,7.2,0.8h11.7c0.8,0,3.4,0,3.4-2.5c0-0.8-0.3-1.5-0.8-2.1c1.5-0.4,2.5-1.7,2.5-3.3
		c0-0.8-0.3-1.5-0.8-2.1c1.5-0.4,2.5-1.7,2.5-3.3c0-0.8-0.3-1.6-0.8-2.2C42,20.1,43,18,43,16.5z"/>
	<path class="st2" d="M11.2,18.8v-1.4v-1.8c0-0.6-0.5-1.1-1.1-1.1h-9C0.5,14.5,0,15,0,15.6v21.5c0,0.6,0.5,1.1,1.1,1.1h9
		c0.6,0,1.1-0.5,1.1-1.1v-2.7V33V18.8z M2.2,16.7H9V36H2.2V16.7z"/>
	<circle class="st3" cx="6.5" cy="33.5" r="0.9"/>
</g>
</svg>
