<?xml version="1.0" encoding="utf-8"?>
<!-- Generator: Adobe Illustrator 21.0.2, SVG Export Plug-In . SVG Version: 6.00 Build 0)  -->
<svg version="1.1" id="Layer_1" xmlns="http://www.w3.org/2000/svg" xmlns:xlink="http://www.w3.org/1999/xlink" x="0px" y="0px"
	 viewBox="0 0 83.9 54.1" style="enable-background:new 0 0 83.9 54.1;" xml:space="preserve">
<style type="text/css">
	.st0{fill:none;}
	.st1{fill:#B2D6DA;}
	.st2{fill:#007886;}
	.st3{fill:#FFFFFF;}
</style>
<g>
	<path class="st0" d="M72.4,17c0.2-3.3,2.4-7.4,3.7-9.5l-6.8,2.9l-1.9-4.9l-1.9,4.9l-6.8-2.9c1.2,2.1,3.5,6.2,3.7,9.5H72.4z"/>
	<path class="st0" d="M21.7,17.6c0.2-3.3,2.4-7.4,3.7-9.5L18.6,11l-1.9-4.9L14.7,11L7.9,8.1c1.2,2.1,3.5,6.2,3.7,9.5H21.7z"/>
	<path class="st1" d="M17.6,39.4v1.4c0,0.5-0.4,0.9-0.9,0.9c-0.5,0-0.9-0.4-0.9-0.9v-1.4c-1.9-0.4-3.3-2.1-3.3-4.1
		c0-0.5,0.4-0.9,0.9-0.9c0.5,0,0.9,0.4,0.9,0.9c0,1.3,1.1,2.4,2.4,2.4c0.9,0,1.7-0.5,2.1-1.2c0.1-0.4,0.2-0.9,0.3-1.3
		c-0.1-1.2-1.1-2.2-2.4-2.2c-2.3,0-4.2-1.9-4.2-4.2c0-2,1.4-3.7,3.3-4.1v-1.4c0-0.5,0.4-0.9,0.9-0.9c0.5,0,0.9,0.4,0.9,0.9v1.4
		c1.9,0.4,3.3,2.1,3.3,4.1c0,0.5-0.4,0.9-0.9,0.9c-0.5,0-0.9-0.4-0.9-0.9c0-1.3-1.1-2.4-2.4-2.4s-2.4,1.1-2.4,2.4s1.1,2.4,2.4,2.4
		c1.3,0,2.5,0.6,3.2,1.5c1.5-3.7,4-7.5,6.9-10.7c-1.3-1.5-2.8-2.8-4.1-3.8h-0.1c0,0,0,0,0,0v0.5h-12v-0.5c0,0,0,0,0,0h-0.1
		C5.6,21.6,0,28.9,0,34.6c0,7.9,4.4,12.2,16.6,12.2c1.2,0,2.3-0.1,3.4-0.1c-1-2.1-1.4-4.7-1.5-7.6C18.3,39.2,18,39.3,17.6,39.4z"/>
	<path class="st1" d="M10.6,18.6h12v-0.5c0,0,0,0,0,0c0-4.2,4.3-10.7,4.3-10.8l0.9-1.4l-8.8,3.8l-2.5-6.2l-2.5,6.2L5.3,5.9l0.9,1.4
		c0,0.1,4.3,6.5,4.3,10.8c0,0,0,0,0,0V18.6z M14.7,11l1.9-4.9l1.9,4.9l6.8-2.9c-1.2,2.1-3.5,6.2-3.7,9.5H11.5
		c-0.2-3.3-2.4-7.4-3.7-9.5L14.7,11z"/>
	<path class="st2" d="M15.8,39.4v1.4c0,0.5,0.4,0.9,0.9,0.9c0.5,0,0.9-0.4,0.9-0.9v-1.4c-0.3,0.1-0.6,0.1-0.9,0.1
		S16.1,39.5,15.8,39.4z"/>
	<path class="st2" d="M17.6,24.5v-1.4c0-0.5-0.4-0.9-0.9-0.9c-0.5,0-0.9,0.4-0.9,0.9v1.4c0.3-0.1,0.6-0.1,0.9-0.1
		S17.3,24.4,17.6,24.5z"/>
	<path class="st2" d="M16.7,31c-1.3,0-2.4-1.1-2.4-2.4s1.1-2.4,2.4-2.4s2.4,1.1,2.4,2.4c0,0.5,0.4,0.9,0.9,0.9
		c0.5,0,0.9-0.4,0.9-0.9c0-2-1.4-3.7-3.3-4.1c-0.3-0.1-0.6-0.1-0.9-0.1s-0.6,0-0.9,0.1c-1.9,0.4-3.3,2.1-3.3,4.1
		c0,2.3,1.9,4.2,4.2,4.2c1.3,0,2.3,1,2.4,2.2c0.2-0.8,0.5-1.7,0.9-2.6C19.2,31.6,18,31,16.7,31z"/>
	<path class="st2" d="M16.7,37.6c-1.3,0-2.4-1.1-2.4-2.4c0-0.5-0.4-0.9-0.9-0.9c-0.5,0-0.9,0.4-0.9,0.9c0,2,1.4,3.7,3.3,4.1
		c0.3,0.1,0.6,0.1,0.9,0.1s0.6,0,0.9-0.1c0.3-0.1,0.6-0.2,0.9-0.3c0,0,0-0.1,0-0.1c0-0.8,0.1-1.7,0.3-2.5
		C18.4,37.1,17.6,37.6,16.7,37.6z"/>
	<path class="st1" d="M73.5,17.4h-0.1c0,0,0,0,0,0v0.5h-12v-0.5c0,0,0,0,0,0h-0.1c-1.8,1.3-3.7,3.2-5.4,5.2c4.3,5,7.6,11.2,7.6,16.3
		c0,2.6-0.4,4.9-1.1,6.9c1.5,0.2,3.2,0.3,5.1,0.3c12.2,0,16.6-4.2,16.6-12.2C83.9,28.3,78.3,21,73.5,17.4z M67.4,30.4
		c2.3,0,4.2,1.9,4.2,4.2c0,2-1.4,3.7-3.3,4.1v1.4c0,0.5-0.4,0.9-0.9,0.9s-0.9-0.4-0.9-0.9v-1.4c-1.9-0.4-3.3-2.1-3.3-4.1
		c0-0.5,0.4-0.9,0.9-0.9c0.5,0,0.9,0.4,0.9,0.9c0,1.3,1.1,2.4,2.4,2.4s2.4-1.1,2.4-2.4c0-1.3-1.1-2.4-2.4-2.4
		c-2.3,0-4.2-1.9-4.2-4.2c0-2,1.4-3.7,3.3-4.1v-1.4c0-0.5,0.4-0.9,0.9-0.9s0.9,0.4,0.9,0.9v1.4c1.9,0.4,3.3,2.1,3.3,4.1
		c0,0.5-0.4,0.9-0.9,0.9c-0.5,0-0.9-0.4-0.9-0.9c0-1.3-1.1-2.4-2.4-2.4S65,26.6,65,28C65,29.3,66.1,30.4,67.4,30.4z"/>
	<path class="st1" d="M61.3,17.9h12v-0.5c0,0,0,0,0,0c0-4.2,4.3-10.7,4.3-10.8l0.9-1.4L69.8,9l-2.5-6.2L64.8,9L56,5.3l0.9,1.4
		c0,0.1,4.3,6.5,4.3,10.8c0,0,0,0,0,0V17.9z M65.4,10.3l1.9-4.9l1.9,4.9L76,7.4c-1.2,2.1-3.5,6.2-3.7,9.5H62.2
		c-0.2-3.3-2.4-7.4-3.7-9.5L65.4,10.3z"/>
	<path class="st2" d="M66.5,38.7v1.4c0,0.5,0.4,0.9,0.9,0.9s0.9-0.4,0.9-0.9v-1.4c-0.3,0.1-0.6,0.1-0.9,0.1S66.8,38.8,66.5,38.7z"/>
	<path class="st2" d="M68.4,23.8v-1.4c0-0.5-0.4-0.9-0.9-0.9s-0.9,0.4-0.9,0.9v1.4c0.3-0.1,0.6-0.1,0.9-0.1S68.1,23.8,68.4,23.8z"/>
	<path class="st2" d="M67.4,25.6c1.3,0,2.4,1.1,2.4,2.4c0,0.5,0.4,0.9,0.9,0.9c0.5,0,0.9-0.4,0.9-0.9c0-2-1.4-3.7-3.3-4.1
		c-0.3-0.1-0.6-0.1-0.9-0.1s-0.6,0-0.9,0.1c-1.9,0.4-3.3,2.1-3.3,4.1c0,2.3,1.9,4.2,4.2,4.2c1.3,0,2.4,1.1,2.4,2.4
		c0,1.3-1.1,2.4-2.4,2.4S65,35.9,65,34.6c0-0.5-0.4-0.9-0.9-0.9c-0.5,0-0.9,0.4-0.9,0.9c0,2,1.4,3.7,3.3,4.1
		c0.3,0.1,0.6,0.1,0.9,0.1s0.6,0,0.9-0.1c1.9-0.4,3.3-2.1,3.3-4.1c0-2.3-1.9-4.2-4.2-4.2c-1.3,0-2.4-1.1-2.4-2.4
		C65,26.6,66.1,25.6,67.4,25.6z"/>
	<path class="st3" d="M48.9,18.8H34.5c-0.4,0-0.7-0.3-0.7-0.7c0,0,0,0,0-0.1h-0.6C26.7,22.9,20,32,20,39c0,10.6,6.3,15.2,21,15.2
		s21-4.5,21-15.2c0-6.7-6.2-15.4-12.5-20.4C49.3,18.7,49.1,18.8,48.9,18.8z M41.1,34.2c3.1,0,5.6,2.5,5.6,5.6c0,2.6-1.9,4.9-4.3,5.4
		V47c0,0.7-0.5,1.2-1.2,1.2s-1.2-0.5-1.2-1.2v-1.8c-2.5-0.6-4.3-2.8-4.3-5.4c0-0.7,0.5-1.2,1.2-1.2c0.7,0,1.2,0.5,1.2,1.2
		c0,1.7,1.4,3.1,3.1,3.1s3.1-1.4,3.1-3.1c0-1.7-1.4-3.1-3.1-3.1c-3.1,0-5.6-2.5-5.6-5.6c0-2.6,1.9-4.9,4.3-5.4v-1.8
		c0-0.7,0.5-1.2,1.2-1.2s1.2,0.5,1.2,1.2v1.8c2.5,0.6,4.3,2.8,4.3,5.4c0,0.7-0.5,1.2-1.2,1.2s-1.2-0.5-1.2-1.2
		c0-1.7-1.4-3.1-3.1-3.1S38,29.4,38,31.1C38,32.8,39.4,34.2,41.1,34.2z"/>
	<path class="st3" d="M33.7,18C33.7,18,33.7,18,33.7,18c0,0.5,0.3,0.8,0.7,0.8h14.5c0.2,0,0.4-0.1,0.5-0.2c0.1-0.1,0.2-0.3,0.2-0.5
		c0-0.4,0-0.8,0.1-1.1c0.7-5.5,5.5-12.8,5.6-12.9c0.2-0.3,0.2-0.6,0-0.9c-0.2-0.2-0.5-0.3-0.8-0.2L45,7l-2.6-6.5
		c-0.2-0.6-1.1-0.6-1.4,0L38.4,7l-9.4-4c-0.3-0.1-0.6,0-0.8,0.2c-0.2,0.2-0.2,0.6,0,0.9c0.1,0.1,4.7,7.1,5.5,12.6
		C33.7,17,33.7,17.5,33.7,18z M38.5,8.6c0.2,0.1,0.4,0.1,0.6,0c0.2-0.1,0.3-0.2,0.4-0.4l2.2-5.5l2.2,5.5c0.1,0.2,0.2,0.3,0.4,0.4
		c0.2,0.1,0.4,0.1,0.6,0l8-3.4c-1.6,2.8-4.4,8-4.7,12.2H35.2c-0.3-4.2-3-9.4-4.7-12.2L38.5,8.6z"/>
	<path class="st2" d="M41.1,42.9c-1.7,0-3.1-1.4-3.1-3.1c0-0.7-0.5-1.2-1.2-1.2c-0.7,0-1.2,0.5-1.2,1.2c0,2.6,1.9,4.9,4.3,5.4v-1.1
		C39.9,43.4,40.4,42.9,41.1,42.9z"/>
	<path class="st2" d="M41.1,27.9c1.7,0,3.1,1.4,3.1,3.1c0,0.7,0.5,1.2,1.2,1.2s1.2-0.5,1.2-1.2c0-2.6-1.9-4.9-4.3-5.4v1.1
		C42.3,27.4,41.8,27.9,41.1,27.9z"/>
	<path class="st2" d="M41.1,27.9c-0.7,0-1.2-0.5-1.2-1.2v-1.1c-2.5,0.6-4.3,2.8-4.3,5.4c0,3.1,2.5,5.6,5.6,5.6
		c1.7,0,3.1,1.4,3.1,3.1c0,1.7-1.4,3.1-3.1,3.1c0.7,0,1.2,0.5,1.2,1.2v1.1c2.5-0.6,4.3-2.8,4.3-5.4c0-3.1-2.5-5.6-5.6-5.6
		c-1.7,0-3.1-1.4-3.1-3.1C38,29.4,39.4,27.9,41.1,27.9z"/>
	<path class="st2" d="M41.1,42.9c-0.7,0-1.2,0.5-1.2,1.2v1.1V47c0,0.7,0.5,1.2,1.2,1.2s1.2-0.5,1.2-1.2v-1.8v-1.1
		C42.3,43.4,41.8,42.9,41.1,42.9z"/>
	<path class="st2" d="M41.1,27.9c0.7,0,1.2-0.5,1.2-1.2v-1.1v-1.8c0-0.7-0.5-1.2-1.2-1.2s-1.2,0.5-1.2,1.2v1.8v1.1
		C39.9,27.4,40.4,27.9,41.1,27.9z"/>
</g>
</svg>
