<?xml version="1.0" encoding="utf-8"?>
<!-- Generator: Adobe Illustrator 21.0.2, SVG Export Plug-In . SVG Version: 6.00 Build 0)  -->
<svg version="1.1" id="Layer_1" xmlns="http://www.w3.org/2000/svg" xmlns:xlink="http://www.w3.org/1999/xlink" x="0px" y="0px"
	 viewBox="0 0 106.7 71.4" style="enable-background:new 0 0 106.7 71.4;" xml:space="preserve">
<style type="text/css">
	.st0{fill:#FFFFFF;stroke:#007886;stroke-width:2.6269;stroke-linecap:round;stroke-linejoin:round;stroke-miterlimit:10;}
	.st1{fill:#BED2D3;}
	.st2{fill:none;stroke:#007886;stroke-width:2.5;stroke-linecap:round;stroke-linejoin:round;stroke-miterlimit:10;}
	.st3{fill:#FFFFFF;stroke:#007886;stroke-width:2.5;stroke-linecap:round;stroke-linejoin:round;stroke-miterlimit:10;}
	.st4{fill:#007886;}
	.st5{fill:#FFFFFF;}
	.st6{fill:#2A4874;}
	.st7{fill:#BFC8D5;}
</style>
<g>
	<path class="st5" d="M20.2,1.3c0,0-9,3.8-8.7,14.8C11.9,27,18,30.3,18,30.3s-3.6,3.8-6.6,4.8s-7.2,2.2-8.5,7.2S0.7,54.3,2.3,57
		c1.6,2.7,15,5.7,29,4.3c1.1,3.4,1.3,6.8,11.5,7.8S68.1,70.3,72,68c3.2-2.8,3.9-4.9,3.9-6.2c4.6-0.1,20-0.1,24.1-1.7
		c4.1-1.6,6.6-4.9,5.7-8.3s-2.1-12.4-6.1-14.9S92,34,91.4,33.5C90.7,33,89,30.7,89,30.7s5.3-4.5,3.8-12.9c2.1-1.9,3.5-3.5,3.5-4.6
		c-0.9-1.4-2.8-5.9-5.8-7.1C87.4,4.9,82.3,2.9,79,4.9s-5.5,4.5-6.8,7.5s-0.8,6.8,0.3,8.4c1,1.6,1.8,7.7,4.3,9.9
		c-1,1.8-3.5,3.9-7.1,4.8c-1.3-2.3-3.2-8.3-3.2-11.1s0.3-7.9-1.8-10.3c-2-2.3-6.6-6.2-11.4-6c-4.8,0.2-10.8,3.2-11.9,8.8
		c-1.1,5.7-1.2,10.4-1.8,12.7c-0.6,2.3-2.3,5.8-2.3,5.8s-2.8-0.8-4.9-2.2c-2.2-1.4-2.8-3.2-2.8-3.2s3.1-4.2,3.6-6.8s2.3-6.6,1.8-8.7
		s-1.8-5.6-3.4-6.9c-1.7-1.3-4.2-2.2-6-2.7C23.9,4.7,20.4,2.1,20.2,1.3z"/>
	<path class="st6" d="M13.5,53.5h-1.9c-2,0-3.6-1.6-3.6-3.6V47c0-2,1.6-3.6,3.6-3.6h1.9c2,0,3.6,1.6,3.6,3.6v2.9
		C17.1,51.8,15.4,53.5,13.5,53.5z M11.6,45.9c-0.6,0-1.1,0.5-1.1,1.1v2.9c0,0.6,0.5,1.1,1.1,1.1h1.9c0.6,0,1.1-0.5,1.1-1.1V47
		c0-0.6-0.5-1.1-1.1-1.1H11.6z"/>
	<g>
		<polyline class="st7" points="85.9,37.1 81.1,37.4 82.1,39.9 79.8,55.2 83.5,58.1 87.2,55 84.8,40.1 85.9,37.1 		"/>
		<path class="st7" d="M13.5,44.6h-1.9c-1.3,0-2.4,1.1-2.4,2.4v2.9c0,1.3,1.1,2.4,2.4,2.4h1.9c1.3,0,2.4-1.1,2.4-2.4V47
			C15.8,45.7,14.7,44.6,13.5,44.6"/>
		<path class="st7" d="M45.7,46.6c0.6,3.5,6.5,14.3,6.5,14.3s-0.3,0.3,0.8,0.3c0.2,0,0.5,0,0.9,0c2.3-1.6,7.4-14.5,7.4-14.5
			s-3.5,3.7-8,3.9c-0.1,0-0.3,0-0.4,0C47.8,50.5,45.7,46.6,45.7,46.6"/>
	</g>
	<path class="st6" d="M105.6,44.7c-2.1-8.5-8.5-10.4-11.6-11.3c-0.5-0.1-0.8-0.2-1.2-0.4c-1.2-0.4-1.8-1.6-2.1-2.4
		c2.3-2.5,3.7-6,3.7-9.9c0-0.9-0.1-1.7-0.2-2.5c1.8-1.1,2.9-2.8,3.5-5.1c0.1-0.3,0-0.7-0.2-1c-0.1-0.2-0.4-0.4-0.6-0.5
		c-0.2-0.2-0.5-0.7-0.8-1c-1-1.5-2.6-3.8-5.4-5.4C87.6,3.4,82.3,2.3,78,4c-3.1,1.3-5.3,3.9-6.4,7.7c-3.9,3.9,0,10,0.3,10.5
		c0.3,3.3,1.6,6.3,3.6,8.4c-0.3,0.8-1,1.9-2.1,2.3c-0.3,0.1-0.7,0.2-1.2,0.4c-0.6,0.2-1.2,0.4-2,0.6c-2.5-4.4-2.7-11.2-2.7-13.2
		c0-3.5-1.5-7-4.1-9.6C60.8,8.5,57.2,7,53.4,7c0,0,0,0-0.1,0c-3.7,0-7.2,1.4-9.8,4c-2.6,2.6-4.1,6.2-4.1,9.8c0,2-0.2,8.6-2.6,13
		c-0.9-0.4-1.8-0.6-2.4-0.8c-0.5-0.1-0.8-0.2-1.2-0.4c-1.1-0.4-1.8-1.6-2.1-2.4c2-2.1,3.3-5,3.6-8.3c0.8-2.1,1.6-5.3,1.1-9
		c-0.6-4.6-3.7-7.6-8.7-8.4c-2.7-0.4-4.5-1.7-5.4-3.8C21.5,0.2,21-0.1,20.4,0c-3.7,0.7-8.5,6-9.8,12.7c-0.8,4.2,1.5,10.1,2.2,11.9
		c0.6,2.3,1.7,4.3,3.2,5.8c-0.3,0.8-1,1.9-2.1,2.4c-0.3,0.1-0.7,0.2-1.2,0.4C9.6,34,3.2,35.9,1.1,44.4c-2.4,9.6-0.9,15.2,4.5,16.6
		c4.8,1.2,10.8,1.9,18,1.9c2.5,0,4.8-0.1,7-0.2c0.6,3.6,2.4,5.8,5.3,6.6c4.8,1.4,10.8,2,17.9,2c7.2,0,13.2-0.7,17.9-2
		c2.8-0.8,4.5-2.9,5.2-6.3c2,0.1,4.1,0.2,6.3,0.2c7.2,0,13.2-0.6,18-1.9C106.5,60,108,54.4,105.6,44.7z M72.5,16.6
		c-0.1-1.2,0.1-2.3,1.1-3.2c0.2-0.2,0.3-0.4,0.4-0.6c0.8-3.2,2.5-5.3,5-6.4c1.2-0.5,2.5-0.7,3.7-0.7c2.7,0,5.3,0.9,6.8,1.8
		c2.4,1.4,3.7,3.3,4.6,4.7c0.4,0.5,0.7,0.9,1,1.3c-0.3,1-0.8,1.7-1.5,2.3c-0.6,0.5-1.3,0.9-2.3,1.1c-0.4,0.1-0.9,0.2-1.4,0.3
		c-1.3,0.1-2.8-0.5-4.4-1.1c-3-1.2-6.8-2.8-10.5,0.8c-0.7,0.6-1.3,1.4-1.9,2.3C72.8,18.3,72.5,17.4,72.5,16.6z M75.3,25.7
		C75.3,25.7,75.3,25.6,75.3,25.7c-0.1-0.3-0.2-0.6-0.3-0.9c0,0,0-0.1,0-0.1c-0.1-0.3-0.2-0.5-0.2-0.8c0-0.1,0-0.1,0-0.2
		c-0.1-0.3-0.1-0.5-0.1-0.8c0-0.1,0-0.2,0-0.2c0-0.3-0.1-0.7-0.1-1c3.4-6.1,6.4-4.9,10.2-3.4c1.8,0.7,3.7,1.5,5.6,1.3
		c0.6-0.1,1.2-0.2,1.7-0.3c0.1,0.5,0.1,1,0.1,1.5c0,0.4,0,0.8-0.1,1.2c0,0.1,0,0.2,0,0.3c0,0.3-0.1,0.6-0.1,0.8c0,0.1,0,0.2-0.1,0.3
		c-0.1,0.3-0.1,0.5-0.2,0.8c0,0.1,0,0.2-0.1,0.2c-0.1,0.3-0.2,0.6-0.3,0.8c0,0.1,0,0.1-0.1,0.2c-0.1,0.3-0.2,0.6-0.4,0.8
		c0,0,0,0.1,0,0.1c-0.1,0.3-0.3,0.6-0.4,0.8c0,0,0,0,0,0c-0.2,0.3-0.4,0.6-0.5,0.8c0,0,0,0,0,0c-0.2,0.3-0.4,0.5-0.6,0.8
		c-0.2,0.3-0.5,0.5-0.8,0.8c0,0,0,0,0,0c-0.8,0.7-1.7,1.3-2.6,1.6c0,0,0,0,0,0c-0.2,0.1-0.4,0.1-0.6,0.2c-0.1,0-0.2,0.1-0.3,0.1
		c-0.2,0-0.3,0.1-0.5,0.1c-0.1,0-0.2,0-0.3,0c-0.3,0-0.5,0-0.8,0c-0.3,0-0.5,0-0.8,0c-0.1,0-0.2,0-0.2,0c-0.2,0-0.3-0.1-0.5-0.1
		c-0.1,0-0.2,0-0.3-0.1c-0.2,0-0.4-0.1-0.5-0.2c-0.1,0-0.1,0-0.2-0.1c-0.3-0.1-0.6-0.2-0.9-0.4c-0.1,0-0.1-0.1-0.2-0.1
		c-0.2-0.1-0.4-0.3-0.6-0.4c-0.1,0-0.1-0.1-0.2-0.2c-0.2-0.2-0.4-0.3-0.6-0.5c-0.1,0-0.1-0.1-0.2-0.1c-0.2-0.2-0.5-0.5-0.7-0.7
		C76.5,27.9,75.8,26.9,75.3,25.7z M38,37.2c0.2-0.6,0.5-1.3,0.8-1.9c0.1-0.1,0.1-0.3,0.2-0.4C41.8,30,42,23,42,20.8
		c0-2.9,1.2-5.9,3.4-8c1.5-1.5,4.1-3.3,8-3.3c0,0,0,0,0,0c3.2,0,6.2,1.2,8.4,3.5c2.2,2.2,3.4,5,3.4,7.9c0,2.1,0.2,9.2,2.9,14.1
		c0.1,0.1,0.1,0.2,0.2,0.3c0.4,0.6,0.6,1.3,0.8,1.9c0.4,1.3,0.6,2.8,0.6,4.2c-1.3-0.9-2.6-1.4-3.7-1.8c-0.5-0.2-1-0.3-1.4-0.5
		c-0.4-0.1-0.8-0.3-1.1-0.4c0,0,0,0,0,0c-1.3-0.5-2-2.1-2.2-3c1.6-1.6,2.7-3.5,2.7-5.7v-5.7c0,0-0.1,0-0.1,0
		c0.1-0.1,0.1-0.3,0.1-0.5c0-0.7-0.5-1.3-1.2-1.3c-0.1,0-5.6-0.1-8.4-3.7c-0.3-0.3-0.6-0.5-1-0.5c-0.4,0-0.8,0.2-1,0.6
		c-2.4,3.8-7.5,3.5-7.6,3.5c-0.7,0-1.3,0.5-1.3,1.2c0,0.1,0,0.1,0,0.2v6.2c0,2.3,1.2,4.3,2.9,5.9c-0.3,0.9-0.9,2.3-2.2,2.8
		c-0.1,0.1-0.3,0.1-0.5,0.2c-0.2,0.1-0.4,0.1-0.7,0.2c-0.5,0.2-1.1,0.4-1.8,0.6c-1.1,0.4-2.5,1-3.7,2C37.4,40.2,37.6,38.7,38,37.2z
		 M53,49.6c-4.4,0-6-1.8-6.2-2.1C46,45.2,45.4,43,45.2,41c1.6-0.7,2.5-2.2,3.1-3.4c1.9,1.2,3.9,1.9,5.4,1.9c1.5,0,3.6-0.8,5.5-2.1
		c0.5,1.1,1.2,2.3,2.5,3.2c-0.3,2.1-0.9,4.3-1.7,6.5C59.8,47.4,57.6,49.6,53,49.6z M59,49.7c-2.1,5-4.7,9.4-5.7,10.9
		c-1-1.5-3.5-5.9-5.5-10.6c1.2,0.6,2.9,1,5.2,1C55.7,51.1,57.7,50.4,59,49.7z M45.8,30.1v-5c1.8-0.1,5.2-0.8,7.6-3.4
		c2.7,2.4,6.2,3.2,8,3.4v5.1c0,1.5-0.9,2.9-2.1,4.1c-1.1,1-2.4,1.9-3.6,2.4c-0.8,0.3-1.5,0.5-2,0.5c-0.5,0-1.2-0.2-2-0.5
		c-1.2-0.5-2.6-1.3-3.7-2.4C46.7,33.1,45.8,31.6,45.8,30.1z M13.2,17.5c-0.1-0.6-0.2-1.2-0.2-1.8c-0.1-0.9-0.1-1.8,0.1-2.6
		c1-5.3,4.4-9.2,6.9-10.4c1.4,2.3,3.7,3.8,6.8,4.3c2.7,0.4,6,1.9,6.6,6.3c0,0.2,0,0.5,0.1,0.7c0.1,0.9,0.1,1.7,0,2.5
		c-0.3-0.9-0.7-1.6-1.2-2.1c-0.5-0.4-1.1-0.7-1.8-0.7c-0.2,0-0.3,0-0.5,0c-1.4,0.1-2.2,0.6-2.9,1c-0.8,0.4-1.5,0.8-3.3,0.8
		c-2,0-3.6-0.4-4.8-0.8c-1-0.3-1.8-0.5-2.6-0.4c-0.1,0-0.2,0-0.2,0C14.6,14.6,13.7,15.6,13.2,17.5z M15.5,24.9
		C15.5,24.9,15.5,24.9,15.5,24.9c-0.6-7.3,0.6-8,0.9-8.1c0.3-0.1,1.1,0.1,1.8,0.3c1.3,0.4,3.1,0.9,5.5,0.9c2.5,0,3.6-0.6,4.6-1.1
		c0.6-0.3,1-0.6,1.9-0.7c0.2,0,0.3,0,0.3,0.1c0.9,0.8,1,4.4,1,6.5l0,0.3c0,0.2-0.1,1.2-0.2,2.2c-0.5,1.2-1.2,2.3-2,3.2
		c-1,1.1-2.1,1.9-3.4,2.4c-0.8,0.3-1.6,0.5-2.5,0.5c-0.9,0-1.7-0.2-2.5-0.5c-1.3-0.5-2.4-1.3-3.4-2.4C16.7,27.5,16,26.3,15.5,24.9z
		 M30.7,34.1c-1.5,1.3-4.3,3.2-7.2,3.2c-3,0-5.9-1.9-7.3-3.1c0.8-0.6,1.3-1.4,1.7-2.1c1.7,1.1,3.6,1.8,5.6,1.8c2.1,0,4-0.7,5.6-1.8
		C29.5,32.7,30,33.5,30.7,34.1z M30.3,60.2c-2.1,0.1-4.4,0.2-6.8,0.2c-7,0-12.8-0.6-17.3-1.8c-3.7-1-4.6-5.6-2.7-13.6
		c1.7-7.1,6.8-8.6,9.9-9.5c0.1,0,0.2-0.1,0.3-0.1c1.1,1,5.2,4.5,9.8,4.5c4.4,0,8.2-3.2,9.6-4.5c0.2,0.1,0.4,0.1,0.6,0.2
		c0.6,0.2,1.3,0.4,2.1,0.7c-0.8,2.4-1,5-0.8,7.8c-1.5,1.7-2.9,4.1-3.6,7.5C30.6,54.8,30.3,57.8,30.3,60.2z M74.7,60.4
		c0,1-0.2,1.8-0.3,2.5c-0.6,2.6-2,3.7-3.3,4c-4.5,1.3-10.3,1.9-17.3,1.9c-6.9,0-12.7-0.7-17.3-1.9c-1.4-0.4-2.9-1.6-3.4-4.4
		c-0.1-0.7-0.2-1.5-0.2-2.5c0-2.1,0.2-4.7,1-8c0.4-1.8,1-3.3,1.7-4.5c0.6-1.1,1.3-1.9,2.1-2.6c1.6-1.5,3.4-2.3,4.9-2.8
		c0.4-0.1,0.8-0.3,1.2-0.4c0,0,0.1,0,0.1,0c0.2,1.8,0.8,4.1,1.6,6.4c0,0.1,0,0.3,0.1,0.4c0,0,0,0,0,0c2.4,6.8,6.4,14.1,7.7,14.1
		c1.8,0,8.5-13.1,9.9-21.2c0.2,0.1,0.5,0.2,0.7,0.2c0.2,0.1,0.4,0.1,0.6,0.2c1.5,0.5,3.4,1.2,5.1,2.7c0.8,0.6,1.5,1.4,2.1,2.4
		c0.9,1.3,1.6,3,2,5.1C74.5,55.5,74.8,58.3,74.7,60.4z M100.5,58.9c-4.6,1.2-10.4,1.8-17.3,1.8c-2.1,0-4.1-0.1-6-0.2
		c0.1-2.5-0.2-5.6-1-9.1c-0.8-3.6-2.3-6.2-4-7.9c0.2-2.5,0-5-0.7-7.2c0.6-0.2,1.1-0.4,1.6-0.5c0.5-0.2,1-0.3,1.3-0.4
		c1.6-0.6,2.6-1.9,3.2-3c1.7,1.1,3.6,1.8,5.6,1.8c2.1,0,4-0.7,5.6-1.8c0.6,1.1,1.6,2.4,3.2,3c0.4,0.1,0.8,0.3,1.3,0.4
		c3,0.9,8.1,2.4,9.9,9.5C105.1,53.4,104.2,58,100.5,58.9z"/>
	<path class="st6" d="M87.6,54.6c-0.1-0.5-0.1-0.9-0.2-1.4L87.1,51c-0.1-1.2-0.3-2.4-0.4-3.5l0-0.3c-0.2-1.6-0.4-3.2-0.7-4.8
		c-0.1-0.5-0.2-1.1-0.3-1.6c-0.1-0.2-0.1-0.5-0.2-0.7l0,0c0.1-0.2,0.2-0.4,0.4-0.6c0.3-0.5,0.6-0.9,0.8-1.4c0.2-0.3,0.2-0.7,0-0.9
		c-0.2-0.4-0.5-0.6-1.1-0.7c-0.2,0-0.5-0.1-0.7-0.1l-0.3,0c0,0-0.1,0-0.1,0h-2.1c0,0-0.1,0-0.1,0l-0.3,0c-0.2,0-0.5,0.1-0.7,0.1
		c-0.6,0.1-0.9,0.3-1.1,0.7c-0.1,0.3-0.1,0.6,0,0.9c0.2,0.5,0.5,1,0.8,1.4c0.1,0.2,0.2,0.4,0.4,0.6c0,0,0,0,0,0
		c-0.1,0.2-0.1,0.5-0.2,0.7c-0.1,0.5-0.3,1-0.3,1.6c-0.3,1.6-0.5,3.3-0.7,4.9l0,0.2c-0.1,1.1-0.3,2.3-0.4,3.4l-0.3,2.2
		c-0.1,0.5-0.1,0.9-0.2,1.4c-0.1,0.6,0.1,1.1,0.6,1.5c0.9,0.7,1.9,1.4,2.8,2.2c0,0,0.1,0.1,0.1,0.1c0,0,0,0,0,0
		c0.1,0.1,0.3,0.2,0.5,0.2c0.2,0,0.4-0.1,0.5-0.3c0,0,0.1-0.1,0.1-0.1c0.9-0.7,1.9-1.5,2.8-2.2C87.4,55.7,87.7,55.2,87.6,54.6z
		 M86.1,55.1c-0.9,0.7-1.8,1.4-2.7,2.1c-0.9-0.7-1.8-1.4-2.7-2.1c-0.2-0.1-0.2-0.2-0.1-0.3c0.1-0.5,0.1-1,0.2-1.5l0.3-2.2
		c0.1-1.1,0.3-2.3,0.4-3.4l0-0.2c0.2-1.6,0.4-3.3,0.7-4.9c0.1-0.5,0.2-1,0.3-1.5c0.1-0.3,0.2-0.6,0.2-0.9c0.1-0.3-0.1-0.6-0.2-0.8
		c-0.1-0.2-0.3-0.4-0.4-0.6c-0.2-0.4-0.4-0.7-0.6-1.1c0,0,0,0,0.1,0c0.2,0,0.4-0.1,0.6-0.1l2.2,0l0.2,0c0.2,0,0.4,0.1,0.6,0.1
		c0,0,0.1,0,0.1,0c-0.2,0.4-0.4,0.7-0.6,1.1c-0.1,0.2-0.3,0.4-0.4,0.7c-0.1,0.1-0.2,0.4-0.2,0.7c0.1,0.3,0.1,0.6,0.2,0.9
		c0.1,0.5,0.2,1,0.3,1.5c0.2,1.6,0.5,3.2,0.7,4.8l0,0.3c0.1,1.2,0.3,2.3,0.4,3.5l0.3,2.2c0.1,0.5,0.1,1,0.2,1.4
		C86.3,54.9,86.3,54.9,86.1,55.1z"/>
</g>
</svg>
