<svg xmlns="http://www.w3.org/2000/svg" viewBox="0 0 46.9 67.04"><defs><style>.cls-1{fill:#1f375c;}</style></defs><title>ico-marker--blue</title><g id="Layer_2" data-name="Layer 2"><g id="Layer_1-2" data-name="Layer 1"><path class="cls-1" d="M45,13.9A23.12,23.12,0,0,0,31.85,1.55,24.29,24.29,0,0,0,23.62,0h-.33a24.32,24.32,0,0,0-8.24,1.54A23.12,23.12,0,0,0,1.9,13.9a23.36,23.36,0,0,0-.1,18.23c1.61,4,15.07,27.31,19.6,33.62A3,3,0,0,0,23.29,67a.77.77,0,0,0,.32,0,3,3,0,0,0,1.88-1.27C30,59.44,43.5,36.1,45.1,32.12A23.36,23.36,0,0,0,45,13.9ZM23.45,36.06a12.54,12.54,0,1,1,12.5-12.64A12.59,12.59,0,0,1,23.45,36.06Z"/></g></g></svg>