<?xml version="1.0" encoding="utf-8"?>
<!-- Generator: Adobe Illustrator 21.0.2, SVG Export Plug-In . SVG Version: 6.00 Build 0)  -->
<svg version="1.1" id="Layer_1" xmlns="http://www.w3.org/2000/svg" xmlns:xlink="http://www.w3.org/1999/xlink" x="0px" y="0px"
	 viewBox="0 0 60.1 72" style="enable-background:new 0 0 60.1 72;" xml:space="preserve">
<style type="text/css">
	.st0{fill:#FFFFFF;}
	.st1{fill:#007886;}
	.st2{fill:#B2D6DA;}
	.st3{fill:none;}
</style>
<path class="st0" d="M33.7,56l5.4,11.4c0.3,0.7,1.2,0.8,1.7,0.2l1.2-1.4l-6-12.7c-0.2-0.3,0-0.7,0.3-0.9c0.3-0.2,0.7,0,0.9,0.3
	l1,2.2c0.8,0.1,2.4,0.7,3,0.4l1-4.3c0.4-0.2,0.9-0.2,1.3-0.1l-0.8-1.7l-11,5.2l0.4,0.9C32.8,55.2,33.5,55.4,33.7,56z"/>
<path class="st0" d="M51.8,62.3c0.7,0,1.2-0.8,0.9-1.5l-4.9-10.3c-0.3-0.6,0-1.2,0.6-1.4l-1-2L44,48.8l6.4,13.5L51.8,62.3z"/>
<path class="st1" d="M56.3,62.9L50,49.6c-0.2-0.5-0.8-0.7-1.3-0.5c0,0-0.1,0-0.1,0c0,0,0,0,0,0c-0.6,0.2-0.9,0.8-0.6,1.4l4.9,10.3
	c0.3,0.7-0.2,1.5-0.9,1.5l-1.4,0l0.3,0.6c0.2,0.3,0,0.7-0.3,0.9c-0.1,0-0.2,0.1-0.3,0.1c-0.3,0-0.5-0.1-0.6-0.4L49,62.4
	c-0.3,0.7-1,1.3-1.9,1.2c-0.7-0.1-1.3,0.3-1.7,0.8l-0.1,0.2c-0.5,0.8-1.4,1-2.1,0.7l0.4,0.9c0.2,0.3,0,0.7-0.3,0.9
	c-0.1,0-0.2,0.1-0.3,0.1c-0.3,0-0.5-0.1-0.6-0.4L42,66.2l-1.2,1.4c-0.5,0.6-1.4,0.4-1.7-0.2L33.7,56c-0.3-0.6-1-0.7-1.5-0.4
	c-0.1,0.1-0.3,0.2-0.4,0.4c0,0,0,0.1-0.1,0.1c-0.2,0.3-0.3,0.7-0.1,1l6.7,14.3c0.2,0.3,0.5,0.6,0.9,0.6c0.1,0,0.1,0,0.2,0
	c0.3,0,0.6-0.1,0.9-0.4l5.8-6.7c0.2-0.2,0.5-0.4,0.8-0.4l8.3,0c0.4,0,0.7-0.2,1-0.5C56.4,63.7,56.4,63.3,56.3,62.9z"/>
<path class="st0" d="M44.8,63.1c0.4-0.5,1-0.7,1.6-0.7l2.5,0l-5.3-11.2c-0.4-0.1-0.9-0.1-1.3,0.1l-1,4.3c-0.6,0.3-2.2-0.2-3-0.4
	l4.7,9.9L44.8,63.1z"/>
<path class="st2" d="M43,49.5l-1.8,6.2c-0.6,0.3-2.2-0.2-3-0.4l4.7,9.9l1.8-2c0.4-0.5,1-0.7,1.6-0.7h3.5L43,49.5z"/>
<path class="st1" d="M48.9,61l-4.1-8.8c-0.2-0.5-0.7-0.9-1.2-1l5.3,11.2l-2.5,0c-0.6,0-1.2,0.3-1.6,0.7l-1.8,2l0.1,0.3
	c0.8,0.2,1.6,0,2.1-0.7l0.1-0.2c0.4-0.6,1-0.9,1.7-0.8c0.9,0.1,1.6-0.5,1.9-1.2C49.1,62,49.2,61.5,48.9,61z"/>
<path class="st1" d="M44.8,52.1l4.1,8.8c0.2,0.5,0.2,1,0,1.5l0.5,1.1c0.1,0.2,0.4,0.4,0.6,0.4c0.1,0,0.2,0,0.3-0.1
	c0.3-0.2,0.5-0.6,0.3-0.9l-0.3-0.6L44,48.8l-0.2-0.4c-0.2-0.3-0.6-0.5-0.9-0.3c-0.3,0.2-0.5,0.6-0.3,0.9l0.2,0.4l0.8,1.7
	C44.1,51.3,44.6,51.6,44.8,52.1z"/>
<path class="st1" d="M38.3,55.2l-1-2.2c-0.2-0.3-0.6-0.5-0.9-0.3c-0.3,0.2-0.5,0.6-0.3,0.9l6,12.7l0.3,0.6c0.1,0.2,0.4,0.4,0.6,0.4
	c0.1,0,0.2,0,0.3-0.1c0.3-0.2,0.5-0.6,0.3-0.9l-0.4-0.9L43,65.1L38.3,55.2z"/>
<path class="st0" d="M13.1,49.9L8.8,60.4C8.5,61,9,61.8,9.7,61.8l1.5,0L17,49.4c0.2-0.3,0.6-0.5,0.9-0.3c0.3,0.2,0.5,0.6,0.3,0.9
	l-0.9,1.9l2.4,3.7l4-1.4l1-2.1c0.1-0.2,0.3-0.3,0.5-0.4l-11.4-5.2l-1,2.1C13.2,49,13.3,49.4,13.1,49.9z"/>
<path class="st0" d="M25.9,52.7l-6.2,12.8l1.1,1.3c0.5,0.6,1.4,0.4,1.7-0.2l4.7-10.3c0.3-0.6,0.9-0.7,1.4-0.4l0.9-2l-3.8-1.7
	C26,52.3,26.1,52.5,25.9,52.7z"/>
<path class="st1" d="M28.9,55.9c0,0-0.1,0-0.1-0.1c0,0,0,0,0,0c-0.5-0.3-1.2-0.1-1.4,0.4l-4.7,10.3c-0.3,0.7-1.2,0.8-1.7,0.2
	l-1.1-1.3l-0.5,1c-0.1,0.2-0.4,0.4-0.6,0.4c-0.1,0-0.2,0-0.3-0.1c-0.3-0.1-0.4-0.5-0.4-0.8l-2.3-2.8l-3.7-0.1
	c-0.1,0.2-0.3,0.3-0.5,0.3c-0.1,0-0.2,0-0.3-0.1c-0.3-0.2-0.5-0.6-0.3-0.9l0.3-0.7l-1.5,0c-0.7,0-1.2-0.8-0.9-1.4l4.3-10.5
	c0.2-0.4,0.1-0.9-0.2-1.2c-0.2-0.2-0.6-0.4-1-0.3c0,0,0,0,0,0c-0.4,0.1-0.7,0.3-0.9,0.6L5.4,62.4c-0.2,0.3-0.1,0.8,0.1,1.1
	c0,0,0.1,0.1,0.1,0.1C5.7,63.9,6,64,6.4,64l8.8,0.1c0.3,0,0.6,0.1,0.8,0.4l5.4,6.4c0.3,0.3,0.6,0.4,1,0.4c0.4-0.1,0.7-0.3,0.9-0.6
	l6.1-13.4C29.6,56.7,29.4,56.2,28.9,55.9z"/>
<path class="st0" d="M15.7,61.9c0.6,0,1.2,0.3,1.6,0.8l1.5,1.7l4.9-10.2l-4,1.4l-2.4-3.7l-4.6,10L15.7,61.9z"/>
<path class="st2" d="M15.7,61.9c0.6,0,1.2,0.3,1.6,0.8l1.5,1.7l4.9-10.2l-4,1.4l-2.4-3.7l-4.6,10L15.7,61.9z"/>
<path class="st1" d="M18.8,64.4l-1.5-1.7c-0.4-0.5-1-0.8-1.6-0.8l-3,0l-0.6,1.3c0,0-0.1,0.1-0.1,0.1l3.7,0.1l2.3,2.8
	c0-0.1,0-0.1,0-0.2L18.8,64.4z"/>
<path class="st1" d="M12.7,61.9l4.6-10l0.9-1.9c0.2-0.3,0-0.7-0.3-0.9c-0.3-0.2-0.7,0-0.9,0.3l-5.8,12.4l-0.3,0.7
	c-0.2,0.3,0,0.7,0.3,0.9c0.1,0,0.2,0.1,0.3,0.1c0.2,0,0.4-0.1,0.5-0.3c0,0,0.1-0.1,0.1-0.1L12.7,61.9z"/>
<path class="st1" d="M24.7,52.1l-1,2.1l-4.9,10.2l-0.7,1.5c0,0,0,0.1,0,0.2c-0.1,0.3,0.1,0.6,0.4,0.8c0.1,0,0.2,0.1,0.3,0.1
	c0.3,0,0.5-0.1,0.6-0.4l0.5-1l6.2-12.8c0.1-0.2,0.1-0.5-0.1-0.7c-0.1-0.1-0.1-0.2-0.3-0.2c-0.1-0.1-0.3-0.1-0.4,0
	C25,51.8,24.8,51.9,24.7,52.1z"/>
<path class="st3" d="M28.9,54.2l0.4,0.5c0-0.3-0.1-0.5-0.1-0.5L28.9,54.2z"/>
<path class="st0" d="M59.6,30.9c0.3-0.2,0.4-0.6,0.4-0.9c0-0.4-0.2-0.7-0.4-0.9l-4.8-4l0,0l2.9-5.6c0.2-0.3,0.2-0.7,0-1
	c-0.1-0.3-0.4-0.6-0.7-0.7L51,16c0,0,0,0,0,0l0.6-6.3c0-0.3-0.1-0.7-0.3-0.9c-0.2-0.2-0.6-0.4-0.9-0.3L44.1,9l0,0l-1.9-6
	c-0.1-0.3-0.4-0.6-0.7-0.7c-0.3-0.1-0.7-0.1-1,0L35,5.2c0,0,0,0,0,0l-4-4.8c-0.5-0.6-1.3-0.6-1.8,0l-4,4.8c0,0,0,0,0,0l-5.6-2.9
	c-0.3-0.2-0.7-0.2-1,0C18.2,2.4,18,2.7,17.9,3L16,9c0,0,0,0,0,0L9.7,8.5C9.4,8.4,9,8.5,8.8,8.8C8.5,9,8.4,9.4,8.5,9.7L9,16
	c0,0,0,0,0,0l-6,1.9c-0.3,0.1-0.6,0.4-0.7,0.7c-0.1,0.3-0.1,0.7,0,1l2.9,5.6l0,0l-4.8,4C0.2,29.3,0,29.7,0,30c0,0.3,0.2,0.7,0.4,0.9
	l4.8,4c0,0,0,0,0,0l-2.9,5.6c-0.2,0.3-0.2,0.7,0,1c0.1,0.3,0.4,0.6,0.7,0.7l6,1.9c0,0,0,0,0,0l-0.6,6.3c0,0.3,0.1,0.7,0.3,0.9
	c0.2,0.2,0.6,0.4,0.9,0.3l0.4-1.1c-0.1,0-0.2-0.1-0.2-0.1c-0.2-0.2-0.4-0.6-0.3-0.9l0.5-6l-5.7-1.8C4,41.6,3.8,41.3,3.6,41
	c-0.1-0.3-0.1-0.7,0-1l2.8-5.3l-4.6-3.9c-0.3-0.2-0.4-0.5-0.4-0.9c0-0.3,0.1-0.7,0.4-0.9l4.6-3.9L3.7,20c-0.2-0.3-0.2-0.6,0-1
	c0.1-0.3,0.4-0.5,0.7-0.6l5.7-1.8l-0.5-6c0-0.3,0.1-0.7,0.3-0.9c0.2-0.2,0.6-0.4,0.9-0.3l6,0.5l1.8-5.7c0.1-0.3,0.3-0.6,0.6-0.7
	c0.3-0.1,0.7-0.1,1,0l5.3,2.8l3.9-4.6c0.4-0.5,1.3-0.5,1.7,0l3.9,4.6l5.3-2.8c0.3-0.2,0.6-0.2,1,0c0.3,0.1,0.5,0.4,0.6,0.7l1.8,5.7
	l6-0.5c0.3,0,0.7,0.1,0.9,0.3s0.4,0.6,0.3,0.9l-0.5,6l5.7,1.8c0.3,0.1,0.6,0.3,0.7,0.6c0.1,0.3,0.1,0.7,0,1L54,25.3l4.6,3.9
	c0.3,0.2,0.4,0.5,0.4,0.9c0,0.3-0.1,0.7-0.4,0.9L54,34.7l2.8,5.3c0.2,0.3,0.2,0.6,0,1c-0.1,0.3-0.4,0.5-0.7,0.6l-5.7,1.8l0.5,6
	c0,0.3-0.1,0.7-0.3,0.9c-0.1,0.1-0.2,0.1-0.3,0.2l0.6,1c0.1-0.1,0.3-0.1,0.4-0.2c0.2-0.2,0.4-0.6,0.3-0.9L51,44.1c0,0,0,0,0,0l6-1.9
	c0.3-0.1,0.6-0.4,0.7-0.7c0.1-0.3,0.1-0.7,0-1L54.8,35c0,0,0,0,0,0L59.6,30.9z"/>
<path class="st0" d="M29.2,54.7l1,1.2l0.5-0.6c0.5-0.5,0.4-0.5,0.5-0.6l0.3-0.4l2.2-2.7c0.3-0.4,0.9-0.5,1.4-0.3l4.9,2.6l1.7-5.3
	c0.2-0.5,0.6-0.8,1.2-0.8l5.6,0.5L48,42.8c0-0.5,0.3-1,0.8-1.2l5.3-1.7L51.5,35c-0.2-0.5-0.1-1.1,0.3-1.4l4.3-3.6l-4.3-3.6
	c-0.4-0.3-0.5-0.9-0.3-1.4l2.6-4.9l-5.3-1.7c-0.5-0.2-0.8-0.7-0.8-1.2l0.5-5.6L43,12.2c-0.5,0.1-1-0.3-1.2-0.8l-1.7-5.3l-4.9,2.6
	c-0.5,0.2-1.1,0.1-1.4-0.3l-3.6-4.3l-3.6,4.3c-0.3,0.4-0.9,0.5-1.4,0.3l-4.9-2.6l-1.7,5.3c-0.2,0.5-0.7,0.8-1.2,0.8l-5.6-0.5
	l0.5,5.6c0,0.5-0.3,1-0.8,1.2l-5.3,1.7l2.6,4.9c0.2,0.5,0.1,1.1-0.3,1.4L4.4,30l4.3,3.6C9,33.9,9.2,34.5,8.9,35l-2.6,4.9l5.3,1.7
	c0.5,0.2,0.8,0.7,0.8,1.2l-0.5,5.6l5.6-0.5c0.5,0,1,0.3,1.2,0.8l1.7,5.3l4.9-2.6c0.2-0.1,0.3-0.1,0.5-0.1c0.3,0,0.6,0.1,0.9,0.4
	l2.2,2.6 M33.3,50.1c-0.1,0.1-0.1,0.1-0.2,0.2l-1.9,2.4l-0.7,0l-0.3-0.3l-1.8-2c-0.9-1-2.3-1.3-3.5-0.6l-2.6,1.5L21.7,51l-0.1-0.4
	l-0.9-2.6c-0.4-1.2-1.7-2-3-1.9l-3,0.3l-0.5-0.5l0-0.4l0.2-2.7c0.1-1.3-0.7-2.5-2-2.9l-2.9-0.8l-0.3-0.6l0.1-0.3l1.2-2.4
	c0.6-1.2,0.3-2.6-0.7-3.4l-2.4-1.9l0-0.7l0.3-0.3l2.1-1.8c0.1-0.1,0.2-0.2,0.2-0.2c0.8-0.8,0.9-2.2,0.3-3.3L9,21.7l0.2-0.7l0.3-0.1
	l2.6-0.9c0.4-0.1,0.8-0.4,1.1-0.7c0.6-0.6,0.8-1.4,0.7-2.2l-0.3-3.1l0.5-0.5l0.4,0l2.8,0.2c0.8,0.1,1.6-0.2,2.2-0.8
	c0.3-0.3,0.5-0.7,0.7-1.1l0.9-3l0.6-0.3l0.3,0.1l2.5,1.2c1.1,0.5,2.3,0.3,3.2-0.5c0.1-0.1,0.1-0.1,0.2-0.2l1.9-2.4l0.7,0L30.6,7
	l1.8,2c0.9,1,2.3,1.2,3.4,0.6l2.7-1.5l0.7,0.2l0.1,0.4l0.8,2.6c0.4,1.2,1.7,2,3,1.9l3-0.3l0.5,0.5l0,0.4l-0.2,2.7
	c-0.1,1.3,0.7,2.5,2,2.9l2.9,0.8l0.3,0.6l-0.1,0.4l-1.2,2.4c-0.6,1.2-0.3,2.6,0.7,3.4l2.4,1.9l0,0.7l-0.3,0.3l-2.1,1.8
	c-0.1,0.1-0.1,0.1-0.2,0.2c-0.8,0.9-1,2.1-0.4,3.2l1.5,2.7l-0.2,0.7l-0.4,0.1l-2.6,0.9c-0.4,0.1-0.8,0.4-1.1,0.7
	c-0.6,0.6-0.8,1.4-0.7,2.2l0.3,1.9c0.2,1.5,0.2,1.8,0.1,1.9l-0.1,0.3l-0.3,0.2c-0.4,0.2-0.8,0-1.6-0.3c-0.4-0.2-1.3-0.5-1.6-0.5
	c-1,0.1-1.8,0.4-2.3,0.8c-0.3,0.3-0.5,0.7-0.6,1.1l-0.9,3l-0.6,0.3L39,50.8l-2.5-1.2C35.4,49,34.2,49.2,33.3,50.1z"/>
<path class="st0" d="M38.9,49.2l0.6-2c0.2-0.6,0.5-1.2,1-1.7c0.8-0.9,2.2-1.2,3.1-1.2c0.5-0.1,1.3,0.2,2.2,0.6c0,0,0.1,0,0.1,0
	c0-0.2-0.1-0.4-0.1-0.6l-0.3-1.9c-0.1-1.2,0.3-2.4,1.1-3.3c0.5-0.5,1-0.8,1.7-1l1.9-0.6l-1-1.8c-0.9-1.6-0.6-3.5,0.6-4.8
	c0.1-0.1,0.2-0.2,0.3-0.3l1.5-1.3l-1.5-1.2c-1.5-1.2-2-3.4-1.1-5.1l0.9-1.8L48,20.7c-1.9-0.5-3.1-2.3-3-4.3l0.1-2l-2,0.2
	c-1.9,0.2-3.8-1-4.4-2.8l-0.6-1.9l-1.7,1c-1.7,0.9-3.9,0.5-5.1-0.9l-1.3-1.5l-1.3,1.6c-0.1,0.1-0.2,0.2-0.2,0.3
	c-1.2,1.3-3.2,1.6-4.8,0.8l-1.8-0.9l-0.6,2c-0.2,0.6-0.5,1.2-1,1.7c-0.8,0.9-2,1.3-3.2,1.2l-2-0.1l0.2,2c0.1,1.2-0.3,2.4-1.1,3.3
	c-0.5,0.5-1,0.8-1.6,1L10.6,22l0.9,1.6c0.9,1.6,0.7,3.6-0.5,4.9c-0.1,0.1-0.2,0.2-0.4,0.4l-1.5,1.3l1.5,1.2c1.5,1.2,2,3.4,1.1,5.1
	l-0.9,1.8l1.9,0.6c1.9,0.5,3.1,2.3,3,4.3l-0.1,2l2-0.2c1.9-0.2,3.8,1,4.4,2.8l0.6,1.9l1.7-1c0.6-0.3,1.3-0.5,2-0.5
	c1.2,0,2.3,0.5,3.1,1.4l1.3,1.5l1.3-1.6c0.1-0.1,0.2-0.2,0.2-0.3c1.2-1.3,3.2-1.6,4.8-0.8L38.9,49.2z"/>
<path class="st1" d="M40.3,56.6c0.3,0.2,0.6,0.2,1,0c0.3-0.1,0.5-0.4,0.6-0.7l1.8-5.7l6,0.5c0.3,0,0.7-0.1,0.9-0.3
	c0.2-0.2,0.4-0.6,0.3-0.9l-0.5-6l5.7-1.8c0.3-0.1,0.6-0.3,0.7-0.6c0.1-0.3,0.1-0.7,0-1L54,34.7l4.6-3.9c0.3-0.2,0.4-0.5,0.4-0.9
	c0-0.3-0.1-0.7-0.4-0.9L54,25.3l2.8-5.3c0.2-0.3,0.2-0.6,0-1c-0.1-0.3-0.4-0.5-0.7-0.6l-5.7-1.8l0.5-6c0-0.3-0.1-0.7-0.3-0.9
	S50,9.3,49.7,9.4l-6,0.5l-1.8-5.7c-0.1-0.3-0.3-0.6-0.6-0.7c-0.3-0.1-0.7-0.1-1,0l-5.3,2.8l-3.9-4.6c-0.4-0.5-1.3-0.5-1.7,0
	l-3.9,4.6l-5.3-2.8c-0.3-0.2-0.6-0.2-1,0c-0.3,0.1-0.5,0.4-0.6,0.7l-1.8,5.7l-6-0.5c-0.3,0-0.7,0.1-0.9,0.3
	c-0.2,0.2-0.4,0.6-0.3,0.9l0.5,6l-5.7,1.8C4,18.5,3.8,18.7,3.6,19c-0.1,0.3-0.1,0.7,0,1l2.8,5.3l-4.6,3.9c-0.3,0.2-0.4,0.5-0.4,0.9
	c0,0.3,0.1,0.7,0.4,0.9l4.6,3.9l-2.8,5.3c-0.2,0.3-0.2,0.6,0,1c0.1,0.3,0.4,0.5,0.7,0.6l5.7,1.8l-0.5,6c0,0.3,0.1,0.7,0.3,0.9
	c0.2,0.2,0.6,0.4,0.9,0.3l6-0.5l1.8,5.7c0.1,0.3,0.3,0.6,0.6,0.7c0.3,0.1,0.7,0.1,1,0l5.3-2.8l0.7,0.9l3.1,3.7
	c0.1,0.1,0.2,0.2,0.3,0.3c0.2,0.1,0.3,0.1,0.5,0.1c0,0,0.1,0,0.1,0c0.3,0,0.6-0.2,0.7-0.4l3.1-3.7l0.8-0.9L40.3,56.6z M33.8,51.6
	l-2.2,2.7l-0.8,1l-0.5,0.6l-1-1.2l-0.4-0.5l-2.2-2.6c-0.2-0.3-0.5-0.4-0.9-0.4c-0.2,0-0.4,0-0.5,0.1l-4.9,2.6l-1.7-5.3
	c-0.2-0.5-0.7-0.8-1.2-0.8l-5.6,0.5l0.5-5.6c0-0.5-0.3-1-0.8-1.2l-5.3-1.7L8.9,35c0.2-0.5,0.1-1.1-0.3-1.4L4.4,30l4.3-3.6
	c0.4-0.3,0.5-0.9,0.3-1.4l-2.6-4.9l5.3-1.7c0.5-0.2,0.8-0.7,0.8-1.2l-0.5-5.6l5.6,0.5c0.5,0.1,1-0.3,1.2-0.8l1.7-5.3l4.9,2.6
	c0.5,0.2,1.1,0.1,1.4-0.3l3.6-4.3l3.6,4.3c0.3,0.4,0.9,0.5,1.4,0.3l4.9-2.6l1.7,5.3c0.2,0.5,0.6,0.8,1.2,0.8l5.6-0.5L48,17.3
	c0,0.5,0.3,1,0.8,1.2l5.3,1.7l-2.6,4.9c-0.2,0.5-0.1,1.1,0.3,1.4l4.3,3.6l-4.3,3.6c-0.4,0.3-0.5,0.9-0.3,1.4l2.6,4.9l-5.3,1.7
	c-0.5,0.2-0.8,0.7-0.8,1.2l0.5,5.6L43,47.8c-0.5,0-1,0.3-1.2,0.8l-1.7,5.3l-4.9-2.6C34.7,51.1,34.1,51.2,33.8,51.6z"/>
<path class="st2" d="M36.5,49.5l2.5,1.2l0.3,0.1l0.6-0.3l0.9-3c0.1-0.4,0.3-0.8,0.6-1.1c0.4-0.4,1.2-0.7,2.3-0.8
	c0.3,0,1.1,0.3,1.6,0.5c0.8,0.3,1.2,0.5,1.6,0.3l0.3-0.2l0.1-0.3c0-0.1,0.1-0.4-0.1-1.9l-0.3-1.9c-0.1-0.8,0.2-1.6,0.7-2.2
	c0.3-0.3,0.7-0.6,1.1-0.7l2.6-0.9l0.4-0.1l0.2-0.7l-1.5-2.7c-0.6-1-0.4-2.3,0.4-3.2c0.1-0.1,0.1-0.1,0.2-0.2l2.1-1.8l0.3-0.3l0-0.7
	L51,27.1c-1-0.8-1.3-2.3-0.7-3.4l1.2-2.4l0.1-0.4l-0.3-0.6l-2.9-0.8c-1.3-0.4-2.1-1.6-2-2.9l0.2-2.7l0-0.4L46.1,13l-3,0.3
	c-1.3,0.1-2.5-0.7-3-1.9l-0.8-2.6l-0.1-0.4l-0.7-0.2l-2.7,1.5c-1.1,0.6-2.6,0.4-3.4-0.6l-1.8-2l-0.3-0.3l-0.7,0l-1.9,2.4
	c0,0.1-0.1,0.1-0.2,0.2c-0.8,0.9-2.1,1.1-3.2,0.5l-2.5-1.2l-0.3-0.1l-0.6,0.3l-0.9,3c-0.1,0.4-0.3,0.8-0.7,1.1
	c-0.6,0.6-1.3,0.9-2.2,0.8l-2.8-0.2l-0.4,0l-0.5,0.5l0.3,3.1c0.1,0.8-0.2,1.6-0.7,2.2c-0.3,0.3-0.7,0.6-1.1,0.7l-2.6,0.9l-0.3,0.1
	L9,21.7l1.4,2.5c0.6,1.1,0.5,2.5-0.3,3.3c-0.1,0.1-0.2,0.2-0.2,0.2l-2.1,1.8l-0.3,0.3l0,0.7l2.4,1.9c1,0.8,1.3,2.3,0.7,3.4l-1.2,2.4
	l-0.1,0.3l0.3,0.6l2.9,0.8c1.3,0.4,2.1,1.6,2,2.9l-0.2,2.7l0,0.4l0.5,0.5l3-0.3c1.3-0.1,2.5,0.7,3,1.9l0.9,2.6l0.1,0.4l0.7,0.2
	l2.6-1.5c1.1-0.6,2.6-0.4,3.5,0.6l1.8,2l0.3,0.3l0.7,0l1.9-2.4c0-0.1,0.1-0.1,0.2-0.2C34.2,49.2,35.4,49,36.5,49.5z M32.4,49.1
	c-0.1,0.1-0.2,0.2-0.2,0.3L30.8,51l-1.3-1.5c-0.8-0.9-2-1.4-3.1-1.4c-0.7,0-1.4,0.2-2,0.5l-1.7,1L22,47.7c-0.6-1.8-2.5-3-4.4-2.8
	l-2,0.2l0.1-2c0.1-1.9-1.1-3.7-3-4.3l-1.9-0.6l0.9-1.8c0.9-1.7,0.4-3.9-1.1-5.1l-1.5-1.2l1.5-1.3c0.1-0.1,0.2-0.2,0.4-0.4
	c1.2-1.3,1.3-3.2,0.5-4.9L10.6,22l1.9-0.6c0.6-0.2,1.2-0.6,1.6-1c0.8-0.9,1.2-2.1,1.1-3.3l-0.2-2l2,0.1c1.2,0.1,2.4-0.4,3.2-1.2
	c0.5-0.5,0.8-1.1,1-1.7l0.6-2l1.8,0.9c1.6,0.8,3.5,0.5,4.8-0.8c0.1-0.1,0.2-0.2,0.2-0.3l1.3-1.6l1.3,1.5c1.3,1.5,3.4,1.9,5.1,0.9
	l1.7-1l0.6,1.9c0.6,1.8,2.5,3,4.4,2.8l2-0.2l-0.1,2c-0.1,1.9,1.1,3.7,3,4.3l1.9,0.6L49.1,23c-0.9,1.7-0.4,3.9,1.1,5.1l1.5,1.2
	l-1.5,1.3c-0.1,0.1-0.2,0.2-0.3,0.3c-1.2,1.3-1.5,3.2-0.6,4.8l1,1.8l-1.9,0.6c-0.6,0.2-1.2,0.6-1.7,1c-0.8,0.9-1.2,2.1-1.1,3.3
	l0.3,1.9c0,0.2,0.1,0.4,0.1,0.6c0,0-0.1,0-0.1,0c-0.9-0.4-1.7-0.7-2.2-0.6c-1,0.1-2.3,0.4-3.1,1.2c-0.5,0.5-0.8,1.1-1,1.7l-0.6,2
	l-1.8-0.9C35.5,47.5,33.6,47.8,32.4,49.1z"/>
<path class="st1" d="M19.9,35.9l0.6-3.9h-1.8v-2h2.1l0.3-2.4h-1.8v-2h2.1l0.5-3.8h1.9l-0.5,3.8h2l0.6-3.8h1.9l-0.6,3.8H29v2h-2
	L26.6,30h1.8v2h-2.1l-0.5,3.9h-2l0.5-3.9h-2l-0.5,3.9H19.9z M24.7,30l0.3-2.4h-2L22.7,30H24.7z"/>
<path class="st1" d="M34.5,23.8L34.5,23.8L31,25.7l-0.5-2.1l4.4-2.3h2.3v20.1h-2.6V23.8z"/>
</svg>
