<?xml version="1.0" encoding="utf-8"?>
<!-- Generator: Adobe Illustrator 23.0.0, SVG Export Plug-In . SVG Version: 6.00 Build 0)  -->
<svg version="1.0" xmlns="http://www.w3.org/2000/svg" xmlns:xlink="http://www.w3.org/1999/xlink" x="0px" y="0px"
	 viewBox="0 0 96 96" enable-background="new 0 0 96 96" xml:space="preserve">
<g id="Guidelines">
</g>
<g id="Your_Icons">
	<g>
		<path fill="#FBB004" d="M26.323,78.762c-3.301,0-5.987-2.686-5.987-5.987s2.686-5.987,5.987-5.987s5.987,2.686,5.987,5.987
			S29.625,78.762,26.323,78.762z M26.323,69.287c-1.923,0-3.487,1.564-3.487,3.487s1.564,3.487,3.487,3.487s3.487-1.564,3.487-3.487
			S28.246,69.287,26.323,69.287z"/>
		<path fill="#FBB004" d="M61.063,79.091c-3.483,0-6.316-2.833-6.316-6.316s2.833-6.316,6.316-6.316s6.316,2.833,6.316,6.316
			S64.546,79.091,61.063,79.091z M61.063,69.616c-1.741,0-3.158,1.417-3.158,3.158s1.417,3.158,3.158,3.158s3.158-1.417,3.158-3.158
			S62.805,69.616,61.063,69.616z"/>
		<path fill="#FBB004" d="M61.063,69.287h-34.74c-0.69,0-1.25-0.56-1.25-1.25s0.56-1.25,1.25-1.25h33.75L72.48,14.061
			c0.133-0.565,0.637-0.964,1.217-0.964h9.475c0.69,0,1.25,0.56,1.25,1.25s-0.56,1.25-1.25,1.25h-8.484L62.28,68.323
			C62.147,68.888,61.644,69.287,61.063,69.287z"/>
		<path fill="#FBB004" d="M62.643,62.971H21.586c-0.538,0-1.016-0.344-1.186-0.854l-9.475-28.424
			c-0.127-0.381-0.063-0.8,0.172-1.126c0.235-0.326,0.612-0.519,1.014-0.519h57.046c0.69,0,1.25,0.56,1.25,1.25
			s-0.56,1.25-1.25,1.25H13.845l8.642,25.924h40.156c0.69,0,1.25,0.56,1.25,1.25S63.333,62.971,62.643,62.971z"/>
		<g>
			<polyline fill="#FBB004" fill-opacity="0.28" points="43.693,33.297 56.326,20.664 69.206,33.297 			"/>
			<path fill="#FBB004" d="M69.206,34.047c-0.189,0-0.379-0.071-0.525-0.214l-12.35-12.113L44.224,33.827
				c-0.293,0.293-0.768,0.293-1.061,0s-0.293-0.768,0-1.061l12.633-12.633c0.291-0.291,0.762-0.293,1.056-0.005l12.88,12.633
				c0.295,0.29,0.3,0.765,0.01,1.061C69.595,33.972,69.4,34.047,69.206,34.047z"/>
		</g>
		<g>
			<polyline fill="#FBB004" fill-opacity="0.3" points="45.902,33.297 36.427,12.17 28.532,15.926 36.427,33.297 			"/>
			<path fill="#FBB004" d="M45.903,34.047c-0.287,0-0.56-0.165-0.685-0.443l-9.161-20.428l-6.537,3.11l7.59,16.7
				c0.171,0.377,0.005,0.822-0.372,0.993c-0.377,0.172-0.822,0.005-0.993-0.372l-7.896-17.371c-0.169-0.373-0.009-0.812,0.36-0.988
				l7.896-3.757c0.183-0.086,0.393-0.097,0.581-0.027c0.189,0.07,0.343,0.213,0.426,0.397l9.475,21.127
				c0.169,0.378,0,0.822-0.377,0.992C46.109,34.026,46.005,34.047,45.903,34.047z"/>
		</g>
	</g>
	<path fill="#FBB004" d="M30,61.478c-0.295,0-0.575-0.175-0.694-0.464l-9.333-22.667c-0.039-0.094-0.057-0.19-0.057-0.286
		c0-0.295,0.175-0.574,0.464-0.693c0.384-0.159,0.822,0.025,0.979,0.408l9.333,22.667c0.039,0.094,0.057,0.19,0.057,0.286
		c0,0.295-0.175,0.574-0.464,0.693C30.192,61.46,30.095,61.478,30,61.478z"/>
	<path fill="#FBB004" d="M38,61.478c-0.295,0-0.575-0.175-0.694-0.464l-9.333-22.667c-0.039-0.094-0.057-0.19-0.057-0.286
		c0-0.295,0.175-0.574,0.464-0.693c0.384-0.159,0.822,0.025,0.979,0.408l9.333,22.667c0.039,0.094,0.057,0.19,0.057,0.286
		c0,0.295-0.175,0.574-0.464,0.693C38.192,61.46,38.095,61.478,38,61.478z"/>
	<path fill="#FBB004" d="M45.834,61.311c-0.295,0-0.575-0.175-0.694-0.464L35.807,38.18c-0.039-0.094-0.057-0.19-0.057-0.286
		c0-0.295,0.175-0.574,0.464-0.693c0.385-0.157,0.822,0.025,0.979,0.408l9.333,22.667c0.039,0.094,0.057,0.19,0.057,0.286
		c0,0.295-0.175,0.574-0.464,0.693C46.026,61.293,45.929,61.311,45.834,61.311z"/>
	<path fill="#FBB004" d="M54.667,61.478c-0.295,0-0.575-0.175-0.694-0.464L44.64,38.347c-0.039-0.094-0.057-0.19-0.057-0.286
		c0-0.295,0.175-0.574,0.464-0.693c0.387-0.159,0.822,0.025,0.979,0.408l9.333,22.667c0.039,0.094,0.057,0.19,0.057,0.286
		c0,0.295-0.175,0.574-0.464,0.693C54.858,61.46,54.762,61.478,54.667,61.478z"/>
	<path fill="#FBB004" d="M62.834,61.145c-0.295,0-0.575-0.175-0.694-0.464l-9.333-22.667c-0.039-0.094-0.057-0.19-0.057-0.286
		c0-0.295,0.175-0.574,0.464-0.693c0.385-0.157,0.822,0.025,0.979,0.408l9.333,22.667c0.039,0.094,0.057,0.19,0.057,0.286
		c0,0.295-0.175,0.574-0.464,0.693C63.026,61.126,62.929,61.145,62.834,61.145z"/>
	<path fill="#FBB004" d="M63.333,45.145c-0.002,0-0.003,0-0.005,0l-44.833-0.333c-0.413-0.003-0.745-0.339-0.745-0.75
		c0-0.002,0-0.003,0-0.005c0.003-0.415,0.318-0.763,0.755-0.745l44.833,0.333c0.413,0.003,0.745,0.339,0.745,0.75
		c0,0.002,0,0.003,0,0.005C64.081,44.812,63.745,45.145,63.333,45.145z"/>
	<path fill="#FBB004" d="M64.667,51.311c-0.002,0-0.003,0-0.005,0l-44.833-0.333c-0.413-0.003-0.745-0.339-0.745-0.75
		c0-0.002,0-0.003,0-0.005c0.003-0.415,0.329-0.726,0.755-0.745l44.833,0.333c0.413,0.003,0.745,0.339,0.745,0.75
		c0,0.002,0,0.003,0,0.005C65.414,50.979,65.078,51.311,64.667,51.311z"/>
	<path fill="#FFFFFF" d="M75.699,84.398H43.485c-1.995,0-3.627-1.632-3.627-3.627V60.758c0-1.995,1.632-3.627,3.627-3.627h32.213
		c1.995,0,3.627,1.632,3.627,3.627v20.013C79.326,82.766,77.694,84.398,75.699,84.398z"/>
	<g>
		<g>
			<path fill="#FEE3A7" fill-opacity="0.3" d="M75.44,84.029H43.227c-1.995,0-3.627-1.632-3.627-3.627V60.388
				c0-1.995,1.632-3.627,3.627-3.627H75.44c1.995,0,3.627,1.632,3.627,3.627v20.013C79.068,82.396,77.435,84.029,75.44,84.029z"/>
			<path fill="#FBB004" d="M75.44,84.784H43.227c-2.417,0-4.383-1.966-4.383-4.383V60.388c0-2.417,1.966-4.383,4.383-4.383H75.44
				c2.417,0,4.383,1.966,4.383,4.383v20.014C79.823,82.818,77.857,84.784,75.44,84.784z M43.227,57.516
				c-1.583,0-2.872,1.288-2.872,2.872v20.014c0,1.583,1.288,2.871,2.872,2.871H75.44c1.583,0,2.872-1.288,2.872-2.871V60.388
				c0-1.583-1.288-2.872-2.872-2.872H43.227z"/>
		</g>
		<circle fill="#FBB004" cx="62.407" cy="77.063" r="0.975"/>
		<circle fill="#FBB004" cx="66.168" cy="77.063" r="0.975"/>
		<circle fill="#FBB004" cx="69.929" cy="77.063" r="0.975"/>
		<circle fill="#FBB004" cx="73.691" cy="77.063" r="0.975"/>
		<g>
			<path fill="#FBB004" d="M52.331,61.503h-7.119c-0.438,0-0.793,0.355-0.793,0.793s0.355,0.793,0.793,0.793h7.119
				c0.438,0,0.793-0.355,0.793-0.793C53.124,61.857,52.769,61.503,52.331,61.503z"/>
			<path fill="#FBB004" d="M53.137,61.503h-7.119c-0.438,0-0.793,0.355-0.793,0.793s0.355,0.793,0.793,0.793h7.119
				c0.438,0,0.793-0.355,0.793-0.793C53.93,61.857,53.575,61.503,53.137,61.503z"/>
		</g>
	</g>
</g>
</svg>
