<?xml version="1.0" encoding="utf-8"?>
<!-- Generator: Adobe Illustrator 23.0.0, SVG Export Plug-In . SVG Version: 6.00 Build 0)  -->
<svg version="1.0" xmlns="http://www.w3.org/2000/svg" xmlns:xlink="http://www.w3.org/1999/xlink" x="0px" y="0px"
	 viewBox="0 0 96 96" enable-background="new 0 0 96 96" xml:space="preserve">
<g id="Guidelines">
</g>
<g id="Your_Icons">
	<rect x="25.481" y="24.92" fill="#FFFFFF" width="51.292" height="46.583"/>
	<path fill="#FFFFFF" d="M70.692,84.301H31.054c-3.33,0-6.054-2.724-6.054-6.054V20.272c0-3.33,2.724-6.054,6.054-6.054h39.637
		c3.33,0,6.054,2.724,6.054,6.054v57.975C76.746,81.577,74.021,84.301,70.692,84.301z"/>
	<path fill="none" stroke="#FBB040" stroke-width="2.5" stroke-miterlimit="10" d="M70.692,84.301H31.054
		c-3.33,0-6.054-2.724-6.054-6.054V20.272c0-3.33,2.724-6.054,6.054-6.054h39.637c3.33,0,6.054,2.724,6.054,6.054v57.975
		C76.746,81.577,74.021,84.301,70.692,84.301z"/>
	
		<line fill="none" stroke="#FBB040" stroke-width="1.5" stroke-linecap="round" stroke-linejoin="round" stroke-miterlimit="10" x1="25.647" y1="22.164" x2="76.098" y2="22.164"/>
	
		<line fill="none" stroke="#FBB040" stroke-width="1.5" stroke-linecap="round" stroke-linejoin="round" stroke-miterlimit="10" x1="25.647" y1="73.173" x2="76.098" y2="73.173"/>
	<circle fill="#FBB040" cx="51.072" cy="78.458" r="2.709"/>
	<path fill="#FFFFFF" d="M81.644,85.301H65.999c-1.964,0-3.572-1.607-3.572-3.572V47.527c0-1.964,1.607-3.572,3.572-3.572h15.646
		c1.964,0,3.572,1.607,3.572,3.572v34.202C85.216,83.694,83.609,85.301,81.644,85.301z"/>
	<path fill="#FEE7C5" d="M81.928,85.301H66.283c-1.964,0-3.572-1.607-3.572-3.572V47.527c0-1.964,1.607-3.572,3.572-3.572h15.646
		c1.964,0,3.572,1.607,3.572,3.572v34.202C85.5,83.694,83.893,85.301,81.928,85.301z"/>
	<rect x="62.711" y="50.269" fill="#FFFFFF" width="22.521" height="27.482"/>
	<path fill="none" stroke="#FBB040" stroke-width="2.5" stroke-miterlimit="10" d="M81.644,85.301H65.999
		c-1.964,0-3.572-1.607-3.572-3.572V47.527c0-1.964,1.607-3.572,3.572-3.572h15.646c1.964,0,3.572,1.607,3.572,3.572v34.202
		C85.216,83.694,83.609,85.301,81.644,85.301z"/>
	
		<line fill="none" stroke="#FBB040" stroke-width="1.5" stroke-linecap="round" stroke-linejoin="round" stroke-miterlimit="10" x1="62.809" y1="50.131" x2="84.834" y2="50.131"/>
	
		<line fill="none" stroke="#FBB040" stroke-width="1.5" stroke-linecap="round" stroke-linejoin="round" stroke-miterlimit="10" x1="71.143" y1="47.155" x2="76.5" y2="47.155"/>
	
		<line fill="none" stroke="#FBB040" stroke-width="1.5" stroke-linecap="round" stroke-linejoin="round" stroke-miterlimit="10" x1="62.809" y1="77.811" x2="84.834" y2="77.811"/>
	<circle fill="#FBB040" cx="73.822" cy="81.445" r="2.058"/>
	<ellipse fill="#FEE7C5" cx="29.408" cy="31.7" rx="23.568" ry="23.885"/>
	<g>
		<g>
			<path fill="#FBB040" d="M29.408,10.314c11.617,0,21.068,9.593,21.068,21.385c0,11.792-9.451,21.385-21.068,21.385
				C17.791,53.085,8.34,43.492,8.34,31.7C8.34,19.908,17.791,10.314,29.408,10.314 M29.408,7.814
				C16.392,7.814,5.84,18.508,5.84,31.7s10.552,23.885,23.568,23.885S52.976,44.891,52.976,31.7S42.424,7.814,29.408,7.814
				L29.408,7.814z"/>
		</g>
	</g>
	<g>
		<path fill="#FFFFFF" d="M29.408,49.606c-9.874,0-17.907-8.033-17.907-17.907s8.033-17.907,17.907-17.907
			c9.874,0,17.906,8.033,17.906,17.907S39.282,49.606,29.408,49.606z"/>
		<g>
			<path fill="#FBB040" d="M29.408,14.543c9.46,0,17.157,7.696,17.157,17.157s-7.697,17.157-17.157,17.157S12.251,41.16,12.251,31.7
				S19.948,14.543,29.408,14.543 M29.408,13.043c-10.304,0-18.657,8.353-18.657,18.657c0,10.304,8.353,18.657,18.657,18.657
				S48.065,42.004,48.065,31.7C48.065,21.396,39.712,13.043,29.408,13.043L29.408,13.043z"/>
		</g>
	</g>
	
		<polyline fill="#FFFFFF" stroke="#FBB040" stroke-width="2.5" stroke-linecap="round" stroke-linejoin="round" stroke-miterlimit="10" points="
		20.263,33.215 27.116,39.14 37.222,23.806 	"/>
</g>
</svg>
