<?xml version="1.0" encoding="utf-8"?>
<!-- Generator: Adobe Illustrator 23.0.0, SVG Export Plug-In . SVG Version: 6.00 Build 0)  -->
<svg version="1.0" xmlns="http://www.w3.org/2000/svg" xmlns:xlink="http://www.w3.org/1999/xlink" x="0px" y="0px"
	 viewBox="0 0 96 96" enable-background="new 0 0 96 96" xml:space="preserve">
<g id="Guidelines">
</g>
<g id="Your_Icons">
	<path fill="#FFFFFF" d="M63.929,84.313H30.954c-1.964,0-3.572-1.607-3.572-3.572V15.1c0-1.964,1.607-3.572,3.572-3.572h32.974
		c1.964,0,3.572,1.607,3.572,3.572v65.642C67.5,82.706,65.893,84.313,63.929,84.313z"/>
	<path fill="#FEE3A7" d="M64.428,84.313H31.454c-1.964,0-3.572-1.607-3.572-3.572V15.1c0-1.964,1.607-3.572,3.572-3.572h32.974
		c1.964,0,3.572,1.607,3.572,3.572v65.642C68,82.706,66.393,84.313,64.428,84.313z"/>
	<rect x="27.882" y="22.642" fill="#FFFFFF" width="39.646" height="48.379"/>
	<path fill="none" stroke="#FBB040" stroke-width="2.5" stroke-miterlimit="10" d="M63.929,84.313H30.954
		c-1.964,0-3.572-1.607-3.572-3.572V15.1c0-1.964,1.607-3.572,3.572-3.572h32.974c1.964,0,3.572,1.607,3.572,3.572v65.642
		C67.5,82.706,65.893,84.313,63.929,84.313z"/>
	
		<line fill="none" stroke="#FBB040" stroke-width="1.5" stroke-linecap="round" stroke-linejoin="round" stroke-miterlimit="10" x1="28.055" y1="22.4" x2="66.828" y2="22.4"/>
	
		<line fill="none" stroke="#FBB040" stroke-width="1.5" stroke-linecap="round" stroke-linejoin="round" stroke-miterlimit="10" x1="42.726" y1="17.16" x2="52.157" y2="17.16"/>
	<circle fill="#FBB040" stroke="#FBB040" stroke-miterlimit="10" cx="47.441" cy="77.525" r="2.972"/>
	
		<line fill="none" stroke="#FBB040" stroke-width="1.5" stroke-linecap="round" stroke-linejoin="round" stroke-miterlimit="10" x1="28.055" y1="71.128" x2="66.828" y2="71.128"/>
	<circle fill="#FFFFFF" cx="50.304" cy="43.379" r="0.827"/>
	<circle fill="#FFFFFF" cx="53.493" cy="43.379" r="0.827"/>
	<circle fill="#FFFFFF" cx="56.681" cy="43.379" r="0.827"/>
	<circle fill="#FFFFFF" cx="59.87" cy="43.379" r="0.827"/>
	<g>
		<path fill="#FFFFFF" d="M41.762,30.188h-6.035c-0.371,0-0.672,0.301-0.672,0.672s0.301,0.672,0.672,0.672h6.035
			c0.371,0,0.672-0.301,0.672-0.672S42.134,30.188,41.762,30.188z"/>
		<path fill="#FFFFFF" d="M42.446,30.188H36.41c-0.371,0-0.672,0.301-0.672,0.672s0.301,0.672,0.672,0.672h6.035
			c0.371,0,0.672-0.301,0.672-0.672S42.817,30.188,42.446,30.188z"/>
	</g>
	<path fill="#FBB040" d="M41.433,44.699c0.089-0.209,0.299-0.345,0.532-0.345h2.656V34.223c0-0.676,0.563-1.223,1.259-1.223h3.639
		c0.696,0,1.259,0.547,1.259,1.223v10.131h2.655c0.233,0,0.443,0.136,0.532,0.345c0.089,0.21,0.04,0.45-0.125,0.61l-5.655,5.492
		c-0.268,0.261-0.705,0.261-0.974,0l-5.655-5.492C41.392,45.149,41.343,44.909,41.433,44.699z"/>
	<path fill="#FBB040" d="M62,55.71c0,0.865-0.722,1.567-1.613,1.567H35.011c-0.891,0-1.614-0.702-1.614-1.567v-4.01
		c0-0.865,0.722-1.567,1.614-1.567c0.891,0,1.613,0.702,1.613,1.567v2.443h22.149v-2.443c0-0.865,0.723-1.567,1.614-1.567
		c0.891,0,1.613,0.702,1.613,1.567V55.71z"/>
</g>
</svg>
