<svg xmlns="http://www.w3.org/2000/svg" viewBox="0 0 38 38"><circle cx="19" cy="19" r="18" fill="none" stroke="#021d49" stroke-width="2" stroke-miterlimit="10"/><path d="M13,14.8h10c0.1,0,0.2,0.1,0.2,0.2v8 c0,0.1-0.1,0.2-0.2,0.2H13c-0.1,0-0.2-0.1-0.2-0.2v-8C12.8,14.9,12.9,14.8,13,14.8z" fill="none" stroke="#021d49" stroke-width="1.5" stroke-miterlimit="10"/><path d="M27,16.6l-3,1.5v1.6l3,1.5V16.6 M27.5,14.8c0.5,0,1,0.4,1,1V22c0,0.7-0.8,1.2-1.5,0.9l-4-2 c-0.3-0.2-0.5-0.5-0.5-0.9v-2.2c0-0.4,0.2-0.7,0.6-0.9l4-2C27.2,14.8,27.4,14.8,27.5,14.8z" fill="#021d49"/></svg>