<svg xmlns="http://www.w3.org/2000/svg" xmlns:xlink="http://www.w3.org/1999/xlink" viewBox="0 0 94.17 98.49"><defs><style>.cls-1,.cls-3,.cls-5{fill:none;}.cls-2{fill:#59c5c7;}.cls-3,.cls-5{stroke:#59c5c7;stroke-miterlimit:10;}.cls-3{stroke-linecap:round;stroke-width:4px;}.cls-4{clip-path:url(#clip-path);}.cls-5{stroke-width:5px;}</style><clipPath id="clip-path" transform="translate(-0.87 -1.41)"><polygon class="cls-1" points="12.9 79.76 32.94 91.49 60.5 88.11 70.37 87.89 87.4 70.45 91.52 53.95 92.79 48.85 94.65 41.41 95.83 34.5 90.45 26.61 48.49 0 4.7 24.27 0 37.66 3.59 43.58 3.28 56.46 6.05 75.72 12.9 79.76"/></clipPath></defs><g id="Layer_2" data-name="Layer 2"><g id="Layer_1-2" data-name="Layer 1"><path class="cls-2" d="M11.65,33.15l.1-.2.09-.15.15-.27h0l.13-.18a11.2,11.2,0,0,1,3.77-3.57L41.28,14.18,44.2,8.35a14.58,14.58,0,0,0-3.29,1.37l-27,15.54a15.14,15.14,0,0,0-5.1,4.8c-.09.13-.16.24-.23.36l-.2.34L8.2,31A16.09,16.09,0,0,0,7,33.8Z" transform="translate(-0.87 -1.41)"/><path class="cls-2" d="M55,14.34,80.12,28.76a11.24,11.24,0,0,1,3.74,3.51l.21.34.11.19.06.1c.14.25.27.51.39.76l4.55.7A15.27,15.27,0,0,0,87.82,31l-.13-.23-.19-.31-.14-.23-.07-.1a15.32,15.32,0,0,0-5.15-4.88L55.46,9.93l-.37-.22a14.36,14.36,0,0,0-2.94-1.25Z" transform="translate(-0.87 -1.41)"/><path class="cls-2" d="M85.78,44.93V70.41c0,.21-.06.41-.1.62l0,.2a10.24,10.24,0,0,1-5,7.59l-2.24,1.29-2.83,1.63.7,4.26c1.31-.74,2.69-1.54,4.15-2.38l2.24-1.29a14.28,14.28,0,0,0,7-10.54c.06-.37.12-.74.16-1.15,0-.06,0-2.33,0-2.39V41Z" transform="translate(-0.87 -1.41)"/><path class="cls-2" d="M67.63,86.28c-9.3,5.34-14.15,8.13-14.76,8.47-.39.18-.75.33-1.16.48a11.16,11.16,0,0,1-3.06.61H47.5a11.09,11.09,0,0,1-3.21-.62,10.74,10.74,0,0,1-1.17-.49c-.25-.11-.49-.24-.69-.35L27.8,86l-2.87,1.49-1.4.72,16.9,9.72c.3.17.62.33.93.48A13.67,13.67,0,0,0,43,99a15,15,0,0,0,4.27.84h1.63a15,15,0,0,0,4.2-.83,14.61,14.61,0,0,0,1.59-.66c.15-.08,1.71-1,17.21-9.86Z" transform="translate(-0.87 -1.41)"/><path class="cls-2" d="M19.83,81.38l-4.44-2.56a10.2,10.2,0,0,1-5-7.59l0-.15c0-.22-.08-.45-.11-.68V44.59l-4.05-4V70.46c0,.08,0,.15,0,.22,0,.34.09.7.17,1.08a14.27,14.27,0,0,0,7,10.57l5.71,3.29Z" transform="translate(-0.87 -1.41)"/><path class="cls-2" d="M85.77,70.45c0,.2,0,.39-.09.58l0,.2a10.24,10.24,0,0,1-5,7.59l-2.24,1.29L52.87,94.75c-.39.18-.75.33-1.16.48a11.16,11.16,0,0,1-3.06.61H47.5a11.09,11.09,0,0,1-3.21-.62,10.74,10.74,0,0,1-1.17-.49c-.25-.11-.49-.24-.69-.35l-27-15.56a10.2,10.2,0,0,1-5-7.59l0-.15a6.17,6.17,0,0,1-.1-.62H6.18c0,.08,0,.15,0,.22,0,.34.09.7.17,1.08a14.27,14.27,0,0,0,7,10.57L40.43,97.9c.3.17.62.33.93.48A13.67,13.67,0,0,0,43,99a15,15,0,0,0,4.27.84h1.63a15,15,0,0,0,4.2-.83,14.61,14.61,0,0,0,1.59-.66c.18-.09,2.23-1.25,25.76-14.77l2.24-1.29a14.28,14.28,0,0,0,7-10.54c.06-.37.12-.74.16-1.15a1.21,1.21,0,0,0,0-.19Z" transform="translate(-0.87 -1.41)"/><line class="cls-3" x1="29.35" y1="45.17" x2="59.36" y2="25.37"/><line class="cls-3" x1="43.42" y1="45.17" x2="66.13" y2="30.18"/><line class="cls-3" x1="58.53" y1="44.1" x2="77.04" y2="31.88"/><g class="cls-4"><path class="cls-5" d="M24.9,87.58l-3.4,1.77c-1.87,1-2.89-1.13-2.26-4.65l3.56-20a13.93,13.93,0,0,0-3.48-11L4.85,39.43c-2.54-2.51-1.73-5,1.82-5.46l20.13-2.8a13.91,13.91,0,0,0,9.36-6.7L45.28,6.3c1.6-3.2,4.19-3.18,5.75,0l8.88,18.28a13.91,13.91,0,0,0,9.27,6.83l20.1,3.05c3.54.54,4.32,3,1.74,5.49L76.38,54.08A13.87,13.87,0,0,0,72.75,65l3.3,20.06c.59,3.53-1.52,5-4.68,3.35L53.44,78.85a13.89,13.89,0,0,0-11.51-.08l-17,8.81" transform="translate(-0.87 -1.41)"/></g></g></g></svg>