<svg xmlns="http://www.w3.org/2000/svg" viewBox="0 0 83.65 92.07"><defs><style>.cls-1{fill:#59c5c7;}</style></defs><g id="Layer_2" data-name="Layer 2"><g id="Layer_1-2" data-name="Layer 1"><path class="cls-1" d="M83.51,29.12V29c0-.19,0-.4-.08-.61a15.15,15.15,0,0,0-1.78-5.24l-.13-.23-.35-.56.58-.5-.63.41A15.39,15.39,0,0,0,76,17.42L65.74,11.55,49.28,2.1l-.37-.22A14.25,14.25,0,0,0,42,0h-.35a14.47,14.47,0,0,0-6.94,1.89l-27,15.54a15,15,0,0,0-5.1,4.8,2.15,2.15,0,0,0-.23.36l-.2.33L2,23.16a15.09,15.09,0,0,0-1.78,5.2c0,.23-.06.45-.08.66l0,.11A4.45,4.45,0,0,0,0,30.21V62.63a1.48,1.48,0,0,0,0,.21c0,.35.09.71.16,1.09a14.42,14.42,0,0,0,3.72,7.94l.34.36-.2.45a2,2,0,0,0-.18.81v8.35a2,2,0,0,0,2,2H23.46l10.79,6.21c.3.17.62.33.93.48a16.1,16.1,0,0,0,1.58.66,15.55,15.55,0,0,0,4.28.84h1.62a14.72,14.72,0,0,0,4.21-.84,14.27,14.27,0,0,0,1.59-.65c.14-.07,1-.56,11.53-6.6l.17-.1H78.25a2,2,0,0,0,2-2V73.49a2,2,0,0,0-.31-1L79.68,72l.36-.42A14.21,14.21,0,0,0,83.48,64c.06-.37.12-.75.16-1.17a1,1,0,0,0,0-.17V30.21A4.46,4.46,0,0,0,83.51,29.12ZM49.58,85.26l-2.9,1.66,0,0a11.61,11.61,0,0,1-1.11.46,11.16,11.16,0,0,1-3.06.61H41.32a11.09,11.09,0,0,1-3.21-.62,11.79,11.79,0,0,1-1.18-.49l-.69-.36-4.66-2.68H52Zm26.65-5.45H60.15a1.84,1.84,0,0,0-.81,0H24.27a1.8,1.8,0,0,0-.73,0H7.9V75.52H76.23ZM79.6,62.49c0,.29-.07.51-.1.72l0,.19a10.2,10.2,0,0,1-5,7.59l-.29.17-.15.08-.4.23H10L9.2,71a10.21,10.21,0,0,1-5-7.59s0-.09,0-.14a5.5,5.5,0,0,1-.11-.69V30.17l0-.11a2.84,2.84,0,0,0,.09-.42A5.78,5.78,0,0,1,4.25,29a10.75,10.75,0,0,1,1.32-3.85L5.66,25c0-.1.1-.18.16-.28l.12-.18a11.17,11.17,0,0,1,3.77-3.56l27-15.54a10.23,10.23,0,0,1,5-1.35h.18a10.27,10.27,0,0,1,5,1.33l.37.22,26.7,15.33a11.14,11.14,0,0,1,3.74,3.51l.42.71A10.71,10.71,0,0,1,79.41,29c0,.23.06.45.08.68a1.69,1.69,0,0,0,.08.39l0,.22Z"/><path class="cls-1" d="M69.41,26.05l-.92-.53-19.21-11-.37-.21A14.38,14.38,0,0,0,42,12.39h-.36a14.32,14.32,0,0,0-6.93,1.89L14.44,25.94a2,2,0,0,0,1,3.78l53,.11a2,2,0,0,0,1-3.78ZM23,25.69l13.75-7.9a10.16,10.16,0,0,1,5-1.35h.18a10.17,10.17,0,0,1,5,1.33l.37.22c.14.07,4.21,2.41,9.13,5.24l4.41,2.53Z"/><path class="cls-1" d="M66.4,33.8H17.73a2,2,0,0,0-2,2v30a2,2,0,0,0,2,2H66.4a2,2,0,0,0,2-2v-30A2,2,0,0,0,66.4,33.8ZM46.24,63.45H37.89V48.09h8.35Zm18.13.34H50.29V46.06a2,2,0,0,0-2-2H35.86a2,2,0,0,0-2,2V63.79H19.75V37.85H64.37Z"/></g></g></svg>