<svg width="74" height="83" viewBox="0 0 74 83" xmlns="http://www.w3.org/2000/svg" xmlns:xlink="http://www.w3.org/1999/xlink"><title>icon-FAQs</title><defs><path id="a" d="M0 0L74 0 74 83 0 83z"/><path id="c" d="M0 83L74 83 74 0 0 0z"/></defs><g fill="none" fill-rule="evenodd"><path d="M19.7966069 23L33.2033931 23C34.1954844 23 35 22.1044056 35 21 35 19.8955944 34.1954844 19 33.2033931 19L19.7966069 19C18.8045156 19 18 19.8955944 18 21 18 22.1044056 18.8045156 23 19.7966069 23M43.2033931 68L29.7966069 68C28.8045156 68 28 68.8955944 28 70 28 71.1044056 28.8045156 72 29.7966069 72L43.2033931 72C44.1954844 72 45 71.1044056 45 70 45 68.8955944 44.1954844 68 43.2033931 68M19.7420946 32L29.2579054 32C30.2198949 32 31 31.1044056 31 30 31 28.8955944 30.2198949 28 29.2579054 28L19.7420946 28C18.7801051 28 18 28.8955944 18 30 18 31.1044056 18.7801051 32 19.7420946 32M52.2648205 60L19.7362267 60C18.7770086 60 18 60.8955944 18 62 18 63.1044056 18.7770086 64 19.7362267 64L52.2648205 64C53.2229914 64 54 63.1044056 54 62 54 60.8955944 53.2229914 60 52.2648205 60M19.6048426 40L24.3951574 40C25.2813559 40 26 39.1044056 26 38 26 36.8955944 25.2813559 36 24.3951574 36L19.6048426 36C18.7186441 36 18 36.8955944 18 38 18 39.1044056 18.7186441 40 19.6048426 40M19.6048426 49L24.3951574 49C25.2813559 49 26 48.1044056 26 47 26 45.8955944 25.2813559 45 24.3951574 45L19.6048426 45C18.7186441 45 18 45.8955944 18 47 18 48.1044056 18.7186441 49 19.6048426 49M19.6048426 57L24.3951574 57C25.2813559 57 26 56.1044056 26 55 26 53.8955944 25.2813559 53 24.3951574 53L19.6048426 53C18.7186441 53 18 53.8955944 18 55 18 56.1044056 18.7186441 57 19.6048426 57" fill="#185A7D"/><mask id="b" fill="#fff"><use xlink:href="#a"/></mask><path d="M67.0850157,63.3402913 L63.4310307,65.4344731 L63.4310307,50.9294313 C65.9159942,47.9392418 67.410566,44.109701 67.410566,39.9402228 C67.410566,35.7707446 65.9159942,31.9412037 63.4310307,28.9520634 L63.4310307,18.8179442 L66.3736672,21.1660298 L66.5966903,21.3181622 C68.2709489,22.3054493 69.7602359,24.8654712 69.7834895,26.7980778 L70.1650598,57.9684422 C70.1893703,59.8758683 68.7497616,62.3865782 67.0850157,63.3402913 L67.0850157,63.3402913 Z M40.635111,78.4979288 C38.9703651,79.4547894 36.0604951,79.435904 34.408433,78.4612072 L13.0172417,65.855198 L13.0172417,2.9793828 L18.1499438,2.9793828 L18.1499438,10.707711 L23.4559909,10.707711 L23.4559909,2.9793828 L28.7630949,2.9793828 L28.7630949,10.707711 L34.069142,10.707711 L34.069142,2.9793828 L39.376246,2.9793828 L39.376246,10.707711 L44.6822931,10.707711 L44.6822931,2.9793828 L49.9893971,2.9793828 L49.9893971,10.707711 L55.2965012,10.707711 L55.2965012,2.9793828 L60.4281463,2.9793828 L60.4281463,26.1297443 C57.5151053,23.9547749 53.9076275,22.6485342 49.9893971,22.6485342 C40.3835494,22.6485342 32.5682283,30.4051906 32.5682283,39.9402228 C32.5682283,49.4752549 40.3835494,57.2329605 49.9893971,57.2329605 C53.9076275,57.2329605 57.5151053,55.9267198 60.4281463,53.7517504 L60.4281463,67.1551435 L40.635111,78.4979288 Z M64.4076816,39.9402228 C64.4076816,47.8322245 57.9400119,54.2532629 49.9893971,54.2532629 C42.0387824,54.2532629 35.5711127,47.8322245 35.5711127,39.9402228 C35.5711127,32.0492702 42.0387824,25.6282318 49.9893971,25.6282318 C57.9400119,25.6282318 64.4076816,32.0492702 64.4076816,39.9402228 L64.4076816,39.9402228 Z M10.0143573,64.0862648 L7.40361302,62.5471042 C5.72935434,61.5608663 4.24006742,58.9997952 4.21681383,57.0671886 L3.83524351,25.8978734 C3.81198992,23.9893981 5.25159871,21.4797374 6.91634455,20.5249751 L10.0143573,18.7497469 L10.0143573,64.0862648 Z M73.6182183,26.7519135 C73.580167,23.567624 71.4207538,19.809428 68.6778868,18.1202333 L63.530387,14.0137065 L63.4310307,14.1375108 L63.4310307,1.48953402 C63.4310307,0.666969625 62.7587905,-0.000314756784 61.930117,-0.000314756784 L11.516328,-0.000314756784 C10.6865975,-0.000314756784 10.0143573,0.666969625 10.0143573,1.48953402 L10.0143573,14.3525946 L4.99792315,17.2284224 C2.15569993,18.8588626 -0.038593637,22.686305 4.97377747e-14,25.9440378 L0.383141976,57.1133529 C0.422250291,60.3459051 2.64613934,64.1702 5.4460833,65.8195255 L32.4498463,81.7336285 C33.8799423,82.5771767 35.724375,83 37.5666937,83 C39.3593343,83 41.149861,82.5981605 42.5524754,81.7955307 L69.0023801,66.6378932 C71.8456603,65.007453 74.0410109,61.1779122 74.0003597,57.9212286 L73.6182183,26.7519135 Z" fill="#185A7D" mask="url(#b)"/><mask id="d" fill="#fff"><use xlink:href="#c"/></mask><path fill="#185A7D" mask="url(#d)" d="M47 51L52 51 52 46 47 46zM54.7881106 30.6260293C53.3142195 29.5420098 51.4623807 29 49.2336468 29 47.5376193 29 46.1068922 29.3824061 44.943571 30.1440048 43.0991016 31.3383544 42.1179113 33.3649997 42 36.2250117L46.2753369 36.2250117C46.2753369 35.3927161 46.513265 34.5893419 46.9901741 33.8170315 47.4670831 33.0447212 48.2766704 32.6580304 49.4178832 32.6580304 50.5790988 32.6580304 51.3781583 32.9718819 51.8161145 33.5985138 52.2540707 34.2262168 52.4730488 34.9214032 52.4730488 35.6830019 52.4730488 36.3449823 52.2761791 36.9523331 51.8834924 37.5039834 51.6666199 37.8253331 51.3813167 38.1220459 51.0275828 38.3919796L49.9505896 39.2499833C48.889388 40.0929906 48.2303481 40.8385218 47.9745227 41.4855058 47.7186974 42.1324898 47.5618332 43.3043449 47.5028776 45L51.5118613 45C51.5213363 44.197697 51.5855559 43.6053424 51.7034672 43.2240075 51.8898091 42.6220125 52.2688097 42.094999 52.8394161 41.6440383L53.8869315 40.8160273C54.9491859 39.97302 55.6671814 39.2810471 56.040918 38.7390373 56.6799551 37.8456852 57 36.7466693 57 35.4419897 57 33.315726 56.2620017 31.7100489 54.7881106 30.6260293"/></g></svg>