<svg width="76" height="83" viewBox="0 0 76 83" xmlns="http://www.w3.org/2000/svg" xmlns:xlink="http://www.w3.org/1999/xlink"><title>icon-call</title><defs><path id="a" d="M0 0L76 0 76 83 0 83z"/></defs><g fill="none" fill-rule="evenodd"><g><mask id="b" fill="#fff"><use xlink:href="#a"/></mask><path d="M72.3202897,56.4150789 C72.2927695,56.6044622 72.2661371,56.785037 72.2297395,56.9744203 L72.2022194,57.1541142 C71.8480084,60.0115997 70.1399836,62.5634293 67.6320991,63.9965763 L65.5973835,65.1593016 C50.742717,73.6242941 43.1560332,77.9422331 42.4200911,78.3571146 C42.0658802,78.5191914 41.7383016,78.6548427 41.365448,78.7896132 C40.4848032,79.0961498 39.5491181,79.2855331 38.5859129,79.340146 L37.9316435,79.3489545 L37.5410349,79.340146 C36.4695246,79.2855331 35.5151968,79.0961498 34.6247868,78.7808046 C34.2608107,78.6548427 33.9163649,78.5103829 33.5612662,78.3394975 C33.3348908,78.2399612 33.1165051,78.1228078 32.934517,78.0241523 L8.36790095,63.9965763 C5.86001635,62.5634293 4.15199159,60.0115997 3.8066581,57.1541142 L3.78890317,57.0193437 C3.74362808,56.8202711 3.71610793,56.6132707 3.68858778,56.4062704 L3.67971031,27.1980825 L3.71610793,27.0985462 C3.75250555,26.9813928 3.7800257,26.8457415 3.78890317,26.7197796 C3.8066581,26.5127793 3.82530078,26.341013 3.85193319,26.1701276 C3.8616984,26.1340127 3.8616984,26.0802807 3.87057587,26.0344764 C4.06144142,24.8180191 4.46092746,23.6905279 5.06015652,22.644956 L5.14271697,22.5101855 C5.18799206,22.4203386 5.23326714,22.3481087 5.27854223,22.2670702 L5.27854223,22.2573809 L5.39661255,22.095304 C6.26039014,20.7793104 7.4499708,19.6615086 8.82153954,18.876669 L33.3890433,4.86759089 C34.7614998,4.09244069 36.3150567,3.66875064 37.8863684,3.65113359 L38.0497138,3.65113359 C39.6858311,3.66875064 41.2393879,4.08363217 42.5834365,4.84997384 L42.92877,5.04816565 C43.3016236,5.25516599 66.9778297,18.7595156 67.1775727,18.8678605 C68.5589067,19.6615086 69.7307324,20.7608125 70.5758673,22.0318826 L70.7667329,22.3384193 C70.8120079,22.4106492 70.8395281,22.4555727 70.8661605,22.5101855 L70.9212008,22.6000325 C71.5657049,23.7266428 71.9660787,24.8805596 72.1383016,26.0802807 C72.1746992,26.3322045 72.2022194,26.5303963 72.2199743,26.7285881 C72.2297395,26.8457415 72.2563719,26.9725843 72.2927695,27.0897376 L72.3202897,27.2791209 L72.3202897,56.4150789 Z M75.8819297,26.2599746 L75.863287,26.1613191 C75.8455321,25.9992423 75.8268894,25.8459739 75.800257,25.6830162 C75.5543511,23.970639 75.0092746,22.3842236 74.1739049,20.8876552 C74.1277421,20.8154253 74.0922322,20.7431954 74.0558346,20.679774 C73.9919168,20.5714292 73.9368765,20.4903907 73.882724,20.4005438 L73.7557762,20.1935435 L73.6918584,20.1028157 C72.5111552,18.2997106 70.8936806,16.7855252 69.013433,15.7038383 C57.9379045,9.39341101 44.9457306,1.98279897 44.77262,1.89295201 L44.4370517,1.6947602 C42.5470389,0.621881862 40.3853755,0.0361149523 38.1766616,0.00880852495 C38.1047541,0 38.0408364,0 37.9866838,0 L37.8588483,0 C35.6332671,0.0361149523 33.4618386,0.621881862 31.5540708,1.70356873 L6.98656699,15.7126468 C5.11519682,16.7855252 3.5065997,18.2820935 2.35341666,20.0402751 C2.27174396,20.1574285 2.20782619,20.256084 2.14390842,20.3644288 C2.07111319,20.4815822 2.01696064,20.5714292 1.96280808,20.6709655 C1.90776778,20.7520039 1.87137017,20.8154253 1.83497255,20.8779658 C0.99960285,22.3745342 0.45452634,23.9618304 0.208620488,25.6107863 L0.199743021,25.7279397 C0.172222871,25.8997059 0.163345404,26.0256678 0.145590468,26.1613191 L0.126947786,26.2599746 C0.0452750847,26.5850092 0,26.9091629 0,27.2333166 L0,56.4600024 C0,56.5322323 0.00887746759,56.5956537 0.00887746759,56.6581942 C0.0452750847,56.9647309 0.0905501694,57.2897654 0.163345404,57.6324171 C0.672024296,61.6350108 3.0529611,65.1777995 6.53204065,67.1605985 L31.1172994,81.196983 C31.3907254,81.3502514 31.6810186,81.4947112 31.9624343,81.6294816 C32.4444808,81.8637884 32.9078846,82.0531717 33.4067983,82.2249379 C34.6247868,82.6574365 35.9235603,82.9093603 37.2871394,82.9815902 C37.3590468,82.9912796 37.4504848,82.9912796 37.5410349,82.9912796 L38.1225091,83.0000881 C38.1766616,83.0000881 38.2317019,82.9912796 38.2947319,82.9912796 L38.4589651,82.9912796 C38.5495152,82.9912796 38.6400654,82.9912796 38.7679009,82.9815902 C40.0941946,82.9093603 41.3840906,82.6574365 42.5834365,82.2337464 C43.1009929,82.0531717 43.5830394,81.8549798 44.0278005,81.639171 C44.1920336,81.5572517 46.0545263,80.5116798 67.432356,68.3233238 L69.4670716,67.1605985 C72.9568041,65.1777995 75.3368532,61.6253214 75.8455321,57.6588426 C75.8996846,57.3258804 75.9547249,56.9920373 75.9911225,56.6220793 C76,56.5683473 76,56.5049259 76,56.4511939 L76,27.2333166 C76,26.9003544 75.9547249,26.5753198 75.8819297,26.2599746 L75.8819297,26.2599746 Z" fill="#185A7D" mask="url(#b)"/></g><path d="M52.4834349,56.4386645 C51.0815062,57.1994615 49.8079655,57.553581 48.4766933,57.553581 C46.7456086,57.553581 45.0688088,56.9211632 43.2937792,56.2499731 C42.9508365,56.1207324 42.6078939,55.99063 42.2589197,55.8648358 C40.6631163,55.2884222 39.2818676,54.6344642 38.0359002,53.8641896 C33.8430389,51.2750673 28.7273346,46.1588584 26.1354467,41.9637049 C25.36598,40.7204093 24.7119764,39.3383953 24.1337993,37.7358104 C24.0097195,37.3954766 23.8813315,37.0568659 23.7529434,36.716532 C23.0808448,34.9399031 22.4466595,33.2606354 22.4466595,31.5253635 C22.4466595,30.1950458 22.8008037,28.921594 23.5538988,27.5335487 C23.5943971,27.4611739 23.6348953,27.3879375 23.6753935,27.3155627 L28.5119184,34.7451804 C27.9845795,35.3457189 27.5942453,36.0263866 27.5942453,36.8207862 C27.5942453,37.8874529 28.1801775,38.8412493 28.6506465,39.6080775 L28.8229794,39.8898223 C31.6087419,44.9103931 35.0907297,48.3912763 40.0789076,51.1596123 L40.3942769,51.3500269 C41.160297,51.8213247 42.11416,52.4063543 43.1809011,52.4063543 C43.9262412,52.4063543 44.5733515,52.062574 45.1592836,51.5688745 L52.8772158,56.2172321 C52.7393494,56.2956381 52.6075147,56.3697361 52.4834349,56.4386645 M28.2146441,24.4541734 C28.3938703,24.7402262 28.6101482,25.183091 28.695453,25.3562736 L28.8264261,25.6182014 C29.1021589,26.1084545 29.374445,26.6004308 29.6467311,27.0932687 C30.2025049,28.099623 30.7582787,29.1051158 31.3536891,30.1149165 C31.4751839,30.3139472 31.6233903,30.5241788 31.7767666,30.7421648 C31.912048,30.9325794 32.1162626,31.2203554 32.225694,31.4245557 C32.1671008,31.4969305 32.0929976,31.5779214 32.0076928,31.6640819 L27.3900308,24.57049 C27.6967835,24.5119009 27.9854412,24.4705439 28.2146441,24.4541734 M48.5757848,47.772644 C48.7799994,47.8829295 49.0686571,48.088853 49.2599467,48.2249865 C49.4762246,48.3783522 49.6847475,48.5239634 49.912227,48.664405 C50.8910783,49.2408185 51.8923328,49.7931072 52.8944491,50.3462574 C53.3916297,50.6211093 53.8888103,50.8950996 54.4575091,51.2130318 L54.6436287,51.3035003 C54.8168234,51.3887991 55.2597191,51.6050619 55.5457919,51.7842757 C55.5328669,51.9591815 55.5052936,52.169413 55.4673804,52.3968767 L48.2673088,48.0595584 C48.3801869,47.944965 48.4844483,47.8458805 48.5757848,47.772644 M58.8097784,50.4289715 C58.4228908,49.3855681 57.3337465,48.7824448 56.1558506,48.2068928 L56.0705458,48.167259 C55.5690568,47.8863759 55.0649829,47.6080775 54.5600473,47.3297792 C53.586366,46.7921379 52.6126847,46.2544965 51.6915649,45.7125471 C51.5528369,45.6272482 51.4072155,45.5221325 51.2555625,45.4135703 C50.5696773,44.9276252 49.6304626,44.2607431 48.4758317,44.2607431 C46.8378067,44.2607431 45.6219976,45.7633818 44.2958954,47.4030156 C44.1744007,47.5529348 44.0890958,47.7243942 44.024471,47.9018848 C43.8616163,47.9966613 43.710825,48.1164243 43.5824369,48.265482 C43.3153208,48.5739365 43.1300628,48.7617663 43.0059831,48.8754981 C42.751792,48.7531502 42.4088493,48.5429187 42.1977415,48.413678 C42.0633217,48.3309639 41.9357953,48.2525579 41.7841423,48.1638126 C37.3594932,45.7091007 34.2919663,42.6409262 31.8181265,38.1838449 C31.7491933,38.0666667 31.6707818,37.9382876 31.588062,37.8038772 C31.4545039,37.5867528 31.2365027,37.2317717 31.1184546,37.0008616 C31.2442577,36.8638665 31.4648439,36.6476037 31.8517314,36.3201939 C32.0007995,36.1943996 32.1197092,36.0453419 32.2144923,35.8850835 C32.398027,35.8204631 32.5703599,35.7239634 32.7245979,35.5990307 C34.2066615,34.4014001 35.7387016,33.1624125 35.7387016,31.5245019 C35.7387016,30.3725363 35.074358,29.4351104 34.5892407,28.7501346 C34.4815326,28.5976306 34.3755478,28.4502962 34.3066146,28.3382876 C33.7430858,27.3827679 33.2036836,26.4057081 32.6634197,25.4277868 C32.387687,24.928056 32.1110926,24.4283253 31.8715497,24.0044157 L31.7922766,23.8432956 C31.2175461,22.6672052 30.6143807,21.57986 29.5717662,21.1929995 C29.0900956,21 28.6652948,21 28.4085186,21 C27.2495794,21 25.1893387,21.4566505 24.1467242,21.9322563 C24.0519411,21.9718901 23.9588813,22.0192784 23.936478,22.0365105 C23.6676386,22.1674744 23.4487757,22.3699515 23.2824744,22.6103393 C23.0093266,22.6870221 22.7551355,22.8240172 22.5466126,23.0264943 C21.6858094,23.8596661 21.0835056,24.8832526 20.5320401,25.8749596 C19.501489,27.7765213 19,29.625525 19,31.5253635 C19,33.8896069 19.7772217,35.9462574 20.5294551,37.9348411 C20.6526732,38.2622509 20.7758913,38.5896607 20.8930777,38.9110393 C21.5522513,40.7350565 22.3070697,42.3273021 23.2032012,43.7756597 C26.0854702,48.4412493 31.562212,53.9167474 36.2246806,56.7962305 C37.6748626,57.693161 39.2663576,58.4487884 41.0844705,59.1044696 C41.4153498,59.2250942 41.7462291,59.3500269 42.0762467,59.474098 C44.0623842,60.2245557 46.1157316,61 48.4766933,61 C50.3783877,61 52.2266588,60.498546 54.1430015,59.4594507 C55.0124213,58.9752289 56.3264602,58.244588 57.2458566,57.1649973 C57.4397312,56.9375337 57.5595026,56.6652666 57.6155109,56.3792138 C57.8360971,56.2 58.0170467,55.9725363 58.1273398,55.7037157 C58.5486939,54.6775444 58.9993446,52.7802908 58.9993446,51.6085083 C59.0019296,51.3655358 59.006238,50.9243942 58.8097784,50.4289715" fill="#185A7D"/></g></svg>