<svg width="78" height="83" viewBox="0 0 78 83" xmlns="http://www.w3.org/2000/svg" xmlns:xlink="http://www.w3.org/1999/xlink"><title>icon-calendar</title><defs><path id="a" d="M0 0L78 0 78 83 0 83z"/></defs><g fill="none" fill-rule="evenodd"><mask id="b" fill="#fff"><use xlink:href="#a"/></mask><path d="M38.9288134,35.9092967 L47.3002199,35.9092967 L47.3002199,29.8159674 L38.9288134,29.8159674 L38.9288134,35.9092967 Z M38.9288134,45.1830969 L47.3002199,45.1830969 L47.3002199,39.0897676 L38.9288134,39.0897676 L38.9288134,45.1830969 Z M27.3941513,35.9092967 L35.7646266,35.9092967 L35.7646266,29.8159674 L27.3941513,29.8159674 L27.3941513,35.9092967 Z M27.3941513,45.1830969 L35.7646266,45.1830969 L35.7646266,39.0897676 L27.3941513,39.0897676 L27.3941513,45.1830969 Z M60.4179066,29.8169031 C61.2913637,29.8169031 62,29.1048295 62,28.2271355 C62,27.3485059 61.2913637,26.6364322 60.4179066,26.6364322 L50.4644067,26.6364322 L50.4644067,23.5897676 C50.4644067,22.7120736 49.7567016,22 48.8823133,22 C48.0088562,22 47.3002199,22.7120736 47.3002199,23.5897676 L47.3002199,26.6364322 L38.9288134,26.6364322 L38.9288134,23.5897676 C38.9288134,22.7120736 38.2201771,22 37.34672,22 C36.4732629,22 35.7646266,22.7120736 35.7646266,23.5897676 L35.7646266,26.6364322 L27.3941513,26.6364322 L27.3941513,23.5897676 C27.3941513,22.7120736 26.685515,22 25.8111267,22 C24.9376696,22 24.2290333,22.7120736 24.2290333,23.5897676 L24.2290333,26.6364322 L16.5830246,26.6364322 C15.7086363,26.6364322 15,27.3485059 15,28.2271355 C15,29.1048295 15.7086363,29.8169031 16.5830246,29.8169031 L24.2290333,29.8169031 L24.2290333,35.9092967 L16.5830246,35.9092967 C15.7086363,35.9092967 15,36.6213704 15,37.5 C15,38.3776939 15.7086363,39.0897676 16.5830246,39.0897676 L24.2290333,39.0897676 L24.2290333,45.1830969 L16.5830246,45.1830969 C15.7086363,45.1830969 15,45.8942348 15,46.7728645 C15,47.6505584 15.7086363,48.3626321 16.5830246,48.3626321 L24.2290333,48.3626321 L24.2290333,51.4102324 C24.2290333,52.2879264 24.9376696,53 25.8111267,53 C26.685515,53 27.3941513,52.2879264 27.3941513,51.4102324 L27.3941513,48.3626321 L35.7646266,48.3626321 L35.7646266,51.4102324 C35.7646266,52.2879264 36.4732629,53 37.34672,53 C38.2201771,53 38.9288134,52.2879264 38.9288134,51.4102324 L38.9288134,48.3626321 L47.3002199,48.3626321 L47.3002199,51.4102324 C47.3002199,52.2879264 48.0088562,53 48.8823133,53 C49.7567016,53 50.4644067,52.2879264 50.4644067,51.4102324 L50.4644067,48.3626321 L60.4179066,48.3626321 C61.2913637,48.3626321 62,47.6505584 62,46.7728645 C62,45.8942348 61.2913637,45.1830969 60.4179066,45.1830969 L50.4644067,45.1830969 L50.4644067,39.0897676 L60.4179066,39.0897676 C61.2913637,39.0897676 62,38.3776939 62,37.5 C62,36.6213704 61.2913637,35.9092967 60.4179066,35.9092967 L50.4644067,35.9092967 L50.4644067,29.8169031 L60.4179066,29.8169031 Z" fill="#185A7D" mask="url(#b)"/><path d="M73.2426384,70.9064475 L55.8020358,70.9064475 L55.7662987,70.8436992 L55.6553259,70.9064475 L23.203297,70.9064475 L23.0725747,70.8333973 L23.031195,70.9064475 L5.2962322,70.9064475 L5.2962322,65.7639014 L5.73259994,65.7639014 C5.73636173,65.7657745 5.73918307,65.7685841 5.74294486,65.7704572 L5.74670665,65.7639014 L72.7197495,65.7639014 L72.7310349,65.7816957 C72.7404394,65.7760765 72.7498438,65.7695207 72.7592483,65.7639014 L73.2426384,65.7639014 L73.2426384,70.9064475 Z M42.8304406,78.2414357 C41.0755651,79.2482172 38.0097056,79.2304229 36.2237954,78.1768144 L29.227805,74.2705023 L49.773766,74.2705023 L42.8304406,78.2414357 Z M7.33230148,16.9092458 L9.23388674,15.7526178 L9.23388674,57.4689587 C9.23388674,58.3886419 9.98248311,59.1331919 10.9050623,59.1331919 L66.9435197,59.1331919 C67.8670394,59.1331919 68.6146953,58.3886419 68.6146953,57.4689587 L68.6146953,16.5187083 L69.9491906,17.6032226 L70.1955879,17.7755461 C71.9608082,18.8169796 73.5313559,21.5235828 73.5558075,23.5680515 L73.958605,56.5296082 C73.9827708,58.5572193 72.4347939,61.3050302 70.7109532,62.2958905 L70.7711419,62.3998465 L7.74891982,62.3998465 L7.80346578,62.307129 C6.23009677,61.379017 4.47240001,57.8576232 4.44512703,55.5790192 L4.04138359,22.616526 C4.01722332,20.5982804 5.53510592,17.9431869 7.33230148,16.9092458 L7.33230148,16.9092458 Z M12.5762379,55.8056621 L65.2723441,55.8056621 L65.2723441,20.3116989 L12.5762379,20.3116989 L12.5762379,55.8056621 Z M12.5762379,8.17881161 L18.9797463,8.17881161 L18.9797463,11.3686699 C18.9797463,12.2874165 19.7283427,13.0319665 20.6509219,13.0319665 L27.9610219,13.0319665 C28.8836011,13.0319665 29.631257,12.2874165 29.631257,11.3686699 L29.631257,8.17881161 L48.217325,8.17881161 L48.217325,11.3686699 C48.217325,12.2874165 48.9659214,13.0319665 49.8885006,13.0319665 L57.1976601,13.0319665 C58.1211798,13.0319665 58.8688357,12.2874165 58.8688357,11.3686699 L58.8688357,8.17881161 L65.2723441,8.17881161 L65.2723441,13.3073095 L65.0287682,13.604193 L65.2723441,13.8027397 L65.2723441,16.9841691 L12.5762379,16.9841691 L12.5762379,8.17881161 Z M22.3220975,9.70537326 L26.2898463,9.70537326 L26.2898463,3.32752979 L22.3220975,3.32752979 L22.3220975,9.70537326 Z M51.5596762,9.70537326 L55.527425,9.70537326 L55.527425,3.32752979 L51.5596762,3.32752979 L51.5596762,9.70537326 Z M75.9191526,62.7220166 C77.2103873,60.8461252 78.024815,58.5609654 78,56.4818446 L77.5969113,23.5193514 C77.5564721,20.1552965 75.28341,16.1834266 72.3962355,14.3965066 L68.6146953,11.3237159 L68.6146953,6.51551498 C68.6146953,5.59676837 67.8670394,4.85221836 66.9435197,4.85221836 L58.8688357,4.85221836 L58.8688357,1.66329662 C58.8688357,0.744550009 58.1211798,0 57.1976601,0 L49.8885006,0 C48.9659214,0 48.217325,0.744550009 48.217325,1.66329662 L48.217325,4.85221836 L29.631257,4.85221836 L29.631257,1.66329662 C29.631257,0.744550009 28.8836011,0 27.9610219,0 L20.6509219,0 C19.7283427,0 18.9797463,0.744550009 18.9797463,1.66329662 L18.9797463,4.85221836 L10.9050623,4.85221836 C9.98248311,4.85221836 9.23388674,5.59676837 9.23388674,6.51551498 L9.23388674,11.1139308 L8.2276077,11.6524418 L5.26801877,13.4487272 C2.27269283,15.1719624 -0.0417489738,19.2206287 3.76587975e-13,22.6652261 L0.404023238,55.6277194 C0.428474879,57.7162055 1.30497214,60.4546511 2.71752459,62.6573953 C2.23883671,62.9542788 1.91814404,63.4787417 1.91814404,64.081874 L1.91814404,72.5884749 C1.91814404,73.5175235 2.674264,74.2705023 3.60718812,74.2705023 L21.1371333,74.2705023 L21.0957536,74.3435525 L34.2037138,81.6616831 C35.7121919,82.5542065 37.6560973,83 39.5981218,83 C41.4865408,83 43.3721384,82.5776201 44.8467604,81.729114 L57.7779164,74.3332506 L57.7412389,74.2705023 L74.9316825,74.2705023 C75.8655471,74.2705023 76.6216671,73.5175235 76.6216671,72.5884749 L76.6216671,64.081874 C76.6216671,63.520886 76.3432945,63.0273289 75.9191526,62.7220166 L75.9191526,62.7220166 Z" fill="#185A7D" mask="url(#b)"/></g></svg>