<svg width="78" height="85" viewBox="0 0 78 85" xmlns="http://www.w3.org/2000/svg" xmlns:xlink="http://www.w3.org/1999/xlink"><title>icon-send message</title><defs><path id="a" d="M0 0L78 0 78 85 0 85z"/></defs><g fill="none" fill-rule="evenodd"><g><mask id="b" fill="#fff"><use xlink:href="#a"/></mask><path d="M74.2234331,57.691397 C74.1960997,57.9683349 74.1587441,58.1622817 74.1213884,58.3652492 L74.0931439,58.5411544 C73.7387206,61.4584742 71.9857376,64.0708916 69.411841,65.5385723 L68.6282831,65.9814925 L9.36215023,65.9814925 L8.57859233,65.5385723 C6.00469574,64.0708916 4.26082386,61.4584742 3.90731169,58.5312315 C3.89728944,58.4951484 3.89728944,58.4482404 3.8881783,58.4022344 C3.84171149,58.1902461 3.80435582,57.9773557 3.78613355,57.7653674 L3.7761113,27.8533678 L3.80435582,27.751433 C3.85082263,27.6314566 3.86995602,27.4934387 3.8881783,27.3635395 C3.90731169,27.160572 3.91642283,26.9855689 3.96288963,26.7456162 C4.13053458,25.5178882 4.55055806,24.3172226 5.19380443,23.1914294 L5.26851576,23.0525094 C5.3240937,22.9604975 5.37056051,22.8775063 5.42704957,22.7936131 L5.53911657,22.6276308 L5.52909432,22.6276308 C6.42471922,21.2799264 7.63650062,20.1351896 9.05419375,19.3323403 L34.267447,4.98569411 C35.6760289,4.19096351 37.2704782,3.75706407 38.8831497,3.73902251 L39.0517057,3.73902251 C40.7208663,3.75706407 42.3153155,4.18194274 43.7047641,4.96675047 L44.0491651,5.16971799 C44.3106548,5.30863798 57.7568728,12.9618665 64.7688049,16.9499527 L68.9362396,19.3224175 C70.3630438,20.1351896 71.5666252,21.251962 72.4330945,22.5635832 L72.6198728,22.8675835 C72.6663396,22.9514767 72.7036953,22.9974827 72.7319398,23.0434886 L72.7784066,23.1355006 C73.4498975,24.3172226 73.8690099,25.5079653 74.0466771,26.7456162 C74.0749216,26.9576045 74.102255,27.1704948 74.1213884,27.3734624 C74.1304995,27.4934387 74.1587441,27.6224358 74.1960997,27.7424122 L74.2234331,27.9363589 L74.2234331,57.691397 Z M71.0718904,73.6816291 L56.0877122,73.6726084 C55.8353337,73.6166795 55.5838663,73.6166795 55.3323989,73.6726084 L55.1920873,73.6816291 L22.630701,73.6726084 C22.406567,73.6356232 22.1733219,73.6356232 21.950099,73.6726084 L21.8198097,73.6816291 L7.36589981,73.6816291 L7.36589981,69.7206053 L71.0718904,69.7206053 L71.0718904,73.6816291 Z M46.2312827,78.7125173 C44.3480104,79.7841858 43.7047641,80.1441149 43.536208,80.2451476 L43.4897412,80.2640913 C43.1726736,80.4210528 42.8273614,80.5500499 42.4547159,80.6889699 C41.550891,81.002893 40.5896659,81.1968398 39.5919962,81.2518665 L38.9205053,81.2608873 L38.5287264,81.2518665 C37.429012,81.1968398 36.4495646,81.002893 35.5357174,80.6790471 C35.1630719,80.5500499 34.7995374,80.4021092 34.4350919,80.2271061 C34.211869,80.1251713 33.9786239,80.0051949 33.7918455,79.9041622 L29.4467436,77.4207418 L48.5154451,77.4207418 L46.2312827,78.7125173 Z M77.8697107,26.8935569 L77.8605996,26.7916221 C77.8323551,26.615717 77.8132217,26.4316931 77.7858882,26.2287256 C77.543532,24.5481545 76.9841081,22.9144915 76.1258388,21.3999028 C76.079372,21.3078908 76.0420164,21.2429412 76.0046607,21.1879145 C75.9390605,21.0679381 75.8834826,20.9840449 75.8279046,20.9010537 C75.7623044,20.7910002 75.7249487,20.7260506 75.6875931,20.661101 L76.2187724,20.20916 L75.6320151,20.5781099 C74.4193226,18.7414793 72.7592732,17.1899054 70.8295341,16.0821538 C60.9266378,10.4504818 46.1192157,2.03138913 45.9515708,1.93847511 L45.6071698,1.73550759 C43.6674084,0.636776759 41.438824,0.0368949843 39.181995,0.00893057078 C39.1072837,-9.02077857e-05 39.0425946,-9.02077857e-05 38.9861055,-9.02077857e-05 C38.9396387,-9.02077857e-05 38.8931719,-9.02077857e-05 38.8467051,0.00893057078 C36.5616316,0.0368949843 34.3421583,0.636776759 32.3841747,1.74452837 L7.17092145,16.0911746 C5.24027123,17.1899054 3.59935521,18.7225357 2.41490722,20.5230831 C2.32197361,20.6430595 2.25637342,20.7440922 2.20079547,20.8550478 C2.12608414,20.9660033 2.06959508,21.0679381 2.01401714,21.1599501 C1.95752808,21.251962 1.92108352,21.3078908 1.892839,21.3719384 C1.01634748,22.9144915 0.466034727,24.530113 0.223678447,26.1827196 C0.195433918,26.3947079 0.167189389,26.5886546 0.148967112,26.7916221 L0.129833722,26.8935569 C0.0460112488,27.2255216 -0.000455556918,27.5574862 -0.000455556918,27.890353 L-0.000455556918,57.8203942 C-0.000455556918,57.8853438 -0.000455556918,57.9502934 0.00865558145,58.0143409 C0.0460112488,58.3372848 0.0924780544,58.6701515 0.158078251,59.0300806 C0.512501533,61.7534536 1.74341633,64.3478295 3.62668863,66.3513445 L3.9346451,66.6833091 L3.74877788,67.099167 C3.64582202,67.3391197 3.58933296,67.597114 3.58933296,67.8560103 L3.58933296,75.5552448 C3.58933296,76.5800053 4.43849106,77.4207418 5.48262751,77.4207418 L21.8753877,77.4207418 L31.9368178,83.1534466 C32.2165297,83.3104082 32.515375,83.4583489 32.803287,83.5963669 C33.2980218,83.8372216 33.7827344,84.0302663 34.2765581,84.2061715 C35.5266063,84.6490917 36.8695881,84.9079881 38.2681478,84.9819584 C38.3428591,84.9909792 38.4357928,84.9909792 38.5287264,84.9909792 L39.126417,85 C39.181995,85 39.2375729,84.9909792 39.3031731,84.9909792 L39.4708181,84.9909792 C39.5637517,84.9909792 39.6575964,84.9909792 39.7878857,84.9819584 C41.1490898,84.9079881 42.4729382,84.6490917 43.7047641,84.2151923 C44.2259212,84.0302663 44.720656,83.8272988 45.1871463,83.6062897 C45.3174356,83.5413401 46.1283269,83.0893991 55.9382896,77.5127538 L56.0968234,77.4207418 L72.9651849,77.4207418 C74.0093214,77.4207418 74.8484572,76.5800053 74.8484572,75.5552448 L74.8484572,67.8560103 C74.8484572,67.5141228 74.7555236,67.1821582 74.5687453,66.8772559 L74.2981445,66.4433564 L74.6343455,66.0554629 C76.3964396,64.0708916 77.5061763,61.6424981 77.8323551,59.0481221 C77.8979553,58.7071367 77.9535332,58.3562284 77.9908889,57.9683349 C77.9908889,57.922329 78,57.8673022 78,57.8113734 L78,27.890353 C78,27.5484655 77.9535332,27.2165008 77.8697107,26.8935569 L77.8697107,26.8935569 Z" fill="#185A7D" mask="url(#b)"/></g><path d="M38.5013669,48.3185449 C38.2425718,48.3185449 37.984688,48.2469517 37.758698,48.1037654 L16.2231219,34.4196255 C15.5888917,34.0169139 15.4075529,33.1855382 15.8176155,32.5635725 C16.2285894,31.939817 17.0742295,31.7644137 17.7084597,32.1644406 L38.5013669,45.3769604 L59.2915403,32.1644406 C59.923948,31.7635188 60.7704994,31.9389221 61.1814732,32.5635725 C61.5915358,33.1855382 61.410197,34.0169139 60.7768781,34.4196255 L39.2440358,48.1037654 C39.0180457,48.2469517 38.7601619,48.3185449 38.5013669,48.3185449 L38.5013669,48.3185449 Z M16.966702,53.2942703 C16.4919407,53.2942703 16.0308481,53.0508535 15.7784318,52.6177148 C15.4039079,51.9733763 15.6317205,51.1536345 16.2878206,50.7858246 L25.1551964,45.8100991 C25.8122078,45.444079 26.646913,45.6678077 27.0205255,46.3103564 C27.3950494,46.9546949 27.1672368,47.7744368 26.5120479,48.1422467 L17.6437609,53.1170772 C17.4296171,53.2369958 17.1963371,53.2942703 16.966702,53.2942703 L16.966702,53.2942703 Z M60.0323867,53.2942703 C59.8027517,53.2942703 59.5703829,53.2369958 59.3562391,53.1170772 L50.4879521,48.1422467 C49.8327632,47.7744368 49.6049506,46.9546949 49.9794745,46.3103564 C50.353087,45.6660179 51.1877922,45.4431841 51.8438924,45.8100991 L60.7121794,50.7858246 C61.3673683,51.1536345 61.5951808,51.9733763 61.220657,52.6177148 C60.9682407,53.0508535 60.5071481,53.2942703 60.0323867,53.2942703 L60.0323867,53.2942703 Z M13.1658774,24.6847439 C11.8245171,24.6847439 10.7337506,25.7559568 10.7337506,27.0741661 L10.7337506,56.9267289 C10.7337506,58.2440432 11.8245171,59.3152561 13.1658774,59.3152561 L63.8332113,59.3152561 C65.1745716,59.3152561 66.2662494,58.2440432 66.2662494,56.9267289 L66.2662494,27.0741661 C66.2662494,25.7559568 65.1745716,24.6847439 63.8332113,24.6847439 L13.1658774,24.6847439 Z M63.8332113,62 L13.1658774,62 C10.3173093,62 8,59.7242321 8,56.9267289 L8,27.0741661 C8,24.2766629 10.3173093,22 13.1658774,22 L63.8332113,22 C66.6817795,22 69,24.2766629 69,27.0741661 L69,56.9267289 C69,59.7242321 66.6817795,62 63.8332113,62 L63.8332113,62 Z" fill="#185A7D"/></g></svg>